<?xml version="1.0" encoding="utf-8"?>
<!-- Generator: Adobe Illustrator 27.5.0, SVG Export Plug-In . SVG Version: 6.00 Build 0)  -->
<svg version="1.1" xmlns="http://www.w3.org/2000/svg" xmlns:xlink="http://www.w3.org/1999/xlink" x="0px" y="0px"
	 viewBox="0 0 3710 3710" style="enable-background:new 0 0 3710 3710;" xml:space="preserve">
<g id="Background">
	<g>
		<g>
			<rect style="fill:#FFFFFF;" width="3710" height="3710"/>
		</g>
	</g>
</g>
<g id="Illustration">
	<g>
		<linearGradient id="SVGID_1_" gradientUnits="userSpaceOnUse" x1="3492.0305" y1="3696.0596" x2="1536.6803" y2="1614.5583">
			<stop  offset="0" style="stop-color:#DAE3FE"/>
			<stop  offset="1" style="stop-color:#E9EFFD"/>
		</linearGradient>
		<path style="fill:url(#SVGID_1_);" d="M2904.938,2860.97c-72.183,74.405-136.771,118.142-186.221,151.16
			c-482.279,322.022-1033.577,229.208-1204.024,197.484c-274.996-51.183-507.131-87.29-706.576-267.48
			c-453.2-409.448-431.157-1263.587-84.857-1792.689c41.061-62.736,386.836-575.283,939.327-647.505
			c13.513-1.766,23.596-2.772,32.427-3.707c85.469-9.049,615.104-56.809,1046.968,305.007
			c61.819,51.792,161.304,145.212,253.559,287.692C3332.868,1611.904,3333.936,2418.775,2904.938,2860.97z"/>
		<g>
			
				<linearGradient id="SVGID_00000035491151202281529500000006714977807436743592_" gradientUnits="userSpaceOnUse" x1="2596.2297" y1="303.4494" x2="2436.1519" y2="1096.2188">
				<stop  offset="0" style="stop-color:#E1473D"/>
				<stop  offset="1" style="stop-color:#E9605A"/>
			</linearGradient>
			<path style="fill:url(#SVGID_00000035491151202281529500000006714977807436743592_);" d="M2706.778,448.945h-314.451
				c-28.284,0-52.596,21.397-52.596,49.681v80.688c0,28.283,24.313,50.123,52.596,50.123h97.116c2.431,0,4.636,1.969,5.635,4.186
				l40.239,89.601c0.868,1.927,2.757,3.33,4.869,3.403c2.112,0.072,4.083-0.994,5.081-2.857l48.249-90.562
				c1.076-2.007,3.169-3.771,5.447-3.771h107.815c28.284,0,50.76-21.84,50.76-50.123v-80.688
				C2757.538,470.342,2735.062,448.945,2706.778,448.945z"/>
			<path style="fill:#FFFFFF;" d="M2451.285,506.183c-9.648-9.484-24.697-6.631-35.057,2.067c-1.485,1.247-3.637,1.261-5.143,0.04
				c-10.499-8.514-25.531-11.106-35.013-1.459c-10.295,10.475-10.151,27.312,0.324,37.607l35.048,34.449
				c1.592,1.565,4.152,1.543,5.717-0.049l34.449-35.047C2461.905,533.315,2461.76,516.478,2451.285,506.183z"/>
			<g>
				<path style="fill:#FFFFFF;" d="M2488.731,587.089v-11.452l11.76-10.843c23.367-21.687,34.362-33.599,34.515-46.733
					c0-8.857-4.733-16.649-17.715-16.649c-8.705,0-16.189,4.429-21.228,8.249l-5.5-13.286c7.179-5.806,18.023-10.235,30.546-10.235
					c21.991,0,32.683,13.899,32.683,30.088c0,17.411-12.523,31.461-29.782,47.498l-8.705,7.484v0.304h40.777v15.577H2488.731z"/>
				<path style="fill:#FFFFFF;" d="M2633.648,503.396h-38.18l-2.901,19.853c2.291-0.304,4.275-0.457,7.177-0.457
					c8.705,0,17.41,1.986,24.13,6.415c7.484,4.733,12.982,13.134,12.982,25.199c0,18.94-15.731,34.364-40.167,34.364
					c-11.454,0-21.076-2.903-26.268-5.806l3.818-14.203c4.277,2.29,12.828,5.193,21.839,5.193c10.995,0,21.535-6.263,21.535-18.175
					c0-11.3-8.401-18.784-28.254-18.784c-5.498,0-9.622,0.304-13.593,0.917l6.567-50.093h51.314V503.396z"/>
				<path style="fill:#FFFFFF;" d="M2722.517,536.844c0,31.918-12.523,51.927-36.194,51.927c-22.91,0-35.127-20.77-35.279-51.01
					c0-30.852,13.134-51.622,36.346-51.622C2711.369,486.138,2722.517,507.521,2722.517,536.844z M2669.979,537.76
					c-0.152,24.13,6.569,36.655,16.954,36.655c10.996,0,16.8-13.442,16.8-37.267c0-23.06-5.5-36.651-16.8-36.651
					C2676.853,500.497,2669.827,512.866,2669.979,537.76z"/>
			</g>
		</g>
		<g>
			<g>
				<g>
					
						<linearGradient id="SVGID_00000017518487340452190480000003759910138583226283_" gradientUnits="userSpaceOnUse" x1="1321.8645" y1="1255.6259" x2="1504.5851" y2="740.8898">
						<stop  offset="0" style="stop-color:#53D8FF"/>
						<stop  offset="1" style="stop-color:#3840F7"/>
					</linearGradient>
					<path style="fill:url(#SVGID_00000017518487340452190480000003759910138583226283_);" d="M1584.909,787.143
						c0.068-1.53,0.128-2.935,0.178-4.153c0.141-3.436-1.221-6.738-3.759-9.059c-14.868-13.6-70.59-60.288-149.805-75.4
						c-4.27-0.814-7.996,1.083-10.106,4.117c6.606,0.862,15.455,2.631,27.37,5.879
						C1487.913,719.19,1544.688,747.129,1584.909,787.143z"/>
					<path style="fill:#7D97F4;" d="M1448.787,708.526c-11.915-3.248-20.764-5.017-27.37-5.879c-2.123,3.051-2.609,7.252-0.356,11
						c1.267,2.11,2.829,4.394,4.751,6.847c12.276,15.663,111.689,119.555,111.689,119.555s31.827,4.181,41.618-1.374
						c3.174-1.8,5.044-34.859,5.79-51.533C1544.688,747.129,1487.913,719.19,1448.787,708.526z"/>
				</g>
				
					<linearGradient id="SVGID_00000084530386687899919720000010510665071338109623_" gradientUnits="userSpaceOnUse" x1="1541.0148" y1="767.6222" x2="1584.3708" y2="1064.2694" gradientTransform="matrix(1 0.0092 -0.0092 1 7.8082 -5.8229)">
					<stop  offset="0" style="stop-color:#FEBBBA"/>
					<stop  offset="1" style="stop-color:#FF928E"/>
				</linearGradient>
				<path style="fill:url(#SVGID_00000084530386687899919720000010510665071338109623_);" d="M1580.109,894.059l0.563-61.33
					c0.048-5.194-3.207-9.891-8.139-11.523c-7.589-2.513-19.271-4.907-29.949-1.017c-6.264,2.281-10.516,8.166-11.107,14.807
					l-5.096,57.237L1580.109,894.059z"/>
				<g>
					<path style="fill:#7D97F4;" d="M1337.375,837.517c-0.712-2.422-2.11-4.455-3.912-5.982
						c-12.895,2.424-39.771,9.269-94.878,28.159c-63.885,21.9-82.705,41.362-88.172,51.812c27.212,8.239,89.11,21.025,178.223,4.456
						l17.651-8.079C1346.288,907.884,1345.449,865.016,1337.375,837.517z"/>
					
						<linearGradient id="SVGID_00000171720887420098923400000010917980296963151766_" gradientUnits="userSpaceOnUse" x1="1234.3279" y1="567.8113" x2="1236.5563" y2="759.4456">
						<stop  offset="0" style="stop-color:#53D8FF"/>
						<stop  offset="1" style="stop-color:#3840F7"/>
					</linearGradient>
					<path style="fill:url(#SVGID_00000171720887420098923400000010917980296963151766_);" d="M1238.586,859.694
						c55.107-18.89,81.983-25.735,94.878-28.159c-2.811-2.381-6.621-3.501-10.482-2.734c-31.685,6.29-127.45,27.907-177.762,67.933
						c-5.023,3.997-3.636,11.987,2.481,13.932c0.859,0.273,1.77,0.555,2.714,0.84
						C1155.881,901.056,1174.701,881.594,1238.586,859.694z"/>
				</g>
				
					<linearGradient id="SVGID_00000048482383777919838000000013345941035270663051_" gradientUnits="userSpaceOnUse" x1="1322.5732" y1="799.5508" x2="1365.9292" y2="1096.1984" gradientTransform="matrix(1 0.0092 -0.0092 1 7.8082 -5.8229)">
					<stop  offset="0" style="stop-color:#FEBBBA"/>
					<stop  offset="1" style="stop-color:#FF928E"/>
				</linearGradient>
				<path style="fill:url(#SVGID_00000048482383777919838000000013345941035270663051_);" d="M1378.861,945.228l-37.016-45.195
					c-3.604-4.401-9.516-6.183-14.936-4.458c-6.007,1.912-14.005,5.898-21.785,14.202c-3.628,3.872-4.387,9.653-1.997,14.391
					l26.742,53.014L1378.861,945.228z"/>
				
					<linearGradient id="SVGID_00000175302712950392190430000017821854979313135765_" gradientUnits="userSpaceOnUse" x1="1633.7257" y1="626.0311" x2="1512.7843" y2="1306.0442" gradientTransform="matrix(1 0.0092 -0.0092 1 7.8082 -5.8229)">
					<stop  offset="0" style="stop-color:#09005D"/>
					<stop  offset="1" style="stop-color:#1A0F91"/>
				</linearGradient>
				<path style="fill:url(#SVGID_00000175302712950392190430000017821854979313135765_);" d="M1518.365,872.137
					c0,0,45.753-8.349,71.016,0.652c0,0,31.561,200.771,25.229,265.175l-98.863,19.151
					C1515.746,1157.115,1515.019,931.229,1518.365,872.137z"/>
				
					<linearGradient id="SVGID_00000031901070277168111960000018078681673197749400_" gradientUnits="userSpaceOnUse" x1="1785.5385" y1="578.3655" x2="1703.0907" y2="836.8501">
					<stop  offset="0" style="stop-color:#09005D"/>
					<stop  offset="1" style="stop-color:#1A0F91"/>
				</linearGradient>
				<path style="fill:url(#SVGID_00000031901070277168111960000018078681673197749400_);" d="M1920.127,1227.094
					c0,0-322.854,15.152-453.739,4.913c-12.821-1.004-24.13-8.699-29.77-20.256c-27.555-56.451-110.187-225.854-117.424-242.015
					c0,0,34.454-28.252,59.736-31.965c0,0,118.294,134.057,122.668,201.938c0,0,277.503-77.058,304.832-76.053
					c27.329,1.006,110.813,39.18,110.813,39.18L1920.127,1227.094z"/>
				
					<linearGradient id="SVGID_00000042014016025745516330000009108591360422310278_" gradientUnits="userSpaceOnUse" x1="2216.9683" y1="901.407" x2="2332.1426" y2="901.407" gradientTransform="matrix(1 0.0092 -0.0092 1 7.8082 -5.8229)">
					<stop  offset="0" style="stop-color:#FEBBBA"/>
					<stop  offset="1" style="stop-color:#FF928E"/>
				</linearGradient>
				<path style="fill:url(#SVGID_00000042014016025745516330000009108591360422310278_);" d="M2293.073,852.222l-72.729,69.362
					c-4.849,4.624-5.37,12.24-1.11,17.412c21.99,26.697,40.944,40.764,56.8,41.956c6.725,0.506,13.131-2.988,16.796-8.65
					l38.871-60.064L2293.073,852.222z"/>
				
					<linearGradient id="SVGID_00000128461110757696290550000010393710551807906693_" gradientUnits="userSpaceOnUse" x1="2586.4155" y1="1131.377" x2="2277.4961" y2="1388.0964" gradientTransform="matrix(1 0.0092 -0.0092 1 7.8082 -5.8229)">
					<stop  offset="0" style="stop-color:#FEBBBA"/>
					<stop  offset="1" style="stop-color:#FF928E"/>
				</linearGradient>
				<path style="fill:url(#SVGID_00000128461110757696290550000010393710551807906693_);" d="M2435.397,1198.611l43.539-16.485
					c11.576-4.382,24.608-2.285,34.223,5.509l56.037,45.422l-129.098-0.705L2435.397,1198.611z"/>
				
					<linearGradient id="SVGID_00000118394591505824646160000015853702836112198306_" gradientUnits="userSpaceOnUse" x1="2283.8713" y1="696.0645" x2="1883.0287" y2="2251.7188" gradientTransform="matrix(1 0.0092 -0.0092 1 7.8082 -5.8229)">
					<stop  offset="0" style="stop-color:#FDF53F"/>
					<stop  offset="1" style="stop-color:#D93C65"/>
				</linearGradient>
				<path style="fill:url(#SVGID_00000118394591505824646160000015853702836112198306_);" d="M2207.667,1010.679
					c0,0,3.565-85.607-31.597-87.65c-43.664-2.538-114.167,28.475-73.524,154.361c22.456,69.549,56.784,121.317,152.126,143.992
					c4.973-35.094,21.123-59.432,33.022-73.132C2249.021,1120.464,2216.437,1077.42,2207.667,1010.679z"/>
				
					<linearGradient id="SVGID_00000124883111233877679430000009319960079751548586_" gradientUnits="userSpaceOnUse" x1="2228.647" y1="875.5997" x2="1827.799" y2="2431.2756" gradientTransform="matrix(1 0.0092 -0.0092 1 7.8082 -5.8229)">
					<stop  offset="0" style="stop-color:#4F52FF"/>
					<stop  offset="1" style="stop-color:#4042E2"/>
				</linearGradient>
				<path style="fill:url(#SVGID_00000124883111233877679430000009319960079751548586_);" d="M2404.266,1148.294
					c-7.997,7.644-12.905,12.504-12.905,12.504l-31.363-79.476c-14.536-53.27-46.059-100.341-89.785-134.062l-30.454-23.486
					c-29.925-23.079-78.18-15.645-109.126,6.047c-68.708,48.16-170.782,129.021-205.634,156.837
					c-7.493,5.981-17.694,7.239-26.425,3.277l-5.748-2.608c-5.433-2.465-11.493,1.892-10.886,7.828l13.453,134.42l234.514-0.552
					c28.116,0.258,109.591-1.891,122.779-26.726l22.171-53.022c50.416,43.682,115.322,73.966,150.163,82.939
					c1.122,0.289,2.665-0.287,4.5-1.479C2407.655,1208.226,2404.01,1171.866,2404.266,1148.294z"/>
				
					<linearGradient id="SVGID_00000025430064926566582010000001986132591844617369_" gradientUnits="userSpaceOnUse" x1="2554.7449" y1="765.8524" x2="2153.8992" y2="2321.5193" gradientTransform="matrix(1 0.0092 -0.0092 1 7.8082 -5.8229)">
					<stop  offset="0" style="stop-color:#FEBBBA"/>
					<stop  offset="1" style="stop-color:#FF928E"/>
				</linearGradient>
				<path style="fill:url(#SVGID_00000025430064926566582010000001986132591844617369_);" d="M2534.45,1060.862
					c-3.101-30.862-95.576,54.354-130.184,87.432c-0.256,23.573,3.389,59.932,25.252,82.441
					C2453.933,1214.876,2536.081,1077.096,2534.45,1060.862z"/>
				<path style="fill:#7D97F4;" d="M2283.309,1148.455c-0.681-0.007-1.368-0.217-1.962-0.644
					c-44.534-31.997-69.025-75.432-77.074-136.685c-0.026-0.194-0.034-0.391-0.027-0.588c0.946-22.877-2.306-82.576-28.374-84.091
					c-12.604-0.721-25.853,1.524-37.31,6.359c-1.743,0.732-3.75-0.081-4.485-1.823c-0.735-1.742,0.081-3.751,1.823-4.487
					c12.402-5.234,26.739-7.653,40.369-6.886c37.351,2.172,35.074,84.317,34.829,90.911c7.824,59.098,31.422,100.964,74.243,131.731
					c1.536,1.104,1.885,3.243,0.782,4.778C2285.449,1147.97,2284.385,1148.464,2283.309,1148.455z"/>
				<path style="fill:#7D97F4;" d="M2224.31,1215.921c-0.37-0.004-0.746-0.067-1.115-0.198
					c-79.008-28.081-106.243-82.577-123.905-137.279c-3.999-12.392-7.066-24.321-9.114-35.462c-0.342-1.859,0.888-3.643,2.747-3.983
					c1.862-0.344,3.644,0.889,3.985,2.747c1.996,10.847,4.989,22.484,8.897,34.591c17.123,53.036,43.474,105.849,119.683,132.935
					c1.781,0.635,2.712,2.589,2.08,4.372C2227.065,1215.057,2225.729,1215.934,2224.31,1215.921z"/>
				
					<linearGradient id="SVGID_00000124860525453151920410000012333929788562275715_" gradientUnits="userSpaceOnUse" x1="2520.3064" y1="1051.8279" x2="2211.3894" y2="1308.5453" gradientTransform="matrix(1 0.0092 -0.0092 1 7.8082 -5.8229)">
					<stop  offset="0" style="stop-color:#FEBBBA"/>
					<stop  offset="1" style="stop-color:#FF928E"/>
				</linearGradient>
				<path style="fill:url(#SVGID_00000124860525453151920410000012333929788562275715_);" d="M2452.643,1231.987l0.159-33.216
					c0,0-93.115,1.205-165.108-50.521c-11.9,13.7-28.049,38.038-33.022,73.132
					C2302.916,1232.855,2366.766,1236.888,2452.643,1231.987z"/>
				<g>
					
						<linearGradient id="SVGID_00000046340268622029581120000010499180815733557164_" gradientUnits="userSpaceOnUse" x1="1744.733" y1="-15813.917" x2="1702.3951" y2="-15744.8389" gradientTransform="matrix(-0.9865 -0.1635 -0.2088 1.2596 -5593.8945 -1140.5688)">
						<stop  offset="0" style="stop-color:#09005D"/>
						<stop  offset="1" style="stop-color:#1A0F91"/>
					</linearGradient>
					<path style="fill:url(#SVGID_00000046340268622029581120000010499180815733557164_);" d="M2561.923,968.988l-64.208-8.46
						c-7.655-1.269-15.557,3.216-20.288,11.516l-42.236,93.359c-7.951,13.949-2.295,32.454,10.571,34.587l51.56,6.613
						c4.933,0.818,10.003-2.296,12.787-7.854l57.123-114.015C2570.531,978.147,2567.771,969.957,2561.923,968.988z"/>
				</g>
				
					<linearGradient id="SVGID_00000109745496031148665700000015466702343794269102_" gradientUnits="userSpaceOnUse" x1="2502.2036" y1="1013.5343" x2="2549.8235" y2="1013.5343" gradientTransform="matrix(1 0.0092 -0.0092 1 7.8082 -5.8229)">
					<stop  offset="0" style="stop-color:#FEBBBA"/>
					<stop  offset="1" style="stop-color:#FF928E"/>
				</linearGradient>
				<path style="fill:url(#SVGID_00000109745496031148665700000015466702343794269102_);" d="M2548.386,1022.585
					c0,0-19.622-26.317-36.338-27.516c-16.717-1.199-12.867,34.958-0.57,61.965
					C2523.776,1084.041,2541.874,1048.662,2548.386,1022.585z"/>
				
					<linearGradient id="SVGID_00000150062791148666715290000005990312764056181151_" gradientUnits="userSpaceOnUse" x1="2348.6667" y1="833.3448" x2="2330.4854" y2="1032.0419">
					<stop  offset="0" style="stop-color:#FEBBBA"/>
					<stop  offset="1" style="stop-color:#FF928E"/>
				</linearGradient>
				<path style="fill:url(#SVGID_00000150062791148666715290000005990312764056181151_);" d="M2414.096,837.142
					c0,0-24.143,67.411-50.908,88.439c-26.766,21.026-65.768,39.631-81.723-76.663l26.4-43.148
					c5.259-8.595,16.168-11.817,25.253-7.461C2398.906,769.486,2400.333,847.363,2414.096,837.142z"/>
				
					<linearGradient id="SVGID_00000053532668686095502280000011178557256594575521_" gradientUnits="userSpaceOnUse" x1="2361.166" y1="646.376" x2="2399.6628" y2="865.9514">
					<stop  offset="0" style="stop-color:#09005D"/>
					<stop  offset="1" style="stop-color:#1A0F91"/>
				</linearGradient>
				<path style="fill:url(#SVGID_00000053532668686095502280000011178557256594575521_);" d="M2500.087,796.375
					c-11.804,10.655-77.49-56.917-97.285-69.01c-11.721-7.161-27.546-0.636-38.506,5.878c-7.731,4.595-17.202,5.199-25.447,1.609
					c-4.898-2.133-11.691-4.799-21.11-8.085c-33.116-11.55-40.162,64.807-40.162,64.807s-2.609,52.536,0,57.402
					c2.609,4.867,12.326-3.401,23.928-32.088c11.603-28.685,79.869-5.194,98.7,18.831c18.831,24.026,31.817,16.234,55.193,13.257
					c23.376-2.975-2.597-12.608,26.766-18.777C2511.527,824.029,2511.891,785.718,2500.087,796.375z"/>
				
					<linearGradient id="SVGID_00000132061807569185610810000000481438122965597844_" gradientUnits="userSpaceOnUse" x1="2295.6384" y1="828.4924" x2="2277.457" y2="1027.1884">
					<stop  offset="0" style="stop-color:#FEBBBA"/>
					<stop  offset="1" style="stop-color:#FF928E"/>
				</linearGradient>
				<path style="fill:url(#SVGID_00000132061807569185610810000000481438122965597844_);" d="M2306.854,838.216
					c0,0,4.439-37.854-12.698-31.427c-17.138,6.427-10.089,37.296,2.961,47.552L2306.854,838.216z"/>
			</g>
			<g>
				<path style="fill:#7D97F4;" d="M2287.752,1129.112l-1.971-3.363c16.96-9.942,23.14-71.08,23.201-71.696l3.877,0.381
					C2312.604,1057.032,2306.412,1118.174,2287.752,1129.112z"/>
			</g>
		</g>
		<g>
			
				<linearGradient id="SVGID_00000039092161590854116750000011651686516056695941_" gradientUnits="userSpaceOnUse" x1="2188.8679" y1="-179.8265" x2="1907.1664" y2="1194.3304">
				<stop  offset="0" style="stop-color:#FF928E"/>
				<stop  offset="1" style="stop-color:#FE7062"/>
			</linearGradient>
			<path style="fill:url(#SVGID_00000039092161590854116750000011651686516056695941_);" d="M2882.27,2743.876H612.19
				c-34.594,0-62.899-28.304-62.899-62.899V1268.041c0-34.594,28.305-62.899,62.899-62.899h2270.08
				c34.594,0,62.899,28.304,62.899,62.899v1412.936C2945.169,2715.572,2916.864,2743.876,2882.27,2743.876z"/>
			
				<linearGradient id="SVGID_00000171685604985849273560000003922930005752260257_" gradientUnits="userSpaceOnUse" x1="2371.9128" y1="-81.5741" x2="2097.8325" y2="1255.4064">
				<stop  offset="0" style="stop-color:#FF928E"/>
				<stop  offset="1" style="stop-color:#FE7062"/>
			</linearGradient>
			<polygon style="fill:url(#SVGID_00000171685604985849273560000003922930005752260257_);" points="1509.211,2724.415 
				1782.014,3097.417 2085.781,2716.518 			"/>
			<path style="fill:#FFFFFF;" d="M2373.87,1869.039c-10.354-194.29-142.385-357.523-306.817-378.19
				c-130.778-16.434-247.144,57.49-309.086,177.092c-62.09-125.485-179.534-211.046-312.786-207.413
				c-169.466,4.619-307.12,158.489-317.974,356.49c-7.173,130.835,40.306,251.084,118.254,332.15l478.366,389.632
				c20.663,16.829,47.609,17.587,68.235,1.939l468.558-355.497C2335.38,2111.33,2380.708,1997.337,2373.87,1869.039z"/>
		</g>
		<g>
			<g>
				
					<linearGradient id="SVGID_00000155111359842415356060000018334481580714519957_" gradientUnits="userSpaceOnUse" x1="1151.1814" y1="1495.0706" x2="1322.7606" y2="1192.0212">
					<stop  offset="0" style="stop-color:#E1473D"/>
					<stop  offset="1" style="stop-color:#E9605A"/>
				</linearGradient>
				<path style="fill:url(#SVGID_00000155111359842415356060000018334481580714519957_);" d="M1328.83,1391.518H972.617
					c-32.04,0-56.772,25.519-56.772,57.56v91.405c0,32.04,24.732,58.267,56.772,58.267h110.014c2.754,0,5.252,1.487,6.383,3.998
					l45.583,101.129c0.984,2.183,3.122,3.587,5.516,3.669c2.393,0.082,4.625-1.219,5.756-3.33l54.656-101.892
					c1.219-2.273,3.59-3.575,6.17-3.575h122.134c32.04,0,58.3-26.228,58.3-58.267v-91.405
					C1387.131,1417.037,1360.87,1391.518,1328.83,1391.518z"/>
				<path style="fill:#FFFFFF;" d="M1039.405,1457.638c-10.93-10.743-27.977-7.511-39.713,2.341
					c-1.682,1.412-4.12,1.429-5.826,0.046c-11.893-9.645-28.922-12.582-39.664-1.653c-11.662,11.866-11.499,30.939,0.367,42.602
					l39.702,39.025c1.804,1.772,4.703,1.747,6.476-0.056l39.024-39.702C1051.435,1488.375,1051.271,1469.301,1039.405,1457.638z"/>
				<g>
					<path style="fill:#FFFFFF;" d="M1115.213,1456.04h-0.345l-20.589,10.381l-3.633-16.089l27.338-13.495h17.818v112.455h-20.589
						V1456.04z"/>
					<path style="fill:#FFFFFF;" d="M1174.536,1549.292v-12.976l13.322-12.284c26.472-24.567,38.928-38.062,39.101-52.94
						c0-10.034-5.361-18.858-20.068-18.858c-9.861,0-18.339,5.017-24.05,9.342l-6.228-15.051
						c8.133-6.575,20.417-11.592,34.601-11.592c24.912,0,37.023,15.745,37.023,34.084c0,19.722-14.184,35.637-33.734,53.804
						l-9.861,8.478v0.345h46.19v17.648H1174.536z"/>
					<path style="fill:#FFFFFF;" d="M1338.701,1454.484h-43.251l-3.285,22.49c2.595-0.345,4.84-0.517,8.129-0.517
						c9.862,0,19.723,2.248,27.334,7.265c8.478,5.364,14.706,14.88,14.706,28.548c0,21.453-17.818,38.926-45.501,38.926
						c-12.973,0-23.873-3.286-29.756-6.575l4.327-16.089c4.845,2.595,14.529,5.883,24.74,5.883c12.456,0,24.395-7.094,24.395-20.589
						c0-12.801-9.516-21.279-32.006-21.279c-6.228,0-10.9,0.345-15.4,1.037l7.439-56.746h58.129V1454.484z"/>
				</g>
			</g>
			<g>
				
					<linearGradient id="SVGID_00000140002082975860189610000010473601594502268306_" gradientUnits="userSpaceOnUse" x1="1162.7426" y1="1907.7012" x2="1791.1249" y2="1058.7175">
					<stop  offset="0" style="stop-color:#4F52FF"/>
					<stop  offset="1" style="stop-color:#4042E2"/>
				</linearGradient>
				<path style="fill:url(#SVGID_00000140002082975860189610000010473601594502268306_);" d="M967.56,1929.97
					c0,0,66.759,63.134,88.826,175.678c22.067,112.543,74.477-159.282,74.477-159.282h52.962c0,0,19.978,280.088-129.544,302.341
					c-28.503,4.242-57.104-6.945-74.933-29.584c-27.301-34.671-69.903-96.306-80.192-155.104
					C907.983,1971.336,967.56,1929.97,967.56,1929.97z"/>
				
					<linearGradient id="SVGID_00000017510634135167733840000007891074319292536968_" gradientUnits="userSpaceOnUse" x1="-2659.8376" y1="3557.7957" x2="-2653.2922" y2="3361.4402" gradientTransform="matrix(-1 0 0 1 -1965.376 0)">
					<stop  offset="0" style="stop-color:#4F52FF"/>
					<stop  offset="1" style="stop-color:#4042E2"/>
				</linearGradient>
				<path style="fill:url(#SVGID_00000017510634135167733840000007891074319292536968_);" d="M628.356,3226.051
					c-0.013-0.828,0.042-1.667,0.255-2.513c12.524-49.655,63.736-75.106,63.736-75.106l24.633,1.93
					c14.162,43.765,23.295,65.131,21.021,77.086c-0.063,0.335-0.165,0.654-0.254,0.978
					C717.428,3230.243,675.603,3231.428,628.356,3226.051z"/>
				<path style="fill:#7D97F4;" d="M737.748,3228.427c-1.098,3.993-4.044,7.101-7.817,7.894
					c-28.906,6.079-74.848,1.186-94.137-1.335c-4.256-0.556-7.367-4.492-7.437-8.935
					C675.603,3231.428,717.428,3230.243,737.748,3228.427z"/>
				
					<linearGradient id="SVGID_00000116192971374728801020000013132413376771309187_" gradientUnits="userSpaceOnUse" x1="7341.1274" y1="3060.1243" x2="7319.1685" y2="3251.7693" gradientTransform="matrix(1 0 0 1 -6638.873 0)">
					<stop  offset="0" style="stop-color:#FEBBBA"/>
					<stop  offset="1" style="stop-color:#FF928E"/>
				</linearGradient>
				<path style="fill:url(#SVGID_00000116192971374728801020000013132413376771309187_);" d="M672.063,3110.098l10.786,51.921
					c0.79,3.804,3.713,6.653,7.255,6.986c4.334,0.406,10.504,0.645,16.708-0.266c5.565-0.817,9.44-6.471,8.452-12.54l-7.497-46.101
					H672.063z"/>
				<path style="fill:#7D97F4;" d="M947.051,3227.997c-26.309-0.737-39.916-3.836-46.952-6.71c-0.015,2.615-0.001,5.278,0.083,8.036
					c0.092,2.946,2.273,5.299,4.958,5.282l144.45-0.932c4.611-0.031,7.305-5.376,5.307-9.604
					C1035.957,3225.634,987.719,3229.135,947.051,3227.997z"/>
				
					<linearGradient id="SVGID_00000015352348592645662020000011481877930477184139_" gradientUnits="userSpaceOnUse" x1="7601.1123" y1="3679.2246" x2="7607.6577" y2="3482.866" gradientTransform="matrix(1 0 0 1 -6638.873 0)">
					<stop  offset="0" style="stop-color:#4F52FF"/>
					<stop  offset="1" style="stop-color:#4042E2"/>
				</linearGradient>
				<path style="fill:url(#SVGID_00000015352348592645662020000011481877930477184139_);" d="M1054.897,3224.069
					c-0.175-0.368-0.324-0.743-0.572-1.089c-12.757-17.824-45.248-53.32-109.452-68.715l-30.8-0.972
					c0,0-13.715,23.838-13.974,67.994c7.036,2.875,20.643,5.974,46.952,6.71C987.719,3229.135,1035.957,3225.634,1054.897,3224.069z
					"/>
				
					<linearGradient id="SVGID_00000025435346315974246350000008443754453766850182_" gradientUnits="userSpaceOnUse" x1="7572.4521" y1="3084.6428" x2="7551.9106" y2="3263.9133" gradientTransform="matrix(1 0 0 1 -6638.873 0)">
					<stop  offset="0" style="stop-color:#FEBBBA"/>
					<stop  offset="1" style="stop-color:#FF928E"/>
				</linearGradient>
				<path style="fill:url(#SVGID_00000025435346315974246350000008443754453766850182_);" d="M908.361,3106.616
					c0.343,2.294,4.564,37.188,6.199,50.717c0.388,3.215,2.717,5.703,5.653,6.053c5.244,0.627,13.731,1.197,21.156-0.325
					c4.006-0.821,6.905-4.669,6.905-9.143v-54.773L908.361,3106.616z"/>
				
					<linearGradient id="SVGID_00000099651844860103490860000003453723293930336896_" gradientUnits="userSpaceOnUse" x1="803.1465" y1="2812.6194" x2="1404.8486" y2="1839.8662">
					<stop  offset="0" style="stop-color:#09005D"/>
					<stop  offset="1" style="stop-color:#1A0F91"/>
				</linearGradient>
				<path style="fill:url(#SVGID_00000099651844860103490860000003453723293930336896_);" d="M692.645,2428.308
					c0,0-49.286,438.099-21.905,711.91c0,0,32.857,0,49.286-5.477c0,0,51.215-428.346,67.785-550.92
					c0.624-4.621,7.22-4.83,8.128-0.256c20.441,103.121,100.732,507.511,110.279,545.701c0,0,27.382,10.953,49.287,0
					c0,0-43.81-585.956-76.667-690.004L692.645,2428.308z"/>
				
					<linearGradient id="SVGID_00000114796370207069985860000010819978326048377751_" gradientUnits="userSpaceOnUse" x1="1017.1326" y1="1799.9258" x2="1645.5161" y2="950.9403">
					<stop  offset="0" style="stop-color:#4F52FF"/>
					<stop  offset="1" style="stop-color:#4042E2"/>
				</linearGradient>
				<path style="fill:url(#SVGID_00000114796370207069985860000010819978326048377751_);" d="M594.073,1919.018
					c0,0,208.097-32.857,372.384,10.952l-10.953,169.764c0,0-43.81,235.477-76.667,339.526c0,0-125.953,21.905-186.192-10.952
					c0,0-49.286-295.717-76.667-339.527C615.978,2088.781,588.596,1973.78,594.073,1919.018z"/>
				
					<linearGradient id="SVGID_00000130607968009267672580000013209159606719367851_" gradientUnits="userSpaceOnUse" x1="5544.9429" y1="1845.2246" x2="5643.4146" y2="1845.2246" gradientTransform="matrix(1 0 0 1 -4827.0376 0)">
					<stop  offset="0" style="stop-color:#FEBBBA"/>
					<stop  offset="1" style="stop-color:#FF928E"/>
				</linearGradient>
				<path style="fill:url(#SVGID_00000130607968009267672580000013209159606719367851_);" d="M738.635,1769.382l-20.73,140.192
					c0,0,57.917,26.605,98.472-1.142l-8.732-98.938L738.635,1769.382z"/>
				
					<linearGradient id="SVGID_00000033346073334607359450000010681667565875994525_" gradientUnits="userSpaceOnUse" x1="934.3032" y1="1738.6196" x2="1562.6848" y2="889.6368">
					<stop  offset="0" style="stop-color:#4F52FF"/>
					<stop  offset="1" style="stop-color:#4042E2"/>
				</linearGradient>
				<path style="fill:url(#SVGID_00000033346073334607359450000010681667565875994525_);" d="M594.073,1919.018
					c0,0-323.097,350.479,57.501,484.646v-27.381c0,0-142.383-120.477-32.858-284.763
					C618.715,2091.52,605.025,1935.447,594.073,1919.018z"/>
				
					<linearGradient id="SVGID_00000160153460171479593070000013261935396892146844_" gradientUnits="userSpaceOnUse" x1="5568.9087" y1="2347.718" x2="5393.6689" y2="2497.4014" gradientTransform="matrix(1 0 0 1 -4827.0376 0)">
					<stop  offset="0" style="stop-color:#FEBBBA"/>
					<stop  offset="1" style="stop-color:#FF928E"/>
				</linearGradient>
				<path style="fill:url(#SVGID_00000160153460171479593070000013261935396892146844_);" d="M654.311,2379.022
					c0,0,49.286-32.857,71.191-21.906c21.905,10.953,21.905,27.381,21.905,27.381s-10.953,21.905-27.382,16.428
					c-16.429-5.475-54.762,5.477-71.191,0C648.835,2400.926,643.359,2379.022,654.311,2379.022z"/>
				<g>
					
						<linearGradient id="SVGID_00000021806261281326591390000014760283707829177259_" gradientUnits="userSpaceOnUse" x1="17075.7695" y1="-50.8087" x2="17266.8535" y2="-97.3159" gradientTransform="matrix(0.9571 -0.2895 0.2895 0.9571 -4923 515.3038)">
						<stop  offset="0" style="stop-color:#FEBBBA"/>
						<stop  offset="1" style="stop-color:#FF928E"/>
					</linearGradient>
					<path style="fill:url(#SVGID_00000021806261281326591390000014760283707829177259_);" d="M861.131,1695.855
						c0.434,1.434-2.36,80.902-4.137,130.083c-0.734,20.321-19.011,35.445-39.114,32.388l-18.408-2.8
						c-33.824-5.145-58.167-35.197-56.177-69.351l5.166-88.675C748.461,1697.5,850.6,1661.048,861.131,1695.855z"/>
					
						<linearGradient id="SVGID_00000057830152737336167720000008146152176688796822_" gradientUnits="userSpaceOnUse" x1="5036.8247" y1="2790.0134" x2="5233.644" y2="2790.0134" gradientTransform="matrix(0.9571 -0.2895 0.2895 0.9571 -4923 515.3038)">
						<stop  offset="0" style="stop-color:#09005D"/>
						<stop  offset="1" style="stop-color:#1A0F91"/>
					</linearGradient>
					<path style="fill:url(#SVGID_00000057830152737336167720000008146152176688796822_);" d="M728.817,1693.533
						c-5.121-10.154-8.21-25.463,9.775-37.036c18.207-11.716,34.463-4.363,44.209,2.947c4.313,3.235,10.421,3.512,14.688,0.212
						c1.896-1.466,4.402-2.205,7.656-1.119c6.136,2.046,12.633-0.909,14.718-7.031c3.576-10.497,12.017-21.954,31.842-21.572
						c36.363,0.697,46.333,39.362,40.471,63.794c-5.86,24.432-45.241,21.435-66.09,12.727c-15.314-6.396-32.098,4.681-39.928,11.013
						c-2.843,2.297-4.459,5.759-4.391,9.412l0.46,24.908c-5.397,6.562-10.757,13.296-17.47,18.445
						c-4.834,3.708-9.609,5.305-14.33,5.405c-3.929-13.509-21.701-19.447-30.107-21.524c-3.216-0.794-5.936-2.866-7.544-5.763
						c-4.823-8.684-11.333-27.153,11.217-39.117C729.602,1706.262,731.675,1699.2,728.817,1693.533z"/>
					
						<linearGradient id="SVGID_00000103225326251193179190000008781967597474593471_" gradientUnits="userSpaceOnUse" x1="17069.0703" y1="-78.4944" x2="17260.1563" y2="-125.002" gradientTransform="matrix(0.9571 -0.2895 0.2895 0.9571 -4923 515.3038)">
						<stop  offset="0" style="stop-color:#FEBBBA"/>
						<stop  offset="1" style="stop-color:#FF928E"/>
					</linearGradient>
					<path style="fill:url(#SVGID_00000103225326251193179190000008781967597474593471_);" d="M751.308,1802.389
						c0,0,8.384-43.011-8.1-50.734c-16.485-7.724-37.87,0.825-28.508,29.644C726.345,1817.145,751.308,1802.389,751.308,1802.389z"
						/>
					<path style="fill:#91B3FA;" d="M882.772,1693.922c-0.18,0-0.359-0.039-0.529-0.117c-0.63-0.294-0.901-1.038-0.607-1.665
						c11.986-25.666-16.34-46.413-16.627-46.618c-0.561-0.405-0.692-1.188-0.287-1.749c0.408-0.558,1.191-0.686,1.75-0.287
						c0.304,0.219,30.291,22.186,17.437,49.713C883.696,1693.655,883.242,1693.922,882.772,1693.922z"/>
				</g>
				<g>
					
						<linearGradient id="SVGID_00000045601493076668318950000014431089469837266577_" gradientUnits="userSpaceOnUse" x1="-11861.3027" y1="2417.875" x2="-11925.6387" y2="2485.874" gradientTransform="matrix(-0.9577 0.2876 0.3672 1.2229 -11146.0059 2277.8213)">
						<stop  offset="0" style="stop-color:#09005D"/>
						<stop  offset="1" style="stop-color:#1A0F91"/>
					</linearGradient>
					<path style="fill:url(#SVGID_00000045601493076668318950000014431089469837266577_);" d="M1187.089,1769.707l-69.525,23.423
						c-8.418,2.527-14.219,11.031-14.891,21.832l3.61,116.022c-1.129,18.153,13.854,34.154,28.004,29.905l55.739-18.991
						c5.425-1.629,9.029-7.325,9.088-14.366l1.228-144.456C1200.413,1774.729,1193.52,1767.776,1187.089,1769.707z"/>
				</g>
				
					<linearGradient id="SVGID_00000174567952898452303970000016800579689308367270_" gradientUnits="userSpaceOnUse" x1="-3205.2317" y1="1810.6766" x2="-3197.9927" y2="1928.3094" gradientTransform="matrix(-1 0 0 1 -2008.4858 0)">
					<stop  offset="0" style="stop-color:#FEBBBA"/>
					<stop  offset="1" style="stop-color:#FF928E"/>
				</linearGradient>
				<path style="fill:url(#SVGID_00000174567952898452303970000016800579689308367270_);" d="M1200.343,1919.018
					c0,0,21.76-69.714,10.698-81.458c-11.062-11.745-33.101-44.135-34.573-17.654
					C1174.997,1846.387,1161.693,1960.755,1200.343,1919.018z"/>
			</g>
		</g>
		<g>
			<g>
				<path style="fill:#7D97F4;" d="M3094.195,1253.01c-4.329-11.568-21.325-9.639-22.899,2.612
					c-15.211,118.436-64.825,427.746-184.935,605.655c-195.567,289.675-289.766,727.257-108.921,920.18
					C2777.44,2781.457,3565.847,2513.385,3094.195,1253.01z"/>
				<path style="opacity:0.43;fill:#FFFFFF;" d="M3095.58,1418.614c0.258,3.76,0.172,6.884,0.226,10.247l-0.054,9.918l-0.328,19.814
					c-0.309,13.203-0.821,26.397-1.333,39.592c-1.119,26.383-2.566,52.75-4.256,79.105c-3.476,52.701-8.378,105.302-14.071,157.817
					c-5.619,52.528-12.707,104.899-20.902,157.098c-8.24,52.189-17.222,104.283-27.913,156.053
					c-21.175,103.562-48.003,206.072-81.966,306.274c-17.506,49.911-36.324,99.392-57.974,147.675
					c-21.988,48.11-46.034,95.309-73.413,140.543c-0.595,0.984-1.875,1.298-2.859,0.703c-0.959-0.58-1.282-1.813-0.746-2.785
					l0.014-0.025c25.509-46.094,48.494-93.477,69.107-141.885c20.75-48.358,38.669-97.878,55.273-147.79
					c16.581-49.936,31.147-100.531,44.563-151.419c13.398-50.906,24.682-102.341,35.675-153.825
					c21.551-103.091,37.586-207.291,50.748-311.828c6.47-52.289,11.886-104.714,16.371-157.222
					c2.284-26.251,4.328-52.525,6.045-78.821l2.266-39.458l0.93-19.732l0.356-9.86c0.064-3.231,0.188-6.704,0.128-9.534l-0.01-0.467
					c-0.024-1.14,0.879-2.083,2.019-2.108C3094.583,1416.669,3095.503,1417.523,3095.58,1418.614z"/>
			</g>
			<g>
				<path style="fill:#91B3FA;" d="M2673.727,1305.611c-6.567-9.824-21.974-4.302-20.754,7.452
					c11.797,113.636,33.396,412.577-39.464,604.596c-118.633,312.65-110.438,740.826,100.277,880.855
					C2713.787,2798.513,3389.277,2376.023,2673.727,1305.611z"/>
				<path style="opacity:0.43;fill:#FFFFFF;" d="M2711.354,1459.523c1.067,3.453,1.672,6.377,2.461,9.498l2.126,9.249l4.043,18.524
					c2.61,12.364,5.028,24.764,7.446,37.164c4.746,24.816,9.184,49.689,13.393,74.603c8.325,49.844,15.295,99.906,21.513,150.063
					c6.29,50.152,11.172,100.481,14.985,150.892c3.769,50.412,6.826,100.898,8.22,151.458
					c2.984,101.094,0.462,202.449-9.209,303.218c-5.369,50.322-12.057,100.531-21.643,150.245
					c-9.944,49.626-22.001,98.854-37.601,146.98c-0.346,1.066-1.49,1.65-2.555,1.304c-1.039-0.336-1.62-1.432-1.329-2.474
					l0.008-0.027c13.634-48.525,24.645-97.69,33.218-147.292c8.716-49.584,14.541-99.63,19.056-149.751
					c4.489-50.139,6.963-100.45,8.299-150.781c1.317-50.345,0.545-100.719-0.5-151.074c-2.521-100.73-10.433-201.286-21.075-301.528
					c-5.43-50.115-11.873-100.127-19.198-150.012c-3.622-24.949-7.473-49.867-11.633-74.734l-6.531-37.245l-3.454-18.581
					l-1.827-9.261c-0.647-3.022-1.294-6.287-1.967-8.901l-0.114-0.442c-0.277-1.075,0.37-2.172,1.446-2.448
					C2709.975,1457.901,2711.038,1458.506,2711.354,1459.523z"/>
			</g>
		</g>
		<g>
			
				<linearGradient id="SVGID_00000165210624975780302100000012896119837976815763_" gradientUnits="userSpaceOnUse" x1="7358.5522" y1="2114.6418" x2="7861.0024" y2="2353.1326" gradientTransform="matrix(0.9999 -0.015 0.015 0.9999 -5019.1787 17.0219)">
				<stop  offset="0" style="stop-color:#09005D"/>
				<stop  offset="1" style="stop-color:#1A0F91"/>
			</linearGradient>
			<path style="fill:url(#SVGID_00000165210624975780302100000012896119837976815763_);" d="M2708.375,1992.451
				c0,0-27.771-68.047,76.978-54.328c104.749,13.719,79.291,53.266,87.57,84.169c8.28,30.903,52.226,65.925,174.517,113.606
				c122.292,47.681,86.034,177.673,31.105,220.819c-54.93,43.146-84.885,14.468-97.662,88.936
				c-12.776,74.468-63.741,134.945-127.329,71.819c-63.588-63.126-135.862-137.774-115.649-235.655
				c20.213-97.883-2.677-79.365-42.134-124.269C2656.314,2112.644,2739.948,2069.179,2708.375,1992.451z"/>
			
				<linearGradient id="SVGID_00000181052234628558788390000007193046279213468032_" gradientUnits="userSpaceOnUse" x1="7663.3564" y1="2083.228" x2="7474.2666" y2="2315.6875" gradientTransform="matrix(1 0 0 1 -4940.8638 0)">
				<stop  offset="0" style="stop-color:#FEBBBA"/>
				<stop  offset="1" style="stop-color:#FF928E"/>
			</linearGradient>
			<path style="fill:url(#SVGID_00000181052234628558788390000007193046279213468032_);" d="M2731.754,2174.658
				c-16.631-16.87-32.811,23.676-37.129,33.837c-10.905,25.658-22.241,48.687-45.258,66.269
				c-14.239,10.877-33.483,17.852-51.499,12.625c-64.889-18.825-65.19-70.948-66.651-109.99c1.504-11.074-5.138-22.05-13.184-25.474
				c-9.342-3.977-12.918-13.643-12.918-13.643s-6.349,14.076,1.454,20.674c2.727,2.307,3.527,5.032,3.442,7.611
				c-0.911-0.152-1.849-0.291-2.831-0.415c-19.506-2.438,0.072,25.481,0.072,25.481s-18.881,102.197,67.608,142.812
				c42.813,20.105,75.649,15.339,97.963,5.391c11.27-3.936,20.994-11.006,29.308-20.023c3.348-3.343,5.058-5.6,5.058-5.6
				l0.005-0.322C2741.71,2269.999,2747.702,2190.836,2731.754,2174.658z"/>
			
				<linearGradient id="SVGID_00000003088378598504660940000012976930325997660305_" gradientUnits="userSpaceOnUse" x1="8062.2964" y1="2008.2996" x2="7803.625" y2="2326.2993" gradientTransform="matrix(1 0 0 1 -4940.8638 0)">
				<stop  offset="0" style="stop-color:#FEBBBA"/>
				<stop  offset="1" style="stop-color:#FF928E"/>
			</linearGradient>
			<path style="fill:url(#SVGID_00000003088378598504660940000012976930325997660305_);" d="M3065.525,2077.816
				c-1.657-3.169-6.347-2.669-7.304,0.775c-3.544,12.756-12.121,35.015-30.119,42.918c-0.697,0.307-1.501,0.236-2.132-0.188
				c-0.631-0.424-1-1.141-0.979-1.903c0.042-1.578,0.515-3.254,1.644-4.979c2.361-3.609,1.927-7.774,0.636-11.385
				c-0.553-1.547-1.99-2.605-3.632-2.673c-1.643-0.068-3.162,0.866-3.842,2.365c-1.262,2.777-3.198,5.774-6.156,8.226
				c-6.734,5.578-9.968,17.992-5.365,28.175c9.741,37.838,24.328,87.88-32.492,124.438
				c-56.818,36.558-136.834-68.994-136.834-68.994l-3.578,95.55c0,0,104.591,75.584,175.892,11.976
				c71.302-63.608,24.042-156.166,24.042-156.166S3089.688,2124.012,3065.525,2077.816z"/>
			
				<linearGradient id="SVGID_00000125594261770054483920000015294391069322122154_" gradientUnits="userSpaceOnUse" x1="3372.8435" y1="1719.158" x2="2998.4878" y2="2100.1982">
				<stop  offset="0" style="stop-color:#FF928E"/>
				<stop  offset="1" style="stop-color:#FE7062"/>
			</linearGradient>
			<path style="fill:url(#SVGID_00000125594261770054483920000015294391069322122154_);" d="M2732.473,2168.174
				c16.996-5.095,66.484-14.503,113.555,28.937c7.984,7.367,11.247,18.562,8.399,29.045c-12.643,46.545-46,184.063-16.752,243.564
				c0,0-51.543,56.82-107.774,11.024c0,0-25.23-109.959-58.275-158.231c-22.815-33.327,36.379-125.148,51.356-147.33
				C2725.25,2171.823,2728.592,2169.338,2732.473,2168.174z"/>
			
				<linearGradient id="SVGID_00000034086243099677934060000010635348202266321083_" gradientUnits="userSpaceOnUse" x1="-1064.0396" y1="1784.0317" x2="-1050.4358" y2="1687.4445" gradientTransform="matrix(0.9602 0.2794 -0.2794 0.9602 4259.564 797.6744)">
				<stop  offset="0" style="stop-color:#FEBBBA"/>
				<stop  offset="1" style="stop-color:#FF928E"/>
			</linearGradient>
			<path style="fill:url(#SVGID_00000034086243099677934060000010635348202266321083_);" d="M2779.402,2075.7
				c0,0,25.136,71.1,27.027,102.466c0,0-27.781,12.633-53.958-8.689c0,0-2.747-71.017-6.716-83.733L2779.402,2075.7z"/>
			
				<linearGradient id="SVGID_00000059993126799438535550000002718144293506256295_" gradientUnits="userSpaceOnUse" x1="-1126.4069" y1="1577.0732" x2="-999.2082" y2="1723.3176" gradientTransform="matrix(0.9602 0.2794 -0.2794 0.9602 4259.564 797.6744)">
				<stop  offset="0" style="stop-color:#FEBBBA"/>
				<stop  offset="1" style="stop-color:#FF928E"/>
			</linearGradient>
			<path style="fill:url(#SVGID_00000059993126799438535550000002718144293506256295_);" d="M2744.487,1978.757
				c0,0-65.745,92.008-26.445,118.732c39.301,26.725,86.103-38.661,86.103-38.661s15.255-50.359-0.696-67.442
				C2787.497,1974.302,2744.487,1978.757,2744.487,1978.757z"/>
			
				<linearGradient id="SVGID_00000129909355880455590500000009996376220264672179_" gradientUnits="userSpaceOnUse" x1="7411.353" y1="1849.5288" x2="7913.8081" y2="2088.0215" gradientTransform="matrix(1 0 0 1 -4940.8638 0)">
				<stop  offset="0" style="stop-color:#09005D"/>
				<stop  offset="1" style="stop-color:#1A0F91"/>
			</linearGradient>
			<path style="fill:url(#SVGID_00000129909355880455590500000009996376220264672179_);" d="M2826.094,1977.858
				c-12.443-29.961-51.175-21.088-51.175-21.088s-30.204,7.157-34.437,20.822c-1.904,6.147,6.575,12.095,17.68,16.833
				c24.731,10.555,42.705,32.788,47.793,59.192l1.171,6.078C2807.126,2059.695,2838.536,2007.82,2826.094,1977.858z"/>
			
				<linearGradient id="SVGID_00000163060716233165440530000013337915604673585541_" gradientUnits="userSpaceOnUse" x1="-1094.6272" y1="1549.4303" x2="-967.431" y2="1695.6719" gradientTransform="matrix(0.9602 0.2794 -0.2794 0.9602 4259.564 797.6744)">
				<stop  offset="0" style="stop-color:#FEBBBA"/>
				<stop  offset="1" style="stop-color:#FF928E"/>
			</linearGradient>
			<path style="fill:url(#SVGID_00000163060716233165440530000013337915604673585541_);" d="M2791.399,2052.058
				c0,0,25.59-29.636,35.769-10.315c10.178,19.32-23.034,33.825-34.531,24.34L2791.399,2052.058z"/>
			
				<linearGradient id="SVGID_00000104687683139218030730000003918139868760809402_" gradientUnits="userSpaceOnUse" x1="369.8658" y1="3267.5859" x2="673.3326" y2="2731.9019" gradientTransform="matrix(-1 -0.0095 -0.0095 1 3365.0542 56.9446)">
				<stop  offset="0" style="stop-color:#FEBBBA"/>
				<stop  offset="1" style="stop-color:#FF928E"/>
			</linearGradient>
			<path style="fill:url(#SVGID_00000104687683139218030730000003918139868760809402_);" d="M2664.256,2711.615
				c0.194,4.992-8.571,44.588-13.341,65.708c-1.919,8.498-0.583,17.391,3.744,24.953L2819.85,3080.3
				c1.999,3.363,3.453,7.006,4.338,10.817c3.027,13.047,9.306,45.022,6.028,74.111l-8.546,17.749l36.958-8.392l8.041-99.251
				l-10.463-6.38c-9.039-5.511-16.077-13.75-20.107-23.54c-14.937-36.283-52.029-128.643-61.591-173.654
				c-10.866-51.155-67.672-92.704-67.672-92.704l9.979-23.595L2664.256,2711.615z"/>
			
				<linearGradient id="SVGID_00000046328197438132261550000002987409552335603372_" gradientUnits="userSpaceOnUse" x1="436.0196" y1="3078.1912" x2="524.723" y2="3078.1912" gradientTransform="matrix(-1 -0.0095 -0.0095 1 3365.0542 56.9446)">
				<stop  offset="0" style="stop-color:#4F52FF"/>
				<stop  offset="1" style="stop-color:#4042E2"/>
			</linearGradient>
			<path style="fill:url(#SVGID_00000046328197438132261550000002987409552335603372_);" d="M2899.702,3140.431
				c0,0-19.958-31.642-22.305-43.959c-2.348-12.317-8.886-34.067-21.19-27.519c0,0-5.798,59.832-3.799,83.21
				c1.999,23.379-26.428,22.627-26.428,22.627s-7.835,1.102-13.573,6.837c-3.962,3.961-1.129,10.833,4.461,11.194
				c9.302,0.599,24.079,0.756,39.594-2.242c5.423-1.048,9.442-5.662,9.771-11.175l4.095-68.862l25.176,31.789L2899.702,3140.431z"/>
			
				<linearGradient id="SVGID_00000160186208571648317700000012897302466326511281_" gradientUnits="userSpaceOnUse" x1="713.768" y1="2871.3008" x2="259.922" y2="3016.426" gradientTransform="matrix(-1 -0.0095 -0.0095 1 3365.0542 56.9446)">
				<stop  offset="0" style="stop-color:#FEBBBA"/>
				<stop  offset="1" style="stop-color:#FF928E"/>
			</linearGradient>
			<path style="fill:url(#SVGID_00000160186208571648317700000012897302466326511281_);" d="M2762.939,2755.901
				c0,0,5.826,248.691,6.616,284.011c0.789,35.321-5.578,113.594-40.986,136.99l15.407,11.407c0,0,19.255-16.366,38.066-47.861
				c21.132-35.382,27.522-41.847,27.522-41.847l-7.012-14.36c-3.07-6.287-3.972-13.399-2.558-20.251
				c7.641-37.033,33.166-160.21,40.129-186.737c8.219-31.313,8.804-73.129-19.791-108.131
				C2791.737,2734.12,2762.939,2755.901,2762.939,2755.901z"/>
			
				<linearGradient id="SVGID_00000059304990790233399820000015618194059102909835_" gradientUnits="userSpaceOnUse" x1="518.2592" y1="3094.2117" x2="624.0034" y2="3094.2117" gradientTransform="matrix(-1 -0.0095 -0.0095 1 3365.0542 56.9446)">
				<stop  offset="0" style="stop-color:#4F52FF"/>
				<stop  offset="1" style="stop-color:#4042E2"/>
			</linearGradient>
			<path style="fill:url(#SVGID_00000059304990790233399820000015618194059102909835_);" d="M2795.636,3199.518
				c1.099,0.011,2.032-0.776,2.188-1.863c1.179-8.291,6.083-41.53,10.097-50.137c4.599-9.857,19.618-51.345-0.008-54.866
				c0,0-48.792,71.284-58.157,80.895c-9.366,9.611-21.187,3.357-21.187,3.357s-9.126,2.696-16.008,11.49
				c-3.274,4.186-0.224,10.33,5.091,10.381l32.864,0.313c9.544,0.091,18.128-5.708,21.676-14.568
				c5.785-14.449,15.722-35.642,27.304-45.045l-6.018,57.625C2793.344,3198.385,2794.345,3199.506,2795.636,3199.518
				L2795.636,3199.518z"/>
			
				<linearGradient id="SVGID_00000119834085230643139710000009285967350207628417_" gradientUnits="userSpaceOnUse" x1="3067.9211" y1="2280.2581" x2="2476.2471" y2="2992.2727">
				<stop  offset="0" style="stop-color:#4F52FF"/>
				<stop  offset="1" style="stop-color:#4042E2"/>
			</linearGradient>
			<path style="fill:url(#SVGID_00000119834085230643139710000009285967350207628417_);" d="M2722.122,2453.93
				c0,0,7.406,23.605-3.971,62.484l-70.577,246.459c-1.108,3.873,0.981,7.926,4.772,9.286c21.111,7.577,90.51,28.992,185.245,22.462
				c4.77-0.329,8.769-3.707,9.807-8.374c6.242-28.097,27.54-123.962,31.925-143.659c16.709-75.054,35.365-155.995-46.71-204.938
				C2794.787,2453.852,2759.507,2463.402,2722.122,2453.93z"/>
			<g>
				
					<linearGradient id="SVGID_00000113333754790328543000000008700902178737500291_" gradientUnits="userSpaceOnUse" x1="7476.8403" y1="2161.9548" x2="7483.9277" y2="2330.2837" gradientTransform="matrix(1 0 0 1 -4940.8638 0)">
					<stop  offset="0" style="stop-color:#09005D"/>
					<stop  offset="1" style="stop-color:#1A0F91"/>
				</linearGradient>
				<path style="fill:url(#SVGID_00000113333754790328543000000008700902178737500291_);" d="M2578.373,2233.18
					c2.285-5.029,1.714-11.62,1.199-16.831c-1.194-12.077-1.096-24.117-1.292-36.249c-0.507-31.433-0.23-62.946-2.721-94.304
					c-0.538-6.768,0.186-13.556-0.342-20.296c-1.34-17.105-11.372-22.154-28.062-25.723c-14.116-3.019-29.506-7.174-44.092-4.074
					c-5.745,1.221-11.272,4.363-11.99,10.359c-2.898,24.21-2.175,182.857,27.045,187.221c9.868,1.475,19.662,3.202,29.47,4.969
					c6.975,1.256,16.3,3.904,23.324,1.541C2574.749,2238.504,2577.044,2236.106,2578.373,2233.18z"/>
				
					<linearGradient id="SVGID_00000139996614990279609420000009427090044718762683_" gradientUnits="userSpaceOnUse" x1="7553.3003" y1="2028.9534" x2="7406.4399" y2="2209.4976" gradientTransform="matrix(1 0 0 1 -4940.8638 0)">
					<stop  offset="0" style="stop-color:#09005D"/>
					<stop  offset="1" style="stop-color:#1A0F91"/>
				</linearGradient>
				<path style="fill:url(#SVGID_00000139996614990279609420000009427090044718762683_);" d="M2566.782,2233.18
					c2.284-5.029,1.714-11.62,1.199-16.831c-1.194-12.077-1.095-24.117-1.292-36.249c-0.507-31.433-0.229-62.946-2.72-94.304
					c-0.538-6.768,0.186-13.556-0.342-20.296c-1.34-17.105-11.372-22.154-28.062-25.723c-14.116-3.019-29.507-7.174-44.092-4.074
					c-5.745,1.221-11.272,4.363-11.99,10.359c-2.898,24.21-2.175,182.857,27.045,187.221c9.868,1.475,19.661,3.202,29.47,4.969
					c6.975,1.256,16.3,3.904,23.324,1.541C2563.157,2238.504,2565.453,2236.106,2566.782,2233.18z"/>
			</g>
			
				<linearGradient id="SVGID_00000003093218118133740990000009154521271974219399_" gradientUnits="userSpaceOnUse" x1="7461.085" y1="2110.3484" x2="7404.0405" y2="2180.4768" gradientTransform="matrix(1 0 0 1 -4940.8638 0)">
				<stop  offset="0" style="stop-color:#FEBBBA"/>
				<stop  offset="1" style="stop-color:#FF928E"/>
			</linearGradient>
			<path style="fill:url(#SVGID_00000003093218118133740990000009154521271974219399_);" d="M2482.518,2188.759
				c0,0-5.303-3.602-9.66-25.126c-4.358-21.524-8.683-34.561,0-44.546c8.683-9.985,22.142-10.419,22.142,0
				s-2.256,29.614-0.694,44.546C2495.867,2178.566,2492.177,2213.885,2482.518,2188.759z"/>
			<path style="fill:#91B3FA;" d="M2816.28,1970.579c10.035,2.132,19.71,6.891,27.134,14.33c3.633,3.79,6.473,8.354,8.327,13.303
				l1.232,3.777l0.706,3.904c0.499,2.63,0.739,5.059,1.163,7.588c3.673,19.94,12.432,38.977,25.452,54.506
				c6.417,7.832,13.892,14.8,22.177,20.636c8.246,5.927,17.44,10.277,26.716,14.713c9.263,4.391,18.663,8.498,28.199,12.27
				c9.506,3.851,19.167,7.346,29.068,10.111c-20.154-4.281-39.487-11.781-58.373-19.949c-9.424-4.04-18.861-8.603-27.426-14.558
				c-8.574-5.912-16.354-13-23.035-21.01c-13.168-16.16-22.2-35.71-25.405-56.297c-0.35-2.551-0.541-5.252-0.937-7.682l-0.548-3.7
				l-1.053-3.583c-1.598-4.715-4.159-9.107-7.504-12.874C2835.439,1978.514,2826.098,1973.452,2816.28,1970.579z"/>
			<path style="fill:#91B3FA;" d="M3082.217,2186.207c8.362,12.288,14.258,26.222,18.07,40.676
				c3.774,14.483,4.862,29.725,3.03,44.681c-2.197,14.902-7.497,29.354-15.678,41.948c-2.17,3.06-4.188,6.221-6.633,9.062
				c-1.19,1.441-2.316,2.937-3.557,4.331l-3.817,4.095c-2.488,2.785-5.43,5.113-8.113,7.679c-2.795,2.45-5.782,4.679-8.685,6.977
				c11.042-9.895,20.923-21.034,28.539-33.558c3.576-6.382,7.039-12.847,9.393-19.772c2.407-6.889,4.134-14.003,5.114-21.229
				c2.053-14.464,0.969-29.27-2.179-43.593c-1.551-7.179-3.698-14.237-6.3-21.135
				C3088.873,2199.44,3085.802,2192.698,3082.217,2186.207z"/>
		</g>
		<g>
			
				<linearGradient id="SVGID_00000019674879398638947980000012811240193750067074_" gradientUnits="userSpaceOnUse" x1="2682.6038" y1="1654.7965" x2="2497.1067" y2="1980.6693">
				<stop  offset="0" style="stop-color:#E1473D"/>
				<stop  offset="1" style="stop-color:#E9605A"/>
			</linearGradient>
			<path style="fill:url(#SVGID_00000019674879398638947980000012811240193750067074_);" d="M2500.429,1658.915H2770.2
				c24.265,0,44.159,19.823,44.159,44.088v69.224c0,24.265-19.895,43.784-44.159,43.784h-83.317c-2.086,0-3.978,1.298-4.834,3.2
				l-34.521,76.675c-0.745,1.653-2.365,2.759-4.177,2.821c-1.812,0.062-3.502-0.901-4.359-2.5l-41.393-77.327
				c-0.923-1.722-2.719-2.869-4.673-2.869h-92.496c-24.265,0-43.712-19.519-43.712-43.784v-69.224
				C2456.717,1678.737,2476.164,1658.915,2500.429,1658.915z"/>
			<g>
				<path style="fill:#FFFFFF;" d="M2602.815,1706.858h-0.261l-15.593,7.861l-2.752-12.185l20.703-10.22h13.495v85.166h-15.593
					V1706.858z"/>
				<path style="fill:#FFFFFF;" d="M2707.883,1734.372c0,27.384-10.744,44.549-31.051,44.549c-19.655,0-30.136-17.819-30.267-43.762
					c0-26.467,11.268-44.286,31.182-44.286C2698.319,1690.873,2707.883,1709.216,2707.883,1734.372z M2662.81,1735.159
					c-0.13,20.703,5.636,31.446,14.545,31.446c9.433,0,14.413-11.53,14.413-31.97c0-19.784-4.718-31.445-14.413-31.445
					C2668.707,1703.19,2662.679,1713.802,2662.81,1735.159z"/>
				<path style="fill:#FFFFFF;" d="M2778.097,1734.372c0,27.384-10.744,44.549-31.052,44.549c-19.655,0-30.136-17.819-30.267-43.762
					c0-26.467,11.268-44.286,31.182-44.286C2768.533,1690.873,2778.097,1709.216,2778.097,1734.372z M2733.024,1735.159
					c-0.131,20.703,5.635,31.446,14.545,31.446c9.433,0,14.413-11.53,14.413-31.97c0-19.784-4.718-31.445-14.413-31.445
					C2738.921,1703.19,2732.894,1713.802,2733.024,1735.159z"/>
			</g>
			<path style="fill:#FFFFFF;" d="M2556.071,1709.485c-8.278-8.136-21.188-5.689-30.076,1.773c-1.274,1.07-3.12,1.082-4.412,0.034
				c-9.007-7.305-21.903-9.528-30.039-1.252c-8.833,8.987-8.708,23.431,0.278,32.264l30.068,29.555
				c1.366,1.342,3.562,1.323,4.905-0.042l29.554-30.068C2565.181,1732.763,2565.057,1718.318,2556.071,1709.485z"/>
		</g>
		<g>
			<g>
				
					<linearGradient id="SVGID_00000036231913250316904360000017741450681079744389_" gradientUnits="userSpaceOnUse" x1="1982.4221" y1="757.9933" x2="2839.0791" y2="757.9933">
					<stop  offset="0" style="stop-color:#FF928E"/>
					<stop  offset="1" style="stop-color:#FE7062"/>
				</linearGradient>
				<path style="fill:url(#SVGID_00000036231913250316904360000017741450681079744389_);" d="M2880.306,729.457
					c0-20.031-16.238-36.269-36.269-36.269h-135.89c-20.031,0-36.269,16.238-36.269,36.269v57.073
					c0,20.031,16.238,36.269,36.269,36.269h135.89c20.031,0,36.269-16.238,36.269-36.269V729.457z"/>
				
					<linearGradient id="SVGID_00000160171247423727284520000003499392981158612402_" gradientUnits="userSpaceOnUse" x1="1982.4208" y1="836.9774" x2="2839.0757" y2="836.9774">
					<stop  offset="0" style="stop-color:#FF928E"/>
					<stop  offset="1" style="stop-color:#FE7062"/>
				</linearGradient>
				<path style="fill:url(#SVGID_00000160171247423727284520000003499392981158612402_);" d="M2743.195,810.538l27.73,49.763
					c1.116,2.011,3.243,3.135,5.542,3.114c2.3-0.022,4.404-1.125,5.482-3.157l26.506-49.721H2743.195z"/>
			</g>
			<g>
				<path style="fill:#FFFFFF;" d="M2831.635,781.208h-26.602v-5.017h10.231v-32.938h-10.231v-4.489
					c1.386,0,2.871-0.115,4.456-0.346c1.584-0.231,2.783-0.566,3.597-1.007c1.012-0.55,1.81-1.249,2.393-2.096
					c0.583-0.847,0.918-1.986,1.007-3.416h5.116v44.292h10.033V781.208z"/>
			</g>
			<path style="fill:#FFFFFF;" d="M2746.956,744.175c0.648,1.438,2.717,1.334,3.188-0.171c2.139-6.836,7.764-17.369,21.57-12.283
				c27.019,9.954-5.999,45.308-19.376,58.257c-2.933,2.839-7.524,2.995-10.642,0.36c-13.438-11.354-45.359-41.751-24.278-58.616
				C2733.052,719.213,2742.977,735.347,2746.956,744.175z"/>
		</g>
		<g>
			<g>
				
					<linearGradient id="SVGID_00000164508432604124414400000003224016634904334271_" gradientUnits="userSpaceOnUse" x1="2151.4988" y1="933.6929" x2="3008.1558" y2="933.6929">
					<stop  offset="0" style="stop-color:#FF928E"/>
					<stop  offset="1" style="stop-color:#FE7062"/>
				</linearGradient>
				<path style="fill:url(#SVGID_00000164508432604124414400000003224016634904334271_);" d="M3049.383,905.157
					c0-20.031-16.238-36.269-36.269-36.269h-135.89c-20.031,0-36.27,16.238-36.27,36.269v57.073
					c0,20.031,16.239,36.269,36.27,36.269h135.89c20.031,0,36.269-16.238,36.269-36.269V905.157z"/>
				
					<linearGradient id="SVGID_00000150063736141499830330000001365027340755317148_" gradientUnits="userSpaceOnUse" x1="2151.4988" y1="1012.6769" x2="3008.1526" y2="1012.6769">
					<stop  offset="0" style="stop-color:#FF928E"/>
					<stop  offset="1" style="stop-color:#FE7062"/>
				</linearGradient>
				<path style="fill:url(#SVGID_00000150063736141499830330000001365027340755317148_);" d="M2912.272,986.238l27.73,49.763
					c1.116,2.011,3.242,3.135,5.542,3.115c2.3-0.022,4.404-1.126,5.482-3.157l26.506-49.721H2912.272z"/>
			</g>
			<g>
				<path style="fill:#FFFFFF;" d="M3000.712,956.908h-26.602v-5.017h10.231v-32.938h-10.231v-4.489
					c1.386,0,2.871-0.115,4.456-0.346c1.584-0.231,2.783-0.567,3.598-1.007c1.012-0.55,1.81-1.249,2.393-2.096
					c0.583-0.847,0.918-1.985,1.007-3.416h5.116v44.292h10.033V956.908z"/>
			</g>
			<path style="fill:#FFFFFF;" d="M2916.033,919.874c0.648,1.438,2.717,1.334,3.188-0.171c2.139-6.836,7.764-17.369,21.57-12.283
				c27.018,9.954-5.999,45.308-19.376,58.257c-2.933,2.839-7.524,2.995-10.642,0.36c-13.438-11.354-45.359-41.752-24.278-58.616
				C2902.129,894.912,2912.054,911.047,2916.033,919.874z"/>
		</g>
		<g>
			<g>
				
					<linearGradient id="SVGID_00000096779964659690188280000010555591205091410608_" gradientUnits="userSpaceOnUse" x1="2255.7134" y1="1119.7031" x2="3112.3701" y2="1119.7031">
					<stop  offset="0" style="stop-color:#FF928E"/>
					<stop  offset="1" style="stop-color:#FE7062"/>
				</linearGradient>
				<path style="fill:url(#SVGID_00000096779964659690188280000010555591205091410608_);" d="M3153.597,1091.167
					c0-20.031-16.238-36.269-36.269-36.269h-135.89c-20.031,0-36.269,16.238-36.269,36.269v57.073
					c0,20.031,16.238,36.269,36.269,36.269h135.89c20.031,0,36.269-16.238,36.269-36.269V1091.167z"/>
				
					<linearGradient id="SVGID_00000026854346017278293080000002559456244139954567_" gradientUnits="userSpaceOnUse" x1="2255.7129" y1="1198.6871" x2="3112.3667" y2="1198.6871">
					<stop  offset="0" style="stop-color:#FF928E"/>
					<stop  offset="1" style="stop-color:#FE7062"/>
				</linearGradient>
				<path style="fill:url(#SVGID_00000026854346017278293080000002559456244139954567_);" d="M3016.486,1172.248l27.73,49.763
					c1.115,2.011,3.243,3.135,5.542,3.114c2.3-0.022,4.404-1.125,5.482-3.157l26.506-49.721H3016.486z"/>
			</g>
			<g>
				<path style="fill:#FFFFFF;" d="M3104.926,1142.918h-26.602v-5.017h10.231v-32.938h-10.231v-4.489
					c1.386,0,2.871-0.115,4.456-0.346s2.783-0.567,3.598-1.007c1.012-0.55,1.81-1.249,2.393-2.096
					c0.583-0.847,0.918-1.986,1.007-3.416h5.115v44.292h10.034V1142.918z"/>
			</g>
			<path style="fill:#FFFFFF;" d="M3020.247,1105.885c0.648,1.438,2.716,1.334,3.188-0.171c2.139-6.836,7.764-17.369,21.57-12.283
				c27.019,9.954-5.999,45.308-19.376,58.257c-2.933,2.839-7.524,2.995-10.642,0.36c-13.438-11.354-45.359-41.751-24.278-58.617
				C3006.343,1080.922,3016.268,1097.057,3020.247,1105.885z"/>
		</g>
		<g>
			<g>
				
					<linearGradient id="SVGID_00000024002283844076315430000006943065656878702747_" gradientUnits="userSpaceOnUse" x1="-200.3213" y1="1046.4047" x2="656.3353" y2="1046.4047">
					<stop  offset="0" style="stop-color:#FF928E"/>
					<stop  offset="1" style="stop-color:#FE7062"/>
				</linearGradient>
				<path style="fill:url(#SVGID_00000024002283844076315430000006943065656878702747_);" d="M697.562,1017.869
					c0-20.031-16.238-36.269-36.269-36.269h-135.89c-20.031,0-36.269,16.238-36.269,36.269v57.073
					c0,20.031,16.238,36.269,36.269,36.269h135.89c20.031,0,36.269-16.238,36.269-36.269V1017.869z"/>
				
					<linearGradient id="SVGID_00000047040820462380270240000011895990632529211070_" gradientUnits="userSpaceOnUse" x1="-200.3218" y1="1125.3887" x2="656.3318" y2="1125.3887">
					<stop  offset="0" style="stop-color:#FF928E"/>
					<stop  offset="1" style="stop-color:#FE7062"/>
				</linearGradient>
				<path style="fill:url(#SVGID_00000047040820462380270240000011895990632529211070_);" d="M560.451,1098.95l27.73,49.764
					c1.116,2.011,3.243,3.135,5.542,3.114c2.3-0.022,4.404-1.126,5.482-3.157l26.506-49.721H560.451z"/>
			</g>
			<g>
				<path style="fill:#FFFFFF;" d="M648.891,1069.62H622.29v-5.017h10.232v-32.938H622.29v-4.489c1.386,0,2.871-0.115,4.456-0.347
					c1.584-0.231,2.783-0.567,3.598-1.007c1.012-0.55,1.81-1.249,2.393-2.096c0.583-0.847,0.919-1.986,1.007-3.416h5.116v44.292
					h10.034V1069.62z"/>
			</g>
			<path style="fill:#FFFFFF;" d="M564.212,1032.586c0.648,1.438,2.716,1.334,3.188-0.171c2.139-6.836,7.764-17.369,21.57-12.283
				c27.018,9.954-5.999,45.308-19.376,58.257c-2.933,2.839-7.524,2.995-10.642,0.36c-13.438-11.354-45.359-41.751-24.278-58.616
				C550.308,1007.624,560.233,1023.758,564.212,1032.586z"/>
		</g>
		<g>
			<g>
				
					<linearGradient id="SVGID_00000054958784465312970050000006280079770337364118_" gradientUnits="userSpaceOnUse" x1="-46.2618" y1="835.7896" x2="810.3948" y2="835.7896">
					<stop  offset="0" style="stop-color:#FF928E"/>
					<stop  offset="1" style="stop-color:#FE7062"/>
				</linearGradient>
				<path style="fill:url(#SVGID_00000054958784465312970050000006280079770337364118_);" d="M851.622,807.253
					c0-20.031-16.238-36.269-36.269-36.269h-135.89c-20.031,0-36.269,16.238-36.269,36.269v57.073
					c0,20.031,16.238,36.269,36.269,36.269h135.89c20.031,0,36.269-16.238,36.269-36.269V807.253z"/>
				
					<linearGradient id="SVGID_00000181069917106161220910000006871210375823391394_" gradientUnits="userSpaceOnUse" x1="-46.2635" y1="914.7736" x2="810.3915" y2="914.7736">
					<stop  offset="0" style="stop-color:#FF928E"/>
					<stop  offset="1" style="stop-color:#FE7062"/>
				</linearGradient>
				<path style="fill:url(#SVGID_00000181069917106161220910000006871210375823391394_);" d="M714.511,888.334l27.73,49.764
					c1.116,2.011,3.243,3.135,5.542,3.114c2.299-0.022,4.404-1.125,5.482-3.157l26.506-49.721H714.511z"/>
			</g>
			<g>
				<path style="fill:#FFFFFF;" d="M802.951,859.005h-26.602v-5.017h10.231V821.05h-10.231v-4.489c1.386,0,2.871-0.115,4.456-0.346
					c1.584-0.231,2.783-0.567,3.597-1.007c1.012-0.55,1.81-1.249,2.393-2.096c0.583-0.847,0.918-1.986,1.007-3.416h5.115v44.292
					h10.034V859.005z"/>
			</g>
			<path style="fill:#FFFFFF;" d="M718.272,821.971c0.648,1.438,2.717,1.334,3.188-0.171c2.139-6.836,7.764-17.369,21.57-12.283
				c27.018,9.954-5.999,45.308-19.376,58.257c-2.933,2.839-7.524,2.995-10.642,0.36c-13.438-11.354-45.359-41.752-24.278-58.617
				C704.368,797.009,714.293,813.143,718.272,821.971z"/>
		</g>
	</g>
</g>
</svg>
