<?xml version="1.0" standalone="no"?>
<!DOCTYPE svg PUBLIC "-//W3C//DTD SVG 20010904//EN"
 "http://www.w3.org/TR/2001/REC-SVG-20010904/DTD/svg10.dtd">
<svg version="1.0" xmlns="http://www.w3.org/2000/svg"
 width="2500.000000pt" height="2500.000000pt" viewBox="0 0 2500.000000 2500.000000"
 preserveAspectRatio="xMidYMid meet">

<g transform="translate(0.000000,2500.000000) scale(0.100000,-0.100000)"
fill="#000000" stroke="none">
<path d="M14171 18707 c-10 -19 -10 -46 -2 -128 18 -163 59 -592 81 -829 11
-118 22 -231 25 -250 3 -19 17 -152 30 -295 14 -143 36 -375 50 -515 14 -140
37 -370 50 -510 14 -140 29 -287 34 -327 9 -77 37 -135 74 -155 17 -9 15 -3
-10 25 -40 46 -49 80 -62 242 -10 119 -20 214 -66 675 -9 85 -25 250 -35 365
-19 206 -40 422 -80 820 -11 110 -24 247 -29 305 -6 58 -20 197 -32 310 -11
113 -19 224 -16 248 2 23 4 42 2 42 -1 0 -7 -11 -14 -23z"/>
<path d="M11831 18574 c-26 -33 -26 -36 4 -109 31 -75 31 -77 -2 -97 -56 -34
-83 -67 -83 -102 0 -47 21 -62 66 -48 20 6 43 8 52 5 11 -5 13 -3 7 7 -6 10
-4 12 8 7 10 -3 17 -2 17 3 0 27 32 4 57 -40 27 -49 52 -68 73 -55 16 10 12
38 -20 115 -16 40 -30 76 -30 79 0 3 24 22 54 41 66 43 74 55 68 103 -6 48
-22 55 -63 26 -17 -12 -42 -23 -56 -25 -13 -1 -31 -8 -40 -15 -13 -11 -17 -10
-29 6 -8 11 -19 38 -25 60 -20 77 -25 81 -58 39z"/>
<path d="M14469 18567 c-33 -17 -50 -35 -68 -71 l-24 -48 32 -327 c18 -179 47
-479 66 -666 19 -187 48 -484 65 -660 66 -674 78 -783 94 -813 20 -38 70 -80
104 -88 15 -3 32 -7 37 -9 10 -3 691 15 1360 35 198 5 614 17 925 26 1164 31
1176 32 1159 48 -2 2 -121 0 -264 -5 -143 -4 -541 -15 -885 -24 -344 -8 -764
-20 -935 -25 -682 -21 -1291 -33 -1317 -27 -37 10 -85 53 -107 96 -13 25 -24
87 -35 201 -8 91 -29 302 -46 470 -16 168 -55 557 -85 865 -30 308 -62 624
-70 703 -24 225 -21 256 28 309 29 33 17 36 -34 10z"/>
<path d="M15635 18298 c-25 -15 -45 -34 -45 -44 0 -4 -10 -19 -23 -33 -35 -38
-52 -105 -52 -201 0 -79 3 -91 41 -170 43 -89 91 -146 165 -197 42 -29 89 -50
89 -40 0 3 -24 19 -54 35 -148 84 -237 273 -208 443 14 80 30 116 79 177 19
23 33 42 31 42 -2 0 -12 -6 -23 -12z"/>
<path d="M7098 17615 c-45 -30 -85 -95 -94 -152 -7 -45 22 -155 36 -133 4 6 9
11 11 10 2 -1 17 3 32 9 16 6 37 11 47 11 48 0 60 60 44 219 -8 71 -18 76 -76
36z"/>
<path d="M16782 17585 c-18 -19 -32 -38 -32 -43 0 -19 -74 -148 -92 -160 -10
-7 -16 -17 -13 -22 3 -4 -13 -45 -36 -90 -40 -83 -49 -95 -83 -130 -10 -10
-16 -26 -13 -34 4 -9 2 -16 -3 -16 -6 0 -9 -3 -8 -7 3 -15 -14 -43 -26 -43 -6
0 -19 -27 -29 -59 -10 -32 -29 -74 -41 -92 -13 -19 -27 -45 -31 -59 -4 -14
-16 -39 -26 -57 -12 -18 -16 -34 -10 -37 5 -4 16 6 24 21 7 16 27 53 44 83 34
63 284 526 362 673 29 54 51 100 49 103 -3 2 -19 -12 -36 -31z"/>
<path d="M16555 17210 c-3 -5 -1 -10 4 -10 6 0 11 5 11 10 0 6 -2 10 -4 10 -3
0 -8 -4 -11 -10z"/>
<path d="M15807 17158 c-29 -27 -47 -51 -47 -65 0 -12 -8 -27 -17 -32 -10 -5
-27 -26 -38 -47 -11 -21 -27 -46 -35 -56 -28 -31 -36 -43 -38 -53 0 -5 -19
-33 -42 -62 -22 -28 -40 -56 -40 -62 0 -5 -11 -22 -25 -37 -14 -15 -25 -33
-25 -40 0 -7 -13 -28 -30 -46 -16 -18 -30 -37 -30 -43 0 -6 -9 -18 -20 -28
-11 -9 -20 -26 -20 -37 0 -11 -11 -27 -25 -36 -13 -9 -27 -24 -30 -35 -4 -10
-12 -25 -18 -31 -10 -11 -36 -59 -65 -120 -2 -5 1 -8 6 -8 5 0 135 188 289
418 260 387 308 462 301 462 -2 0 -25 -19 -51 -42z"/>
<path d="M9585 16929 c-274 -19 -522 -73 -820 -179 -496 -176 -668 -309 -859
-665 -91 -170 -146 -311 -210 -540 -106 -376 -124 -698 -56 -1000 50 -220 141
-478 236 -668 105 -208 198 -303 386 -395 67 -34 151 -69 186 -78 34 -10 62
-23 62 -30 0 -16 -26 -141 -45 -219 -8 -33 -30 -125 -49 -205 -54 -224 -93
-308 -182 -393 l-46 -45 -122 -4 c-124 -5 -221 -24 -461 -90 -323 -89 -446
-147 -680 -321 -151 -113 -300 -265 -425 -432 -166 -222 -253 -389 -326 -620
-19 -60 -42 -132 -51 -160 -9 -27 -24 -81 -35 -120 -11 -38 -31 -110 -44 -160
-139 -502 -199 -857 -161 -947 14 -34 14 -44 -4 -125 -19 -85 -49 -253 -70
-378 -16 -100 -39 -332 -50 -485 -22 -334 37 -605 170 -788 28 -38 33 -41 47
-27 14 13 19 13 52 0 20 -9 52 -14 71 -11 20 3 30 2 24 0 -20 -9 -15 -24 8
-24 15 0 19 5 15 16 -3 8 -2 12 4 9 6 -3 10 -12 10 -20 0 -15 22 -25 55 -25
12 0 27 -6 33 -13 6 -7 28 -12 49 -12 21 0 44 -5 51 -12 7 -7 19 -10 27 -7 8
4 15 2 15 -3 0 -5 12 -10 27 -11 15 -1 29 -6 32 -11 9 -13 52 -25 92 -26 20 0
45 -7 55 -16 11 -9 35 -16 54 -15 19 1 41 -5 49 -12 7 -7 32 -12 55 -11 44 1
127 -19 137 -33 6 -9 58 -18 117 -20 18 -1 35 -5 38 -10 3 -4 9 -6 14 -3 5 3
19 0 30 -7 16 -10 22 -10 28 -1 9 14 63 8 73 -9 4 -6 59 -14 128 -18 66 -4
126 -12 134 -18 8 -7 34 -10 60 -8 26 2 47 0 47 -5 0 -5 20 -9 45 -9 29 0 45
4 45 13 0 9 2 9 9 -1 4 -8 27 -16 49 -19 33 -4 43 -2 48 11 8 20 24 21 24 1 0
-12 8 -14 39 -9 22 4 54 1 72 -5 21 -7 36 -8 44 -1 7 6 15 6 23 -2 8 -8 15 -8
25 0 8 7 16 9 20 6 6 -6 63 -12 187 -19 36 -2 67 -5 70 -6 16 -5 37 -3 47 4 7
5 22 2 36 -8 20 -13 26 -13 30 -3 4 10 8 10 16 -2 6 -8 11 -10 11 -4 0 14 33
14 42 0 6 -8 8 -8 8 1 0 7 11 10 30 7 17 -2 45 -6 63 -9 17 -2 127 -7 242 -10
116 -4 219 -9 230 -12 11 -4 69 -7 128 -8 77 -1 111 -5 117 -14 6 -11 9 -11
13 0 3 11 8 9 20 -6 14 -19 16 -19 22 -2 4 9 12 17 17 17 6 0 8 -6 5 -14 -6
-14 16 -16 29 -3 12 12 26 8 18 -5 -5 -8 0 -7 11 2 10 8 16 10 12 3 -8 -12
102 -15 663 -16 493 0 577 2 560 13 -11 8 -7 9 15 5 60 -12 115 -14 120 -4 4
5 1 8 -6 7 -6 -2 -13 2 -15 7 -4 11 73 14 91 4 18 -10 105 -11 105 -1 0 6 -6
13 -12 15 -10 4 -10 6 -1 6 6 1 15 -3 18 -9 3 -5 16 -10 28 -10 18 0 19 2 7
10 -9 6 -10 10 -3 10 6 0 14 -4 18 -10 4 -6 16 -5 33 2 15 6 45 12 67 15 22 2
51 8 65 13 22 8 85 25 130 36 8 1 42 12 75 24 33 11 78 27 100 34 22 8 39 19
37 26 -1 6 2 9 8 5 5 -3 26 1 45 11 19 9 48 17 65 19 16 1 35 6 42 12 7 5 26
10 41 11 16 1 34 5 40 9 6 4 20 8 31 9 27 2 64 11 74 18 21 13 286 21 372 11
14 -1 38 -3 53 -4 17 0 26 -5 22 -11 -4 -7 2 -9 19 -4 15 3 32 1 39 -4 7 -6
32 -13 55 -14 23 -2 42 -7 42 -12 0 -4 11 -6 25 -4 13 3 22 2 20 -2 -5 -9 203
-45 212 -37 3 4 12 2 20 -4 10 -9 13 -8 13 5 0 9 -6 16 -13 16 -8 0 -22 10
-33 21 -10 12 -75 48 -143 81 -68 33 -134 70 -147 83 -12 12 -25 20 -28 17 -3
-3 -6 0 -6 6 0 11 -65 29 -84 23 -6 -1 -19 2 -30 8 -12 6 -67 19 -124 30 -101
19 -131 34 -132 68 0 16 -30 69 -76 135 -35 51 -36 56 -30 115 4 34 15 81 26
105 11 25 20 58 20 74 0 16 1 54 2 84 0 30 1 72 1 93 1 20 4 37 9 37 4 0 8 5
8 11 0 5 -4 7 -10 4 -5 -3 -10 2 -10 12 0 10 -9 24 -20 31 -12 7 -19 20 -18
30 2 11 -3 16 -15 14 -9 -2 -20 4 -23 13 -8 20 -20 19 -45 -4 -22 -20 -58 -30
-124 -35 -22 -2 -53 -9 -69 -15 -16 -7 -36 -9 -44 -6 -8 3 -22 0 -30 -7 -12
-10 -14 -10 -8 -1 5 9 2 11 -8 7 -8 -3 -13 -11 -10 -19 6 -15 -33 -27 -40 -11
-2 6 -5 3 -5 -6 -1 -10 -7 -18 -15 -18 -7 0 -19 -7 -26 -15 -7 -8 -18 -14 -24
-14 -16 3 -66 -12 -66 -20 0 -3 -12 -7 -27 -8 -15 0 -32 -7 -37 -15 -17 -20
-51 -46 -42 -30 5 8 -8 5 -33 -7 -22 -12 -45 -21 -50 -21 -5 0 -22 -5 -38 -12
-15 -6 -32 -12 -38 -12 -5 -1 -19 -6 -30 -12 -11 -6 -51 -17 -90 -24 -38 -7
-81 -17 -95 -23 -14 -5 -45 -13 -70 -18 -25 -4 -72 -15 -104 -24 -33 -9 -72
-17 -88 -17 -15 -1 -28 -5 -28 -10 0 -4 -9 -8 -19 -8 -11 0 -22 -4 -25 -9 -3
-5 -16 -9 -28 -9 -13 0 -41 -8 -63 -17 -22 -10 -45 -19 -51 -20 -26 -6 -139
-49 -144 -55 -5 -6 -50 -21 -75 -25 -26 -3 -73 -20 -100 -35 -16 -9 -50 -22
-75 -28 -25 -7 -54 -17 -65 -21 -11 -5 -46 -14 -77 -21 -32 -6 -58 -15 -58
-20 0 -5 -7 -7 -15 -4 -9 4 -18 -1 -21 -11 -5 -11 -14 -15 -29 -11 -13 3 -38
0 -56 -8 -19 -7 -49 -12 -66 -10 -18 2 -33 0 -33 -5 0 -5 -17 -9 -37 -9 -75
-1 -108 -5 -115 -16 -6 -8 -11 -6 -18 4 -9 13 -10 13 -10 0 0 -12 -2 -13 -9
-1 -7 11 -9 11 -14 0 -4 -12 -7 -11 -16 1 -10 13 -11 13 -11 0 0 -12 -2 -13
-9 -1 -7 11 -9 11 -14 0 -4 -12 -7 -11 -16 1 -10 13 -11 13 -11 0 0 -12 -2
-13 -9 -1 -7 11 -9 11 -14 0 -5 -12 -7 -12 -15 0 -7 9 -31 14 -75 14 -40 1
-63 5 -60 11 4 5 -1 7 -11 3 -9 -4 -14 -3 -11 2 9 16 -16 25 -26 10 -8 -12
-10 -12 -18 0 -7 11 -9 11 -14 0 -4 -11 -6 -11 -6 -1 -1 9 -14 11 -52 6 -38
-5 -53 -3 -61 7 -7 11 -11 11 -15 2 -6 -17 -53 -17 -53 0 0 8 -4 7 -10 -3 -8
-13 -10 -13 -10 2 0 18 -35 28 -88 26 -19 0 -37 4 -41 11 -6 9 -15 9 -35 1
-24 -9 -27 -8 -22 5 5 13 2 14 -15 4 -16 -8 -23 -8 -29 1 -4 6 -10 11 -14 10
-3 0 -22 2 -42 6 -20 4 -66 8 -103 9 -36 1 -88 7 -115 13 -27 5 -55 8 -61 6
-6 -3 -38 2 -70 10 -32 9 -68 13 -81 10 -13 -4 -24 -2 -24 3 0 6 -15 9 -32 7
-18 -1 -68 4 -111 12 -44 8 -83 11 -88 8 -5 -3 -9 1 -9 8 0 9 -3 9 -10 -2 -9
-13 -11 -13 -21 0 -7 10 -12 11 -15 4 -3 -8 -19 -9 -48 -3 -56 10 -127 19
-191 24 -27 2 -59 6 -70 8 -11 3 -51 8 -89 11 -38 4 -74 10 -79 13 -5 3 -33 7
-61 8 -95 5 -170 16 -256 36 -47 11 -97 22 -111 24 -14 2 -38 9 -53 15 -15 5
-41 10 -58 10 -18 0 -45 4 -62 10 -17 5 -68 21 -113 35 -82 24 -146 58 -183
95 -10 10 -32 26 -47 34 -23 11 -34 29 -51 83 -26 79 -28 147 -7 223 8 30 22
82 31 115 8 33 19 69 24 80 5 11 11 34 14 50 9 55 28 140 34 155 3 8 6 20 7
25 0 6 6 28 12 50 29 97 68 264 77 330 5 35 24 62 53 73 161 59 290 67 431 28
211 -60 355 -143 512 -296 93 -92 112 -116 150 -193 39 -80 43 -95 43 -165 0
-42 -5 -95 -12 -117 -19 -58 -100 -274 -111 -293 -5 -10 -19 -37 -31 -61 l-21
-44 288 7 c254 6 424 18 372 26 -10 1 -22 3 -27 4 -15 2 -25 16 -12 16 7 0 9
4 6 10 -3 5 -1 18 4 29 8 14 8 21 -2 24 -9 3 -9 7 1 19 7 9 15 33 17 54 3 22
11 73 19 114 25 133 27 144 32 210 3 36 14 110 24 165 29 157 43 319 43 530 1
112 -3 147 -16 174 -9 19 -17 40 -17 48 0 7 -4 13 -10 13 -5 0 -10 -4 -10 -10
0 -5 -4 -10 -10 -10 -5 0 -10 16 -10 36 0 30 -2 34 -14 25 -8 -7 -17 -24 -21
-39 -3 -15 -28 -90 -54 -167 -27 -77 -97 -286 -156 -465 -58 -179 -128 -370
-154 -425 -47 -99 -109 -184 -160 -217 -48 -33 -43 -18 13 37 114 112 169 312
121 435 -72 179 -363 451 -591 551 -168 73 -303 113 -484 145 -52 9 -98 18
-103 21 -4 2 -14 18 -23 35 -12 24 -15 47 -10 97 9 99 26 195 37 205 5 6 9 21
9 35 0 15 7 51 16 81 8 30 17 67 19 81 2 14 16 77 30 140 30 133 30 131 45
229 7 41 16 86 22 100 13 32 58 240 68 315 10 78 27 170 30 170 0 0 3 18 5 40
3 39 16 102 52 245 28 115 118 315 160 358 7 7 13 17 13 20 0 12 122 135 165
167 22 16 47 36 55 46 8 9 26 19 40 23 124 33 191 46 290 56 63 7 138 19 165
27 28 8 84 18 125 23 41 5 109 13 150 19 41 5 100 12 130 15 30 3 73 8 96 11
30 4 76 -5 180 -36 76 -22 167 -48 201 -56 67 -16 63 -17 330 41 33 7 74 27
108 51 l55 40 1 65 c3 177 20 241 68 248 12 2 29 14 37 28 9 13 22 23 29 22
17 -4 75 42 75 58 0 8 -3 13 -7 13 -19 -3 -33 2 -33 12 0 6 7 8 16 5 14 -5 15
-4 4 9 -7 9 -19 14 -27 11 -8 -3 -16 1 -19 9 -4 8 -14 15 -23 15 -14 0 -14 -2
-1 -10 9 -6 10 -10 3 -10 -7 0 -17 8 -22 19 -7 12 -19 17 -36 16 -14 -2 -25 1
-25 5 0 5 -60 38 -134 74 -92 45 -136 72 -141 86 -4 11 -11 18 -16 15 -5 -4
-9 -2 -9 4 0 6 -21 34 -47 62 -27 29 -58 63 -70 77 -12 13 -25 33 -28 43 -4
11 -10 17 -15 14 -12 -7 -28 67 -24 116 2 25 10 49 19 55 12 9 13 13 3 17 -16
5 -6 18 19 21 10 2 19 8 19 14 1 7 2 17 3 23 0 5 6 7 11 4 6 -4 8 -11 5 -16
-4 -5 12 -9 34 -9 27 0 43 5 49 17 7 11 25 17 58 19 40 1 52 -2 66 -20 15 -19
17 -19 23 -3 4 9 12 17 17 17 6 0 8 -7 4 -15 -7 -19 44 -21 63 -2 8 6 11 7 8
1 -5 -8 14 -11 61 -10 55 1 71 5 90 24 25 25 28 38 10 46 -10 5 -10 7 0 12 6
3 12 12 12 19 0 7 -6 15 -12 18 -10 3 -10 7 0 19 8 10 9 17 3 20 -6 1 -12 14
-15 28 -2 14 -5 26 -7 28 -1 1 -2 5 -4 10 -1 4 -9 24 -18 44 -10 21 -17 39
-17 42 0 3 -5 17 -12 33 -15 37 -11 26 -58 198 -23 83 -46 158 -51 167 -5 9
-16 52 -25 95 -9 43 -19 84 -23 93 -13 25 -2 325 14 400 3 14 10 46 15 73 5
26 14 56 19 66 6 10 7 21 4 25 -3 3 1 14 10 24 10 10 14 22 10 25 -3 4 0 15 8
24 8 10 23 35 33 56 11 20 22 37 25 37 4 0 24 16 44 35 20 19 44 35 52 35 8 0
15 5 15 10 0 6 6 10 13 10 6 0 27 14 45 30 19 16 47 35 63 42 16 7 29 19 29
27 0 8 3 11 7 8 9 -10 55 44 49 58 -3 8 2 19 10 25 8 7 14 26 14 42 0 16 4 27
9 24 7 -5 7 58 -1 246 -2 59 -4 65 -20 57 -9 -5 -20 -14 -23 -19 -3 -6 -11
-10 -17 -10 -19 0 13 29 72 65 47 29 67 35 112 35 74 0 193 -37 315 -99 113
-56 112 -56 240 -16 173 55 257 68 413 62 239 -9 413 -71 523 -185 79 -84 103
-132 146 -300 21 -84 48 -170 60 -192 12 -23 21 -59 21 -84 0 -24 3 -57 6 -74
l6 -31 24 26 c13 14 38 36 54 48 l31 23 59 -19 c62 -19 104 -14 141 18 17 14
77 131 83 160 1 10 8 31 14 46 7 15 14 38 16 50 3 12 15 62 26 111 17 72 20
107 15 175 -4 47 -8 111 -9 141 -3 57 -31 155 -47 165 -5 4 -9 19 -9 35 0 22
-5 29 -22 32 -17 2 -24 12 -29 38 -17 100 -166 236 -409 374 -312 177 -820
372 -1109 426 -30 6 -70 14 -90 20 -55 14 -325 40 -405 39 -39 -1 -120 -5
-181 -10z m970 -279 c185 -63 305 -127 389 -205 53 -49 67 -70 80 -115 15 -50
15 -57 0 -97 -15 -37 -25 -46 -54 -45 -254 7 -384 17 -450 33 -61 16 -110 69
-124 137 -10 41 -81 148 -113 169 -26 17 -70 93 -53 93 5 0 10 6 10 14 0 20
96 63 146 65 12 1 88 -22 169 -49z m-1105 -863 c0 -2 -10 -12 -22 -23 l-23
-19 19 23 c18 21 26 27 26 19z m-377 -597 c-9 -16 -21 -30 -26 -30 -4 0 0 14
10 30 9 17 21 30 26 30 4 0 0 -13 -10 -30z m-39 -64 c-3 -9 -10 -16 -15 -16
-5 0 -4 9 3 20 14 22 21 20 12 -4z m-33 -63 c-12 -20 -14 -14 -5 12 4 9 9 14
11 11 3 -2 0 -13 -6 -23z m-1178 -714 c4 -16 3 -18 -9 -8 -7 6 -11 15 -8 20 8
13 11 11 17 -12z m45 -11 c7 -7 12 -20 12 -30 0 -10 5 -18 11 -18 5 0 7 5 4
10 -4 6 23 -7 59 -29 46 -29 78 -41 110 -42 44 -3 64 -18 50 -40 -10 -17 -42
-9 -120 31 -88 43 -146 88 -150 113 -3 20 7 22 24 5z m272 -168 c0 -5 -4 -10
-10 -10 -5 0 -10 5 -10 10 0 6 5 10 10 10 6 0 10 -4 10 -10z m750 -550 c0 -5
-4 -10 -10 -10 -5 0 -10 5 -10 10 0 6 5 10 10 10 6 0 10 -4 10 -10z m400 0 c0
-5 -4 -10 -10 -10 -5 0 -10 5 -10 10 0 6 5 10 10 10 6 0 10 -4 10 -10z m-487
-5577 c-7 -2 -19 -2 -25 0 -7 3 -2 5 12 5 14 0 19 -2 13 -5z m-2073 -373 c0
-5 -4 -10 -10 -10 -5 0 -10 5 -10 10 0 6 5 10 10 10 6 0 10 -4 10 -10z"/>
<path d="M2822 15909 c-81 -52 -81 -122 1 -369 68 -204 259 -665 397 -955 28
-60 71 -153 95 -205 24 -52 62 -130 84 -174 23 -43 41 -80 41 -82 0 -1 -111
-78 -247 -170 -421 -284 -558 -408 -649 -584 -24 -48 -28 -66 -28 -145 -1
-154 52 -265 190 -401 149 -147 342 -264 704 -427 418 -188 658 -252 1050
-283 88 -6 305 15 385 39 l40 12 -40 3 c-22 2 -42 7 -45 12 -3 4 -28 13 -55
18 -28 6 -120 30 -205 55 -85 24 -184 51 -220 60 -449 105 -634 174 -1091 406
-15 8 -30 23 -33 33 -2 11 -9 17 -15 13 -6 -3 -11 1 -11 10 0 13 -6 16 -25 11
-14 -4 -25 -2 -25 4 0 5 9 10 20 10 36 0 1 37 -41 44 -21 3 -45 13 -54 23 -9
9 -20 12 -23 7 -12 -16 -32 -15 -32 2 0 11 -6 15 -20 11 -11 -3 -23 -1 -26 4
-3 5 -1 9 3 9 5 0 9 9 9 20 0 11 -6 20 -13 20 -7 0 -10 -7 -6 -17 5 -13 2 -15
-11 -10 -10 4 -22 7 -27 7 -11 0 -113 92 -116 105 -1 5 -10 12 -20 16 -17 7
-17 8 0 8 10 1 27 -4 38 -9 10 -6 38 -12 62 -14 23 -2 42 -5 42 -6 0 -1 18 -3
40 -5 84 -8 175 -25 231 -44 33 -10 88 -22 124 -26 36 -4 94 -13 130 -21 77
-17 85 -19 170 -29 36 -5 69 -8 73 -7 4 1 16 -2 25 -7 22 -12 90 -22 166 -26
51 -2 65 -7 104 -39 59 -48 73 -46 28 4 -36 40 -51 75 -21 50 11 -9 20 -8 45
10 l30 21 0 148 c0 156 -8 225 -41 334 -18 57 -19 70 -8 84 12 14 10 15 -18 9
l-31 -7 -7 58 c-9 76 -11 84 -35 90 -24 6 -66 92 -76 152 -5 32 -2 42 17 59
l22 22 -54 -3 -53 -2 -22 45 c-22 43 -333 744 -444 995 -78 179 -159 364 -185
420 -94 207 -245 581 -245 607 0 3 8 9 18 11 11 3 9 5 -8 6 -14 0 -40 -9 -58
-20z m898 -2351 c0 -6 -6 -5 -15 2 -8 7 -15 14 -15 16 0 2 7 1 15 -2 8 -4 15
-11 15 -16z m-155 -34 c-17 -13 -17 -16 -4 -29 11 -12 22 -13 49 -5 42 12 86
5 94 -16 4 -10 2 -13 -7 -8 -9 5 -9 4 0 -6 6 -7 9 -18 6 -25 -3 -10 2 -12 17
-8 17 5 19 8 8 15 -10 8 -10 9 2 5 8 -2 16 -13 18 -25 2 -12 8 -20 13 -17 13
9 49 -14 49 -31 0 -12 4 -13 21 -4 11 7 22 10 24 8 2 -2 -3 -41 -11 -88 -7
-47 -14 -103 -14 -125 0 -46 24 -146 46 -189 7 -16 14 -31 14 -33 0 -1 -27 -3
-61 -3 -38 0 -88 9 -132 24 -147 50 -238 120 -281 216 -24 54 -27 70 -21 119
4 31 16 76 26 101 22 52 79 103 105 93 13 -5 15 -2 10 14 -5 14 0 23 16 30 30
14 38 5 13 -13z m200 -53 c3 -5 1 -12 -5 -16 -5 -3 -10 1 -10 9 0 18 6 21 15
7z"/>
<path d="M20085 15826 c-87 -39 -145 -166 -119 -261 5 -18 12 -20 92 -17 97 4
116 14 131 68 15 54 -34 225 -63 224 -6 -1 -24 -7 -41 -14z"/>
<path d="M4425 15510 c-50 -11 -159 -52 -245 -93 -180 -86 -401 -242 -603
-427 -18 -17 -18 -19 11 -66 16 -27 35 -67 42 -89 7 -22 22 -60 33 -85 146
-327 317 -783 317 -847 0 -11 10 -25 23 -30 28 -13 43 -59 52 -160 5 -51 12
-76 26 -89 24 -22 42 -79 35 -109 -5 -21 2 -28 62 -62 44 -25 90 -62 130 -106
82 -92 93 -138 61 -264 -29 -113 -29 -180 0 -227 13 -20 30 -36 39 -36 22 0
239 -55 317 -80 270 -87 376 -125 452 -162 33 -16 54 -19 88 -15 35 5 53 2 81
-14 27 -15 45 -18 68 -13 17 4 37 9 45 10 8 2 18 9 22 17 5 7 26 19 49 27 22
7 40 16 40 20 0 4 11 12 25 18 20 9 25 9 25 -3 0 -8 -7 -18 -16 -23 -19 -11
-26 -62 -8 -62 18 0 27 17 12 23 -10 4 -10 7 0 18 11 12 14 12 22 0 7 -12 15
-9 47 15 273 208 481 465 527 650 10 38 21 85 27 104 22 83 -5 391 -51 585
-42 178 -167 529 -247 695 -44 91 -85 181 -92 200 -6 19 -27 60 -46 90 -19 30
-45 75 -59 100 -69 127 -207 256 -309 289 -37 11 -87 33 -113 47 -30 17 -56
24 -75 22 -18 -3 -29 0 -29 7 0 15 -101 55 -137 55 -22 0 -24 -2 -13 -15 7 -9
19 -14 27 -11 7 3 23 1 35 -5 21 -9 21 -9 -5 -6 -15 3 -30 0 -33 -4 -3 -5 -10
-9 -15 -9 -6 0 -7 5 -4 10 4 6 -11 10 -39 10 -26 0 -47 5 -50 13 -5 10 -7 10
-12 0 -3 -7 -18 -13 -33 -13 -39 0 -88 -19 -95 -36 -3 -8 -14 -14 -25 -14 -11
0 -23 -4 -26 -10 -3 -5 -14 -10 -25 -10 -10 0 -20 -6 -23 -13 -3 -8 -32 -13
-87 -15 -48 -1 -90 -7 -98 -15 -13 -10 -14 -9 -7 3 6 12 5 13 -6 3 -16 -15
-33 -17 -24 -3 3 6 -1 10 -9 10 -8 0 -18 -4 -21 -10 -3 -5 -11 -10 -16 -10 -6
0 -8 4 -5 8 3 5 -1 9 -8 9 -9 0 -13 -9 -10 -23 2 -13 -1 -22 -9 -21 -92 3
-247 -5 -242 -13 3 -5 -3 -10 -15 -10 -11 0 -23 -7 -26 -15 -9 -23 -64 -16
-61 7 2 10 6 21 10 24 4 4 7 15 7 25 0 9 10 20 23 24 l22 7 -25 8 c-15 5 -19
8 -8 9 9 1 23 8 31 16 22 21 179 98 277 135 47 18 87 34 89 36 7 6 -50 3 -94
-6z m558 -117 c-7 -2 -19 -2 -25 0 -7 3 -2 5 12 5 14 0 19 -2 13 -5z m-987
-179 c-4 -9 2 -14 15 -14 16 0 18 -2 7 -14 -9 -10 -15 -11 -20 -2 -6 8 -8 8
-8 -1 0 -7 -4 -13 -9 -13 -13 0 -21 54 -8 62 16 9 29 -1 23 -18z m843 -89
c147 -39 252 -129 285 -246 38 -129 -42 -267 -195 -339 -135 -63 -281 -74
-419 -31 -258 81 -346 327 -177 499 121 123 314 168 506 117z m-992 -31 c-3
-3 -12 -4 -19 -1 -8 3 -5 6 6 6 11 1 17 -2 13 -5z m366 -1628 c16 -18 21 -26
14 -26 -2 0 -19 17 -38 37 -18 20 -25 31 -14 23 11 -8 28 -24 38 -34z"/>
<path d="M10173 15016 c-76 -13 -173 -54 -173 -75 0 -18 51 -28 156 -30 209
-4 386 55 302 100 -33 18 -191 20 -285 5z"/>
<path d="M11000 14973 c1 -25 64 -73 96 -73 31 0 50 25 34 45 -9 11 -23 13
-51 9 -32 -5 -39 -4 -39 10 0 9 -8 16 -20 16 -11 0 -20 -3 -20 -7z"/>
<path d="M10158 14734 c-83 -45 -54 -174 39 -174 49 0 93 45 93 95 0 27 -8 44
-29 66 -32 32 -62 36 -103 13z"/>
<path d="M10983 14718 c-36 -48 -41 -123 -10 -142 15 -9 22 -7 37 12 21 25 35
91 25 122 -7 22 -37 27 -52 8z"/>
<path d="M10503 14477 c-28 -30 -44 -60 -52 -95 -14 -57 -9 -83 27 -129 25
-34 42 -42 42 -20 0 19 105 57 158 57 27 0 53 5 60 12 13 13 17 114 6 143 -10
25 -118 75 -162 75 -34 0 -45 -6 -79 -43z"/>
<path d="M13931 14124 c-36 -30 -45 -58 -77 -251 -31 -185 -66 -391 -99 -578
-14 -82 -37 -214 -51 -292 -26 -153 -60 -351 -100 -583 -14 -80 -36 -209 -49
-287 -13 -78 -26 -150 -29 -160 -3 -10 -14 -74 -25 -143 -11 -69 -34 -204 -51
-300 -17 -96 -42 -240 -56 -320 -61 -354 -76 -444 -100 -580 -14 -80 -36 -212
-50 -295 -27 -170 -60 -361 -98 -580 -15 -82 -36 -202 -46 -265 -11 -63 -27
-151 -35 -195 -47 -246 -80 -428 -96 -530 -6 -38 -18 -106 -26 -150 -28 -149
-43 -240 -48 -295 -5 -51 -22 -135 -46 -222 -5 -20 -16 -90 -24 -156 -8 -66
-25 -164 -37 -218 -34 -156 -33 -168 36 -230 32 -29 72 -60 91 -68 38 -19 86
-21 102 -5 13 13 83 18 83 5 0 -8 53 -5 190 8 19 2 112 8 205 15 94 6 184 14
200 18 17 4 66 6 109 5 43 -1 84 2 90 7 6 5 39 9 73 8 33 -1 59 1 56 6 -2 4
12 7 32 7 44 0 176 29 190 41 5 5 21 9 37 9 19 0 26 4 22 14 -3 8 8 23 25 36
17 12 31 26 31 33 0 6 -6 2 -14 -9 -8 -10 -18 -16 -22 -11 -11 10 27 36 54 37
13 0 22 6 22 16 0 11 6 14 20 9 21 -7 28 10 8 18 -7 3 -3 6 10 6 13 1 20 5 17
11 -8 13 118 140 139 140 10 0 13 6 9 16 -5 13 -2 15 15 9 20 -6 32 8 15 18
-5 2 -3 3 3 1 13 -3 70 56 66 69 -5 15 19 37 40 37 10 0 16 5 13 10 -7 11 17
40 33 40 12 0 24 29 16 41 -3 5 2 9 10 9 21 0 99 77 91 90 -3 5 0 7 8 4 9 -3
23 7 37 25 12 17 28 31 36 31 8 0 14 10 14 25 0 17 4 23 14 19 8 -3 21 5 30
18 9 13 19 22 21 21 3 -2 5 -1 6 2 1 12 55 65 66 65 7 0 13 5 13 11 0 6 36 47
80 90 44 43 82 90 86 103 4 17 17 30 40 38 19 6 34 16 34 21 0 12 26 37 39 37
6 0 11 6 11 13 0 8 11 19 25 25 14 6 33 29 43 49 18 41 39 62 60 63 15 0 76
60 61 60 -22 0 -6 19 22 25 20 5 37 18 48 36 9 16 20 29 25 29 4 0 29 23 55
50 26 28 52 50 59 50 7 0 12 6 12 13 0 7 25 35 55 62 31 27 53 55 51 62 -3 7
1 13 10 13 8 0 12 5 9 11 -8 11 22 38 43 39 17 0 139 125 147 151 4 11 25 37
47 57 22 20 52 49 66 65 14 15 31 27 39 27 7 0 21 18 30 40 10 22 22 40 28 40
15 0 85 73 85 88 0 6 7 9 15 6 8 -4 15 -2 15 4 0 6 -6 13 -12 15 -8 3 -6 6 5
6 9 1 17 8 17 16 0 8 3 14 8 12 4 -1 7 2 7 7 0 4 15 13 34 20 21 7 40 23 51
43 9 18 20 30 22 27 3 -2 15 15 26 40 17 35 27 45 49 48 21 2 28 8 26 22 -1
17 24 53 31 45 26 -30 224 -377 632 -1111 655 -1177 711 -1277 846 -1518 216
-385 228 -416 228 -630 0 -196 -36 -365 -115 -537 -60 -130 -159 -252 -240
-296 -40 -22 -45 -22 -485 -20 -245 1 -650 7 -900 13 -250 5 -538 11 -640 12
l-185 3 -3 -56 c-3 -56 -2 -57 33 -79 36 -22 46 -23 588 -36 304 -7 597 -15
652 -18 55 -2 290 -9 523 -16 475 -14 510 -12 571 42 68 59 162 190 213 297
110 230 143 381 142 656 0 164 -3 201 -22 273 -38 141 -55 176 -227 482 -82
145 -184 328 -342 610 -88 157 -170 303 -183 325 -12 22 -47 85 -78 140 -30
55 -82 150 -117 210 -34 61 -168 300 -298 531 -129 232 -247 440 -261 463 -14
22 -26 43 -26 45 0 3 -38 71 -84 153 -46 81 -145 258 -221 393 -76 135 -170
301 -208 370 -39 69 -91 161 -115 205 -25 44 -62 109 -81 145 -20 36 -43 66
-51 68 -9 1 -133 -118 -295 -284 -154 -158 -296 -304 -317 -325 -20 -20 -34
-40 -31 -42 2 -3 -8 -14 -24 -23 -31 -21 -63 -53 -63 -65 0 -8 -42 -51 -164
-168 -31 -30 -56 -57 -56 -61 0 -4 -11 -12 -25 -18 -14 -6 -25 -17 -25 -24 0
-6 -13 -26 -30 -42 -104 -108 -180 -190 -180 -196 0 -13 -71 -80 -80 -75 -5 3
-11 -3 -14 -12 -4 -10 -21 -29 -39 -42 -30 -23 -57 -62 -57 -84 0 -5 -27 -36
-60 -69 -33 -34 -60 -65 -60 -70 0 -4 -6 -8 -13 -8 -15 0 -48 -36 -40 -44 4
-3 2 -6 -3 -6 -6 0 -20 -18 -33 -40 -12 -22 -29 -40 -37 -40 -8 0 -14 -4 -14
-8 0 -5 -13 -24 -30 -42 -16 -18 -30 -37 -30 -42 0 -4 -7 -8 -15 -8 -8 0 -20
-9 -27 -20 -7 -11 -18 -20 -23 -20 -6 0 -24 -18 -41 -41 -16 -22 -36 -48 -45
-57 -9 -9 -24 -32 -35 -49 -10 -18 -24 -33 -31 -33 -7 0 -13 -3 -13 -7 0 -5
-17 -26 -37 -48 -20 -22 -36 -41 -35 -42 10 -14 -2 -33 -20 -33 -12 0 -18 -3
-15 -6 7 -7 -30 -44 -44 -44 -5 0 -11 -11 -15 -25 -3 -14 -12 -25 -18 -25 -7
0 -18 -11 -24 -25 -6 -14 -18 -25 -26 -25 -10 0 -13 -8 -10 -25 3 -18 0 -25
-11 -25 -8 0 -14 -3 -14 -7 4 -24 -3 -35 -17 -29 -8 3 -12 2 -9 -4 3 -6 0 -10
-9 -10 -17 0 -96 -73 -96 -89 0 -6 -4 -11 -10 -11 -5 0 -9 -3 -9 -7 4 -25 -3
-43 -16 -43 -8 0 -15 -4 -15 -10 0 -5 -9 -10 -20 -10 -11 0 -20 -7 -20 -15 0
-8 -7 -15 -16 -15 -8 0 -12 -4 -9 -10 3 -5 -3 -10 -15 -10 -12 0 -19 -4 -15
-9 3 -6 -1 -13 -9 -18 -14 -8 -16 -12 -16 -34 0 -6 -7 -8 -16 -5 -8 3 -13 2
-9 -3 3 -5 -1 -16 -9 -24 -8 -8 -12 -18 -8 -21 3 -4 -4 -9 -16 -13 -12 -3 -19
-9 -16 -14 5 -9 -119 -139 -152 -157 -10 -6 -20 -20 -20 -31 -1 -12 -2 -25 -3
-30 0 -5 -12 -12 -26 -15 -14 -4 -23 -10 -21 -15 3 -5 -4 -11 -15 -14 -12 -3
-18 -10 -15 -15 3 -5 -20 -35 -51 -66 -30 -31 -53 -56 -49 -56 4 0 1 -10 -6
-22 -7 -13 -11 -26 -10 -30 1 -5 -7 -8 -19 -8 -11 0 -17 -5 -14 -10 3 -6 -1
-13 -9 -16 -9 -3 -13 -10 -10 -16 3 -5 0 -8 -7 -6 -8 1 -14 0 -14 -4 0 -14
-45 -39 -57 -32 -7 4 -8 3 -4 -4 5 -8 -2 -12 -22 -12 -24 0 -28 -4 -27 -22 1
-13 -2 -25 -6 -28 -4 -3 -10 -19 -13 -35 -3 -16 -12 -33 -20 -37 -9 -5 -13
-18 -10 -36 4 -19 2 -24 -6 -16 -23 23 -6 241 45 564 35 217 82 504 120 725
86 505 115 670 130 755 9 47 43 243 76 435 106 609 157 906 184 1055 14 80 28
161 32 180 3 19 36 215 74 435 38 220 90 519 115 665 25 146 54 312 64 370 10
58 30 175 45 260 14 85 37 216 50 290 96 542 96 544 84 601 -16 74 -23 86 -77
120 -56 36 -72 36 -111 3z m-741 -6304 c0 -5 -4 -10 -10 -10 -5 0 -10 5 -10
10 0 6 5 10 10 10 6 0 10 -4 10 -10z"/>
<path d="M10300 13931 c0 -25 129 -99 217 -126 158 -49 359 -14 471 79 52 45
28 47 -56 6 -196 -96 -325 -92 -531 16 -64 34 -101 43 -101 25z"/>
<path d="M2868 12953 c7 -3 16 -2 19 1 4 3 -2 6 -13 5 -11 0 -14 -3 -6 -6z"/>
<path d="M4065 12750 c3 -5 11 -10 16 -10 6 0 7 5 4 10 -3 6 -11 10 -16 10 -6
0 -7 -4 -4 -10z"/>
<path d="M4110 12736 c0 -2 7 -7 16 -10 8 -3 12 -2 9 4 -6 10 -25 14 -25 6z"/>
<path d="M5546 12531 c-4 -7 -5 -15 -2 -18 9 -9 19 4 14 18 -4 11 -6 11 -12 0z"/>
<path d="M5485 12480 c-10 -11 -13 -20 -8 -20 13 0 38 29 31 35 -3 3 -13 -4
-23 -15z"/>
<path d="M5440 12449 c0 -5 5 -7 10 -4 6 3 10 8 10 11 0 2 -4 4 -10 4 -5 0
-10 -5 -10 -11z"/>
<path d="M10300 12440 c0 -5 19 -22 43 -37 49 -31 127 -112 127 -132 0 -8 3
-12 6 -8 19 18 -52 115 -119 160 -43 29 -57 33 -57 17z"/>
<path d="M12495 9834 c-54 -22 -99 -55 -175 -130 -30 -29 -62 -107 -54 -132
26 -79 66 -107 184 -127 107 -19 130 -5 130 81 0 28 5 76 11 105 13 62 18 209
6 202 -4 -2 -10 3 -13 11 -8 21 -17 20 -89 -10z"/>
<path d="M12950 9110 c-8 -5 -12 -12 -9 -15 4 -3 12 1 19 10 14 17 11 19 -10
5z"/>
<path d="M12385 8857 c-33 -10 -40 -16 -37 -32 3 -11 8 -23 13 -26 5 -3 80 -6
166 -7 87 -1 170 -5 185 -8 23 -5 27 -3 22 11 -4 10 -13 14 -26 9 -15 -4 -18
-3 -13 7 6 8 4 11 -6 7 -8 -3 -41 0 -74 7 -33 8 -56 14 -51 14 5 1 3 8 -4 16
-15 18 -114 19 -175 2z"/>
<path d="M12391 8577 c-33 -17 -38 -37 -9 -39 13 0 28 -2 33 -3 6 -2 15 -4 20
-5 6 -1 1 -6 -10 -11 -14 -7 -2 -8 41 -5 70 6 122 28 102 43 -7 6 -38 13 -68
16 -30 3 -62 8 -70 11 -8 3 -26 0 -39 -7z"/>
<path d="M12139 8296 c-4 -20 -18 -56 -30 -79 -6 -10 -7 -27 -4 -38 4 -11 2
-19 -4 -19 -6 0 -11 -3 -11 -8 0 -4 30 -14 68 -23 37 -9 108 -28 157 -43 108
-31 123 -32 70 -6 -22 11 -31 18 -21 15 23 -7 76 15 76 31 0 8 37 11 123 9 67
-1 114 0 104 2 -10 3 -44 19 -75 37 -31 17 -73 38 -92 46 -19 7 -42 19 -50 25
-8 7 -26 16 -40 20 -14 4 -30 12 -37 17 -13 11 -232 24 -234 14z"/>
<path d="M13220 7879 c0 -5 5 -7 10 -4 6 3 10 8 10 11 0 2 -4 4 -10 4 -5 0
-10 -5 -10 -11z"/>
<path d="M6005 7840 c3 -5 8 -10 11 -10 2 0 4 5 4 10 0 6 -5 10 -11 10 -5 0
-7 -4 -4 -10z"/>
<path d="M15285 7519 c-88 -5 -212 -13 -275 -19 -102 -10 -569 -39 -627 -40
-21 0 -23 -5 -23 -47 1 -147 54 -256 152 -311 118 -67 313 -97 713 -107 228
-6 286 -3 530 31 66 9 131 16 143 16 19 0 23 4 17 22 -19 65 -26 164 -20 281
l7 130 -29 -40 c-40 -53 -55 -65 -96 -72 -77 -12 -185 51 -229 135 -19 37 5
35 -263 21z"/>
<path d="M13995 7453 c-98 -4 -358 -22 -430 -30 -45 -5 -54 -8 -35 -13 23 -6
25 -10 22 -54 -3 -38 1 -51 17 -65 12 -10 24 -33 27 -51 4 -20 14 -35 26 -38
10 -2 21 -15 24 -28 3 -13 13 -24 20 -24 8 0 19 -11 24 -25 5 -14 13 -25 17
-25 5 0 34 -24 65 -54 31 -29 77 -68 102 -86 50 -36 52 -40 34 -58 -9 -9 1
-12 48 -12 32 0 111 -5 174 -10 183 -16 309 -19 347 -8 22 6 110 5 246 -1 117
-6 248 -11 292 -12 156 -1 430 4 410 8 -11 3 -24 9 -30 14 -11 11 21 11 320
-1 132 -5 308 -12 392 -15 l152 -6 -12 25 c-9 19 -13 22 -15 10 -4 -15 -17
-16 -115 -10 -62 4 -200 11 -307 16 -107 6 -298 15 -425 21 -207 11 -1099 16
-1185 8 l-35 -4 1 50 c1 28 5 148 9 268 l8 217 -59 -2 c-32 -1 -90 -3 -129 -5z"/>
<path d="M6927 7169 c-11 -248 -9 -415 6 -427 14 -11 105 -38 162 -46 92 -15
367 -40 590 -55 177 -12 696 -23 573 -13 -42 4 -80 10 -84 15 -4 4 -2 7 5 7 7
0 18 6 24 13 32 33 40 51 44 90 3 23 9 45 15 48 6 4 5 9 -3 12 -11 4 -12 7 -1
15 11 7 10 11 -1 20 -12 10 -16 132 -8 273 1 10 13 19 33 23 30 6 31 7 12 21
-18 14 -18 14 6 16 47 3 -175 18 -430 28 -346 14 -726 58 -911 106 l-26 6 -6
-152z"/>
<path d="M16212 7027 c-12 -14 6 -87 21 -87 5 0 5 10 0 23 -4 12 -7 34 -7 50
1 31 0 32 -14 14z"/>
<path d="M8260 6780 c0 -5 5 -10 10 -10 6 0 10 5 10 10 0 6 -4 10 -10 10 -5 0
-10 -4 -10 -10z"/>
<path d="M11586 6685 c-19 -14 -17 -15 20 -14 21 0 33 3 26 6 -6 2 -10 9 -6
14 8 14 -19 10 -40 -6z"/>
<path d="M11965 6666 c-19 -15 -18 -15 18 -16 27 0 37 4 35 13 -7 18 -31 20
-53 3z"/>
<path d="M12513 6659 c-41 -15 -34 -27 19 -33 101 -10 276 -16 292 -10 35 13
1 22 -111 29 -65 4 -132 10 -148 14 -17 5 -40 5 -52 0z"/>
<path d="M11179 6627 c-89 -60 -115 -198 -50 -278 17 -21 27 -23 137 -25 65
-1 220 -7 344 -13 124 -6 286 -13 360 -16 74 -3 153 -8 175 -10 22 -2 123 -7
225 -10 102 -3 219 -8 260 -11 72 -4 391 -20 645 -31 66 -3 166 0 222 5 l103
11 50 53 c51 53 90 114 90 142 0 31 -56 63 -131 75 -113 18 -559 41 -768 40
-184 -1 -274 3 -1077 41 -425 21 -501 27 -510 41 -9 15 -40 10 -75 -14z"/>
<path d="M13325 6610 c-18 -20 -17 -20 25 -20 34 0 41 3 36 16 -3 9 -6 18 -6
20 0 12 -40 1 -55 -16z"/>
<path d="M13763 6608 c-24 -11 -43 -24 -43 -29 0 -5 27 -9 60 -9 33 0 60 2 60
5 0 10 -24 55 -29 55 -3 -1 -25 -10 -48 -22z"/>
<path d="M8418 6613 c7 -3 16 -2 19 1 4 3 -2 6 -13 5 -11 0 -14 -3 -6 -6z"/>
<path d="M10632 5400 c-52 -32 -75 -105 -52 -164 l9 -26 45 22 c51 25 66 51
73 131 6 55 5 57 -18 57 -13 0 -39 -9 -57 -20z"/>
</g>
</svg>
