<?xml version="1.0" encoding="utf-8"?>
<!DOCTYPE svg PUBLIC "-//W3C//DTD SVG 20010904//EN" "http://www.w3.org/TR/2001/REC-SVG-20010904/DTD/svg10.dtd">
<svg version="1.0" xmlns="http://www.w3.org/2000/svg" width="738pt" height="691pt" viewBox="0 0 738 691" style="" preserveAspectRatio="xMidYMid meet">
<g fill="#0E0E0EFE">
<path d="M 321.000 142.693 C 296.012 146.898 263.502 161.404 246.992 175.716 C 242.787 179.361 237.674 183.187 233.917 185.500 C 229.247 188.375 211.857 197.000 210.730 197.000 C 210.012 197.000 207.879 198.290 205.991 199.866 L 202.557 202.733 205.289 206.860 C 206.791 209.130 209.778 212.097 211.926 213.453 C 214.074 214.809 216.113 216.374 216.458 216.931 C 217.598 218.776 212.963 224.663 197.915 240.477 C 193.194 245.440 189.013 250.777 188.624 252.337 C 187.442 257.086 190.610 261.987 197.000 265.298 L 202.500 268.148 202.512 276.324 C 202.525 284.981 203.376 287.361 209.245 295.137 C 212.167 299.009 219.959 303.337 222.354 302.418 C 223.699 301.902 230.000 307.039 230.000 308.651 C 230.000 309.047 228.482 312.324 226.626 315.935 C 222.358 324.241 220.001 333.707 219.558 344.329 C 218.990 357.924 221.643 367.702 228.194 376.163 C 234.573 384.401 251.129 391.914 263.044 391.976 L 267.588 392.000 270.700 398.800 C 272.412 402.539 274.529 406.194 275.406 406.922 C 276.283 407.650 277.000 408.774 277.000 409.421 C 277.000 412.848 304.218 437.000 308.080 437.000 C 308.558 437.000 311.774 438.275 315.225 439.834 C 318.676 441.393 324.425 443.466 328.000 444.441 C 336.188 446.676 337.000 447.367 337.000 452.099 C 337.000 456.448 335.763 457.584 327.500 460.825 C 324.750 461.903 320.025 463.911 317.000 465.286 C 313.975 466.661 306.775 469.668 301.000 471.969 C 295.225 474.270 289.600 476.521 288.500 476.973 C 287.400 477.424 284.025 478.781 281.000 479.988 C 277.975 481.195 273.250 483.211 270.500 484.468 C 267.750 485.725 263.700 487.367 261.500 488.116 C 250.083 492.006 236.883 502.883 232.286 512.189 C 225.313 526.305 222.342 534.518 217.704 552.500 C 214.860 563.527 211.477 577.775 209.868 585.500 C 209.295 588.250 208.221 593.200 207.481 596.500 C 206.741 599.800 205.900 603.850 205.613 605.500 C 205.325 607.150 204.224 612.550 203.166 617.500 C 202.108 622.450 200.252 632.800 199.041 640.500 C 197.830 648.200 196.002 659.225 194.978 665.000 C 193.954 670.775 192.841 677.750 192.504 680.500 C 192.167 683.250 191.682 686.513 191.426 687.750 L 190.962 690.000 367.560 690.000 L 544.159 690.000 543.609 687.250 C 543.306 685.738 542.561 680.688 541.951 676.028 C 541.342 671.369 540.682 667.294 540.484 666.973 C 540.285 666.653 539.383 661.015 538.479 654.445 C 535.674 634.063 524.495 578.973 518.402 555.500 C 510.527 525.165 502.947 508.507 492.545 498.679 C 488.455 494.815 478.309 489.492 465.500 484.490 C 461.650 482.987 457.150 481.176 455.500 480.466 C 453.850 479.756 448.675 477.709 444.000 475.918 C 439.325 474.128 435.050 472.339 434.500 471.944 C 433.950 471.549 430.350 469.996 426.500 468.493 C 422.650 466.990 415.338 463.950 410.250 461.737 L 401.000 457.714 401.000 451.928 L 401.000 446.142 406.750 444.524 C 423.855 439.710 439.732 430.291 450.978 418.285 C 456.580 412.305 463.712 401.518 465.941 395.656 C 466.934 393.044 470.426 390.527 471.843 391.403 C 473.646 392.517 485.197 389.987 491.141 387.175 C 498.261 383.807 503.085 379.663 507.637 373.000 C 512.764 365.495 513.504 361.996 513.457 345.500 C 513.416 330.852 513.338 330.321 510.164 322.870 C 508.376 318.673 505.595 313.498 503.984 311.370 C 502.374 309.241 501.043 306.728 501.028 305.785 C 500.994 303.714 503.917 302.000 507.484 302.000 C 510.991 302.000 514.839 299.874 518.638 295.835 C 524.038 290.096 525.426 286.355 525.614 277.035 L 525.785 268.571 529.643 266.903 C 534.015 265.013 538.412 260.721 539.833 256.957 C 541.308 253.050 539.170 249.347 530.890 241.469 C 519.160 230.310 512.992 222.725 512.330 218.647 C 511.798 215.371 512.004 214.950 514.623 213.964 C 518.684 212.435 525.000 206.013 525.000 203.412 C 525.000 200.903 523.057 199.516 514.000 195.559 C 498.212 188.661 493.781 186.242 487.393 181.033 C 468.934 165.984 459.911 160.398 443.000 153.554 C 437.225 151.216 426.650 147.799 419.500 145.959 C 408.128 143.032 404.872 142.607 393.500 142.557 C 381.129 142.503 373.889 143.565 368.252 146.260 C 366.551 147.074 364.366 146.909 359.252 145.582 C 355.539 144.617 350.475 143.443 348.000 142.974 C 343.438 142.108 325.582 141.922 321.000 142.693 M 360.045 225.555 C 362.915 229.012 364.986 229.287 367.702 226.570 C 370.864 223.408 371.139 223.404 374.783 226.471 C 377.890 229.085 379.720 234.350 382.040 247.341 C 383.503 255.539 382.925 262.423 380.097 270.465 C 377.390 278.165 377.410 278.286 381.250 277.457 C 386.757 276.269 392.272 273.017 397.631 267.800 C 400.452 265.052 402.992 263.186 403.273 263.652 C 404.149 265.101 406.092 279.241 405.498 279.836 C 405.188 280.145 402.918 280.274 400.454 280.123 C 391.756 279.588 388.000 281.957 388.000 287.977 C 388.000 289.626 388.404 289.744 391.243 288.930 C 395.560 287.692 406.721 287.740 407.500 289.000 C 408.443 290.525 414.131 290.191 415.998 288.501 C 417.860 286.817 434.011 285.284 438.372 286.378 C 440.326 286.869 441.000 287.674 441.000 289.519 C 441.000 292.227 444.157 296.000 446.423 296.000 C 450.776 296.000 459.980 281.948 463.004 270.684 C 464.488 265.157 465.587 265.586 468.355 272.770 C 469.705 276.274 470.000 281.041 470.000 299.343 C 470.000 324.458 468.083 347.267 464.418 365.763 C 459.058 392.814 451.857 406.249 435.500 419.718 C 421.901 430.915 408.437 435.935 386.113 438.131 C 371.922 439.527 346.324 438.705 336.000 436.522 C 327.636 434.754 314.304 430.334 312.000 428.565 C 311.175 427.932 309.245 426.785 307.712 426.017 C 303.367 423.842 290.897 412.669 286.805 407.286 C 277.145 394.580 271.662 376.951 267.431 345.000 C 265.462 330.123 264.787 277.921 266.557 277.321 C 267.138 277.123 268.899 279.650 270.469 282.936 C 274.398 291.156 278.078 295.000 282.018 295.000 C 284.713 295.000 285.382 294.451 286.824 291.056 C 288.467 287.189 288.624 287.099 294.851 286.429 C 302.726 285.581 310.333 286.420 313.239 288.455 C 315.834 290.273 319.587 290.478 320.588 288.857 C 321.087 288.051 324.346 287.901 331.647 288.348 C 337.341 288.696 342.000 288.602 342.000 288.140 C 342.000 287.333 339.966 281.081 339.652 280.924 C 339.568 280.882 335.690 280.635 331.034 280.375 C 326.378 280.115 322.468 279.801 322.344 279.678 C 322.061 279.394 325.161 263.634 325.601 263.120 C 325.780 262.911 327.971 264.845 330.470 267.416 C 335.562 272.655 345.800 277.998 350.750 277.999 C 354.504 278.000 354.731 277.418 352.087 274.564 C 351.035 273.429 349.010 270.295 347.587 267.601 C 345.488 263.626 345.000 261.325 345.000 255.403 C 345.000 246.883 348.408 234.849 352.689 228.250 C 355.581 223.793 357.883 222.950 360.045 225.555 M 389.794 455.653 L 390.087 461.685 397.273 464.915 L 404.458 468.146 401.979 470.086 C 398.032 473.176 388.031 477.701 381.356 479.419 C 369.868 482.375 355.524 480.833 345.028 475.514 C 340.490 473.215 335.000 468.466 335.000 466.841 C 335.000 466.467 337.215 465.425 339.923 464.526 C 345.939 462.528 347.041 461.284 347.672 455.789 C 347.943 453.430 348.297 451.050 348.458 450.500 C 348.642 449.873 356.351 449.523 369.125 449.561 L 389.500 449.622 389.794 455.653 M 254.000 316.000 C 254.000 320.568 253.799 321.000 251.671 321.000 C 249.391 321.000 241.101 325.866 239.270 328.279 C 235.064 333.824 233.403 349.340 236.301 356.010 C 239.549 363.484 245.284 367.731 253.530 368.767 C 259.868 369.564 259.735 369.403 261.415 378.388 L 262.143 382.277 256.884 381.579 C 244.748 379.969 234.571 371.913 231.300 361.327 C 227.430 348.801 230.268 326.588 236.718 318.924 C 239.618 315.477 248.073 311.026 251.750 311.010 C 253.785 311.001 254.000 311.479 254.000 316.000 M 490.772 314.251 C 495.967 316.671 498.234 319.422 501.141 326.833 C 503.016 331.612 503.375 334.536 503.432 345.500 C 503.511 360.694 502.370 365.477 497.339 371.047 C 493.331 375.483 483.626 380.544 477.250 381.523 C 472.341 382.277 472.095 381.632 474.375 374.000 C 475.659 369.702 475.922 369.471 480.216 368.854 C 486.178 367.996 492.358 363.962 495.705 358.742 C 497.877 355.355 498.507 353.011 498.829 347.110 C 499.051 343.046 498.740 338.075 498.138 336.065 C 496.530 330.698 490.719 324.440 485.489 322.443 C 481.156 320.788 481.000 320.583 481.000 316.531 C 481.000 310.204 481.722 310.035 490.772 314.251 M 254.420 333.250 C 255.087 336.524 257.000 353.261 257.000 355.818 C 257.000 357.546 256.412 358.000 254.174 358.000 C 245.557 358.000 242.275 342.312 249.234 334.386 C 252.720 330.416 253.795 330.180 254.420 333.250 M 485.500 334.781 C 487.099 336.954 487.500 339.073 487.500 345.337 C 487.500 352.683 487.325 353.324 484.694 355.587 C 481.373 358.444 477.996 358.779 478.008 356.250 C 478.021 353.538 479.933 336.771 480.517 334.250 C 481.210 331.259 483.053 331.455 485.500 334.781 M 299.348 270.389 C 301.357 274.454 303.000 278.054 303.000 278.389 C 303.000 278.725 300.025 279.000 296.389 279.000 L 289.777 279.000 290.474 275.285 C 290.858 273.241 291.808 270.338 292.586 268.834 C 293.364 267.330 294.000 265.402 294.000 264.550 C 294.000 261.277 295.834 263.279 299.348 270.389 M 436.468 270.170 C 437.428 273.594 438.439 276.981 438.714 277.697 C 439.096 278.692 437.535 279.000 432.108 279.000 L 425.002 279.000 429.251 271.098 C 431.588 266.752 433.775 263.364 434.111 263.571 C 434.446 263.777 435.507 266.747 436.468 270.170 "/></g>
<g fill="#E0C0ACFE">
<path d="M 352.689 228.250 C 348.408 234.849 345.000 246.883 345.000 255.403 C 345.000 261.325 345.488 263.626 347.587 267.601 C 349.010 270.295 351.035 273.429 352.087 274.564 C 354.731 277.418 354.504 278.000 350.750 277.999 C 345.800 277.998 335.562 272.655 330.470 267.416 C 327.971 264.845 325.780 262.911 325.601 263.120 C 325.161 263.634 322.061 279.394 322.344 279.678 C 322.468 279.801 326.378 280.115 331.034 280.375 C 335.690 280.635 339.568 280.882 339.652 280.924 C 339.966 281.081 342.000 287.333 342.000 288.140 C 342.000 288.602 337.341 288.696 331.647 288.348 C 324.346 287.901 321.087 288.051 320.588 288.857 C 319.587 290.478 315.834 290.273 313.239 288.455 C 310.333 286.420 302.726 285.581 294.851 286.429 C 288.624 287.099 288.467 287.189 286.824 291.056 C 285.382 294.451 284.713 295.000 282.018 295.000 C 278.078 295.000 274.398 291.156 270.469 282.936 C 268.899 279.650 267.138 277.123 266.557 277.321 C 264.787 277.921 265.462 330.123 267.431 345.000 C 271.662 376.951 277.145 394.580 286.805 407.286 C 290.897 412.669 303.367 423.842 307.712 426.017 C 309.245 426.785 311.175 427.932 312.000 428.565 C 314.304 430.334 327.636 434.754 336.000 436.522 C 346.324 438.705 371.922 439.527 386.113 438.131 C 408.437 435.935 421.901 430.915 435.500 419.718 C 451.857 406.249 459.058 392.814 464.418 365.763 C 468.083 347.267 470.000 324.458 470.000 299.343 C 470.000 281.041 469.705 276.274 468.355 272.770 C 465.587 265.586 464.488 265.157 463.004 270.684 C 459.980 281.948 450.776 296.000 446.423 296.000 C 444.157 296.000 441.000 292.227 441.000 289.519 C 441.000 287.674 440.326 286.869 438.372 286.378 C 434.011 285.284 417.860 286.817 415.998 288.501 C 414.131 290.191 408.443 290.525 407.500 289.000 C 406.721 287.740 395.560 287.692 391.243 288.930 C 388.404 289.744 388.000 289.626 388.000 287.977 C 388.000 281.957 391.756 279.588 400.454 280.123 C 402.918 280.274 405.188 280.145 405.498 279.836 C 406.092 279.241 404.149 265.101 403.273 263.652 C 402.992 263.186 400.452 265.052 397.631 267.800 C 392.272 273.017 386.757 276.269 381.250 277.457 C 377.410 278.286 377.390 278.165 380.097 270.465 C 382.925 262.423 383.503 255.539 382.040 247.341 C 379.720 234.350 377.890 229.085 374.783 226.471 C 371.139 223.404 370.864 223.408 367.702 226.570 C 364.986 229.287 362.915 229.012 360.045 225.555 C 357.883 222.950 355.581 223.793 352.689 228.250 M 356.750 308.226 C 360.260 311.087 356.617 317.000 351.345 317.000 C 348.227 317.000 348.000 317.224 348.000 320.304 C 348.000 322.121 346.848 325.919 345.440 328.744 C 343.352 332.935 341.935 334.352 337.744 336.440 C 326.301 342.143 313.572 338.536 307.954 328.000 C 306.928 326.075 306.083 325.175 306.077 326.000 C 306.056 328.966 311.584 335.528 315.976 337.750 C 323.690 341.652 336.487 340.421 342.355 335.212 C 344.962 332.898 348.978 324.144 348.990 320.750 C 348.998 318.572 349.468 317.997 351.250 317.986 C 352.488 317.979 354.577 317.684 355.894 317.332 L 358.289 316.691 357.566 324.022 C 356.489 334.955 354.048 339.338 347.152 342.724 C 341.788 345.359 340.661 345.517 325.044 345.840 C 297.490 346.408 290.200 343.900 284.880 332.020 C 283.777 329.556 282.340 327.200 281.687 326.785 C 280.875 326.269 281.017 326.026 282.139 326.015 C 283.236 326.005 284.010 324.761 284.480 322.252 C 284.867 320.191 285.705 318.173 286.342 317.768 C 286.979 317.362 291.204 317.024 295.731 317.015 C 303.901 317.000 303.966 317.020 304.568 319.750 C 305.603 324.442 305.929 324.656 305.710 320.500 L 305.500 316.500 296.149 316.211 C 285.925 315.895 284.501 316.442 283.485 321.069 C 282.640 324.915 280.451 324.787 277.989 320.750 C 275.717 317.024 275.538 315.109 277.133 311.608 C 279.678 306.022 281.166 305.847 320.000 306.557 C 341.629 306.953 355.988 307.605 356.750 308.226 M 456.452 307.415 C 462.892 310.106 464.023 317.131 458.848 322.305 L 455.697 325.457 454.318 320.728 L 452.939 316.000 443.098 316.000 L 433.256 316.000 432.601 320.092 C 431.210 328.794 425.507 335.996 418.500 337.901 C 403.175 342.068 391.694 334.506 389.805 319.000 C 389.549 316.899 388.965 316.495 386.145 316.467 C 381.376 316.421 378.718 312.580 380.977 309.000 C 381.753 307.770 385.846 307.403 403.712 306.962 C 447.627 305.877 452.877 305.922 456.452 307.415 M 389.000 319.712 C 389.000 323.287 392.832 332.494 395.274 334.788 C 398.893 338.187 404.470 340.000 411.311 340.000 C 422.716 340.000 430.502 333.662 433.116 322.250 L 434.318 317.000 443.184 317.000 C 451.930 317.000 452.064 317.037 453.116 319.750 C 454.561 323.475 453.546 331.187 450.920 336.446 C 447.693 342.906 442.694 344.868 426.986 345.835 C 410.749 346.836 396.284 345.696 390.999 342.999 C 384.189 339.525 380.743 331.639 380.031 317.904 C 380.014 317.576 382.025 317.351 384.500 317.404 C 388.448 317.488 389.000 317.771 389.000 319.712 "/></g>
<g fill="#E0C0ACFE">
<path d="M 322.500 140.947 C 319.750 141.402 315.700 142.060 313.500 142.408 C 305.268 143.712 286.529 150.413 274.154 156.478 C 265.600 160.670 253.421 168.528 245.673 174.854 C 234.217 184.209 225.702 189.117 207.237 197.008 C 201.227 199.577 199.752 202.447 202.381 206.459 C 204.565 209.792 208.929 213.828 212.265 215.599 L 215.029 217.067 210.941 223.087 C 208.692 226.398 203.628 232.346 199.687 236.304 C 188.200 247.840 187.000 249.602 187.000 254.941 C 187.000 258.906 187.489 260.072 190.250 262.693 C 192.038 264.391 195.207 266.636 197.293 267.684 L 201.087 269.588 201.323 278.044 C 201.527 285.380 201.935 287.096 204.398 291.000 C 210.116 300.065 215.855 304.250 222.564 304.250 C 224.085 304.250 224.666 304.706 224.314 305.625 C 224.006 306.427 224.431 307.000 225.334 307.000 C 228.289 307.000 228.111 309.059 224.510 316.546 C 214.167 338.049 216.286 367.619 229.067 380.145 C 236.435 387.366 249.203 392.974 258.407 393.032 C 264.467 393.070 265.973 394.061 268.995 400.003 C 273.009 407.897 278.534 415.298 286.030 422.823 C 297.172 434.009 306.870 439.575 326.503 446.052 C 333.812 448.464 336.000 449.599 336.000 450.982 C 336.000 454.405 332.441 456.864 320.000 462.037 C 313.125 464.895 305.475 468.137 303.000 469.241 C 300.525 470.345 294.225 472.948 289.000 475.025 C 258.809 487.030 255.050 488.743 244.923 495.109 C 235.044 501.319 225.591 518.555 218.658 543.000 C 213.926 559.682 212.213 566.810 207.485 589.500 C 199.736 626.681 197.969 636.080 195.075 655.500 C 193.927 663.200 192.550 671.525 192.015 674.000 C 191.480 676.475 190.749 680.860 190.393 683.745 L 189.744 688.990 95.122 689.250 L 0.500 689.510 95.731 689.755 L 190.962 690.000 191.426 687.750 C 191.682 686.513 192.167 683.250 192.504 680.500 C 192.841 677.750 193.954 670.775 194.978 665.000 C 196.002 659.225 197.830 648.200 199.041 640.500 C 200.252 632.800 202.108 622.450 203.166 617.500 C 204.224 612.550 205.325 607.150 205.613 605.500 C 205.900 603.850 206.741 599.800 207.481 596.500 C 208.221 593.200 209.295 588.250 209.868 585.500 C 211.477 577.775 214.860 563.527 217.704 552.500 C 222.342 534.518 225.313 526.305 232.286 512.189 C 236.883 502.883 250.083 492.006 261.500 488.116 C 263.700 487.367 267.750 485.725 270.500 484.468 C 273.250 483.211 277.975 481.195 281.000 479.988 C 284.025 478.781 287.400 477.424 288.500 476.973 C 289.600 476.521 295.225 474.270 301.000 471.969 C 306.775 469.668 313.975 466.661 317.000 465.286 C 320.025 463.911 324.750 461.903 327.500 460.825 C 335.763 457.584 337.000 456.448 337.000 452.099 C 337.000 447.367 336.188 446.676 328.000 444.441 C 324.425 443.466 318.676 441.393 315.225 439.834 C 311.774 438.275 308.558 437.000 308.080 437.000 C 304.218 437.000 277.000 412.848 277.000 409.421 C 277.000 408.774 276.283 407.650 275.406 406.922 C 274.529 406.194 272.412 402.539 270.700 398.800 L 267.588 392.000 263.044 391.976 C 251.129 391.914 234.573 384.401 228.194 376.163 C 221.643 367.702 218.990 357.924 219.558 344.329 C 220.001 333.707 222.358 324.241 226.626 315.935 C 228.482 312.324 230.000 309.047 230.000 308.651 C 230.000 307.039 223.699 301.902 222.354 302.418 C 219.959 303.337 212.167 299.009 209.245 295.137 C 203.376 287.361 202.525 284.981 202.512 276.324 L 202.500 268.148 197.000 265.298 C 190.610 261.987 187.442 257.086 188.624 252.337 C 189.013 250.777 193.194 245.440 197.915 240.477 C 212.963 224.663 217.598 218.776 216.458 216.931 C 216.113 216.374 214.074 214.809 211.926 213.453 C 209.778 212.097 206.791 209.130 205.289 206.860 L 202.557 202.733 205.991 199.866 C 207.879 198.290 210.012 197.000 210.730 197.000 C 211.857 197.000 229.247 188.375 233.917 185.500 C 237.674 183.187 242.787 179.361 246.992 175.716 C 257.226 166.844 279.184 154.999 296.500 149.010 C 309.942 144.361 317.283 142.898 330.000 142.331 C 341.633 141.813 347.014 142.412 359.252 145.585 C 364.364 146.910 366.551 147.074 368.252 146.260 C 373.889 143.565 381.129 142.503 393.500 142.557 C 404.872 142.607 408.128 143.032 419.500 145.959 C 426.650 147.799 437.225 151.216 443.000 153.554 C 459.911 160.398 468.934 165.984 487.393 181.033 C 493.781 186.242 498.212 188.661 514.000 195.559 C 523.057 199.516 525.000 200.903 525.000 203.412 C 525.000 206.013 518.684 212.435 514.623 213.964 C 512.004 214.950 511.798 215.371 512.330 218.647 C 512.992 222.725 519.160 230.310 530.890 241.469 C 539.170 249.347 541.308 253.050 539.833 256.957 C 538.412 260.721 534.015 265.013 529.643 266.903 L 525.785 268.571 525.614 277.035 C 525.426 286.355 524.038 290.096 518.638 295.835 C 514.839 299.874 510.991 302.000 507.484 302.000 C 503.917 302.000 500.994 303.714 501.028 305.785 C 501.043 306.728 502.374 309.241 503.984 311.370 C 505.595 313.498 508.376 318.673 510.164 322.870 C 513.338 330.321 513.416 330.852 513.457 345.500 C 513.504 361.996 512.764 365.495 507.637 373.000 C 503.085 379.663 498.261 383.807 491.141 387.175 C 485.197 389.987 473.646 392.517 471.843 391.403 C 470.426 390.527 466.934 393.044 465.941 395.656 C 463.712 401.518 456.580 412.305 450.978 418.285 C 439.732 430.291 423.855 439.710 406.750 444.524 L 401.000 446.142 401.000 451.928 L 401.000 457.714 410.250 461.737 C 415.338 463.950 422.650 466.990 426.500 468.493 C 430.350 469.996 433.950 471.549 434.500 471.944 C 435.050 472.339 439.325 474.128 444.000 475.918 C 448.675 477.709 453.850 479.756 455.500 480.466 C 457.150 481.176 461.650 482.987 465.500 484.490 C 478.309 489.492 488.455 494.815 492.545 498.679 C 502.947 508.507 510.527 525.165 518.402 555.500 C 524.495 578.973 535.674 634.063 538.479 654.445 C 539.383 661.015 540.285 666.653 540.484 666.973 C 540.682 667.294 541.342 671.369 541.951 676.028 C 542.561 680.688 543.306 685.738 543.609 687.250 L 544.159 690.000 640.829 689.755 L 737.500 689.510 641.401 689.250 L 545.302 688.990 544.136 680.245 C 543.495 675.435 542.317 667.675 541.518 663.000 C 540.719 658.325 539.344 650.000 538.462 644.500 C 535.233 624.368 524.961 574.890 520.026 555.692 C 509.620 515.221 500.967 499.984 483.076 490.625 C 479.459 488.733 469.300 484.260 460.500 480.686 C 425.795 466.589 421.205 464.711 413.000 461.250 C 408.325 459.278 403.938 457.235 403.250 456.710 C 402.563 456.185 402.000 453.785 402.000 451.378 C 402.000 447.807 402.336 447.000 403.825 447.000 C 406.472 447.000 418.536 442.731 425.500 439.329 C 434.871 434.752 441.928 429.780 449.174 422.649 C 457.649 414.309 461.374 409.007 468.357 395.344 C 469.253 393.592 470.371 393.181 474.334 393.151 C 477.016 393.130 480.625 392.808 482.355 392.436 C 487.239 391.384 499.162 385.333 502.594 382.164 C 506.640 378.428 512.910 368.208 514.141 363.344 C 515.312 358.712 516.757 335.999 515.880 335.999 C 515.539 336.000 514.738 333.344 514.099 330.097 C 513.063 324.834 507.732 312.302 505.974 311.000 C 504.987 310.269 503.000 306.304 503.000 305.066 C 503.000 304.480 504.619 304.000 506.599 304.000 C 511.658 304.000 516.034 301.649 520.159 296.714 C 525.894 289.853 527.227 286.416 527.522 277.734 L 527.789 269.861 531.645 267.870 C 538.834 264.157 543.300 256.672 541.573 251.231 C 541.234 250.162 536.662 245.060 531.414 239.894 C 522.410 231.030 513.000 219.456 513.000 217.244 C 513.000 216.693 514.313 215.699 515.918 215.034 C 521.696 212.641 527.000 206.433 527.000 202.064 C 527.000 199.952 526.966 199.933 507.250 190.911 C 499.682 187.448 492.028 182.870 487.424 179.051 C 478.974 172.044 463.703 161.000 462.463 161.000 C 462.187 161.000 460.282 159.954 458.230 158.675 C 451.172 154.276 432.603 147.400 418.909 144.114 C 399.812 139.532 383.695 139.460 370.790 143.900 L 365.197 145.824 356.849 143.336 C 347.671 140.601 331.419 139.471 322.500 140.947 "/></g>
<g fill="#0E0E0EFE">
<path d="M 281.383 307.515 C 276.009 310.284 274.706 315.365 277.989 320.750 C 280.451 324.787 282.640 324.915 283.485 321.069 C 284.501 316.442 285.925 315.895 296.149 316.211 L 305.500 316.500 306.052 321.000 C 307.898 336.041 323.395 343.591 337.744 336.440 C 341.935 334.352 343.352 332.935 345.440 328.744 C 346.848 325.919 348.000 322.121 348.000 320.304 C 348.000 317.224 348.227 317.000 351.345 317.000 C 356.617 317.000 360.260 311.087 356.750 308.226 C 355.988 307.605 341.629 306.953 320.000 306.557 C 288.527 305.982 284.146 306.090 281.383 307.515 "/></g>
<g fill="#0E0E0EFE">
<path d="M 403.712 306.962 C 385.846 307.403 381.753 307.770 380.977 309.000 C 378.718 312.580 381.376 316.421 386.145 316.467 C 388.965 316.495 389.549 316.899 389.805 319.000 C 391.694 334.506 403.175 342.068 418.500 337.901 C 425.507 335.996 431.210 328.794 432.601 320.092 L 433.256 316.000 443.098 316.000 L 452.939 316.000 454.318 320.728 L 455.697 325.457 458.848 322.305 C 464.023 317.131 462.892 310.106 456.452 307.415 C 452.877 305.922 447.627 305.877 403.712 306.962 "/></g>
<g fill="#E0C0ACFE">
<path d="M 348.458 450.500 C 348.297 451.050 347.943 453.430 347.672 455.789 C 347.041 461.284 345.939 462.528 339.923 464.526 C 337.215 465.425 335.000 466.467 335.000 466.841 C 335.000 468.466 340.490 473.215 345.028 475.514 C 355.524 480.833 369.868 482.375 381.356 479.419 C 388.031 477.701 398.032 473.176 401.979 470.086 L 404.458 468.146 397.273 464.915 L 390.087 461.685 389.794 455.653 L 389.500 449.622 369.125 449.561 C 356.351 449.523 348.642 449.873 348.458 450.500 "/></g>
<g fill="#EEEEEEFE">
<path d="M 286.342 317.768 C 285.705 318.173 284.867 320.191 284.480 322.252 C 284.010 324.761 283.236 326.005 282.139 326.015 C 281.017 326.026 280.875 326.269 281.687 326.785 C 282.340 327.200 283.777 329.556 284.880 332.020 C 290.200 343.900 297.490 346.408 325.044 345.840 C 340.661 345.517 341.788 345.359 347.152 342.724 C 354.048 339.338 356.489 334.955 357.566 324.022 L 358.289 316.691 355.894 317.332 C 354.577 317.684 352.488 317.979 351.250 317.986 C 349.468 317.997 348.998 318.572 348.990 320.750 C 348.978 324.144 344.962 332.898 342.355 335.212 C 336.487 340.421 323.690 341.652 315.976 337.750 C 310.960 335.212 306.465 329.302 305.518 324.000 C 304.217 316.710 304.623 316.999 295.683 317.015 C 291.182 317.024 286.979 317.362 286.342 317.768 "/></g>
<g fill="#EEEEEEFE">
<path d="M 380.031 317.904 C 380.743 331.639 384.189 339.525 390.999 342.999 C 396.284 345.696 410.749 346.836 426.986 345.835 C 442.694 344.868 447.693 342.906 450.920 336.446 C 453.546 331.187 454.561 323.475 453.116 319.750 C 452.064 317.037 451.930 317.000 443.184 317.000 L 434.318 317.000 433.116 322.250 C 430.502 333.662 422.716 340.000 411.311 340.000 C 404.470 340.000 398.893 338.187 395.274 334.788 C 392.832 332.494 389.000 323.287 389.000 319.712 C 389.000 317.771 388.448 317.488 384.500 317.404 C 382.025 317.351 380.014 317.576 380.031 317.904 "/></g>
<g fill="#E0C0ACFE">
<path d="M 244.459 313.367 C 241.687 314.658 238.203 317.158 236.718 318.924 C 230.268 326.588 227.430 348.801 231.300 361.327 C 234.571 371.913 244.748 379.969 256.884 381.579 L 262.143 382.277 261.415 378.388 C 259.735 369.403 259.868 369.564 253.530 368.767 C 245.284 367.731 239.549 363.484 236.301 356.010 C 233.403 349.340 235.064 333.824 239.270 328.279 C 241.101 325.866 249.391 321.000 251.671 321.000 C 253.799 321.000 254.000 320.568 254.000 316.000 C 254.000 311.479 253.785 311.001 251.750 311.010 C 250.513 311.015 247.232 312.076 244.459 313.367 "/></g>
<g fill="#E0C0ACFE">
<path d="M 481.678 311.656 C 481.305 312.028 481.000 314.222 481.000 316.531 C 481.000 320.583 481.156 320.788 485.489 322.443 C 490.719 324.440 496.530 330.698 498.138 336.065 C 498.740 338.075 499.051 343.046 498.829 347.110 C 498.507 353.011 497.877 355.355 495.705 358.742 C 492.358 363.962 486.178 367.996 480.216 368.854 C 475.922 369.471 475.659 369.702 474.375 374.000 C 472.095 381.632 472.341 382.277 477.250 381.523 C 483.626 380.544 493.331 375.483 497.339 371.047 C 502.370 365.477 503.511 360.694 503.432 345.500 C 503.361 331.765 501.643 324.630 496.981 318.704 C 494.279 315.268 483.178 310.156 481.678 311.656 "/></g>
<g fill="#E0C0ACFE">
<path d="M 249.234 334.386 C 242.275 342.312 245.557 358.000 254.174 358.000 C 257.485 358.000 257.498 357.895 255.939 344.568 C 254.120 329.024 254.044 328.908 249.234 334.386 "/></g>
<g fill="#E0C0ACFE">
<path d="M 480.517 334.250 C 479.933 336.771 478.021 353.538 478.008 356.250 C 477.996 358.779 481.373 358.444 484.694 355.587 C 487.325 353.324 487.500 352.683 487.500 345.337 C 487.500 339.073 487.099 336.954 485.500 334.781 C 483.053 331.455 481.210 331.259 480.517 334.250 "/></g>
<g fill="#E0C0ACFE">
<path d="M 294.000 264.550 C 294.000 265.402 293.364 267.330 292.586 268.834 C 291.808 270.338 290.858 273.241 290.474 275.285 L 289.777 279.000 296.389 279.000 C 300.025 279.000 303.000 278.725 303.000 278.389 C 303.000 278.054 301.357 274.454 299.348 270.389 C 295.834 263.279 294.000 261.277 294.000 264.550 "/></g>
<g fill="#E0C0ACFE">
<path d="M 429.251 271.098 L 425.002 279.000 432.108 279.000 C 437.535 279.000 439.096 278.692 438.714 277.697 C 438.439 276.981 437.428 273.594 436.468 270.170 C 435.507 266.747 434.446 263.777 434.111 263.571 C 433.775 263.364 431.588 266.752 429.251 271.098 "/></g>
</svg>
