<?xml version="1.0" encoding="utf-8"?>
<!-- Generator: Adobe Illustrator 27.5.0, SVG Export Plug-In . SVG Version: 6.00 Build 0)  -->
<svg version="1.1" id="Layer_1" xmlns="http://www.w3.org/2000/svg" xmlns:xlink="http://www.w3.org/1999/xlink" x="0px" y="0px"
	 viewBox="0 0 408.386 160.606" style="enable-background:new 0 0 408.386 160.606;" xml:space="preserve">
<g>
	<g>
		<path style="fill:#4D4E50;" d="M188.552,147.663c-0.617-0.344-1.394-0.139-1.762,0.456c-0.503,0.466-3.065,1.061-5.55,1.288
			c-0.599,0.003-5.246,0.025-12.44,0.055l-4.44-12.089c-0.028-0.171-0.088-0.331-0.174-0.474l-3.239-8.819
			c-0.251-0.683-1.008-1.034-1.692-0.783c-0.683,0.251-1.034,1.008-0.783,1.691l2.664,7.253H72.983l2.664-7.253
			c0.251-0.683-0.1-1.441-0.783-1.691c-0.684-0.252-1.44,0.1-1.691,0.783l-3.24,8.819c-0.086,0.143-0.146,0.302-0.174,0.473
			l-4.495,12.239c-6.251-0.04-10.401-0.103-11.356-0.198c-4.731-0.471-5.585-2.974-5.632-3.123
			c-0.192-0.692-0.904-1.104-1.601-0.923c-0.705,0.183-1.127,0.903-0.944,1.607c0.047,0.179,1.217,4.395,7.916,5.061
			c2.01,0.2,17.055,0.266,36.166,0.266c36.643,0,88.227-0.244,91.494-0.26c0.037,0,0.074-0.002,0.11-0.005
			c2.437-0.216,6.67-0.84,7.642-2.581C189.415,148.82,189.187,148.017,188.552,147.663z M68.067,149.626l3.927-10.691h90.131
			l3.871,10.538C141.129,149.574,92.312,149.743,68.067,149.626z"/>
		<path style="fill:#18191B;" d="M89.814,152.46c-22.225,0-34.398-0.09-36.181-0.267c-6.803-0.676-8.006-4.995-8.053-5.178
			c-0.205-0.788,0.27-1.595,1.057-1.8c0.776-0.201,1.579,0.262,1.793,1.033c0.031,0.099,0.851,2.546,5.495,3.008
			c0.884,0.088,4.663,0.154,11.23,0.196l4.457-12.135c0.023-0.158,0.088-0.336,0.187-0.5l3.227-8.793
			c0.136-0.37,0.408-0.665,0.765-0.831c0.358-0.165,0.759-0.182,1.129-0.045c0.764,0.281,1.157,1.13,0.876,1.894l-2.586,7.041h87.7
			l-2.586-7.041c-0.281-0.764,0.112-1.613,0.876-1.894c0.37-0.136,0.771-0.12,1.129,0.045c0.358,0.166,0.63,0.461,0.766,0.831
			l3.239,8.819c0.086,0.138,0.151,0.316,0.182,0.503l4.395,11.956c6.692-0.028,11.157-0.049,12.174-0.054l0.155-0.001
			c2.646-0.242,4.969-0.84,5.43-1.233c0.421-0.655,1.277-0.872,1.961-0.491h0c0.344,0.192,0.593,0.507,0.701,0.886
			c0.107,0.379,0.061,0.778-0.131,1.122c-1.007,1.805-5.298,2.443-7.766,2.662c-0.041,0.003-0.082,0.005-0.123,0.006
			C179.104,152.211,126.886,152.46,89.814,152.46z M47.005,145.483c-0.096,0-0.192,0.012-0.289,0.037
			c-0.619,0.161-0.992,0.796-0.831,1.415c0.046,0.175,1.192,4.289,7.779,4.944c1.773,0.176,13.935,0.266,36.15,0.266
			c37.071,0,89.289-0.249,91.493-0.26c0.033,0,0.065-0.001,0.098-0.004c2.405-0.214,6.581-0.824,7.517-2.501
			c0.151-0.271,0.188-0.584,0.103-0.882c-0.085-0.298-0.28-0.545-0.551-0.697l0,0c-0.543-0.302-1.225-0.126-1.551,0.401
			c-0.008,0.012-0.017,0.023-0.027,0.033c-0.602,0.558-3.399,1.124-5.643,1.329l-0.169,0.001c-1.022,0.005-5.531,0.026-12.285,0.054
			c0,0,0,0-0.001,0c-0.066,0-0.125-0.041-0.148-0.103l-4.44-12.089c-0.032-0.177-0.083-0.317-0.161-0.447l-3.252-8.846
			c-0.107-0.291-0.321-0.522-0.602-0.653c-0.282-0.13-0.597-0.143-0.887-0.036c-0.601,0.221-0.91,0.888-0.689,1.489l2.664,7.254
			c0.018,0.049,0.011,0.103-0.019,0.145c-0.03,0.042-0.078,0.067-0.129,0.067H72.983c-0.052,0-0.1-0.025-0.13-0.067
			c-0.029-0.042-0.036-0.096-0.019-0.145l2.664-7.254c0.221-0.6-0.089-1.268-0.689-1.489c-0.291-0.108-0.606-0.095-0.888,0.036
			c-0.281,0.13-0.494,0.362-0.602,0.653l-3.239,8.82c-0.09,0.156-0.142,0.296-0.166,0.444l-4.503,12.268
			c-0.023,0.062-0.082,0.103-0.148,0.103c0,0-0.001,0-0.001,0c-6.74-0.043-10.459-0.108-11.371-0.199
			c-4.849-0.482-5.731-3.12-5.767-3.233C47.984,145.823,47.513,145.483,47.005,145.483z M89.155,149.824
			c-7.996,0-15.241-0.012-21.088-0.04c-0.051,0-0.1-0.026-0.129-0.068c-0.029-0.042-0.036-0.096-0.019-0.145l3.927-10.691
			c0.023-0.062,0.082-0.103,0.148-0.103h90.131c0.066,0,0.125,0.041,0.148,0.103l3.871,10.538c0.018,0.048,0.011,0.102-0.018,0.145
			c-0.029,0.042-0.077,0.068-0.129,0.068C146.127,149.712,114.016,149.824,89.155,149.824z M68.293,149.469
			c24.031,0.113,71.254-0.047,97.477-0.154l-3.755-10.223h-89.91L68.293,149.469z"/>
	</g>
	<g>
		<g>
			<g>
				<path style="fill:#E2E3E4;" d="M244.763,31.139c0.001,3.424-48.318,6.211-107.923,6.225
					c-59.605,0.014-107.925-2.751-107.926-6.176c-0.001-3.424,48.318-6.211,107.923-6.225
					C196.442,24.95,244.762,27.715,244.763,31.139z"/>
				<path style="fill:#B3B5B8;" d="M136.4,37.68c-28.67,0-55.605-0.638-75.892-1.799c-31.908-1.826-31.909-3.983-31.909-4.692
					c0-0.709-0.001-2.866,31.907-4.707c20.39-1.176,47.498-1.827,76.332-1.834c0.146,0,0.294,0,0.44,0
					c28.67,0,55.605,0.638,75.892,1.799c31.908,1.826,31.909,3.983,31.909,4.692c0,0.709,0.001,2.866-31.907,4.707
					c-20.39,1.176-47.499,1.827-76.332,1.834C136.694,37.68,136.546,37.68,136.4,37.68z M137.278,25.279c-0.148,0-0.293,0-0.441,0
					c-28.822,0.007-55.918,0.657-76.296,1.833c-30.434,1.755-31.312,3.844-31.312,4.076c0,0.232,0.879,2.32,31.314,4.062
					c20.274,1.16,47.2,1.798,75.856,1.798c0.148,0,0.293,0,0.441,0c28.821-0.007,55.917-0.658,76.296-1.833
					c30.434-1.755,31.312-3.844,31.312-4.076c0-0.232-0.879-2.32-31.314-4.062C192.859,25.917,165.934,25.279,137.278,25.279z"/>
			</g>
			<path style="fill:#5C5D5F;" d="M136.975,30.307c0.046-0.042,0.097-0.073,0.145-0.111l-4.912-0.351l-63.682-4.384l-13.401,1.018
				l81.668,6.772C136.163,32.345,136.125,31.088,136.975,30.307z"/>
			<path style="fill:#5C5D5F;" d="M136.042,31.423c0.195,0.271,0.353,0.586,0.411,0.916l70.702-5.895l-13.402-1.012l-60.174,4.17
				C134.544,29.982,135.453,30.605,136.042,31.423z"/>
			<g>
				<g>
					<path style="fill:#292B2C;" d="M136.42,37.202L136.42,37.202c-1.076,0-1.956-0.88-1.956-1.955l-0.002-8.328
						c0-1.075,0.88-1.956,1.955-1.956l0,0c1.076,0,1.956,0.88,1.956,1.955l0.002,8.328C138.375,36.322,137.495,37.202,136.42,37.202
						z"/>
					<path style="fill:#18191B;" d="M136.42,37.376L136.42,37.376c-1.174,0-2.129-0.955-2.13-2.129l-0.002-8.328
						c0-1.174,0.955-2.129,2.129-2.129c0,0,0,0,0.001,0c0.566,0,1.1,0.222,1.503,0.625c0.403,0.403,0.625,0.937,0.626,1.504
						l0.002,8.328C138.549,36.421,137.594,37.376,136.42,37.376z M136.418,25.137C136.418,25.137,136.417,25.137,136.418,25.137
						c-0.983,0-1.782,0.8-1.782,1.782l0.002,8.328c0,0.982,0.8,1.782,1.782,1.782c0.982,0,1.781-0.8,1.781-1.782l-0.002-8.328
						c0-0.474-0.186-0.921-0.524-1.258C137.338,25.323,136.891,25.137,136.418,25.137z"/>
				</g>
				<g>
					<path style="fill:#4D4E50;" d="M140.614,46.948l-8.384,0.002c-1.89,0-3.437-1.546-3.438-3.436l-0.001-4.861
						c0-1.89,1.546-3.437,3.436-3.438l8.383-0.002c1.89,0,3.438,1.546,3.438,3.436l0.001,4.86
						C144.051,45.4,142.504,46.947,140.614,46.948z"/>
					<path style="fill:#18191B;" d="M132.229,47.093c-0.952,0-1.85-0.373-2.528-1.051c-0.678-0.678-1.052-1.576-1.052-2.528
						l-0.001-4.861c0-1.974,1.605-3.58,3.58-3.581l8.383-0.002c0,0,0,0,0.001,0c1.974,0,3.58,1.605,3.581,3.58l0.001,4.86
						c0,0.952-0.373,1.851-1.051,2.529c-0.678,0.678-1.576,1.052-2.529,1.052l-8.383,0.002
						C132.23,47.093,132.23,47.093,132.229,47.093z M140.612,35.356C140.611,35.356,140.611,35.356,140.612,35.356l-8.384,0.002
						c-1.816,0.001-3.294,1.479-3.293,3.295l0.001,4.861c0,0.876,0.344,1.702,0.968,2.326c0.624,0.624,1.45,0.967,2.325,0.967
						c0,0,0.001,0,0.001,0l8.383-0.002l0,0c0.876,0,1.702-0.344,2.326-0.968c0.624-0.624,0.967-1.45,0.967-2.326l-0.001-4.86
						C143.905,36.834,142.428,35.356,140.612,35.356z"/>
				</g>
				<path style="fill:#4D4E50;" d="M128.955,37.609c-0.106,0.33-0.164,0.68-0.164,1.044l0.001,4.861c0,1.89,1.548,3.437,3.438,3.436
					l8.384-0.002c1.89,0,3.437-1.547,3.436-3.438l-0.001-4.86c0-0.364-0.058-0.714-0.164-1.044L128.955,37.609z"/>
			</g>
			<path style="fill:#747477;" d="M139.824,30.531c-0.622,0.321-1.069,0.889-1.03,1.67c0.025,0.511,0.249,0.993,0.585,1.381
				l47.09,3.905l22.84-1.993L139.824,30.531z"/>
			<path style="fill:#747477;" d="M135.462,32.796c0.229-0.648,0.097-1.381-0.356-1.902c-0.284-0.327-0.647-0.532-1.042-0.642
				l-2.446,0.169l-74.947,5.387L73.97,37.31l61.328-4.17C135.362,33.03,135.42,32.917,135.462,32.796z"/>
		</g>
		<g>
			<path style="fill:#4D4E50;" d="M144.047,28.376l0-0.712c0-2.293-1.877-4.168-4.169-4.167l-6.921,0.002
				c-2.293,0.001-4.168,1.877-4.167,4.169l0,0.713L144.047,28.376z"/>
			<path style="fill:#18191B;" d="M128.789,28.553c-0.046,0-0.09-0.018-0.123-0.051c-0.033-0.032-0.051-0.076-0.051-0.123l0-0.712
				c0-1.155,0.452-2.244,1.274-3.067c0.822-0.823,1.911-1.276,3.067-1.276l6.921-0.001c0,0,0.001,0,0.001,0
				c1.155,0,2.244,0.453,3.066,1.275c0.823,0.822,1.276,1.911,1.276,3.066l0,0.712c0,0.096-0.078,0.174-0.174,0.174L128.789,28.553z
				 M139.878,23.67c0,0-0.001,0-0.001,0l-6.921,0.001c-1.062,0-2.064,0.417-2.821,1.174c-0.757,0.757-1.173,1.759-1.173,2.822v0.539
				l14.91-0.004l0-0.539c0-1.063-0.417-2.064-1.174-2.821C141.942,24.086,140.94,23.67,139.878,23.67z"/>
		</g>
		<g>
			<path style="fill:#4D4E50;" d="M144.047,28.376l0-0.712c0-2.293-1.877-4.168-4.169-4.167l-6.921,0.002
				c-2.293,0.001-4.168,1.877-4.167,4.169l0,0.713L144.047,28.376z"/>
			<path style="fill:#18191B;" d="M128.789,28.553c-0.046,0-0.09-0.018-0.123-0.051c-0.033-0.032-0.051-0.076-0.051-0.123l0-0.712
				c0-1.155,0.452-2.244,1.274-3.067c0.822-0.823,1.911-1.276,3.067-1.276l6.921-0.001c0,0,0.001,0,0.001,0
				c1.155,0,2.244,0.453,3.066,1.275c0.823,0.822,1.276,1.911,1.276,3.066l0,0.712c0,0.096-0.078,0.174-0.174,0.174L128.789,28.553z
				 M139.878,23.67c0,0-0.001,0-0.001,0l-6.921,0.001c-1.062,0-2.064,0.417-2.821,1.174c-0.757,0.757-1.173,1.759-1.173,2.822v0.539
				l14.91-0.004l0-0.539c0-1.063-0.417-2.064-1.174-2.821C141.942,24.086,140.94,23.67,139.878,23.67z"/>
		</g>
		<path style="fill:#4D4E50;" d="M134.122,24.372c-0.22,0.013-0.441,0.04-0.647,0.066c-0.603,0.077-1.206,0.208-1.778,0.415
			c-0.408,0.148-0.874,0.347-1.15,0.698c-0.243,0.31-0.164,0.669,0.068,0.963c0.497,0.629,1.479,0.421,2.121,0.185
			c0.72-0.264,1.571-0.741,1.96-1.433c0.125-0.223,0.165-0.446-0.001-0.618C134.553,24.499,134.343,24.418,134.122,24.372z"/>
		<path style="fill:#4D4E50;" d="M141.813,23.978c-0.049,0.052-0.095,0.106-0.145,0.157c-1.856,1.876-4.517,2.834-7.027,3.452
			c-1.5,0.37-3.03,0.625-4.569,0.792l13.975-0.003l0-0.712C144.046,26.069,143.137,24.677,141.813,23.978z"/>
		<g>
			<g>
				<path style="fill:#FFFFFF;" d="M34.92,30.902c0.002-0.004,0.005-0.012,0.007-0.017c-0.001,0.001-0.002,0.002-0.003,0.004
					C34.923,30.893,34.921,30.898,34.92,30.902z"/>
				<path style="fill:#FFFFFF;" d="M35.801,29.981c-0.324,0.003-0.636,0.095-0.924,0.243c-0.181,0.093-0.341,0.199-0.492,0.336
					c-0.153,0.139-0.283,0.327-0.299,0.537c-0.01,0.13,0.069,0.226,0.188,0.267c0.166,0.058,0.385-0.041,0.496-0.166
					c0.059-0.067,0.101-0.143,0.128-0.227c0.007-0.022,0.013-0.045,0.021-0.068c-0.018,0.045-0.016,0.021-0.001-0.005
					c0.002-0.003,0.004-0.006,0.005-0.009v0c0.004-0.01,0.009-0.021,0.013-0.031c0,0,0,0,0,0c-0.004,0.012-0.007,0.018-0.01,0.027
					c0.011-0.019,0.024-0.038,0.036-0.057c0.004-0.005,0.008-0.01,0.013-0.015c0.023-0.026,0.047-0.051,0.072-0.075
					c0.009-0.008,0.027-0.024,0.042-0.038c0.112-0.088,0.23-0.162,0.349-0.241l0.002-0.001c0.032-0.018,0.064-0.036,0.095-0.055
					c0.014-0.009,0.029-0.018,0.043-0.026c0.006-0.004,0.012-0.007,0.019-0.011c0.061-0.033,0.122-0.064,0.185-0.091
					c0.067-0.029,0.134-0.097,0.138-0.174C35.925,30.032,35.869,29.98,35.801,29.981z"/>
			</g>
			<path style="fill:#FFFFFF;" d="M37.917,29.712c-0.192,0.016-0.379,0.045-0.562,0.107c-0.183,0.062-0.353,0.146-0.519,0.243
				c-0.173,0.1-0.328,0.222-0.476,0.356c-0.059,0.054-0.116,0.111-0.168,0.171c-0.069,0.08-0.139,0.162-0.177,0.262
				c-0.022,0.06-0.03,0.127-0.036,0.191c-0.033,0.329,0.414,0.332,0.596,0.179c0.054-0.046,0.113-0.087,0.163-0.137
				c0.051-0.051,0.089-0.11,0.125-0.171c0.026-0.045,0.058-0.103,0.094-0.147c0.002-0.003,0.002-0.002,0.004-0.005
				c0.012-0.014,0.024-0.029,0.036-0.043c0.024-0.028,0.049-0.056,0.075-0.082c0.026-0.027,0.052-0.053,0.079-0.078
				c0.009-0.008,0.018-0.017,0.028-0.025c0.056-0.045,0.113-0.089,0.172-0.13c0.031-0.021,0.063-0.041,0.095-0.061
				c0.013-0.008,0.026-0.015,0.038-0.023c0.004-0.003,0.003-0.002,0.005-0.003c0.043-0.023,0.086-0.048,0.128-0.073
				c0.003-0.001,0.001,0,0.006-0.003c0.017-0.009,0.034-0.018,0.051-0.026c0.071-0.036,0.143-0.068,0.217-0.097
				c0.092-0.037,0.184-0.136,0.19-0.239C38.086,29.787,38.009,29.705,37.917,29.712z"/>
			<g>
				<path style="fill:#FFFFFF;" d="M42.178,28.978c-0.027-0.097-0.143-0.141-0.236-0.114c-0.246,0.074-0.499,0.12-0.744,0.196
					c-0.348,0.108-0.703,0.207-1.04,0.344c-0.663,0.268-1.386,0.618-1.843,1.187c-0.241,0.301-0.599,0.875-0.331,1.258
					c0.115,0.164,0.346,0.167,0.516,0.112c0.02-0.006,0.036-0.017,0.055-0.025c-0.005,0.013,0.021,0.002,0.082-0.036
					c0.001,0,0.002-0.002,0.003-0.002c0.056-0.032,0.108-0.07,0.153-0.115c0.009-0.009,0.021-0.013,0.03-0.022
					c0.059-0.063,0.107-0.142,0.141-0.224c0.002-0.005,0.005-0.008,0.007-0.013c-0.001,0.001-0.001,0.001-0.002,0.002
					c0.004-0.01,0.011-0.02,0.014-0.031c0.02-0.059,0.027-0.124,0.035-0.185c0.001-0.005,0.002-0.016,0.003-0.028
					c0.003-0.016,0.007-0.041,0.01-0.052c0.008-0.027,0.018-0.053,0.027-0.08c0.001-0.002,0.001-0.002,0.001-0.004
					c0.014-0.025,0.028-0.05,0.044-0.074c0.011-0.017,0.022-0.032,0.034-0.048c0.002-0.002,0.002-0.002,0.004-0.004
					c0.048-0.051,0.096-0.102,0.147-0.151c-0.006,0.004-0.01,0.007-0.016,0.011c0.012-0.007,0.023-0.018,0.034-0.028
					c0.012-0.011,0.02-0.017,0.022-0.017c0.009-0.008,0.018-0.015,0.027-0.022c0.063-0.05,0.126-0.099,0.19-0.145
					c0.131-0.094,0.268-0.181,0.407-0.264c0.024-0.014,0.146-0.081,0.074-0.043c-0.074,0.039,0.041-0.022,0.06-0.032
					c0.078-0.042,0.157-0.083,0.236-0.123c0.296-0.15,0.587-0.311,0.884-0.461c0.289-0.146,0.571-0.309,0.838-0.493
					C42.125,29.198,42.208,29.083,42.178,28.978z"/>
				<path style="fill:#FFFFFF;" d="M39.292,30.868c-0.001,0.001-0.002,0.002-0.003,0.003c0.029-0.02,0.044-0.035,0.04-0.034
					c-0.007,0.006-0.014,0.011-0.022,0.017C39.302,30.859,39.299,30.861,39.292,30.868z"/>
			</g>
			<path style="fill:#FFFFFF;" d="M44.143,29.073c-0.29,0.087-0.586,0.141-0.87,0.253c-0.315,0.124-0.612,0.284-0.899,0.465
				c-0.282,0.178-0.545,0.382-0.793,0.605c-0.244,0.219-0.581,0.511-0.56,0.868c0.015,0.241,0.253,0.328,0.461,0.223
				c0.204-0.103,0.359-0.226,0.496-0.41c0.002-0.003,0.003-0.004,0.005-0.007c0.001-0.001,0.001-0.001,0.001-0.002
				c0.022-0.026,0.043-0.053,0.066-0.079c0.045-0.053,0.091-0.104,0.139-0.155c0.092-0.098,0.192-0.187,0.29-0.28
				c0.006-0.006,0.004-0.005,0.006-0.006c0.004-0.003,0.004-0.003,0.012-0.01c0.028-0.023,0.056-0.047,0.085-0.069
				c0.057-0.046,0.115-0.091,0.174-0.134c0.229-0.17,0.471-0.325,0.715-0.47c0.193-0.115,0.451-0.281,0.708-0.368
				c0.107-0.036,0.215-0.168,0.201-0.284C44.367,29.103,44.251,29.041,44.143,29.073z"/>
			<path style="fill:#FFFFFF;" d="M46.763,29.058c-0.19,0.024-0.38,0.07-0.551,0.158c-0.207,0.108-0.398,0.238-0.563,0.404
				c-0.078,0.079-0.148,0.167-0.207,0.26c-0.081,0.127-0.165,0.287-0.126,0.442c0.033,0.129,0.146,0.204,0.276,0.207
				c0.187,0.005,0.36-0.124,0.461-0.271c0.049-0.071,0.072-0.15,0.101-0.229c0.019-0.035,0.041-0.069,0.064-0.102
				c0.041-0.048,0.084-0.094,0.131-0.136c0.072-0.056,0.147-0.106,0.225-0.156c0.023-0.014,0.044-0.032,0.066-0.047
				c0.004-0.003,0.015-0.01,0.024-0.015c0.045-0.023,0.091-0.044,0.138-0.062c0.116-0.046,0.225-0.173,0.214-0.303
				C47.005,29.075,46.877,29.043,46.763,29.058z"/>
			<path style="fill:#FFFFFF;" d="M48.811,29.172c-0.035-0.108-0.159-0.161-0.267-0.129c-0.296,0.088-0.574,0.242-0.787,0.469
				c-0.108,0.115-0.199,0.249-0.253,0.397c-0.023,0.063-0.028,0.166-0.011,0.232c0.025,0.098,0.101,0.163,0.196,0.188
				c0.094,0.026,0.193,0.016,0.282-0.023c0.049-0.021,0.074-0.043,0.113-0.066c-0.034,0.019-0.068,0.039-0.102,0.058
				c0.106-0.058,0.209-0.124,0.27-0.234c0.022-0.04,0.04-0.083,0.056-0.125c0.011-0.03,0.017-0.062,0.022-0.093
				c0.006-0.022,0.014-0.044,0.023-0.066c0.015-0.027,0.032-0.054,0.05-0.08c0.031-0.036,0.064-0.071,0.099-0.104
				c0.051-0.04,0.102-0.08,0.159-0.113l0.064-0.055c0.028-0.027,0.05-0.059,0.064-0.095C48.81,29.286,48.828,29.224,48.811,29.172z"
				/>
			<g>
				<path style="fill:#FFFFFF;" d="M51.93,30.163c-0.002,0.003-0.004,0.006-0.006,0.009C51.987,30.105,51.95,30.134,51.93,30.163z"
					/>
				<path style="fill:#FFFFFF;" d="M52.672,29.302c0.096-0.069,0.032-0.028,0.007-0.006c0,0-0.001,0.001-0.001,0.001
					C52.676,29.298,52.674,29.3,52.672,29.302z"/>
				<path style="fill:#FFFFFF;" d="M53.393,28.228c-0.463,0.162-0.897,0.395-1.292,0.686c-0.223,0.164-0.438,0.345-0.615,0.559
					c-0.112,0.135-0.2,0.261-0.269,0.422c-0.054,0.127-0.046,0.27-0.028,0.403c0.019,0.139,0.193,0.187,0.306,0.176
					c0.154-0.015,0.315-0.111,0.394-0.247c0.011-0.019,0.022-0.037,0.034-0.054c-0.007,0.007-0.009,0.01-0.018,0.02
					c0.057-0.059,0.103-0.127,0.148-0.194c0.054-0.079,0.108-0.157,0.161-0.236c-0.098,0.143,0.006-0.005,0.037-0.04
					c0.036-0.041,0.073-0.08,0.11-0.119c0.079-0.085,0.161-0.167,0.247-0.245c0.021-0.019,0.042-0.038,0.063-0.056
					c-0.002,0.002-0.002,0.002-0.005,0.004c0.003-0.003,0.007-0.006,0.01-0.008c0,0,0,0,0,0c0,0,0.001,0,0.001-0.001
					c0.045-0.034,0.088-0.073,0.133-0.108c0.088-0.069,0.177-0.136,0.265-0.205c0.081-0.063,0.164-0.124,0.249-0.182
					c0.041-0.028,0.082-0.056,0.125-0.081c0.015-0.009,0.03-0.018,0.045-0.026c0.004-0.002,0.008-0.004,0.015-0.008
					c0.122-0.066,0.267-0.196,0.225-0.353C53.693,28.175,53.513,28.186,53.393,28.228z"/>
			</g>
			<path style="fill:#FFFFFF;" d="M58.232,27.945c-0.378,0.033-0.728,0.103-1.087,0.255c-0.471,0.199-0.917,0.491-1.312,0.813
				c-0.798,0.651-1.61,1.505-1.785,2.562c-0.089,0.535,0.103,1.227,0.743,1.235c0.248,0.003,0.521-0.205,0.542-0.462
				c0.002-0.022,0.01-0.083-0.008,0.016c0.011-0.062,0.022-0.108,0.019-0.171c-0.003-0.059-0.017-0.1-0.035-0.154
				c-0.017-0.052-0.034-0.102-0.056-0.152c-0.009-0.019-0.019-0.04-0.028-0.06c-0.002-0.006-0.003-0.012-0.006-0.023
				c-0.016-0.069-0.039-0.136-0.054-0.206c-0.002-0.01-0.003-0.02-0.004-0.03c0.002-0.043-0.001-0.086,0.002-0.129
				c0.003-0.04,0.011-0.08,0.013-0.121c0-0.005,0-0.007,0-0.011c0.002-0.006,0.003-0.01,0.006-0.019
				c0.026-0.091,0.053-0.181,0.089-0.269c0.004-0.01,0.022-0.051,0.034-0.078c0.013-0.026,0.04-0.079,0.045-0.088
				c0.048-0.088,0.099-0.173,0.154-0.257c0.052-0.079,0.107-0.154,0.163-0.23c0.014-0.019,0.042-0.055,0.056-0.071
				c0.04-0.048,0.08-0.096,0.12-0.144c0.148-0.176,0.303-0.345,0.467-0.506c0.152-0.149,0.311-0.29,0.471-0.429
				c0.016-0.014,0.062-0.052,0.074-0.062c0.041-0.034,0.083-0.067,0.125-0.1c0.087-0.068,0.176-0.132,0.264-0.197
				c0.168-0.125,0.338-0.247,0.52-0.353c0.104-0.061,0.228-0.149,0.391-0.174C58.341,28.303,58.502,27.922,58.232,27.945z"/>
			<g>
				<path style="fill:#FFFFFF;" d="M60.621,28.331c-0.479,0.171-0.924,0.383-1.354,0.656c-0.502,0.318-0.98,0.704-1.321,1.196
					c-0.089,0.128-0.166,0.272-0.219,0.419c-0.069,0.19-0.069,0.369,0.041,0.542c0.178,0.279,0.656,0.055,0.772-0.169
					c0.044-0.085,0.091-0.164,0.122-0.255c0.018-0.052,0.031-0.105,0.049-0.157c0.009-0.027,0.021-0.053,0.031-0.079
					c0.002-0.004,0.004-0.007,0.007-0.013c0.031-0.056,0.064-0.109,0.1-0.162c0.021-0.031,0.048-0.06,0.067-0.092
					c-0.008,0.014-0.014,0.024-0.019,0.033c0.01-0.016,0.022-0.034,0.031-0.045c0.046-0.055,0.094-0.108,0.144-0.161
					c0.111-0.117,0.229-0.227,0.349-0.334c0.012-0.01,0.023-0.021,0.035-0.031c0.024-0.019,0.047-0.039,0.071-0.059
					c0.069-0.056,0.138-0.111,0.209-0.164c0.127-0.097,0.258-0.189,0.391-0.278c0.12-0.08,0.235-0.167,0.355-0.246
					c0.022-0.014,0.044-0.029,0.065-0.043c0.011-0.007,0.055-0.032,0.059-0.035c0.043-0.022,0.086-0.044,0.129-0.065
					c0.125-0.06,0.265-0.2,0.225-0.353C60.921,28.278,60.741,28.288,60.621,28.331z"/>
				<path style="fill:#FFFFFF;" d="M58.899,30.249C58.882,30.278,58.872,30.296,58.899,30.249L58.899,30.249z"/>
			</g>
			<path style="fill:#FFFFFF;" d="M62.212,28.995c-0.105-0.132-0.294-0.088-0.417-0.007c-0.079,0.052-0.152,0.114-0.22,0.179
				c-0.049,0.047-0.098,0.095-0.141,0.148c-0.119,0.149-0.218,0.311-0.27,0.495c-0.024,0.084-0.024,0.163,0.023,0.238
				c0.054,0.089,0.169,0.107,0.263,0.098c0.106-0.011,0.196-0.055,0.277-0.124c0.085-0.073,0.153-0.169,0.161-0.284
				c0.001-0.022,0.006-0.043,0.008-0.064c0.011-0.045,0.026-0.088,0.044-0.131c0.014-0.026,0.03-0.052,0.047-0.077
				c0.013-0.013,0.025-0.026,0.039-0.038c0.017-0.013,0.034-0.027,0.051-0.04c0.066-0.046,0.128-0.118,0.154-0.196
				C62.251,29.134,62.255,29.048,62.212,28.995z"/>
			<path style="fill:#FFFFFF;" d="M63.592,29.086c-0.041-0.059-0.122-0.092-0.192-0.091c-0.089,0.001-0.18,0.029-0.252,0.083
				c-0.024,0.021-0.049,0.042-0.073,0.062c-0.041,0.042-0.071,0.091-0.091,0.146c-0.002,0.004-0.004,0.009-0.006,0.013
				c-0.084,0.173-0.186,0.337-0.303,0.49c-0.028,0.038-0.053,0.079-0.07,0.125c-0.006,0.03-0.013,0.061-0.019,0.091
				c-0.005,0.06,0.01,0.115,0.043,0.164c0.025,0.038,0.058,0.064,0.1,0.078c0.093,0.043,0.187,0.036,0.283,0.005
				c0.121-0.039,0.242-0.12,0.306-0.234c0.127-0.227,0.229-0.468,0.293-0.72C63.631,29.226,63.638,29.151,63.592,29.086z"/>
		</g>
		<g>
			<g>
				<path style="fill:#FFFFFF;" d="M235.773,30.856c-0.002-0.004-0.005-0.012-0.007-0.017c0.001,0.001,0.002,0.003,0.002,0.004
					C235.77,30.847,235.771,30.852,235.773,30.856z"/>
				<path style="fill:#FFFFFF;" d="M234.891,29.935c0.324,0.003,0.636,0.095,0.924,0.242c0.181,0.093,0.342,0.199,0.492,0.336
					c0.152,0.139,0.283,0.327,0.299,0.537c0.01,0.13-0.069,0.226-0.188,0.268c-0.166,0.058-0.385-0.041-0.496-0.166
					c-0.059-0.067-0.101-0.143-0.128-0.227c-0.007-0.022-0.013-0.045-0.021-0.068c0.018,0.045,0.016,0.021,0.001-0.005
					c-0.002-0.003-0.004-0.006-0.006-0.009v0c-0.004-0.01-0.009-0.021-0.012-0.031c0,0,0,0,0,0c0.005,0.012,0.007,0.018,0.01,0.027
					c-0.012-0.019-0.024-0.038-0.036-0.057c-0.004-0.005-0.008-0.01-0.013-0.015c-0.023-0.026-0.047-0.051-0.072-0.075
					c-0.009-0.008-0.027-0.025-0.042-0.038c-0.112-0.088-0.23-0.162-0.349-0.241l-0.003-0.001c-0.032-0.018-0.064-0.036-0.095-0.055
					c-0.014-0.009-0.029-0.018-0.043-0.026c-0.006-0.004-0.012-0.007-0.019-0.011c-0.061-0.033-0.122-0.064-0.185-0.091
					c-0.067-0.029-0.134-0.097-0.138-0.174C234.767,29.986,234.824,29.934,234.891,29.935z"/>
			</g>
			<path style="fill:#FFFFFF;" d="M232.776,29.668c0.191,0.016,0.379,0.045,0.562,0.107c0.183,0.061,0.353,0.146,0.52,0.242
				c0.173,0.1,0.328,0.222,0.476,0.356c0.059,0.054,0.116,0.111,0.168,0.171c0.07,0.08,0.14,0.161,0.177,0.262
				c0.022,0.06,0.03,0.127,0.036,0.191c0.033,0.329-0.414,0.332-0.596,0.179c-0.054-0.046-0.113-0.087-0.164-0.137
				c-0.051-0.051-0.089-0.11-0.125-0.171c-0.026-0.045-0.058-0.102-0.094-0.147c-0.002-0.002-0.002-0.002-0.004-0.005
				c-0.012-0.014-0.024-0.029-0.036-0.043c-0.024-0.028-0.049-0.056-0.075-0.082c-0.026-0.027-0.052-0.053-0.079-0.078
				c-0.009-0.009-0.018-0.017-0.028-0.025c-0.056-0.045-0.113-0.089-0.172-0.13c-0.031-0.021-0.063-0.042-0.095-0.061
				c-0.013-0.008-0.026-0.015-0.038-0.023c-0.004-0.003-0.002-0.002-0.005-0.003c-0.043-0.023-0.086-0.048-0.128-0.073
				c-0.003-0.001-0.001-0.001-0.006-0.003c-0.017-0.009-0.034-0.018-0.051-0.026c-0.071-0.035-0.143-0.067-0.217-0.097
				c-0.092-0.036-0.184-0.136-0.19-0.239C232.607,29.743,232.683,29.66,232.776,29.668z"/>
			<g>
				<path style="fill:#FFFFFF;" d="M228.514,28.936c0.027-0.096,0.143-0.141,0.235-0.114c0.246,0.074,0.499,0.12,0.744,0.196
					c0.348,0.108,0.703,0.207,1.04,0.344c0.663,0.268,1.387,0.617,1.843,1.186c0.242,0.301,0.599,0.875,0.332,1.258
					c-0.115,0.164-0.346,0.167-0.517,0.112c-0.019-0.006-0.036-0.017-0.055-0.024c0.005,0.013-0.021,0.002-0.082-0.036
					c-0.001-0.001-0.002-0.001-0.003-0.002c-0.057-0.032-0.108-0.07-0.154-0.115c-0.009-0.008-0.021-0.013-0.03-0.022
					c-0.059-0.063-0.107-0.142-0.141-0.224c-0.002-0.005-0.005-0.008-0.007-0.013c0.001,0.001,0.001,0.002,0.002,0.002
					c-0.004-0.01-0.011-0.02-0.014-0.031c-0.02-0.059-0.027-0.124-0.035-0.185c-0.001-0.005-0.002-0.016-0.003-0.027
					c-0.003-0.016-0.007-0.041-0.01-0.052c-0.008-0.027-0.018-0.053-0.027-0.08c-0.001-0.002-0.001-0.002-0.001-0.004
					c-0.015-0.025-0.028-0.05-0.044-0.074c-0.011-0.016-0.022-0.032-0.034-0.048c-0.002-0.002-0.002-0.002-0.004-0.004
					c-0.048-0.051-0.096-0.102-0.147-0.151c0.006,0.004,0.01,0.007,0.016,0.011c-0.012-0.007-0.023-0.018-0.034-0.028
					c-0.012-0.011-0.02-0.017-0.022-0.017c-0.009-0.008-0.018-0.015-0.027-0.022c-0.063-0.05-0.126-0.099-0.191-0.145
					c-0.131-0.094-0.268-0.181-0.407-0.263c-0.023-0.014-0.146-0.081-0.074-0.043c0.074,0.039-0.041-0.022-0.06-0.032
					c-0.078-0.042-0.157-0.083-0.236-0.123c-0.296-0.15-0.588-0.311-0.885-0.461c-0.29-0.146-0.571-0.308-0.838-0.493
					C228.567,29.155,228.484,29.04,228.514,28.936z"/>
				<path style="fill:#FFFFFF;" d="M231.401,30.824c0.001,0.001,0.002,0.002,0.003,0.003c-0.029-0.02-0.044-0.035-0.04-0.034
					c0.007,0.006,0.014,0.011,0.022,0.017C231.391,30.815,231.394,30.817,231.401,30.824z"/>
			</g>
			<path style="fill:#FFFFFF;" d="M226.549,29.032c0.29,0.087,0.586,0.141,0.87,0.252c0.315,0.124,0.612,0.284,0.899,0.464
				c0.283,0.178,0.545,0.382,0.794,0.605c0.245,0.219,0.581,0.511,0.56,0.868c-0.014,0.241-0.253,0.328-0.461,0.223
				c-0.204-0.103-0.359-0.225-0.496-0.41c-0.002-0.003-0.003-0.004-0.005-0.007c-0.001-0.001-0.001-0.001-0.002-0.002
				c-0.022-0.026-0.043-0.053-0.066-0.079c-0.045-0.053-0.091-0.104-0.139-0.154c-0.093-0.098-0.192-0.187-0.29-0.28
				c-0.006-0.005-0.004-0.005-0.006-0.006c-0.004-0.003-0.004-0.003-0.012-0.01c-0.028-0.023-0.056-0.047-0.085-0.069
				c-0.057-0.046-0.115-0.091-0.174-0.134c-0.229-0.17-0.471-0.325-0.716-0.469c-0.193-0.115-0.451-0.281-0.708-0.367
				c-0.107-0.036-0.215-0.168-0.201-0.284C226.325,29.062,226.441,28.999,226.549,29.032z"/>
			<path style="fill:#FFFFFF;" d="M223.676,29.169c-0.011,0.129,0.098,0.257,0.214,0.302c0.047,0.018,0.093,0.039,0.138,0.062
				c0.008,0.006,0.02,0.012,0.024,0.015c0.022,0.015,0.043,0.033,0.066,0.048c0.077,0.049,0.152,0.1,0.225,0.155
				c0.047,0.042,0.09,0.088,0.131,0.136c0.023,0.033,0.045,0.067,0.064,0.103c0.03,0.078,0.053,0.157,0.101,0.228
				c0.101,0.147,0.274,0.276,0.461,0.271c0.13-0.004,0.243-0.078,0.276-0.208c0.039-0.155-0.045-0.315-0.126-0.442
				c-0.059-0.093-0.13-0.182-0.207-0.26c-0.165-0.167-0.356-0.297-0.563-0.404c-0.171-0.089-0.361-0.134-0.551-0.158
				C223.815,29.003,223.687,29.035,223.676,29.169z"/>
			<path style="fill:#FFFFFF;" d="M221.881,29.132c0.035-0.108,0.159-0.161,0.267-0.129c0.296,0.088,0.574,0.242,0.787,0.469
				c0.107,0.115,0.199,0.248,0.253,0.397c0.023,0.063,0.028,0.166,0.011,0.232c-0.025,0.098-0.101,0.163-0.196,0.189
				c-0.094,0.026-0.193,0.016-0.282-0.023c-0.049-0.021-0.074-0.043-0.113-0.066c0.034,0.019,0.068,0.038,0.103,0.058
				c-0.106-0.058-0.209-0.124-0.27-0.234c-0.022-0.04-0.04-0.083-0.056-0.125c-0.011-0.031-0.017-0.062-0.022-0.093
				c-0.006-0.022-0.014-0.044-0.023-0.066c-0.015-0.027-0.032-0.054-0.05-0.08c-0.031-0.036-0.064-0.071-0.099-0.104
				c-0.051-0.04-0.102-0.08-0.159-0.113l-0.064-0.055c-0.028-0.027-0.05-0.059-0.064-0.095
				C221.882,29.247,221.864,29.185,221.881,29.132z"/>
			<g>
				<path style="fill:#FFFFFF;" d="M218.762,30.125c0.002,0.003,0.004,0.006,0.006,0.009
					C218.705,30.067,218.742,30.096,218.762,30.125z"/>
				<path style="fill:#FFFFFF;" d="M218.02,29.264c-0.096-0.069-0.032-0.028-0.006-0.006c0,0,0.001,0.001,0.001,0.001
					C218.016,29.261,218.018,29.262,218.02,29.264z"/>
				<path style="fill:#FFFFFF;" d="M217.299,28.19c0.463,0.162,0.897,0.395,1.293,0.685c0.223,0.164,0.439,0.345,0.615,0.559
					c0.111,0.135,0.201,0.26,0.269,0.422c0.054,0.127,0.046,0.27,0.028,0.403c-0.019,0.139-0.193,0.187-0.306,0.176
					c-0.154-0.015-0.315-0.111-0.394-0.247c-0.011-0.018-0.023-0.037-0.034-0.055c0.007,0.007,0.009,0.01,0.018,0.02
					c-0.057-0.059-0.103-0.127-0.148-0.194c-0.054-0.079-0.108-0.157-0.162-0.236c0.098,0.143-0.006-0.005-0.037-0.04
					c-0.036-0.041-0.073-0.08-0.11-0.119c-0.079-0.085-0.161-0.167-0.247-0.245c-0.021-0.019-0.042-0.038-0.063-0.056
					c0.002,0.002,0.002,0.002,0.005,0.004c-0.004-0.003-0.007-0.006-0.01-0.008c0,0,0,0,0,0c0,0-0.001-0.001-0.001-0.001
					c-0.046-0.034-0.088-0.073-0.133-0.108c-0.088-0.069-0.177-0.136-0.266-0.204c-0.081-0.063-0.164-0.124-0.249-0.182
					c-0.041-0.028-0.083-0.056-0.125-0.081c-0.015-0.009-0.03-0.017-0.044-0.026c-0.004-0.002-0.008-0.004-0.015-0.008
					c-0.122-0.066-0.267-0.196-0.225-0.353C216.999,28.137,217.179,28.148,217.299,28.19z"/>
			</g>
			<path style="fill:#FFFFFF;" d="M212.459,27.91c0.379,0.033,0.728,0.103,1.087,0.254c0.471,0.198,0.917,0.49,1.312,0.813
				c0.798,0.651,1.61,1.505,1.786,2.561c0.089,0.535-0.103,1.227-0.742,1.236c-0.248,0.003-0.521-0.205-0.542-0.461
				c-0.002-0.022-0.01-0.083,0.008,0.016c-0.011-0.062-0.022-0.109-0.019-0.171c0.003-0.058,0.017-0.1,0.035-0.154
				c0.017-0.052,0.034-0.101,0.056-0.152c0.009-0.02,0.019-0.04,0.028-0.059c0.001-0.006,0.003-0.013,0.006-0.023
				c0.016-0.069,0.039-0.136,0.054-0.206c0.002-0.01,0.003-0.02,0.004-0.03c-0.002-0.043,0.001-0.086-0.002-0.129
				c-0.003-0.04-0.011-0.08-0.014-0.121c0-0.006,0-0.007,0-0.011c-0.002-0.006-0.003-0.01-0.006-0.019
				c-0.026-0.091-0.054-0.181-0.089-0.269c-0.004-0.01-0.022-0.051-0.033-0.078c-0.013-0.026-0.04-0.079-0.045-0.088
				c-0.048-0.088-0.099-0.173-0.154-0.257c-0.051-0.079-0.107-0.154-0.163-0.23c-0.014-0.019-0.042-0.055-0.055-0.071
				c-0.04-0.048-0.08-0.096-0.12-0.144c-0.148-0.176-0.303-0.345-0.467-0.506c-0.152-0.149-0.311-0.289-0.471-0.428
				c-0.016-0.014-0.062-0.052-0.074-0.062c-0.041-0.034-0.083-0.067-0.125-0.1c-0.087-0.068-0.176-0.132-0.264-0.197
				c-0.169-0.125-0.339-0.246-0.52-0.352c-0.105-0.061-0.228-0.149-0.391-0.174C212.35,28.268,212.189,27.887,212.459,27.91z"/>
			<g>
				<path style="fill:#FFFFFF;" d="M210.07,28.297c0.479,0.171,0.924,0.383,1.354,0.655c0.502,0.318,0.981,0.703,1.322,1.195
					c0.089,0.128,0.166,0.272,0.219,0.419c0.069,0.19,0.069,0.369-0.041,0.542c-0.178,0.279-0.656,0.055-0.772-0.169
					c-0.044-0.085-0.091-0.163-0.123-0.255c-0.018-0.052-0.031-0.105-0.049-0.157c-0.009-0.027-0.021-0.053-0.031-0.079
					c-0.003-0.004-0.004-0.007-0.007-0.013c-0.031-0.056-0.064-0.109-0.1-0.161c-0.021-0.031-0.048-0.06-0.066-0.092
					c0.008,0.014,0.014,0.024,0.018,0.033c-0.01-0.016-0.022-0.034-0.031-0.045c-0.046-0.055-0.095-0.108-0.144-0.16
					c-0.111-0.117-0.229-0.227-0.349-0.334c-0.011-0.01-0.023-0.021-0.035-0.031c-0.024-0.02-0.047-0.039-0.071-0.059
					c-0.069-0.056-0.138-0.111-0.209-0.164c-0.128-0.097-0.258-0.189-0.392-0.278c-0.12-0.08-0.235-0.166-0.355-0.246
					c-0.022-0.014-0.044-0.029-0.065-0.042c-0.011-0.007-0.055-0.032-0.059-0.035c-0.043-0.022-0.085-0.045-0.129-0.065
					c-0.125-0.06-0.265-0.2-0.225-0.353C209.771,28.244,209.951,28.254,210.07,28.297z"/>
				<path style="fill:#FFFFFF;" d="M211.793,30.214C211.811,30.243,211.821,30.262,211.793,30.214L211.793,30.214z"/>
			</g>
			<path style="fill:#FFFFFF;" d="M208.48,28.961c0.105-0.132,0.294-0.089,0.416-0.008c0.079,0.052,0.152,0.114,0.22,0.179
				c0.049,0.047,0.098,0.095,0.141,0.148c0.119,0.149,0.218,0.31,0.271,0.495c0.024,0.084,0.024,0.163-0.022,0.238
				c-0.054,0.089-0.169,0.107-0.263,0.098c-0.106-0.01-0.196-0.054-0.277-0.124c-0.085-0.073-0.153-0.169-0.161-0.284
				c-0.002-0.021-0.006-0.043-0.009-0.064c-0.011-0.045-0.026-0.088-0.044-0.131c-0.014-0.026-0.03-0.052-0.047-0.077
				c-0.013-0.013-0.026-0.026-0.039-0.038c-0.017-0.013-0.034-0.027-0.051-0.04c-0.066-0.046-0.128-0.118-0.154-0.196
				C208.441,29.1,208.437,29.014,208.48,28.961z"/>
			<path style="fill:#FFFFFF;" d="M207.1,29.053c0.041-0.059,0.122-0.092,0.192-0.091c0.089,0.001,0.18,0.029,0.252,0.083
				c0.024,0.021,0.049,0.042,0.073,0.062c0.041,0.042,0.071,0.091,0.091,0.146c0.002,0.004,0.004,0.009,0.006,0.013
				c0.085,0.173,0.186,0.337,0.303,0.489c0.028,0.038,0.053,0.079,0.07,0.125c0.006,0.03,0.013,0.061,0.019,0.091
				c0.005,0.06-0.01,0.115-0.043,0.164c-0.025,0.038-0.059,0.064-0.1,0.078c-0.093,0.043-0.187,0.036-0.283,0.005
				c-0.122-0.039-0.243-0.12-0.306-0.234c-0.127-0.227-0.23-0.468-0.293-0.72C207.062,29.193,207.054,29.119,207.1,29.053z"/>
		</g>
		<path style="fill:#B3B5B8;" d="M136.553,35.53c-19.165,0-37.171-0.431-50.732-1.216c-21.423-1.239-21.423-2.716-21.423-3.272
			c0-0.556-0.001-2.033,21.422-3.282c13.628-0.795,31.747-1.235,51.018-1.239c0.099,0,0.198,0,0.297,0
			c19.16,0,37.162,0.431,50.722,1.216c21.423,1.239,21.423,2.716,21.423,3.272l0,0l0,0c0,0.556,0.001,2.033-21.422,3.282
			c-13.628,0.794-31.747,1.235-51.018,1.239C136.744,35.53,136.648,35.53,136.553,35.53z M65.036,31.042
			c0.174,0.293,2.066,1.582,21.415,2.676c13.478,0.762,31.262,1.181,50.103,1.181c0.096,0,0.189,0,0.285,0
			c18.947-0.004,36.841-0.432,50.387-1.204c19.35-1.103,21.241-2.392,21.414-2.686c-0.174-0.293-2.066-1.582-21.416-2.676
			c-13.476-0.761-31.257-1.181-50.092-1.181c-0.099,0-0.196,0-0.295,0c-18.946,0.004-36.841,0.432-50.387,1.204
			C67.101,29.458,65.21,30.748,65.036,31.042z"/>
	</g>
	<g>
		<path style="fill:#C83F36;" d="M170.756,40.501c0,0-40.167-3.494-65.065,0c-17.583,2.468-28.82,8.285-31.677,18.387
			c0,0-6.832,0.969-13.121,5.425c-6.288,4.456-22.656,28.655-22.656,28.655s-26.372,6.228-31.4,17.884c0,0-2.514,4.843,3.143,10.135
			c5.657,5.292,22.415,11.734,35.563,13.699c0,0,10.081,2.698,24.656,2.331h83.585c0,0,22.396,0.64,33.575-6.306
			c11.18-6.946,21.522-30.851,47.777-35.24c26.255-4.389,85.081-10.064,85.081-10.064l32.902-2.159c0,0,4.355,0.613,5.025-5.362
			c0.67-5.975-6.149-5.054-11.539-5.671c-5.39-0.618-107.757-5.716-107.757-5.716s-25.216-5.287-34.216-13.247
			S187.032,42.541,170.756,40.501z"/>
		<path style="fill:#810913;" d="M67.499,137.209c-12.98,0-21.903-2.345-21.998-2.37c-13.271-1.982-29.929-8.402-35.63-13.736
			c-5.679-5.312-3.201-10.274-3.175-10.323c4.881-11.315,30.031-17.606,31.444-17.951c0.847-1.247,16.561-24.322,22.662-28.645
			c5.832-4.132,12.209-5.292,13.088-5.436c2.787-9.643,13.478-15.835,31.779-18.403c24.632-3.457,64.7-0.036,65.101-0.001
			c0.002,0,0.004,0,0.006,0c17.203,2.157,25.456,5.265,33.962,12.789c8.865,7.842,33.892,13.159,34.143,13.211
			c0.999,0.048,102.409,5.102,107.742,5.714c0.972,0.111,2.007,0.174,3.008,0.234c3.273,0.196,6.365,0.382,7.85,2.147
			c0.718,0.853,0.986,1.986,0.82,3.465c-0.239,2.132-0.966,3.682-2.16,4.609c-1.363,1.056-2.843,0.916-3.027,0.894l-32.886,2.158
			c-0.584,0.056-59.116,5.724-85.066,10.062c-17.732,2.965-28.176,14.85-36.568,24.4c-4.039,4.597-7.527,8.566-11.153,10.819
			c-11.091,6.891-33.438,6.337-33.663,6.33H70.199C69.282,137.198,68.381,137.209,67.499,137.209z M133.555,39.115
			c-9.635,0-19.602,0.385-27.843,1.542c-18.227,2.558-28.841,8.707-31.547,18.274c-0.017,0.06-0.068,0.105-0.13,0.114
			c-0.068,0.01-6.869,1.017-13.052,5.398c-6.193,4.388-22.453,28.373-22.617,28.615c-0.022,0.033-0.056,0.056-0.095,0.065
			c-0.263,0.062-26.352,6.343-31.291,17.793c-0.029,0.057-2.391,4.815,3.106,9.957c5.663,5.298,22.242,11.68,35.479,13.658
			c0.118,0.031,10.244,2.693,24.629,2.329h83.589c0.228,0.006,22.481,0.559,33.492-6.282c3.586-2.228,7.06-6.181,11.082-10.759
			c8.425-9.588,18.91-21.52,36.753-24.503c25.96-4.34,84.504-10.008,85.092-10.065l32.907-2.16c0.012-0.002,0.022,0,0.032,0.001
			c0.015,0.002,1.495,0.192,2.811-0.832c1.122-0.873,1.806-2.35,2.035-4.391c0.156-1.388-0.089-2.444-0.748-3.227
			c-1.398-1.661-4.424-1.843-7.628-2.035c-1.005-0.06-2.044-0.123-3.024-0.235c-5.323-0.61-106.723-5.664-107.746-5.715
			c-0.277-0.056-25.385-5.39-34.312-13.287c-8.451-7.475-16.662-10.564-33.79-12.712C170.361,40.625,152.617,39.115,133.555,39.115z
			"/>
	</g>
	<path style="fill:#FFFFFF;" d="M136.702,131.646c9.568-8.493,19.695-16.336,30.083-23.796
		c10.677-7.668,21.719-14.916,32.898-21.828c11.269-6.968,22.829-13.487,34.789-19.198c0.627-0.299,1.256-0.596,1.886-0.891
		c-2.395-0.568-6.28-1.549-10.607-2.877c-0.395,0.185-0.792,0.368-1.186,0.554c-12.724,6.011-25.017,12.911-36.957,20.351
		c-11.851,7.384-23.36,15.307-34.639,23.536c-11.454,8.356-22.53,17.136-33.068,26.628c-1.063,0.958-2.118,1.924-3.172,2.893h14.102
		C132.761,135.198,134.719,133.407,136.702,131.646z"/>
	<g>
		<g>
			<path style="fill:#FFFFFF;" d="M259.193,85.748c0,0-40.528,1.575-48.833,9.869c-4.995,4.989-18.42,18.719-41.048,21.049
				c-22.627,2.33-141.734,0.499-158.39-2.832c-1.75-0.35-3.254-0.823-4.551-1.388c-0.293,1.854-0.068,5.102,3.608,8.541
				c5.657,5.292,22.415,11.734,35.563,13.699c0,0,10.081,2.698,24.656,2.331h83.585c0,0,22.396,0.64,33.575-6.306
				c11.18-6.946,21.522-30.851,47.777-35.24c26.255-4.389,85.081-10.064,85.081-10.064l32.902-2.159c0,0,4.155,0.581,4.971-4.963
				L259.193,85.748z"/>
			<path style="fill:#97999C;" d="M67.499,137.209c-12.98,0-21.903-2.345-21.998-2.37c-13.271-1.982-29.929-8.402-35.63-13.736
				c-3.811-3.565-3.927-6.969-3.656-8.681l0.032-0.202l0.187,0.082c1.336,0.582,2.857,1.046,4.519,1.378
				c15.938,3.187,134.325,5.302,158.343,2.829c22.233-2.289,35.665-15.718,40.722-20.773l0.23-0.23
				c8.251-8.241,47.252-9.85,48.936-9.915l99.092-7.479l-0.029,0.196c-0.802,5.447-4.827,5.131-5.131,5.098l-32.888,2.158
				c-0.584,0.056-59.116,5.724-85.066,10.062c-17.732,2.965-28.176,14.85-36.568,24.4c-4.039,4.597-7.527,8.566-11.153,10.819
				c-11.091,6.891-33.438,6.337-33.663,6.33H70.199C69.282,137.198,68.381,137.209,67.499,137.209z M6.498,112.673
				c-0.262,2.017,0.185,5.015,3.589,8.199c5.663,5.298,22.242,11.68,35.479,13.658c0.118,0.031,10.244,2.693,24.629,2.329h83.589
				c0.228,0.006,22.481,0.559,33.492-6.282c3.586-2.228,7.06-6.181,11.082-10.759c8.425-9.588,18.91-21.52,36.753-24.503
				c25.96-4.34,84.504-10.008,85.092-10.065l32.923-2.16l0.016,0.002c0.161,0.021,3.916,0.476,4.762-4.634l-98.706,7.449
				c-0.405,0.016-40.561,1.667-48.727,9.823l-0.23,0.23c-5.078,5.077-18.569,18.564-40.913,20.864
				c-11.975,1.233-49.539,1.244-81.453,0.707c-29.851-0.502-67.925-1.73-76.984-3.541C9.285,113.669,7.808,113.226,6.498,112.673z"
				/>
		</g>
	</g>
	<g>
		<g>
			<path style="fill:#FFFFFF;" d="M80.916,61.38c7.944,0.161,138.038,0,138.038,0l0.292-0.501
				c-5.693-2.085-11.271-4.672-14.613-7.628c-9-7.96-17.602-10.71-33.877-12.75c0,0-40.167-3.494-65.065,0
				c-17.583,2.468-28.82,8.285-31.677,18.387C74.014,58.888,72.973,61.219,80.916,61.38z"/>
			<path style="fill:#97999C;" d="M120.219,61.608c-20.457,0-36.674-0.018-39.306-0.071c-4.849-0.098-6.434-1.014-6.91-1.764
				c-0.323-0.51-0.141-0.932-0.133-0.95c2.735-9.677,13.436-15.902,31.799-18.479c24.632-3.457,64.7-0.036,65.101-0.001
				c17.209,2.158,25.462,5.265,33.968,12.79c2.899,2.564,7.799,5.12,14.562,7.597l0.177,0.065l-0.432,0.742h-0.091
				C218.09,61.538,160.813,61.608,120.219,61.608z M133.556,39.115c-9.634,0-19.603,0.385-27.843,1.542
				c-18.228,2.558-28.841,8.706-31.547,18.274c-0.012,0.032-0.128,0.319,0.111,0.685c0.362,0.557,1.708,1.506,6.643,1.606l0,0
				c7.764,0.158,133.886,0.005,137.944,0l0.151-0.259c-6.71-2.471-11.583-5.025-14.486-7.593
				c-8.451-7.475-16.662-10.564-33.792-12.712C170.474,40.634,152.679,39.115,133.556,39.115z"/>
		</g>
		<g>
			<path style="fill:#4D4E50;" d="M43.775,94.87c2.145-0.083,4.874-8.999,18.727-23.123c2.298-2.343,4.334-6.036,0.307-7.659
				c-0.341-0.137-0.691-0.256-1.045-0.364c-0.291,0.19-0.581,0.385-0.87,0.59c-6.288,4.456-22.656,28.655-22.656,28.655
				s-0.332,0.078-0.924,0.233C38.06,93.503,41.747,94.948,43.775,94.87z"/>
			<path style="fill:#18191B;" d="M43.614,95.031c-2.091,0-5.652-1.396-6.361-1.683c-0.063-0.026-0.103-0.089-0.098-0.157
				c0.005-0.068,0.052-0.126,0.118-0.143c0.448-0.117,0.747-0.19,0.868-0.219c0.847-1.247,16.561-24.322,22.662-28.645
				c0.291-0.206,0.582-0.402,0.875-0.593c0.039-0.026,0.088-0.032,0.133-0.019c0.399,0.122,0.745,0.243,1.058,0.369
				c1.331,0.537,2.116,1.336,2.333,2.376c0.451,2.16-1.659,4.594-2.587,5.54C54.347,80.286,50.041,86.868,47.467,90.8
				c-1.826,2.79-2.742,4.19-3.687,4.227l0,0C43.726,95.029,43.671,95.031,43.614,95.031z M43.775,94.87h0.003H43.775z
				 M37.823,93.233c1.246,0.48,4.226,1.551,5.945,1.479l0,0c0.782-0.03,1.78-1.556,3.435-4.084
				c2.579-3.942,6.897-10.541,15.185-18.992c1.859-1.895,2.795-3.859,2.503-5.255c-0.194-0.93-0.915-1.653-2.142-2.147
				c-0.286-0.115-0.602-0.226-0.962-0.338c-0.268,0.177-0.536,0.357-0.803,0.546c-6.193,4.388-22.453,28.373-22.617,28.615
				c-0.022,0.033-0.056,0.056-0.094,0.065C38.273,93.122,38.115,93.159,37.823,93.233z"/>
		</g>
		<g>
			<g>
				<path style="fill:#1C1E1F;" d="M61.104,72.165c2.171-2.214,4.094-5.701,0.29-7.234c-0.294-0.118-0.596-0.221-0.902-0.316
					c-6.251,4.902-20.824,26.246-22.157,28.208c1.372,0.501,3.658,1.239,5.08,1.184C45.443,93.928,48.02,85.506,61.104,72.165z"/>
				<path style="fill:#18191B;" d="M43.26,94.158c-1.398,0-3.462-0.644-4.975-1.196c-0.043-0.016-0.077-0.051-0.091-0.094
					c-0.014-0.043-0.007-0.092,0.019-0.13c1.615-2.376,15.954-23.352,22.188-28.241c0.039-0.03,0.09-0.039,0.137-0.025
					c0.355,0.111,0.645,0.213,0.913,0.32c1.257,0.507,1.999,1.262,2.204,2.244c0.426,2.04-1.567,4.34-2.444,5.233h0
					c-7.808,7.961-11.876,14.178-14.307,17.893c-1.724,2.635-2.59,3.958-3.482,3.992C43.369,94.157,43.315,94.158,43.26,94.158z
					 M38.567,92.747c1.299,0.465,3.495,1.164,4.843,1.11c0.739-0.029,1.682-1.47,3.244-3.858c2.436-3.724,6.514-9.956,14.343-17.939
					h0c1.756-1.79,2.639-3.646,2.364-4.964c-0.184-0.878-0.864-1.561-2.023-2.028c-0.241-0.097-0.502-0.19-0.816-0.289
					C54.413,69.634,40.617,89.738,38.567,92.747z"/>
			</g>
		</g>
	</g>
	<g>
		<path style="fill:#4D4E50;" d="M200.289,53.947c0,0-6.754-6.689-12.929-6.41c0,0-3.102-0.419-3.382,2.095
			c-0.279,2.514,0,7.874,0,7.874s-0.081,2.532,3.382,2.777c3.462,0.244,12.752,0,12.752,0s4.38,0.228,3.402-2.338
			C202.536,55.379,200.289,53.947,200.289,53.947z"/>
		<path style="fill:#18191B;" d="M192.195,60.499c-1.892,0-3.694-0.027-4.843-0.108c-1.834-0.13-2.684-0.904-3.073-1.531
			c-0.425-0.683-0.409-1.33-0.409-1.357c-0.003-0.045-0.276-5.388,0.001-7.882c0.076-0.681,0.359-1.217,0.842-1.595
			c1.031-0.805,2.595-0.604,2.661-0.595c0.126-0.006,0.253-0.009,0.379-0.009c5.934,0,12.339,6.182,12.604,6.441
			c0.165,0.109,2.312,1.561,3.258,4.043c0.227,0.597,0.195,1.102-0.096,1.502c-0.805,1.105-3.307,0.988-3.413,0.983
			C200.049,60.393,195.946,60.499,192.195,60.499z M186.88,47.621c-0.536,0-1.408,0.086-2.035,0.576
			c-0.435,0.34-0.691,0.827-0.76,1.448c-0.275,2.477-0.002,7.802,0.001,7.856c-0.003,0.108-0.031,2.441,3.281,2.675
			c3.418,0.241,12.649,0.002,12.741,0c0.033,0.002,2.5,0.117,3.236-0.894c0.245-0.337,0.268-0.773,0.069-1.297
			c-0.953-2.501-3.16-3.931-3.182-3.945c-0.007-0.004-0.012-0.009-0.018-0.014c-0.067-0.067-6.791-6.655-12.848-6.379
			C187.352,47.645,187.163,47.621,186.88,47.621z"/>
	</g>
	<g>
		<path style="fill:#4D4E50;" d="M200.289,53.947c0,0-6.754-6.689-12.929-6.41c0,0-3.102-0.419-3.382,2.095
			c-0.279,2.514,0,7.874,0,7.874s-0.081,2.532,3.382,2.777c3.462,0.244,12.752,0,12.752,0s4.38,0.228,3.402-2.338
			C202.536,55.379,200.289,53.947,200.289,53.947z"/>
		<path style="fill:#18191B;" d="M192.195,60.499c-1.892,0-3.694-0.027-4.843-0.108c-1.834-0.13-2.684-0.904-3.073-1.531
			c-0.425-0.683-0.409-1.33-0.409-1.357c-0.003-0.045-0.276-5.388,0.001-7.882c0.076-0.681,0.359-1.217,0.842-1.595
			c1.031-0.805,2.595-0.604,2.661-0.595c0.126-0.006,0.253-0.009,0.379-0.009c5.934,0,12.339,6.182,12.604,6.441
			c0.165,0.109,2.312,1.561,3.258,4.043c0.227,0.597,0.195,1.102-0.096,1.502c-0.805,1.105-3.307,0.988-3.413,0.983
			C200.049,60.393,195.946,60.499,192.195,60.499z M186.88,47.621c-0.536,0-1.408,0.086-2.035,0.576
			c-0.435,0.34-0.691,0.827-0.76,1.448c-0.275,2.477-0.002,7.802,0.001,7.856c-0.003,0.108-0.031,2.441,3.281,2.675
			c3.418,0.241,12.649,0.002,12.741,0c0.033,0.002,2.5,0.117,3.236-0.894c0.245-0.337,0.268-0.773,0.069-1.297
			c-0.953-2.501-3.16-3.931-3.182-3.945c-0.007-0.004-0.012-0.009-0.018-0.014c-0.067-0.067-6.791-6.655-12.848-6.379
			C187.352,47.645,187.163,47.621,186.88,47.621z"/>
	</g>
	<path style="fill:#3A3C3E;" d="M196.593,54.727c0,0-4.891-4.844-9.363-4.641c0,0-2.246-0.304-2.449,1.517
		c-0.202,1.821,0,5.702,0,5.702s-0.059,1.834,2.449,2.011c2.507,0.177,9.234,0,9.234,0s3.172,0.165,2.464-1.693
		C198.221,55.764,196.593,54.727,196.593,54.727z"/>
	<path style="opacity:0.37;fill:#4D4E50;" d="M346.606,72.215c-5.39-0.618-107.757-5.716-107.757-5.716s-25.216-5.287-34.216-13.247
		c-7.279-6.438-14.3-9.467-25.329-11.47c-0.019,0.11-0.043,0.22-0.075,0.332c-0.485,1.686-2.157,2.806-3.622,3.578
		c-3.983,2.097-8.618,2.893-13.075,2.945c-8.888,0.104-17.765-0.429-26.647-0.641c-8.773-0.209-17.573-0.909-26.347-0.406
		c-2.201,0.126-4.4,0.332-6.583,0.646c-1.225,0.176-2.536,0.516-3.446,1.406c-0.75,0.735-1.085,1.745-1.275,2.754
		c-0.248,1.321-0.298,2.676-0.413,4.012c-0.008,0.087-0.068,0.161-0.161,0.161c-3.221,0.009-6.421,0.524-9.644,0.543
		c-2.432,0.014-5.179-0.172-7.192-1.706c-1.434-1.093-1.7-2.765-1.101-4.402c0.202-0.552,0.468-1.08,0.772-1.588
		c-3.231,2.607-5.428,5.748-6.481,9.473c0,0-6.832,0.969-13.121,5.425c-6.288,4.456-22.656,28.655-22.656,28.655
		s-26.372,6.228-31.4,17.884c0,0-2.514,4.843,3.143,10.135c5.657,5.292,22.415,11.734,35.563,13.699c0,0,10.081,2.698,24.656,2.331
		h83.585c0,0,22.396,0.64,33.575-6.306c11.18-6.946,21.522-30.851,47.777-35.24c26.255-4.389,85.081-10.064,85.081-10.064
		l32.902-2.159c0,0,4.355,0.613,5.025-5.362C358.815,71.911,351.996,72.832,346.606,72.215z M186.492,118.136
		c-1.885,10.398-21.046,12.221-21.046,12.221s-98.166,0.217-103.613,0c-5.447-0.218-8.38-4.601-10.884-6.369
		c-2.504-1.768-12.162-2.003-15.35-2.003c-3.188,0-12.944,0.21-17.763-2.095c-4.819-2.305-9.428-5.028-5.657-12.221
		c3.771-7.193,23.787-12.795,23.787-12.795s0.726,1.132,4.402,1.968c3.676,0.836,7.428-2.832,7.428-2.832
		s18.437-24.403,22.403-27.621c3.966-3.218,10.257-3.065,10.257-3.065s91.16-0.212,98.521,0c7.361,0.212,7.514,5.445,7.514,5.445
		V118.136z M350.06,77.162c0,0-76.201,3.548-96.105,4.835s-26.189,5.417-29.376,5.815c-3.188,0.398-4.439-3.418-4.439-3.418
		s-0.125-10.807,0-15.626c0.125-4.819,10.979-1.031,10.979-1.031c4.26,1.106,10.266,1.871,10.266,1.871s112.926,3.77,113.345,5.349
		C355.148,76.536,350.06,77.162,350.06,77.162z"/>
	<path style="opacity:0.37;fill:#4D4E50;" d="M218.654,100.085c-1.423-1.173-2.481-2.716-3.201-4.405
		c-0.857-2.01-1.27-4.182-1.485-6.347c-0.21-2.122-0.185-4.252-0.209-6.381c-0.022-1.944-0.031-3.888,0.039-5.831
		c0.078-2.163,0.248-4.327,0.61-6.462c0.342-2.015,0.855-4.029,1.743-5.878c0.727-1.513,1.746-2.913,3.121-3.892
		c-5.702-2.086-11.292-4.677-14.639-7.637c-4.284-3.789-8.479-6.396-13.453-8.309c1.667,1.81,3.05,3.875,4.152,6.077
		c3.123,6.239,4.148,13.355,4.52,20.25c0.376,6.974-0.063,13.926-0.213,20.897c-0.186,8.628-0.479,17.427-3.108,25.721
		c-0.893,2.818-2.074,5.544-3.564,8.093c6.939-7.077,14.61-18.203,26.82-25.082C219.395,100.652,219.015,100.383,218.654,100.085z"
		/>
	<g>
		<g>
			<g>
				<path style="fill:#4D4E50;" d="M87.184,66.464H76.646c0,0-5.147,0.458-8.932,6.41c-3.785,5.951-11.403,20.652-11.403,20.652
					s-3.007,4.574,0.001,6.46c3.007,1.885,22.492,2.723,30.453,2.095c0,0,5.657-0.412,5.866-3.663c0.209-3.251,0-26.4,0-26.4
					S91.793,65.626,87.184,66.464z"/>
				<path style="fill:#18191B;" d="M80.167,102.445c-9.204,0-21.625-0.874-23.939-2.325c-0.71-0.445-1.158-1.072-1.33-1.862
					c-0.464-2.13,1.21-4.709,1.282-4.818c0.068-0.133,7.656-14.761,11.402-20.65c3.784-5.948,8.999-6.478,9.051-6.482l10.538-0.001
					c1.153-0.205,2.177,0.01,3.044,0.643c2.09,1.525,2.555,4.906,2.574,5.049c0.004,0.251,0.209,23.211,0.001,26.43
					c-0.216,3.35-5.776,3.793-6.013,3.81C85.006,102.378,82.709,102.445,80.167,102.445z M76.646,66.621
					c-0.037,0.004-5.103,0.526-8.799,6.337c-3.738,5.878-11.32,20.493-11.396,20.64c-0.025,0.039-1.681,2.593-1.245,4.592
					c0.153,0.704,0.554,1.263,1.189,1.661c2.913,1.826,22.211,2.714,30.357,2.072c0.056-0.004,5.523-0.44,5.721-3.516
					c0.207-3.208,0.002-26.157,0-26.388c-0.003-0.015-0.466-3.372-2.446-4.817c-0.798-0.582-1.745-0.778-2.815-0.584
					c-0.009,0.002-0.019,0.002-0.028,0.002H76.646z"/>
			</g>
			<g>
				<path style="fill:#1C1E1F;" d="M85.929,67.752h-9.451c0,0-4.616,0.425-8.011,5.947c-3.395,5.522-10.227,19.163-10.227,19.163
					s-2.697,4.245,0.001,5.994c2.697,1.75,20.173,2.527,27.313,1.944c0,0,5.073-0.382,5.261-3.399c0.188-3.017,0-24.496,0-24.496
					S90.063,66.975,85.929,67.752z"/>
				<path style="fill:#18191B;" d="M79.634,101.137c-8.256,0-19.397-0.812-21.473-2.159c-2.785-1.806-0.071-6.148-0.044-6.192
					c0.061-0.124,6.866-13.697,10.226-19.162c3.394-5.52,8.074-6.011,8.12-6.015l9.451-0.001c1.013-0.187,1.916,0.002,2.684,0.561
					c1.916,1.395,2.34,4.584,2.357,4.719c0.003,0.232,0.187,21.537,0.001,24.524c-0.193,3.106-5.182,3.517-5.394,3.533
					C83.976,101.075,81.914,101.137,79.634,101.137z M76.477,67.896c-0.032,0.004-4.574,0.488-7.888,5.879
					c-3.353,5.454-10.153,19.016-10.221,19.152c-0.033,0.054-2.596,4.157-0.05,5.809c2.612,1.694,19.918,2.519,27.223,1.921
					c0.05-0.004,4.951-0.408,5.13-3.264c0.186-2.977,0.001-24.271,0-24.486c-0.003-0.015-0.425-3.185-2.24-4.506
					c-0.705-0.513-1.537-0.684-2.475-0.507c-0.009,0.002-0.018,0.002-0.027,0.002H76.477z"/>
			</g>
			<g>
				<path style="fill:#4D4E50;" d="M150.695,65.692h-12.692c0,0-5.788,0.114-5.513,5.471c0.275,5.357,0,24.229,0,24.229
					s-0.144,6.346,5.094,6.517l21.585-5.647c0,0,3.372-0.717,3.674-4.153c0.301-3.437,0-22.019,0-22.019s-0.316-4.122-3.674-4.398
					C155.811,65.416,150.695,65.692,150.695,65.692z"/>
				<path style="fill:#18191B;" d="M137.583,102.067c-0.002,0-0.003,0-0.005,0c-2.21-0.072-3.819-1.256-4.653-3.424
					c-0.623-1.618-0.595-3.188-0.593-3.255c0.003-0.187,0.272-18.927,0-24.217c-0.08-1.554,0.333-2.83,1.228-3.79
					c1.651-1.772,4.326-1.845,4.439-1.847h12.691c0.174-0.009,5.203-0.27,8.491,0.001c3.452,0.284,3.815,4.501,3.818,4.543
					c0.003,0.196,0.298,18.639,0,22.045c-0.308,3.512-3.763,4.287-3.798,4.294l-21.578,5.645
					C137.61,102.065,137.597,102.067,137.583,102.067z M138.002,65.85c-0.023,0.001-2.655,0.074-4.213,1.748
					c-0.833,0.896-1.218,2.092-1.143,3.557c0.272,5.301,0.003,24.051,0,24.24c0,0.017-0.027,1.583,0.575,3.143
					c0.794,2.057,2.255,3.137,4.343,3.213l21.563-5.641c0.14-0.03,3.269-0.738,3.556-4.015c0.297-3.389,0.002-21.817-0.001-22.003
					c0,0-0.083-1.012-0.567-2.039c-0.636-1.353-1.633-2.095-2.962-2.204c-3.308-0.272-8.402-0.002-8.452,0c-0.003,0-0.006,0-0.008,0
					H138.002z"/>
			</g>
			<g>
				<path style="fill:#1C1E1F;" d="M150.359,67.344h-11.255c0,0-5.132,0.101-4.888,4.851c0.244,4.75,0,21.484,0,21.484
					s-0.128,5.627,4.517,5.779l19.14-5.007c0,0,2.99-0.636,3.258-3.683c0.267-3.047,0-19.524,0-19.524s-0.28-3.655-3.258-3.899
					C154.895,67.099,150.359,67.344,150.359,67.344z"/>
				<path style="fill:#18191B;" d="M138.732,99.598c-0.002,0-0.003,0-0.005,0c-4.728-0.155-4.653-5.864-4.652-5.922
					c0.002-0.166,0.241-16.783,0-21.474c-0.071-1.378,0.296-2.509,1.089-3.361c1.463-1.571,3.836-1.636,3.936-1.638h11.254
					c0.156-0.008,4.613-0.239,7.529,0.001c3.061,0.251,3.383,3.991,3.386,4.028c0.003,0.173,0.265,16.527,0,19.547
					c-0.273,3.114-3.337,3.801-3.368,3.807l-19.134,5.006C138.756,99.597,138.744,99.598,138.732,99.598z M139.104,67.484
					c-0.021,0-2.354,0.065-3.735,1.55c-0.739,0.794-1.08,1.855-1.013,3.155c0.241,4.7,0.003,21.326,0,21.493
					c0,0.015-0.024,1.403,0.51,2.787c0.704,1.823,2,2.782,3.851,2.849l19.12-5.002c0.124-0.027,2.899-0.654,3.153-3.56
					c0.264-3.005,0.002-19.345-0.001-19.51c-0.002-0.027-0.307-3.531-3.129-3.762c-2.934-0.241-7.45-0.002-7.495,0
					c-0.002,0-0.005,0-0.008,0H139.104z"/>
			</g>
		</g>
		<path style="fill:#565759;" d="M80.226,84.59c3.537-0.862,7.087-1.669,10.65-2.418c-0.025-4.997-0.062-9.265-0.062-9.265
			s-0.752-5.932-4.886-5.154h-9.451c0,0-4.616,0.425-8.011,5.947c-2.47,4.018-6.759,12.332-8.913,16.565
			C66.392,88.187,73.283,86.283,80.226,84.59z"/>
		<path style="fill:#565759;" d="M134.31,76.367c1.731-0.087,3.464-0.162,5.197-0.211c7.232-0.203,14.477-0.063,21.693,0.47
			c-0.033-3.061-0.071-5.383-0.071-5.383s-0.28-3.655-3.258-3.899c-2.977-0.245-7.514,0-7.514,0h-11.254
			c0,0-5.132,0.101-4.888,4.851C134.266,73.166,134.295,74.639,134.31,76.367z"/>
		<g>
			<g>
				<g>
					<path style="fill:#D8D9DA;" d="M145.48,60.283L145.48,60.283c-1.354,0-2.462-1.108-2.462-2.462v-0.629
						c0-1.354,1.108-2.462,2.462-2.462l0,0c1.354,0,2.462,1.108,2.462,2.462v0.629C147.942,59.175,146.834,60.283,145.48,60.283z"/>
					<path style="fill:#97999C;" d="M145.481,60.441c-1.445,0-2.62-1.175-2.62-2.62v-0.63c0-1.444,1.175-2.619,2.62-2.619
						c1.444,0,2.62,1.175,2.62,2.619v0.63C148.1,59.266,146.925,60.441,145.481,60.441z M145.481,54.888
						c-1.27,0-2.304,1.034-2.304,2.304v0.63c0,1.271,1.033,2.304,2.304,2.304s2.304-1.033,2.304-2.304v-0.63
						C147.784,55.922,146.751,54.888,145.481,54.888z"/>
				</g>
				<g>
					<path style="fill:#D8D9DA;" d="M169.72,60.283L169.72,60.283c-1.354,0-2.462-1.108-2.462-2.462v-0.629
						c0-1.354,1.108-2.462,2.462-2.462l0,0c1.354,0,2.462,1.108,2.462,2.462v0.629C172.182,59.175,171.074,60.283,169.72,60.283z"/>
					<path style="fill:#97999C;" d="M169.72,60.441c-1.445,0-2.62-1.175-2.62-2.62v-0.63c0-1.444,1.175-2.619,2.62-2.619
						c1.444,0,2.62,1.175,2.62,2.619v0.63C172.34,59.266,171.165,60.441,169.72,60.441z M169.72,54.888
						c-1.27,0-2.304,1.034-2.304,2.304v0.63c0,1.271,1.034,2.304,2.304,2.304c1.27,0,2.304-1.033,2.304-2.304v-0.63
						C172.024,55.922,170.991,54.888,169.72,54.888z"/>
				</g>
			</g>
			<g>
				<g>
					<g>
						<g>
							<rect x="132.546" y="53.165" style="fill:#B5B7B9;" width="41.504" height="3.131"/>
							<path style="fill:#6D7072;" d="M174.328,56.573h-42.059v-3.685h42.059V56.573z M132.823,56.018h40.95v-2.576h-40.95V56.018z"
								/>
						</g>
						<g>
							<rect x="132.546" y="55.507" style="fill:#B5B7B9;" width="41.504" height="0.789"/>
						</g>
						<rect x="132.546" y="53.165" style="opacity:0.5;fill:#5D6062;" width="41.504" height="1.565"/>
					</g>
					<g>
						<path style="fill:#FFFFFF;" d="M135.727,59.156h-30.983c-2.546,0-4.629-2.083-4.629-4.629v-1.371
							c0-2.546,2.083-4.629,4.629-4.629h30.983c2.546,0,4.629,2.083,4.629,4.629v1.371
							C140.356,57.073,138.273,59.156,135.727,59.156z"/>
						<path style="fill:#97999C;" d="M135.727,59.314h-30.983c-2.639,0-4.787-2.148-4.787-4.787v-1.371
							c0-2.639,2.147-4.787,4.787-4.787h30.983c2.64,0,4.787,2.147,4.787,4.787v1.371C140.514,57.166,138.366,59.314,135.727,59.314
							z M104.744,48.684c-2.465,0-4.471,2.006-4.471,4.471v1.371c0,2.465,2.006,4.471,4.471,4.471h30.983
							c2.465,0,4.471-2.006,4.471-4.471v-1.371c0-2.465-2.006-4.471-4.471-4.471H104.744z"/>
					</g>
				</g>
				<path style="opacity:0.32;fill:#4D4E50;" d="M135.727,48.526h-30.983c-2.546,0-4.629,2.083-4.629,4.629v1.371
					c0,2.546,2.083,4.629,4.629,4.629h30.983c2.546,0,4.629-2.083,4.629-4.629v-1.371C140.356,50.61,138.273,48.526,135.727,48.526z
					 M127.924,54.266c0,1.579-1.292,2.871-2.871,2.871h-19.216c-1.579,0-2.871-1.292-2.871-2.871v-0.85
					c0-1.579,1.292-2.871,2.871-2.871h19.216c1.579,0,2.871,1.292,2.871,2.871V54.266z"/>
			</g>
		</g>
	</g>
	<path style="fill:#C83F36;" d="M34.613,96.071c0,0-20.822,6.605-22.295,16.136c0,0,6.285,1.397,11.593,1.117
		c0,0,8.829-12.298,14.424-15.644L34.613,96.071z"/>
	<path style="fill:#C83F36;" d="M230.49,68.768c0,0,3.352,2.501,8.38,2.508c5.028,0.007,98.632,3.432,99.61,2.878
		c0.978-0.554,1.45,1.715,1.45,1.715l-106.088,1.294c0,0-7.438,1.933-10.583-2.608C220.114,70.014,225.954,66.757,230.49,68.768z"/>
	<g>
		<path style="opacity:0.37;fill:#4D4E50;" d="M178.447,109.624h-8.663c-2.176,0-3.947-1.77-3.947-3.946V91.534
			c0-2.176,1.77-3.946,3.947-3.946h8.663c2.176,0,3.947,1.77,3.947,3.946v14.144C182.393,107.854,180.623,109.624,178.447,109.624z
			 M169.784,87.903c-2.002,0-3.631,1.629-3.631,3.631v14.144c0,2.002,1.629,3.631,3.631,3.631h8.663
			c2.002,0,3.631-1.629,3.631-3.631V91.534c0-2.002-1.629-3.631-3.631-3.631H169.784z"/>
		<path style="fill:#C83F36;" d="M177.798,88.882h-7.333c0,0-3.165-0.524-3.206,4.085v10.266l1.32-10.371
			c0,0-0.21-2.619,2.305-2.933C173.398,89.615,177.798,88.882,177.798,88.882z"/>
	</g>
	<g>
		<path style="fill:#C83F36;" d="M340.804,75.966l29.163,66.202h23.256l-1.783-11.813h-7.187c0,0-4.242,0.539-7.339-4.44
			c-3.097-4.978-13.996-42.667-13.996-42.667L375.6,52.709c0,0,1.635-2.716,7.011-3.457h3.546l15.946-46.685h-17.849L340.804,75.966
			z"/>
		<path style="fill:#810913;" d="M393.223,142.326h-23.256c-0.063,0-0.119-0.037-0.145-0.094L340.66,76.029
			c-0.02-0.047-0.017-0.1,0.009-0.144l43.449-73.399c0.029-0.048,0.08-0.077,0.136-0.077h17.849c0.051,0,0.099,0.025,0.128,0.066
			c0.03,0.042,0.038,0.095,0.021,0.143l-15.946,46.685c-0.022,0.064-0.082,0.107-0.149,0.107h-3.546
			c-5.205,0.719-6.86,3.354-6.876,3.381l-12.65,30.466c0.469,1.617,10.966,37.757,13.963,42.575
			c3.003,4.827,7.143,4.372,7.185,4.366l7.206-0.001c0.078,0,0.144,0.057,0.156,0.134l1.783,11.814
			c0.007,0.045-0.007,0.091-0.036,0.126C393.313,142.306,393.269,142.326,393.223,142.326z M370.07,142.01h22.969l-1.735-11.498
			h-7.051c-0.024,0.003-4.359,0.492-7.473-4.515c-3.073-4.94-13.569-41.167-14.014-42.706c-0.01-0.035-0.008-0.071,0.006-0.104
			l12.682-30.539c0.079-0.135,1.746-2.811,7.135-3.553l3.455-0.002l15.838-46.369h-17.538l-43.361,73.252L370.07,142.01z"/>
	</g>
	<g>
		<path style="fill:#C83F36;" d="M340.804,75.966l29.163,66.202h23.256l-1.783-11.813h-7.187c0,0-4.242,0.539-7.339-4.44
			c-3.097-4.978-13.996-42.667-13.996-42.667L375.6,52.709c0,0,1.635-2.716,7.011-3.457h3.546l15.946-46.685h-17.849L340.804,75.966
			z"/>
		<path style="fill:#810913;" d="M393.223,142.326h-23.256c-0.063,0-0.119-0.037-0.145-0.094L340.66,76.029
			c-0.02-0.047-0.017-0.1,0.009-0.144l43.449-73.399c0.029-0.048,0.08-0.077,0.136-0.077h17.849c0.051,0,0.099,0.025,0.128,0.066
			c0.03,0.042,0.038,0.095,0.021,0.143l-15.946,46.685c-0.022,0.064-0.082,0.107-0.149,0.107h-3.546
			c-5.205,0.719-6.86,3.354-6.876,3.381l-12.65,30.466c0.469,1.617,10.966,37.757,13.963,42.575
			c3.003,4.827,7.143,4.372,7.185,4.366l7.206-0.001c0.078,0,0.144,0.057,0.156,0.134l1.783,11.814
			c0.007,0.045-0.007,0.091-0.036,0.126C393.313,142.306,393.269,142.326,393.223,142.326z M370.07,142.01h22.969l-1.735-11.498
			h-7.051c-0.024,0.003-4.359,0.492-7.473-4.515c-3.073-4.94-13.569-41.167-14.014-42.706c-0.01-0.035-0.008-0.071,0.006-0.104
			l12.682-30.539c0.079-0.135,1.746-2.811,7.135-3.553l3.455-0.002l15.838-46.369h-17.538l-43.361,73.252L370.07,142.01z"/>
	</g>
	<path style="opacity:0.37;fill:#4D4E50;" d="M384.253,130.355c0,0-4.242,0.538-7.339-4.44
		c-3.097-4.978-13.996-42.667-13.996-42.667L375.6,52.709c0,0,1.635-2.716,7.011-3.457h3.546l15.946-46.685h-7.391
		c-1.855,3.829-3.537,7.743-5.109,11.697c-1.996,5.02-3.823,10.105-5.62,15.199c-0.422,1.196-0.915,2.393-1.238,3.62
		c-0.286,1.087-0.54,2.183-0.835,3.268c-0.569,2.096-1.292,4.243-2.709,5.931c-1.413,1.682-3.964,1.39-5.597,2.799
		c-1.718,1.481-2.496,3.897-3.396,5.905c-2.277,5.08-3.831,10.456-5.894,15.625c-0.047,0.119-0.169,0.152-0.269,0.071
		c-2.924-2.354-6.925-2.66-10.399-1.468c-5.374,1.844-8.977,6.704-10.744,11.915c-0.24,0.708-0.45,1.425-0.637,2.148l4.435,10.067
		c0.036-0.028,0.071-0.058,0.108-0.085c1.387-1.024,3.057-1.823,4.82-1.726c1.491,0.082,2.831,0.803,3.929,1.781
		c1.32,1.175,2.334,2.679,3.192,4.212c0.981,1.752,1.777,3.606,2.487,5.483c1.247,3.294,2.159,6.689,3.221,10.044
		c0.471,1.488,1.044,2.947,1.571,4.416c0.689,1.923,1.375,3.847,2.06,5.772c1.366,3.84,2.727,7.681,4.1,11.518
		c1.363,3.809,2.737,7.614,4.139,11.409h16.897l-1.783-11.813H384.253z"/>
	<g>
		<path style="fill:#C83F36;" d="M361.65,74.284c0,3.741-3.032,6.773-6.773,6.773c-3.74,0-6.773-3.032-6.773-6.773
			c0-3.741,3.032-6.773,6.773-6.773C358.618,67.511,361.65,70.543,361.65,74.284z"/>
		<path style="fill:#810913;" d="M354.878,81.214c-3.822,0-6.931-3.109-6.931-6.931c0-3.821,3.109-6.93,6.931-6.93
			c3.822,0,6.931,3.109,6.931,6.93C361.808,78.105,358.699,81.214,354.878,81.214z M354.878,67.669
			c-3.647,0-6.615,2.967-6.615,6.615c0,3.647,2.968,6.615,6.615,6.615c3.648,0,6.615-2.968,6.615-6.615
			C361.492,70.636,358.525,67.669,354.878,67.669z"/>
	</g>
	<g>
		<path style="fill:#C83F36;" d="M361.65,74.284c0,3.741-3.032,6.773-6.773,6.773c-3.74,0-6.773-3.032-6.773-6.773
			c0-3.741,3.032-6.773,6.773-6.773C358.618,67.511,361.65,70.543,361.65,74.284z"/>
		<path style="fill:#810913;" d="M354.878,81.214c-3.822,0-6.931-3.109-6.931-6.931c0-3.821,3.109-6.93,6.931-6.93
			c3.822,0,6.931,3.109,6.931,6.93C361.808,78.105,358.699,81.214,354.878,81.214z M354.878,67.669
			c-3.647,0-6.615,2.967-6.615,6.615c0,3.647,2.968,6.615,6.615,6.615c3.648,0,6.615-2.968,6.615-6.615
			C361.492,70.636,358.525,67.669,354.878,67.669z"/>
	</g>
	<path style="fill:#C83F36;" d="M357.572,72.866c0,1.87-1.516,3.386-3.386,3.386c-1.87,0-3.386-1.516-3.386-3.386
		s1.516-3.387,3.386-3.387C356.056,69.48,357.572,70.996,357.572,72.866z"/>
	<polygon style="fill:#C83F36;" points="386.719,3.95 350.973,63.554 357.572,62.696 389.317,4.675 	"/>
	<polygon style="fill:#C83F36;" points="370.884,141.152 349.114,90.11 351.916,89.697 373.482,140.427 	"/>
	<g>
		<path style="fill:#C83F36;" d="M188.552,153.4c-0.617-0.344-1.394-0.139-1.762,0.456c-0.503,0.466-3.065,1.061-5.55,1.288
			c-0.599,0.003-5.246,0.025-12.44,0.054l-4.44-12.089c-0.028-0.171-0.088-0.331-0.174-0.474l-3.239-8.819
			c-0.251-0.683-1.008-1.034-1.692-0.783c-0.683,0.251-1.034,1.008-0.783,1.691l2.664,7.254H72.983l2.664-7.254
			c0.251-0.683-0.1-1.441-0.783-1.691c-0.684-0.252-1.44,0.1-1.691,0.783l-3.24,8.819c-0.086,0.143-0.146,0.302-0.174,0.473
			l-4.495,12.239c-6.251-0.039-10.401-0.103-11.356-0.197c-4.731-0.471-5.585-2.975-5.632-3.123
			c-0.192-0.692-0.904-1.104-1.601-0.923c-0.705,0.183-1.127,0.902-0.944,1.607c0.047,0.179,1.217,4.395,7.916,5.061
			c2.01,0.2,17.055,0.266,36.166,0.266c36.643,0,88.227-0.244,91.494-0.26c0.037,0,0.074-0.002,0.11-0.005
			c2.437-0.217,6.67-0.84,7.642-2.582C189.415,154.557,189.187,153.754,188.552,153.4z M68.067,155.363l3.927-10.691h90.131
			l3.871,10.538C141.129,155.311,92.312,155.48,68.067,155.363z"/>
		<path style="fill:#810913;" d="M89.814,158.197c-22.227,0-34.401-0.09-36.181-0.267c-6.801-0.677-8.005-4.995-8.053-5.179
			c-0.205-0.788,0.27-1.595,1.057-1.8c0.776-0.2,1.579,0.262,1.793,1.034c0.031,0.099,0.851,2.546,5.495,3.008
			c0.888,0.089,4.667,0.154,11.23,0.196l4.457-12.135c0.023-0.159,0.088-0.336,0.187-0.5l3.227-8.793
			c0.136-0.37,0.408-0.665,0.765-0.831c0.358-0.165,0.759-0.182,1.129-0.045c0.764,0.281,1.157,1.13,0.876,1.894l-2.586,7.041h87.7
			l-2.586-7.042c-0.281-0.764,0.112-1.613,0.876-1.894c0.37-0.136,0.771-0.12,1.129,0.046c0.358,0.166,0.63,0.461,0.766,0.831
			l3.239,8.819c0.086,0.137,0.151,0.315,0.182,0.503l4.395,11.956c6.692-0.028,11.157-0.048,12.174-0.053l0.155-0.001
			c2.646-0.242,4.969-0.84,5.43-1.233c0.421-0.656,1.277-0.873,1.961-0.491c0,0,0,0,0,0c0.711,0.397,0.966,1.298,0.57,2.008
			c-1.007,1.805-5.298,2.443-7.766,2.662c-0.041,0.004-0.082,0.006-0.123,0.006C179.107,157.948,126.949,158.197,89.814,158.197z
			 M47.005,151.22c-0.096,0-0.192,0.012-0.289,0.037c-0.619,0.161-0.992,0.796-0.831,1.415c0.046,0.175,1.194,4.288,7.779,4.944
			c1.771,0.176,13.933,0.265,36.15,0.265c37.135,0,89.291-0.249,91.493-0.26c0.032,0,0.064-0.002,0.097-0.005
			c2.406-0.214,6.582-0.823,7.519-2.501c0.312-0.558,0.111-1.266-0.448-1.579l0,0c-0.543-0.303-1.224-0.126-1.551,0.402
			c-0.008,0.012-0.017,0.023-0.027,0.033c-0.602,0.557-3.399,1.124-5.643,1.33l-0.169,0.001c-1.022,0.005-5.531,0.026-12.285,0.054
			c0,0-0.001,0-0.001,0c-0.066,0-0.125-0.041-0.148-0.103l-4.44-12.089c-0.032-0.177-0.083-0.318-0.161-0.447l-3.252-8.846
			c-0.107-0.291-0.321-0.523-0.602-0.653c-0.282-0.131-0.597-0.143-0.887-0.036c-0.601,0.22-0.91,0.888-0.689,1.489l2.664,7.254
			c0.018,0.049,0.011,0.103-0.019,0.145c-0.03,0.042-0.078,0.067-0.129,0.067H72.983c-0.052,0-0.1-0.025-0.13-0.067
			c-0.029-0.042-0.036-0.096-0.019-0.145l2.664-7.254c0.221-0.6-0.089-1.268-0.689-1.489c-0.291-0.108-0.606-0.095-0.888,0.036
			c-0.281,0.13-0.494,0.362-0.602,0.653l-3.239,8.82c-0.09,0.156-0.142,0.296-0.166,0.444l-4.503,12.268
			c-0.023,0.062-0.084,0.094-0.149,0.103c-6.643-0.042-10.468-0.109-11.371-0.198c-4.849-0.482-5.731-3.12-5.767-3.232
			C47.984,151.56,47.513,151.22,47.005,151.22z M89.121,155.561c-7.993,0-15.226-0.012-21.055-0.04c-0.051,0-0.1-0.026-0.129-0.068
			c-0.029-0.042-0.036-0.096-0.019-0.145l3.927-10.691c0.023-0.062,0.082-0.103,0.148-0.103h90.131c0.066,0,0.125,0.041,0.148,0.103
			l3.871,10.538c0.018,0.048,0.011,0.102-0.018,0.145c-0.029,0.042-0.077,0.068-0.129,0.068
			C146.101,155.449,113.958,155.561,89.121,155.561z M68.293,155.206c23.943,0.113,71.215-0.047,97.477-0.154l-3.755-10.223h-89.91
			L68.293,155.206z"/>
	</g>
	<g>
		<path style="fill:#1C1E1F;" d="M164.467,143.403l-0.108-0.294c-0.028-0.171-0.088-0.331-0.174-0.474l-3.239-8.819
			c-0.251-0.683-1.008-1.034-1.692-0.783c-0.683,0.251-1.034,1.008-0.783,1.691l2.664,7.254H72.983l2.664-7.254
			c0.251-0.683-0.1-1.44-0.783-1.691c-0.684-0.252-1.44,0.1-1.691,0.783l-3.239,8.819c-0.086,0.143-0.146,0.302-0.174,0.473
			l-0.108,0.294H164.467z"/>
		<path style="fill:#18191B;" d="M164.467,143.543H69.652c-0.046,0-0.089-0.023-0.115-0.06c-0.026-0.038-0.032-0.085-0.017-0.129
			l0.108-0.294c0.023-0.159,0.088-0.335,0.185-0.497l3.228-8.796c0.134-0.365,0.403-0.657,0.756-0.821
			c0.354-0.164,0.75-0.179,1.115-0.045c0.755,0.277,1.143,1.117,0.866,1.871l-2.595,7.065h87.751l-2.595-7.065
			c-0.277-0.755,0.111-1.594,0.866-1.871c0.365-0.135,0.761-0.119,1.115,0.045c0.353,0.164,0.622,0.455,0.756,0.821l3.239,8.819
			c0.086,0.138,0.15,0.314,0.181,0.5l0.101,0.267c0.016,0.043,0.01,0.091-0.016,0.129
			C164.555,143.52,164.512,143.543,164.467,143.543z M69.851,143.263h94.415l-0.039-0.105c-0.031-0.176-0.084-0.319-0.163-0.45
			l-3.251-8.843c-0.109-0.296-0.326-0.531-0.611-0.663c-0.286-0.132-0.605-0.145-0.901-0.036c-0.61,0.224-0.924,0.902-0.7,1.512
			l2.664,7.254c0.016,0.043,0.01,0.091-0.016,0.129c-0.026,0.038-0.069,0.06-0.115,0.06H72.983c-0.046,0-0.089-0.022-0.115-0.06
			c-0.026-0.038-0.032-0.085-0.017-0.129l2.664-7.254c0.224-0.609-0.09-1.288-0.7-1.512c-0.296-0.109-0.616-0.096-0.901,0.036
			c-0.285,0.132-0.502,0.367-0.611,0.663l-3.239,8.819c-0.09,0.155-0.143,0.298-0.167,0.447L69.851,143.263z"/>
	</g>
	<g>
		<g>
			<g style="opacity:0.44;">
				
					<ellipse transform="matrix(0.1901 -0.9818 0.9818 0.1901 214.9493 409.865)" style="fill:#C2C4C6;" cx="355.905" cy="74.646" rx="30.045" ry="30.045"/>
				<path style="fill:#B3B5B8;" d="M355.905,104.916c-16.691,0-30.27-13.579-30.27-30.271s13.579-30.27,30.27-30.27
					c16.691,0,30.271,13.579,30.271,30.27S372.597,104.916,355.905,104.916z M355.905,44.826c-16.443,0-29.819,13.377-29.819,29.82
					s13.377,29.82,29.819,29.82s29.82-13.377,29.82-29.82S372.348,44.826,355.905,44.826z"/>
			</g>
			<path style="opacity:0.44;fill:#B3B5B8;" d="M355.905,99.153c-13.513,0-24.507-10.994-24.507-24.507s10.994-24.507,24.507-24.507
				s24.507,10.994,24.507,24.507S369.418,99.153,355.905,99.153z M355.905,50.504c-13.312,0-24.142,10.83-24.142,24.142
				c0,13.312,10.83,24.142,24.142,24.142s24.142-10.83,24.142-24.142C380.047,61.334,369.217,50.504,355.905,50.504z"/>
			<path style="opacity:0.44;fill:#B3B5B8;" d="M355.905,90.192c-8.658,0-15.702-7.044-15.702-15.701
				c0-8.658,7.044-15.702,15.702-15.702s15.702,7.044,15.702,15.702C371.607,83.149,364.563,90.192,355.905,90.192z M355.905,59.023
				c-8.529,0-15.468,6.939-15.468,15.468c0,8.529,6.939,15.468,15.468,15.468c8.529,0,15.468-6.939,15.468-15.468
				C371.373,65.962,364.435,59.023,355.905,59.023z"/>
			<path style="opacity:0.86;fill:#FFFFFF;" d="M348.893,74.372c-0.297-1.241-0.259-2.525-0.411-3.786
				c-0.048-0.396-0.557-0.535-0.875-0.503c-0.438,0.045-0.901,0.317-1.125,0.705c-0.329,0.569-0.53,1.192-0.673,1.835
				c0.002-0.039,0.004-0.078,0.006-0.117c0.156-2.569,0.741-5.091,1.597-7.514c0.156-0.442-0.085-0.87-0.549-0.938
				c-0.509-0.074-1.055,0.234-1.319,0.665c-2.7,4.404-3.49,9.474-3.571,14.55c-0.26-1-0.47-2.014-0.647-3.021
				c-0.53-3.028-0.812-6.106-0.53-9.176c0.129-1.397,0.372-2.783,0.763-4.129c0.131-0.357,0.254-0.718,0.351-1.088
				c0.117-0.45-0.112-0.852-0.606-0.865c-0.495-0.013-1.03,0.362-1.188,0.832c-0.546,1.912-1.609,3.628-2.208,5.525
				c-0.629,1.992-1.159,4.026-1.442,6.098c-0.342,2.504-0.239,5.058,0.149,7.566c-0.243-0.778-0.456-1.564-0.64-2.355
				c-0.998-4.291-1.118-8.745-0.338-13.082c0.438-2.435,1.213-4.77,2.159-7.052c0.165-0.368-0.097-0.743-0.467-0.797
				c-0.407-0.059-0.931,0.189-1.121,0.565c-0.113,0.224-0.222,0.451-0.329,0.679c-0.149,0.256-0.326,0.509-0.5,0.747
				c-0.336,0.462-0.643,0.931-0.933,1.424c-0.674,1.145-1.315,2.313-1.848,3.532c-1.087,2.484-1.64,5.209-1.905,7.897
				c-0.324,3.283-0.232,6.562,0.333,9.771c-0.402-1.448-0.712-2.922-0.921-4.414c-0.747-5.346-0.245-10.947,1.864-15.948
				c0.564-1.338,1.229-2.571,2.065-3.829c0.384-0.578,0.778-1.155,1.225-1.689c0.475-0.567,0.916-1.167,1.487-1.774
				c0.31-0.33-0.076-0.625-0.41-0.402c-0.297,0.198-0.589,0.402-0.875,0.616c-0.302,0.225-0.641,0.444-0.908,0.698
				c-0.516,0.491-1.007,1.008-1.48,1.54c-0.971,1.092-1.717,2.209-2.412,3.526c-1.374,2.604-2.224,5.404-2.68,8.308
				c-0.872,5.562-0.234,11.458,1.721,16.733c1.372,3.703,3.56,7.133,6.389,9.894c0,0.001,0.001,0.001,0.001,0.002c0,0,0,0,0.001,0
				c0.045,0.044,0.089,0.089,0.134,0.133c0.301,0.289,0.904,0.022,1.149-0.194c0.285-0.251,0.521-0.673,0.287-1.039
				c-0.663-1.038-1.248-2.086-1.752-3.21c-0.507-1.129-0.968-2.28-1.375-3.449c-0.812-2.331-1.438-4.749-1.787-7.194
				c-0.356-2.491-0.358-5.024-0.194-7.532c0.122-1.879,0.369-3.774,0.831-5.609c-0.197,1.407-0.303,2.823-0.32,4.231
				c-0.055,4.581,0.825,9.163,2.662,13.364c1.047,2.394,2.355,4.717,4.007,6.749c0.325,0.399,0.891,0.335,1.296,0.102
				c0.363-0.209,0.883-0.743,0.693-1.223c-1.403-3.541-2.623-7.18-3.156-10.965c-0.274-1.947-0.377-3.916-0.189-5.875
				c0.085-0.883,0.225-1.757,0.402-2.624c0.005,0.153,0.004,0.307,0.012,0.46c0.144,3.092,0.596,6.244,1.45,9.222
				c0.469,1.637,1.099,3.235,1.958,4.708c0.212,0.363,0.785,0.308,1.104,0.169c0.366-0.159,0.822-0.576,0.805-1.014
				c-0.084-2.259-0.172-4.553-0.106-6.835c0.24,1.143,0.629,2.24,1.164,3.28c0.205,0.398,0.857,0.323,1.182,0.181
				c0.408-0.178,0.856-0.61,0.863-1.086c0.021-1.507,0.116-3.011,0.28-4.509C348.188,75.8,349.066,75.092,348.893,74.372z"/>
			<path style="opacity:0.86;fill:#FFFFFF;" d="M362.846,74.372c0.297-1.241,0.259-2.525,0.411-3.786
				c0.048-0.396,0.557-0.535,0.875-0.503c0.438,0.045,0.901,0.317,1.125,0.705c0.329,0.569,0.53,1.192,0.672,1.835
				c-0.002-0.039-0.003-0.078-0.006-0.117c-0.156-2.569-0.741-5.091-1.597-7.514c-0.156-0.442,0.084-0.87,0.549-0.938
				c0.508-0.074,1.055,0.234,1.319,0.665c2.7,4.404,3.49,9.474,3.572,14.55c0.26-1,0.47-2.014,0.646-3.021
				c0.53-3.028,0.812-6.106,0.53-9.176c-0.129-1.397-0.372-2.783-0.763-4.129c-0.131-0.357-0.254-0.718-0.351-1.088
				c-0.117-0.45,0.112-0.852,0.606-0.865c0.495-0.013,1.03,0.362,1.188,0.832c0.546,1.912,1.609,3.628,2.208,5.525
				c0.629,1.992,1.159,4.026,1.442,6.098c0.342,2.504,0.239,5.058-0.149,7.566c0.243-0.778,0.456-1.564,0.64-2.355
				c0.998-4.291,1.118-8.745,0.338-13.082c-0.438-2.435-1.213-4.77-2.159-7.052c-0.165-0.368,0.097-0.743,0.467-0.797
				c0.407-0.059,0.931,0.189,1.121,0.565c0.113,0.224,0.222,0.451,0.329,0.679c0.149,0.256,0.327,0.509,0.5,0.747
				c0.336,0.462,0.643,0.931,0.933,1.424c0.674,1.145,1.315,2.313,1.848,3.532c1.088,2.484,1.64,5.209,1.906,7.897
				c0.324,3.283,0.232,6.562-0.334,9.771c0.403-1.448,0.712-2.922,0.921-4.414c0.747-5.346,0.245-10.947-1.864-15.948
				c-0.564-1.338-1.229-2.571-2.065-3.829c-0.384-0.578-0.778-1.155-1.225-1.689c-0.475-0.567-0.916-1.167-1.487-1.774
				c-0.31-0.33,0.075-0.625,0.41-0.402c0.297,0.198,0.589,0.402,0.875,0.616c0.302,0.225,0.641,0.444,0.908,0.698
				c0.516,0.491,1.007,1.008,1.48,1.54c0.971,1.092,1.717,2.209,2.412,3.526c1.374,2.604,2.224,5.404,2.68,8.308
				c0.872,5.562,0.234,11.458-1.721,16.733c-1.372,3.703-3.559,7.133-6.389,9.894c0,0.001-0.001,0.001-0.001,0.002c0,0,0,0,0,0
				c-0.045,0.044-0.089,0.089-0.134,0.133c-0.301,0.289-0.904,0.022-1.149-0.194c-0.285-0.251-0.521-0.673-0.287-1.039
				c0.663-1.038,1.247-2.086,1.752-3.21c0.507-1.129,0.968-2.28,1.375-3.449c0.812-2.331,1.438-4.749,1.787-7.194
				c0.356-2.491,0.358-5.024,0.194-7.532c-0.122-1.879-0.369-3.774-0.83-5.609c0.197,1.407,0.303,2.823,0.32,4.231
				c0.055,4.581-0.825,9.163-2.662,13.364c-1.047,2.394-2.355,4.717-4.007,6.749c-0.325,0.399-0.891,0.335-1.296,0.102
				c-0.363-0.209-0.883-0.743-0.693-1.223c1.403-3.541,2.622-7.18,3.156-10.965c0.274-1.947,0.377-3.916,0.189-5.875
				c-0.085-0.883-0.225-1.757-0.402-2.624c-0.005,0.153-0.004,0.307-0.012,0.46c-0.144,3.092-0.596,6.244-1.45,9.222
				c-0.469,1.637-1.099,3.235-1.958,4.708c-0.212,0.363-0.784,0.308-1.104,0.169c-0.366-0.159-0.822-0.576-0.805-1.014
				c0.084-2.259,0.172-4.553,0.106-6.835c-0.24,1.143-0.629,2.24-1.164,3.28c-0.205,0.398-0.857,0.323-1.182,0.181
				c-0.408-0.178-0.856-0.61-0.863-1.086c-0.021-1.507-0.116-3.011-0.28-4.509C363.552,75.8,362.674,75.092,362.846,74.372z"/>
		</g>
		<g>
			<path style="fill:#C83F36;" d="M361.65,74.284c0,3.741-3.032,6.773-6.773,6.773c-3.74,0-6.773-3.032-6.773-6.773
				c0-3.741,3.032-6.773,6.773-6.773C358.618,67.511,361.65,70.543,361.65,74.284z"/>
			<path style="fill:#810913;" d="M354.878,81.214c-3.822,0-6.931-3.109-6.931-6.931c0-3.821,3.109-6.93,6.931-6.93
				c3.822,0,6.931,3.109,6.931,6.93C361.808,78.105,358.699,81.214,354.878,81.214z M354.878,67.669
				c-3.647,0-6.615,2.967-6.615,6.615c0,3.647,2.968,6.615,6.615,6.615c3.648,0,6.615-2.968,6.615-6.615
				C361.492,70.636,358.525,67.669,354.878,67.669z"/>
		</g>
		<g>
			<path style="fill:#C83F36;" d="M361.65,74.284c0,3.741-3.032,6.773-6.773,6.773c-3.74,0-6.773-3.032-6.773-6.773
				c0-3.741,3.032-6.773,6.773-6.773C358.618,67.511,361.65,70.543,361.65,74.284z"/>
			<path style="fill:#810913;" d="M354.878,81.214c-3.822,0-6.931-3.109-6.931-6.931c0-3.821,3.109-6.93,6.931-6.93
				c3.822,0,6.931,3.109,6.931,6.93C361.808,78.105,358.699,81.214,354.878,81.214z M354.878,67.669
				c-3.647,0-6.615,2.967-6.615,6.615c0,3.647,2.968,6.615,6.615,6.615c3.648,0,6.615-2.968,6.615-6.615
				C361.492,70.636,358.525,67.669,354.878,67.669z"/>
		</g>
		<path style="fill:#C83F36;" d="M357.572,72.866c0,1.87-1.516,3.386-3.386,3.386c-1.87,0-3.386-1.516-3.386-3.386
			s1.516-3.387,3.386-3.387C356.056,69.48,357.572,70.996,357.572,72.866z"/>
	</g>
	<g>
		<g>
			<g>
				<g>
					<path style="fill:#1A1B1C;" d="M130.585,131.345c0,0,0-60.091,0-63.98s-3.422-4.041-3.422-4.041h-10.012h-9.128H98.012
						c0,0-3.422,0.152-3.422,4.041s0,63.98,0,63.98s-1.069,4.063,3.208,4.277h10.225h9.128h10.225
						C131.654,135.408,130.585,131.345,130.585,131.345z"/>
					<path style="fill:#18191B;" d="M117.151,135.78H97.798c-1.333-0.066-2.299-0.501-2.878-1.293
						c-0.917-1.252-0.541-2.945-0.488-3.162V67.365c0-3.994,3.537-4.197,3.572-4.199h29.158c0.043,0.002,3.579,0.205,3.579,4.199
						v63.961c0.053,0.216,0.429,1.91-0.488,3.162c-0.579,0.791-1.545,1.227-2.87,1.293L117.151,135.78z M98.012,63.481
						c-0.126,0.006-3.264,0.196-3.264,3.883v63.98c0,0.014-0.002,0.027-0.005,0.04c-0.004,0.017-0.438,1.729,0.433,2.917
						c0.52,0.71,1.405,1.101,2.63,1.162l29.571,0c1.217-0.061,2.102-0.452,2.622-1.162c0.871-1.189,0.438-2.9,0.433-2.917
						c-0.004-0.013-0.005-0.026-0.005-0.04v-63.98c0-3.687-3.137-3.877-3.271-3.884L98.012,63.481z"/>
				</g>
			</g>
			<path style="opacity:0.32;fill:#18191B;" d="M130.585,116.021c-0.474,0.264-0.953,0.517-1.438,0.758
				c-1.944,0.965-3.977,1.751-6.065,2.343c-2.049,0.581-4.151,0.974-6.272,1.166c-2.085,0.189-4.19,0.18-6.271-0.051
				c-2.027-0.225-4.031-0.656-5.959-1.324c-1.895-0.656-3.715-1.537-5.387-2.646c-1.691-1.122-3.229-2.473-4.549-4.015
				c-0.018-0.021-0.034-0.042-0.051-0.062c0,10.737,0,19.154,0,19.154s-1.069,4.063,3.208,4.277h29.579
				c4.277-0.214,3.208-4.277,3.208-4.277S130.585,124.864,130.585,116.021z"/>
			<g>
				<path style="fill:#4D4E50;" d="M130.585,126.441H94.59c0,3.06,0,4.904,0,4.904s-1.069,4.063,3.208,4.277h29.579
					c4.277-0.214,3.208-4.277,3.208-4.277S130.585,129.501,130.585,126.441z"/>
				<path style="fill:#18191B;" d="M97.798,135.78c-1.333-0.067-2.299-0.501-2.878-1.293c-0.917-1.252-0.541-2.946-0.488-3.162
					v-4.884c0-0.087,0.071-0.158,0.158-0.158h35.994c0.087,0,0.158,0.071,0.158,0.158v4.884c0.053,0.216,0.429,1.909-0.488,3.162
					c-0.579,0.791-1.545,1.226-2.87,1.293L97.798,135.78z M94.748,126.599v4.746c0,0.014-0.002,0.027-0.005,0.04
					c-0.005,0.017-0.438,1.729,0.433,2.917c0.52,0.71,1.405,1.101,2.63,1.162l29.571,0c1.217-0.061,2.102-0.452,2.622-1.162
					c0.871-1.188,0.438-2.9,0.433-2.917c-0.004-0.013-0.005-0.026-0.005-0.04v-4.746H94.748z"/>
			</g>
			<rect x="94.59" y="126.441" style="opacity:0.32;fill:#18191B;" width="35.994" height="0.935"/>
			<rect x="94.59" y="128.815" style="opacity:0.32;fill:#18191B;" width="35.994" height="0.935"/>
			<path style="opacity:0.32;fill:#18191B;" d="M130.32,134.08c0.09-0.168,0.161-0.342,0.215-0.516H94.639
				c0.054,0.174,0.125,0.348,0.215,0.516H130.32z"/>
			<path style="opacity:0.32;fill:#18191B;" d="M130.671,131.845c-0.035-0.306-0.086-0.501-0.086-0.501s0-0.008,0-0.016H94.59
				c0,0.008,0,0.016,0,0.016s-0.051,0.195-0.086,0.501H130.671z"/>
			<path style="fill:#565759;" d="M122.143,70.532c-0.183-2.194-3.693-2.729-3.693-2.729h-7.706h-0.875h-3.14
				c0,0-3.512,0.535-3.696,2.729c-0.183,2.194,0,26.373,0,26.373s-0.256,3.793,3.815,3.968h1.55h8.388h1.544
				c4.068-0.175,3.812-3.968,3.812-3.968S122.326,72.726,122.143,70.532z"/>
			<path style="fill:#565759;" d="M120.978,71.617c-0.161-1.927-3.243-2.396-3.243-2.396h-6.767H110.2h-2.757
				c0,0-3.084,0.47-3.245,2.396c-0.161,1.926,0,23.158,0,23.158s-0.225,3.331,3.35,3.484h1.362h7.366h1.356
				c3.572-0.153,3.348-3.484,3.348-3.484S121.139,73.543,120.978,71.617z"/>
		</g>
		<g>
			<path style="opacity:0.82;fill:#4D4E50;" d="M163.579,139.43c0.667-1.296,1.684-2.481,3.111-2.938
				c0.643-0.206,1.334-0.313,2.003-0.391c0.069-0.008,0.138-0.012,0.207-0.019c-0.029-0.472-0.113-0.797-0.113-0.797
				s0-62.214,0-66.24c0-4.026-3.542-4.184-3.542-4.184h-30.181c0,0-3.542,0.158-3.542,4.184c0,4.026,0,66.24,0,66.24
				s-1.107,4.207,3.321,4.428h28.602C163.489,139.619,163.531,139.523,163.579,139.43z"/>
			<g>
				<g>
					<g>
						<g>
							<g>
								<path style="fill:#FFFFFF;" d="M166.965,135.285c0,0,0-62.214,0-66.24c0-4.026-3.542-4.184-3.542-4.184h-10.365h-9.45
									h-10.365c0,0-3.543,0.158-3.543,4.184c0,4.026,0,66.24,0,66.24s-1.107,4.207,3.321,4.428h10.587h9.45h10.587
									C168.072,139.492,166.965,135.285,166.965,135.285z"/>
								<path style="fill:#97999C;" d="M153.057,139.877H133.02c-1.38-0.069-2.38-0.519-2.98-1.339
									c-0.949-1.296-0.56-3.05-0.505-3.273v-66.22c0-4.135,3.662-4.346,3.699-4.348h30.188c0.044,0.002,3.706,0.213,3.706,4.348
									v66.22c0.055,0.224,0.444,1.977-0.505,3.273c-0.6,0.82-1.6,1.27-2.971,1.338L153.057,139.877z M133.242,65.024
									c-0.131,0.007-3.379,0.203-3.379,4.021v66.261l-0.006,0.02c-0.005,0.018-0.454,1.79,0.449,3.02
									c0.539,0.735,1.455,1.14,2.723,1.203l30.615,0c1.26-0.063,2.176-0.468,2.715-1.203c0.902-1.23,0.453-3.002,0.449-3.02
									l-0.005-0.041v-66.24c0-3.826-3.248-4.015-3.386-4.021H133.242z"/>
							</g>
							<g>
								<path style="fill:#FFFFFF;" d="M166.965,135.285c0,0,0-62.214,0-66.24c0-4.026-3.542-4.184-3.542-4.184h-10.365h-9.45
									h-10.365c0,0-3.543,0.158-3.543,4.184c0,4.026,0,66.24,0,66.24s-1.107,4.207,3.321,4.428h10.587h9.45h10.587
									C168.072,139.492,166.965,135.285,166.965,135.285z"/>
								<path style="fill:#97999C;" d="M153.057,139.877H133.02c-1.38-0.069-2.38-0.519-2.98-1.339
									c-0.949-1.296-0.56-3.05-0.505-3.273v-66.22c0-4.135,3.662-4.346,3.699-4.348h30.188c0.044,0.002,3.706,0.213,3.706,4.348
									v66.22c0.055,0.224,0.444,1.977-0.505,3.273c-0.6,0.82-1.6,1.27-2.971,1.338L153.057,139.877z M133.242,65.024
									c-0.131,0.007-3.379,0.203-3.379,4.021v66.261l-0.006,0.02c-0.005,0.018-0.454,1.79,0.449,3.02
									c0.539,0.735,1.455,1.14,2.723,1.203l30.615,0c1.26-0.063,2.176-0.468,2.715-1.203c0.902-1.23,0.453-3.002,0.449-3.02
									l-0.005-0.041v-66.24c0-3.826-3.248-4.015-3.386-4.021H133.242z"/>
							</g>
							<g>
								<path style="fill:#C83F36;" d="M166.965,120.892V69.045c0-4.026-3.542-4.184-3.542-4.184h-30.181
									c0,0-3.543,0.158-3.543,4.184v51.847H166.965z"/>
								<path style="fill:#810913;" d="M166.965,121.055h-37.266c-0.09,0-0.163-0.073-0.163-0.163V69.045
									c0-4.135,3.662-4.346,3.699-4.348h30.188c0.044,0.002,3.706,0.213,3.706,4.348v51.847
									C167.128,120.982,167.055,121.055,166.965,121.055z M129.863,120.729h36.939V69.045c0-3.826-3.248-4.015-3.386-4.021
									h-30.173c-0.131,0.007-3.379,0.203-3.379,4.021V120.729z"/>
							</g>
							<path style="opacity:0.32;fill:#4D4E50;" d="M166.965,135.285c0,0,0-62.214,0-66.24c0-4.026-3.542-4.184-3.542-4.184h-10.365
								h-9.45h-10.365c0,0-3.543,0.158-3.543,4.184c0,4.026,0,66.24,0,66.24s-1.107,4.207,3.321,4.428h10.587h9.45h10.587
								C168.072,139.492,166.965,135.285,166.965,135.285z M161.879,134.262h-9.367h-8.361h-9.367
								c-3.918-0.196-2.938-3.918-2.938-3.918s0-55.046,0-58.608c0-3.562,3.134-3.702,3.134-3.702h9.171h8.361h9.171
								c0,0,3.134,0.14,3.134,3.702c0,3.562,0,58.608,0,58.608S165.797,134.066,161.879,134.262z"/>
							<path style="opacity:0.32;fill:#4D4E50;" d="M166.965,133.625c-0.091,0.139-0.186,0.276-0.286,0.409
								c-0.634,0.84-1.451,1.5-2.402,1.952c-1.299,0.617-2.727,0.886-4.14,1.088c-1.965,0.281-3.947,0.425-5.931,0.491
								c-3.844,0.129-7.688-0.043-11.532-0.049c-1.83-0.003-3.663-0.01-5.49-0.145c-0.881-0.065-1.761-0.16-2.633-0.305
								c-0.806-0.133-1.634-0.286-2.401-0.575c-1.092-0.411-1.943-1.16-2.45-2.2c0,0.643,0,0.993,0,0.993s-1.107,4.207,3.321,4.428
								h30.623c4.428-0.221,3.321-4.428,3.321-4.428S166.965,134.693,166.965,133.625z"/>
						</g>
						<g>
							<g>
								<path style="fill:#4D4E50;" d="M159.649,70.393c-0.217-2.476-4.369-3.08-4.369-3.08h-9.115h-1.035h-3.714
									c0,0-4.155,0.604-4.372,3.08c-0.217,2.476,0,29.759,0,29.759s-0.303,4.281,4.512,4.478h1.834h9.922h1.827
									c4.812-0.197,4.51-4.478,4.51-4.478S159.866,72.868,159.649,70.393z"/>
								<path style="fill:#18191B;" d="M153.313,104.794h-11.756c-1.569-0.064-2.772-0.556-3.583-1.462
									c-1.208-1.35-1.098-3.116-1.093-3.19c-0.009-1.102-0.215-27.307,0-29.762c0.226-2.575,4.336-3.202,4.511-3.227l13.888-0.002
									c0.198,0.027,4.306,0.654,4.532,3.229l0,0c0.215,2.455,0.01,28.66,0.001,29.775c0.005,0.062,0.115,1.828-1.093,3.179
									c-0.81,0.906-2.012,1.397-3.573,1.462H153.313z M141.416,67.477c-0.017,0.004-4.006,0.613-4.209,2.931
									c-0.214,2.44-0.002,29.471,0.001,29.744c-0.002,0.03-0.104,1.72,1.012,2.965c0.749,0.836,1.874,1.291,3.343,1.351h13.576
									c1.463-0.06,2.587-0.515,3.336-1.353c1.117-1.248,1.011-2.934,1.01-2.951c0.002-0.285,0.214-27.317,0-29.757l0,0
									c-0.203-2.318-4.189-2.926-4.229-2.932L141.416,67.477z"/>
							</g>
							<g>
								<path style="fill:#1C1E1F;" d="M158.24,71.704c-0.19-2.271-3.824-2.826-3.824-2.826h-7.978h-0.906h-3.251
									c0,0-3.636,0.554-3.826,2.826c-0.19,2.271,0,27.304,0,27.304s-0.265,3.927,3.949,4.108h1.605h8.684h1.599
									c4.212-0.181,3.947-4.108,3.947-4.108S158.429,73.976,158.24,71.704z"/>
								<path style="fill:#18191B;" d="M152.694,103.263h-10.29c-1.34-0.057-2.377-0.488-3.086-1.28
									c-1.113-1.243-1.015-2.914-1.01-2.985c-0.008-1.011-0.188-25.054,0-27.307c0.197-2.359,3.797-2.935,3.95-2.958l12.157-0.002
									c0.175,0.025,3.773,0.6,3.97,2.96l0,0c0.188,2.252,0.008,26.295,0,27.318c0.005,0.06,0.103,1.731-1.01,2.974
									c-0.709,0.792-1.744,1.222-3.077,1.28H152.694z M142.281,69.025c-0.013,0.004-3.502,0.562-3.68,2.691
									c-0.187,2.239-0.001,27.04,0,27.29c-0.001,0.027-0.094,1.633,0.937,2.783c0.655,0.73,1.621,1.127,2.872,1.18h11.882
									c1.243-0.054,2.209-0.45,2.863-1.18c1.031-1.15,0.939-2.756,0.938-2.772c0.001-0.261,0.187-25.063,0-27.302l0,0
									c-0.178-2.13-3.665-2.688-3.7-2.693L142.281,69.025z"/>
							</g>
						</g>
						<path style="fill:#565759;" d="M145.436,80.877c4.283-0.623,8.58-1.148,12.887-1.575c-0.002-3.817-0.023-6.872-0.084-7.598
							c-0.19-2.271-3.824-2.826-3.824-2.826h-12.135c0,0-3.636,0.554-3.826,2.826c-0.074,0.891-0.09,5.282-0.082,10.29
							C140.722,81.596,143.077,81.221,145.436,80.877z"/>
					</g>
				</g>
			</g>
		</g>
	</g>
	<g>
		<path style="fill:#4D4E50;" d="M50.121,127.157c0,0-2.197-2.292-3.725-2.483c-1.528-0.191-17.191-0.669-17.191-0.669
			s-1.719-0.191-1.624,0.669c0.096,0.859,10.124,5.826,15.663,7.067c0,0,4.052,0.735,5.772,0.353
			C50.736,131.713,54.61,131.169,50.121,127.157z"/>
		<path style="fill:#18191B;" d="M47.702,132.314c-1.881,0-4.345-0.442-4.476-0.466c-5.116-1.146-15.634-6.11-15.751-7.162
			c-0.022-0.194,0.033-0.358,0.163-0.488c0.423-0.423,1.532-0.305,1.58-0.3c0.631,0.019,15.677,0.479,17.193,0.669
			c1.535,0.192,3.66,2.381,3.786,2.513c1.629,1.456,2.31,2.581,2.082,3.439c-0.279,1.051-1.885,1.393-2.947,1.619L49.04,132.2
			C48.674,132.281,48.209,132.314,47.702,132.314z M28.832,124.095c-0.365,0-0.837,0.05-1.042,0.256
			c-0.082,0.082-0.115,0.184-0.101,0.311c0.085,0.761,9.893,5.7,15.58,6.974c0.036,0.007,4.046,0.727,5.724,0.353l0.294-0.063
			c1.011-0.215,2.538-0.541,2.784-1.464c0.202-0.761-0.478-1.846-2.021-3.225c-0.002-0.002-0.004-0.004-0.006-0.006
			c-0.022-0.022-2.188-2.266-3.66-2.451c-1.506-0.188-17.025-0.663-17.181-0.667C29.114,124.104,28.982,124.095,28.832,124.095z"/>
	</g>
	<g>
		<g>
			<path style="fill:#18191B;" d="M43.245,131.85c-0.008,0-0.016-0.001-0.024-0.002c-5.112-1.146-15.63-6.11-15.747-7.161
				c-0.022-0.194,0.033-0.358,0.163-0.488c0.422-0.423,1.531-0.305,1.58-0.3c0,0,0,0,0,0c0.011,0,0.873,0.027,2.204,0.069
				c0.018,0.001,0.036,0.006,0.051,0.015c3.005,1.764,9.719,4.847,13.996,5.806c0.036,0.007,4.047,0.727,5.725,0.353l0.293-0.063
				c0.215-0.046,0.45-0.096,0.691-0.155c0.057-0.014,0.116,0.021,0.131,0.079c0.014,0.058-0.021,0.117-0.079,0.131
				c-0.243,0.06-0.48,0.11-0.697,0.156l-0.291,0.063c-1.721,0.381-5.648-0.322-5.814-0.353c-4.292-0.962-11.01-4.044-14.039-5.817
				c-1.33-0.042-2.185-0.068-2.185-0.068c-0.301-0.033-1.122-0.053-1.412,0.237c-0.082,0.082-0.115,0.184-0.101,0.311
				c0.085,0.761,9.893,5.7,15.58,6.974c0.058,0.013,0.095,0.071,0.082,0.129C43.339,131.815,43.294,131.85,43.245,131.85z"/>
		</g>
		<g>
			<path style="fill:#4D4E50;" d="M50.121,127.157c0,0-2.197-2.292-3.725-2.483c-1.169-0.146-10.604-0.46-14.979-0.599
				c3.087,1.812,9.839,4.88,14.027,5.818c0,0,4.052,0.735,5.772,0.353c0.285-0.063,0.63-0.132,0.986-0.219
				C52.123,129.348,51.542,128.426,50.121,127.157z"/>
			<path style="fill:#18191B;" d="M49.902,130.465c-1.882,0-4.345-0.442-4.476-0.466c-4.303-0.964-11.045-4.06-14.062-5.831
				c-0.043-0.025-0.063-0.076-0.049-0.123c0.014-0.047,0.061-0.077,0.107-0.078c4.111,0.131,13.801,0.452,14.989,0.6
				c1.535,0.192,3.66,2.381,3.786,2.513c1.33,1.189,2.022,2.15,2.113,2.936c0.006,0.054-0.029,0.104-0.082,0.117
				c-0.243,0.06-0.48,0.11-0.697,0.156l-0.291,0.063C50.874,130.433,50.409,130.465,49.902,130.465z M31.845,124.197
				c3.159,1.789,9.515,4.67,13.623,5.591c0.036,0.007,4.047,0.727,5.725,0.353l0.293-0.063c0.186-0.04,0.388-0.083,0.595-0.132
				c-0.13-0.708-0.813-1.619-2.031-2.708c-0.002-0.002-0.004-0.004-0.006-0.006c-0.022-0.022-2.188-2.266-3.66-2.451
				C45.243,124.639,36.161,124.335,31.845,124.197z"/>
		</g>
	</g>
</g>
</svg>
