<?xml version="1.0" encoding="utf-8"?>
<!DOCTYPE svg PUBLIC "-//W3C//DTD SVG 20010904//EN" "http://www.w3.org/TR/2001/REC-SVG-20010904/DTD/svg10.dtd">
<svg version="1.0" xmlns="http://www.w3.org/2000/svg" width="628pt" height="628pt" viewBox="0 0 628 628" style="" preserveAspectRatio="xMidYMid meet">
<g fill="#85D1F4FD">
<path d="M 300.500 61.655 C 254.812 64.350 211.467 78.829 173.955 103.926 C 137.642 128.221 108.816 160.602 88.955 199.409 C 52.158 271.303 52.156 357.389 88.947 428.500 C 95.156 440.499 105.336 457.336 107.985 459.985 C 108.902 460.902 109.917 462.293 110.239 463.076 C 112.734 469.137 140.087 498.331 151.884 507.525 C 155.395 510.261 159.131 513.311 160.185 514.302 C 165.037 518.859 182.266 529.835 183.702 529.284 C 184.959 528.802 185.137 527.588 184.645 522.877 C 183.851 515.281 184.414 513.827 187.669 515.064 C 189.043 515.587 190.549 515.779 191.015 515.491 C 191.481 515.203 192.144 515.425 192.490 515.984 C 192.856 516.575 197.848 517.000 204.437 517.000 C 213.365 517.000 216.023 517.322 217.022 518.526 C 217.953 519.648 218.164 523.296 217.820 532.276 C 217.562 538.999 217.526 545.266 217.739 546.202 C 217.969 547.209 220.452 548.759 223.814 549.996 C 226.941 551.146 230.850 552.686 232.500 553.419 C 237.449 555.616 257.369 561.069 266.000 562.589 C 268.475 563.025 270.725 563.436 271.000 563.501 C 271.993 563.738 281.610 565.010 286.500 565.550 C 290.115 565.950 291.085 565.816 290.000 565.067 C 289.175 564.497 287.084 564.024 285.354 564.015 C 279.750 563.988 260.767 559.846 256.823 557.791 C 254.713 556.691 252.291 556.058 251.441 556.384 C 250.592 556.710 250.130 556.598 250.417 556.135 C 250.703 555.671 249.798 554.773 248.405 554.139 C 246.469 553.257 246.044 553.262 246.600 554.162 C 247.113 554.992 246.762 555.116 245.414 554.584 C 244.361 554.168 242.647 553.655 241.604 553.443 C 235.752 552.256 233.000 550.757 233.000 548.756 C 233.000 547.607 232.678 546.989 232.284 547.383 C 231.890 547.776 231.700 546.276 231.861 544.049 C 232.021 541.822 231.781 540.000 231.326 540.000 C 230.872 540.000 230.422 538.763 230.327 537.250 C 230.011 532.212 226.081 506.748 225.537 506.203 C 225.241 505.908 225.000 506.218 225.000 506.892 C 225.000 507.566 224.490 507.803 223.866 507.417 C 223.080 506.931 222.873 507.681 223.192 509.858 C 223.446 511.586 223.282 513.000 222.827 513.000 C 222.372 513.000 221.909 512.213 221.797 511.250 C 221.686 510.288 221.540 510.850 221.474 512.500 C 221.375 514.957 220.971 515.444 219.238 515.189 C 218.075 515.017 216.983 514.189 216.811 513.349 C 216.550 512.064 216.142 512.132 214.251 513.777 C 212.360 515.421 210.688 515.701 203.751 515.534 C 190.100 515.204 181.090 511.871 173.621 504.386 C 167.620 498.372 167.677 499.008 171.523 481.036 C 178.836 446.857 184.846 425.065 189.262 416.708 C 192.800 410.014 201.301 401.746 208.839 397.667 C 211.718 396.110 225.645 390.872 239.787 386.029 C 253.929 381.185 268.475 376.091 272.111 374.708 C 278.236 372.379 278.832 372.316 280.225 373.847 C 282.219 376.039 289.274 381.343 295.649 385.442 C 305.833 391.989 319.420 392.757 330.504 387.410 C 336.905 384.323 347.576 376.962 349.535 374.283 C 350.605 372.819 351.981 373.108 363.611 377.238 C 370.700 379.756 384.825 384.651 395.000 388.117 C 415.689 395.164 423.258 398.956 430.328 405.816 C 438.967 414.197 442.096 421.418 449.040 449.000 C 455.323 473.955 459.963 497.206 459.006 498.945 C 458.535 499.800 455.925 502.675 453.206 505.334 C 449.173 509.277 446.663 510.704 439.583 513.084 C 430.439 516.156 419.743 517.003 415.920 514.957 C 414.621 514.262 412.807 514.235 410.485 514.876 C 407.664 515.655 407.000 515.562 407.000 514.388 C 407.000 513.590 407.717 512.662 408.593 512.326 C 409.937 511.810 410.082 510.568 409.521 504.357 L 408.856 497.000 411.867 497.000 C 414.611 497.000 414.914 497.334 415.272 500.750 L 415.664 504.500 415.832 500.309 C 415.924 498.004 415.511 495.816 414.913 495.446 C 414.315 495.077 414.041 493.951 414.304 492.944 C 414.785 491.106 411.506 487.160 410.410 488.257 C 410.092 488.575 409.585 490.672 409.284 492.917 C 408.983 495.163 408.430 497.000 408.055 497.000 C 407.681 497.000 407.529 499.060 407.718 501.578 C 407.942 504.546 407.700 505.933 407.031 505.519 C 406.464 505.169 406.000 505.553 406.000 506.374 C 406.000 507.194 405.100 508.151 404.000 508.500 C 402.659 508.926 401.996 510.019 401.989 511.817 C 401.974 515.529 397.314 549.139 396.547 551.071 C 396.204 551.935 393.578 553.230 390.712 553.950 C 387.845 554.669 385.050 555.591 384.500 555.998 C 383.950 556.406 381.700 557.045 379.500 557.420 C 374.370 558.292 368.738 560.071 369.306 560.639 C 370.121 561.454 386.404 556.816 398.698 552.266 C 413.171 546.910 412.584 547.960 411.511 529.345 C 410.890 518.579 410.991 517.059 412.298 517.561 C 413.123 517.877 414.042 517.742 414.340 517.259 C 414.638 516.776 417.496 516.707 420.691 517.105 C 426.962 517.887 438.023 516.386 439.235 514.589 C 439.639 513.990 439.976 513.853 439.985 514.285 C 439.993 514.717 440.855 514.613 441.900 514.053 C 444.535 512.643 445.065 514.493 444.319 522.487 C 443.552 530.696 444.165 530.776 454.677 523.832 C 470.142 513.615 488.477 497.502 503.984 480.500 C 509.684 474.250 519.581 461.118 526.217 451.000 C 533.503 439.890 548.557 410.449 549.400 405.663 C 549.674 404.103 550.328 402.303 550.851 401.663 C 552.198 400.019 557.504 382.450 560.456 369.862 C 564.442 352.866 566.252 335.559 566.299 314.000 C 566.375 279.381 561.415 253.005 548.815 221.009 C 543.011 206.271 531.996 184.884 530.641 185.722 C 530.119 186.045 529.997 185.814 530.371 185.209 C 530.927 184.309 517.334 162.705 515.139 161.000 C 514.785 160.725 511.820 157.125 508.549 153.000 C 498.153 139.887 469.605 113.000 466.079 113.000 C 465.485 113.000 465.000 112.606 465.000 112.125 C 465.000 111.644 461.625 108.917 457.500 106.065 C 453.375 103.213 450.000 101.164 450.000 101.512 C 450.000 101.859 449.329 101.472 448.509 100.652 C 447.688 99.831 443.062 96.897 438.227 94.130 C 397.252 70.682 347.272 58.897 300.500 61.655 M 269.321 127.118 C 268.870 127.184 268.163 127.184 267.750 127.118 C 266.869 126.979 266.730 138.134 267.586 140.363 C 268.093 141.684 268.768 141.601 272.586 139.746 C 275.014 138.566 277.000 137.255 277.000 136.832 C 277.000 136.409 277.749 136.350 278.664 136.701 C 279.775 137.128 280.090 136.955 279.612 136.181 C 279.144 135.425 279.434 135.229 280.448 135.618 C 281.302 135.946 282.000 135.730 282.000 135.138 C 282.000 134.547 282.675 134.322 283.500 134.638 C 284.325 134.955 285.000 134.730 285.000 134.138 C 285.000 133.547 285.675 133.322 286.500 133.638 C 287.325 133.955 288.000 133.793 288.000 133.278 C 288.000 132.763 288.788 132.345 289.750 132.349 C 294.461 132.370 297.262 131.929 296.603 131.270 C 296.201 130.868 297.476 130.677 299.436 130.846 C 301.396 131.015 303.000 130.781 302.999 130.327 C 302.999 129.872 307.048 129.500 311.997 129.500 C 316.947 129.500 320.997 129.780 320.998 130.121 C 321.000 130.745 329.334 132.293 334.000 132.535 C 335.375 132.607 336.050 132.769 335.500 132.896 C 334.950 133.023 335.554 133.549 336.842 134.065 C 338.131 134.582 339.593 134.751 340.092 134.443 C 340.592 134.134 341.000 134.385 341.000 135.000 C 341.000 135.615 341.450 135.840 342.000 135.500 C 342.550 135.160 343.000 135.304 343.000 135.820 C 343.000 136.689 348.220 139.303 350.500 139.576 C 352.289 139.790 353.029 140.247 351.794 140.375 C 351.131 140.444 351.790 141.288 353.259 142.250 C 356.355 144.279 357.414 144.479 356.405 142.845 C 355.959 142.124 356.131 141.963 356.862 142.415 C 357.506 142.813 357.818 143.486 357.556 143.910 C 357.110 144.631 362.598 149.305 364.250 149.611 C 364.663 149.688 364.705 149.806 364.345 149.875 C 363.985 149.944 364.547 150.945 365.595 152.100 C 367.371 154.057 367.509 154.074 367.635 152.350 C 367.745 150.849 367.911 150.933 368.512 152.790 C 369.350 155.376 374.472 158.445 376.184 157.386 C 376.922 156.930 377.027 157.147 376.490 158.015 C 375.891 158.985 376.132 159.164 377.388 158.681 C 378.536 158.241 378.869 158.402 378.396 159.169 C 377.914 159.949 378.377 160.135 379.845 159.751 C 381.032 159.440 381.781 159.545 381.510 159.984 C 380.900 160.970 387.662 162.327 389.017 161.489 C 389.558 161.155 390.000 161.392 390.000 162.015 C 390.000 162.749 391.828 163.051 395.191 162.873 C 400.107 162.612 400.421 162.743 401.119 165.353 C 401.969 168.530 402.599 192.265 401.812 191.479 C 401.296 190.963 399.809 200.916 399.605 206.250 C 399.547 207.763 399.110 209.000 398.633 209.000 C 398.157 209.000 398.002 209.900 398.290 211.000 C 398.577 212.100 398.375 213.000 397.839 213.000 C 397.301 213.000 397.167 213.951 397.540 215.125 C 398.037 216.691 397.881 217.045 396.950 216.469 C 396.029 215.900 395.838 216.274 396.249 217.845 C 396.614 219.241 396.434 219.768 395.737 219.337 C 395.056 218.916 394.895 219.283 395.299 220.336 C 395.650 221.252 395.454 222.000 394.862 222.000 C 394.270 222.000 394.045 222.675 394.362 223.500 C 394.678 224.325 394.574 225.000 394.129 225.000 C 393.685 225.000 392.799 226.146 392.161 227.547 C 390.703 230.745 390.702 231.302 392.155 230.405 C 392.876 229.959 393.037 230.131 392.585 230.862 C 392.187 231.506 391.494 231.805 391.045 231.528 C 390.595 231.250 389.993 231.917 389.707 233.011 C 389.363 234.328 389.682 235.000 390.653 235.000 C 391.459 235.000 391.840 235.450 391.500 236.000 C 391.160 236.550 391.730 237.000 392.767 237.000 C 393.803 237.000 395.557 238.013 396.664 239.250 C 400.275 243.287 401.500 248.043 401.495 258.000 C 401.491 266.425 401.179 268.091 398.740 272.727 C 395.945 278.038 393.121 280.195 387.326 281.442 C 384.131 282.130 382.000 285.613 382.000 290.148 C 382.000 293.591 373.746 310.464 369.109 316.500 C 363.364 323.978 350.625 336.667 348.038 337.488 C 346.396 338.009 344.729 340.722 344.549 343.167 C 344.522 343.533 344.163 344.171 343.750 344.583 C 343.338 344.996 343.007 346.271 343.015 347.417 C 343.027 349.037 343.230 349.184 343.929 348.081 C 345.102 346.228 346.472 354.830 345.533 358.151 C 345.079 359.756 345.166 360.072 345.806 359.149 C 346.475 358.184 346.934 359.072 347.412 362.264 C 347.781 364.720 348.684 367.553 349.420 368.560 C 350.596 370.167 350.378 370.788 347.629 373.666 C 343.358 378.138 328.753 386.725 322.155 388.643 C 318.767 389.628 315.207 389.981 312.624 389.587 C 307.502 388.807 298.291 385.247 295.115 382.822 C 293.803 381.820 292.382 381.000 291.957 381.000 C 291.532 381.000 288.667 378.638 285.591 375.750 L 279.997 370.500 281.532 365.500 C 283.867 357.890 286.064 344.103 285.377 341.367 C 285.041 340.027 283.581 338.283 282.133 337.491 C 275.706 333.978 256.021 312.099 256.005 308.450 C 256.002 307.872 255.488 306.888 254.862 306.262 C 253.141 304.541 248.000 291.866 248.000 289.344 C 248.000 284.550 246.223 282.137 241.818 280.951 C 233.573 278.731 228.000 268.943 228.000 256.682 C 228.000 247.264 233.030 237.784 238.795 236.337 C 240.088 236.012 241.563 234.649 242.073 233.308 C 243.231 230.262 243.260 228.722 242.144 229.411 C 241.674 229.702 241.501 228.828 241.761 227.470 C 242.021 226.111 241.809 225.000 241.290 225.000 C 240.771 225.000 240.545 223.650 240.787 222.000 C 241.029 220.350 240.816 219.000 240.314 219.000 C 239.812 219.000 239.565 217.313 239.765 215.250 C 240.001 212.825 239.811 211.957 239.229 212.793 C 238.670 213.596 238.507 211.929 238.800 208.401 C 239.114 204.608 238.925 202.928 238.231 203.357 C 237.534 203.788 237.307 201.559 237.544 196.616 C 237.739 192.555 238.195 189.517 238.558 189.866 C 238.920 190.215 239.052 188.363 238.851 185.750 C 238.650 183.138 238.879 181.000 239.359 181.000 C 239.840 181.000 240.021 179.891 239.762 178.535 C 239.503 177.179 239.730 175.923 240.266 175.745 C 240.802 175.566 241.350 173.497 241.482 171.148 C 241.615 168.799 242.291 166.342 242.984 165.688 C 243.997 164.734 244.008 164.960 243.041 166.836 C 242.380 168.120 242.039 169.372 242.284 169.618 C 242.832 170.165 245.176 164.681 244.936 163.412 C 244.841 162.911 244.885 162.050 245.034 161.500 C 245.183 160.950 245.352 161.106 245.409 161.848 C 245.573 163.960 249.231 159.430 249.508 156.772 C 249.638 155.522 249.802 155.089 249.872 155.809 C 249.943 156.529 250.457 156.835 251.016 156.490 C 251.575 156.144 251.731 155.373 251.362 154.776 C 250.993 154.179 251.144 153.971 251.698 154.313 C 252.252 154.656 253.559 154.305 254.603 153.533 C 256.390 152.212 256.278 152.037 252.666 150.517 C 250.557 149.629 247.860 149.037 246.673 149.201 C 244.628 149.484 244.644 149.409 246.980 147.750 C 249.673 145.838 254.518 145.411 255.500 147.000 C 256.293 148.283 260.000 148.309 260.000 147.031 C 260.000 146.499 259.213 146.310 258.250 146.613 C 256.794 147.071 256.834 146.892 258.489 145.547 C 260.281 144.090 262.750 136.950 263.396 131.357 C 263.532 130.178 264.399 128.458 265.322 127.535 C 266.245 126.612 267.000 125.407 267.000 124.857 C 267.000 124.307 267.707 124.564 268.571 125.429 C 269.436 126.293 269.773 127.053 269.321 127.118 "/></g>
<g fill="#0D80ACFD">
<path d="M 272.000 374.734 C 268.425 376.099 253.929 381.181 239.787 386.026 C 225.645 390.871 211.718 396.110 208.839 397.667 C 201.301 401.746 192.800 410.014 189.262 416.708 C 184.846 425.065 178.836 446.857 171.523 481.036 C 167.677 499.008 167.620 498.372 173.621 504.386 C 181.090 511.871 190.100 515.204 203.751 515.534 C 210.688 515.701 212.360 515.421 214.251 513.777 C 216.142 512.132 216.550 512.064 216.811 513.349 C 216.983 514.189 218.075 515.017 219.238 515.189 C 220.971 515.444 221.375 514.957 221.474 512.500 C 221.540 510.850 221.686 510.288 221.797 511.250 C 221.909 512.213 222.372 513.000 222.827 513.000 C 223.282 513.000 223.446 511.586 223.192 509.858 C 222.873 507.681 223.080 506.931 223.866 507.417 C 224.490 507.803 225.000 507.566 225.000 506.892 C 225.000 500.986 229.749 528.049 230.327 537.250 C 230.422 538.763 230.872 540.000 231.326 540.000 C 231.781 540.000 232.021 541.822 231.861 544.049 C 231.700 546.276 231.890 547.776 232.284 547.383 C 232.678 546.989 233.000 547.607 233.000 548.756 C 233.000 550.757 235.752 552.256 241.604 553.443 C 242.647 553.655 244.361 554.168 245.414 554.584 C 246.762 555.116 247.113 554.992 246.600 554.162 C 246.044 553.262 246.469 553.257 248.405 554.139 C 249.798 554.773 250.703 555.671 250.417 556.135 C 250.130 556.598 250.592 556.710 251.441 556.384 C 252.291 556.058 254.684 556.676 256.759 557.758 C 264.495 561.790 294.819 566.333 314.500 566.409 C 321.428 566.436 334.801 565.400 337.000 564.666 C 337.825 564.390 342.100 563.878 346.500 563.526 C 350.900 563.175 355.625 562.681 357.000 562.428 C 367.133 560.566 370.261 559.916 376.000 558.477 C 379.575 557.580 383.175 556.500 384.000 556.076 C 384.825 555.652 387.845 554.706 390.712 553.973 C 393.578 553.241 396.204 551.935 396.547 551.071 C 397.314 549.139 401.974 515.529 401.989 511.817 C 401.996 510.019 402.659 508.926 404.000 508.500 C 405.100 508.151 406.000 507.194 406.000 506.374 C 406.000 505.553 406.464 505.169 407.031 505.519 C 407.700 505.933 407.942 504.546 407.718 501.578 C 407.529 499.060 407.681 497.000 408.055 497.000 C 408.430 497.000 408.983 495.163 409.284 492.917 C 409.585 490.672 410.092 488.575 410.410 488.257 C 411.506 487.160 414.785 491.106 414.304 492.944 C 414.041 493.951 414.315 495.077 414.913 495.446 C 415.511 495.816 415.924 498.004 415.832 500.309 L 415.664 504.500 415.272 500.750 C 414.914 497.334 414.611 497.000 411.867 497.000 L 408.856 497.000 409.521 504.357 C 410.082 510.568 409.937 511.810 408.593 512.326 C 407.717 512.662 407.000 513.590 407.000 514.388 C 407.000 515.562 407.664 515.655 410.485 514.876 C 412.807 514.235 414.621 514.262 415.920 514.957 C 419.743 517.003 430.439 516.156 439.583 513.084 C 446.663 510.704 449.173 509.277 453.206 505.334 C 455.925 502.675 458.535 499.800 459.006 498.945 C 459.963 497.206 455.323 473.955 449.040 449.000 C 442.096 421.418 438.967 414.197 430.328 405.816 C 423.258 398.956 415.689 395.164 395.000 388.117 C 384.825 384.651 370.700 379.756 363.611 377.238 C 351.981 373.108 350.605 372.819 349.535 374.283 C 347.576 376.962 336.905 384.323 330.504 387.410 C 319.420 392.757 305.833 391.989 295.649 385.442 C 289.798 381.680 282.557 376.281 280.135 373.875 C 278.625 372.375 278.002 372.441 272.000 374.734 M 210.925 421.248 C 210.609 426.337 210.265 430.050 210.160 429.500 C 210.055 428.950 209.491 429.175 208.906 430.000 C 208.074 431.175 207.938 430.910 208.277 428.780 C 208.516 427.284 208.326 426.298 207.856 426.589 C 206.297 427.553 206.918 418.313 208.500 417.000 C 209.325 416.315 210.000 414.910 210.000 413.878 C 210.000 412.845 210.338 411.999 210.750 411.998 C 211.163 411.997 211.241 416.159 210.925 421.248 M 215.380 441.177 C 216.107 449.001 215.134 451.563 212.454 448.883 C 211.124 447.553 211.089 446.477 212.190 440.676 C 212.886 437.004 213.739 434.000 214.084 434.000 C 214.430 434.000 215.013 437.229 215.380 441.177 M 211.234 475.079 C 211.823 478.500 211.657 479.751 210.498 480.610 C 209.674 481.221 209.000 482.683 209.000 483.860 C 209.000 485.037 208.602 486.000 208.117 486.000 C 206.793 486.000 205.919 481.668 207.096 480.941 C 207.684 480.577 207.818 479.123 207.412 477.506 C 206.881 475.391 207.016 474.892 207.961 475.476 C 208.916 476.066 209.044 475.478 208.501 473.007 C 207.955 470.519 208.102 469.867 209.130 470.210 C 209.868 470.456 210.814 472.647 211.234 475.079 M 220.000 475.059 C 220.000 476.302 219.564 476.849 218.900 476.438 C 218.104 475.946 218.099 476.316 218.882 477.779 C 219.731 479.365 219.638 479.925 218.450 480.381 C 216.323 481.197 214.548 476.430 216.256 474.489 C 218.086 472.410 220.000 472.701 220.000 475.059 M 413.000 457.559 C 413.000 458.352 413.450 459.000 414.000 459.000 C 414.550 459.000 415.000 460.533 415.000 462.406 C 415.000 465.158 414.664 465.725 413.250 465.355 C 411.887 464.999 411.500 463.825 411.500 460.044 C 411.500 457.375 411.838 455.400 412.250 455.655 C 412.663 455.909 413.000 456.766 413.000 457.559 M 216.816 495.327 C 217.171 498.320 215.073 498.998 213.039 496.547 C 212.092 495.406 212.120 494.770 213.167 493.588 C 215.021 491.493 216.443 492.170 216.816 495.327 M 241.187 546.319 C 241.652 547.059 240.622 547.325 238.017 547.137 C 235.896 546.984 233.934 546.270 233.657 545.550 C 233.028 543.910 240.132 544.635 241.187 546.319 M 219.296 509.250 C 219.616 511.327 219.456 513.000 218.937 513.000 C 218.422 513.000 218.000 511.125 218.000 508.833 C 218.000 503.898 218.494 504.057 219.296 509.250 "/></g>
<g fill="#F1B188FD">
<path d="M 263.431 194.556 C 257.468 205.219 251.988 220.582 247.221 240.000 L 246.362 243.500 244.887 240.500 C 243.715 238.116 242.832 237.542 240.585 237.705 C 231.773 238.343 226.890 254.258 231.385 267.691 C 233.559 274.190 238.039 278.692 243.382 279.749 C 246.940 280.453 247.545 280.979 248.291 284.026 C 251.365 296.571 255.408 305.720 261.661 314.281 C 266.240 320.549 277.201 331.831 283.327 336.579 C 287.057 339.470 287.155 339.710 287.181 346.023 C 287.196 349.585 286.977 353.175 286.695 354.000 C 286.413 354.825 285.499 358.200 284.665 361.500 C 283.830 364.800 282.850 368.460 282.487 369.634 C 281.965 371.323 282.679 372.451 285.914 375.051 C 288.161 376.857 290.036 379.047 290.079 379.917 C 290.129 380.927 290.339 381.053 290.657 380.265 C 291.043 379.311 291.802 379.363 293.988 380.494 C 295.545 381.299 296.972 382.309 297.160 382.738 C 297.347 383.167 299.800 384.697 302.610 386.138 C 306.894 388.335 308.915 388.734 315.110 388.605 C 321.411 388.473 323.458 387.947 329.000 385.038 C 332.575 383.162 337.639 380.135 340.252 378.313 C 342.866 376.491 345.529 375.000 346.169 375.000 C 346.809 375.000 347.037 374.704 346.675 374.342 C 346.313 373.980 346.504 373.098 347.099 372.381 C 347.875 371.446 347.874 370.147 347.096 367.789 C 346.499 365.980 345.744 362.475 345.417 360.000 C 345.091 357.525 344.425 353.700 343.936 351.500 C 343.448 349.300 343.038 345.581 343.024 343.235 C 343.004 339.605 343.424 338.713 345.853 337.235 C 347.423 336.281 348.773 335.050 348.853 334.500 C 348.934 333.950 349.450 333.444 350.000 333.375 C 350.550 333.306 351.450 333.194 352.000 333.125 C 352.550 333.056 353.000 332.531 353.000 331.957 C 353.000 331.383 355.588 328.261 358.750 325.019 C 365.970 317.617 366.711 316.710 371.036 309.992 C 375.916 302.413 378.571 296.469 379.969 290.000 C 382.221 279.576 382.279 279.471 385.589 279.787 C 389.881 280.196 394.885 276.431 397.932 270.500 C 400.096 266.287 400.500 264.162 400.500 257.000 C 400.500 246.496 398.418 241.632 392.500 238.316 L 388.500 236.075 386.170 240.657 C 384.750 243.449 383.480 244.880 382.919 244.319 C 381.815 243.215 378.670 229.143 376.464 215.436 C 374.664 204.247 373.750 202.773 366.500 199.368 C 359.445 196.054 348.604 196.137 336.500 199.598 C 323.352 203.357 306.382 203.997 295.156 201.159 C 286.578 198.990 277.069 194.680 271.515 190.444 C 269.753 189.100 268.038 188.000 267.705 188.000 C 267.371 188.000 265.448 190.950 263.431 194.556 M 340.995 303.497 C 340.629 303.271 338.580 304.934 336.439 307.192 C 331.101 312.826 322.030 316.998 315.116 316.999 C 307.115 317.000 302.500 315.202 296.717 309.829 C 293.858 307.173 291.102 305.000 290.593 305.000 C 290.083 305.000 289.963 304.704 290.325 304.342 C 290.687 303.980 290.481 303.080 289.869 302.342 C 289.050 301.355 289.052 301.000 289.878 301.000 C 290.495 301.000 291.000 301.338 291.000 301.750 C 291.000 302.163 292.688 302.553 294.750 302.618 C 296.813 302.684 301.763 303.204 305.750 303.775 C 313.007 304.814 321.579 304.231 332.736 301.939 C 335.615 301.348 338.397 301.127 338.917 301.448 C 339.436 301.770 340.195 301.493 340.603 300.833 C 341.079 300.063 341.400 300.397 341.502 301.771 C 341.588 302.946 341.360 303.723 340.995 303.497 M 293.727 249.923 C 293.302 249.965 293.691 251.125 294.593 252.501 C 296.615 255.587 296.862 264.021 295.030 267.443 C 293.087 271.075 290.034 271.760 287.844 269.056 C 284.424 264.832 284.229 254.715 287.515 251.987 C 288.320 251.320 288.801 250.487 288.584 250.137 C 288.368 249.787 289.610 249.578 291.345 249.673 C 293.080 249.768 294.152 249.881 293.727 249.923 M 343.657 253.721 C 346.859 261.386 343.372 272.205 338.225 270.571 C 335.296 269.642 333.684 264.824 334.204 258.556 C 334.720 252.331 336.211 250.000 339.673 250.000 C 341.531 250.000 342.467 250.875 343.657 253.721 M 354.326 225.021 C 357.297 226.132 360.542 227.942 361.538 229.042 C 363.313 231.003 363.258 231.002 358.637 228.958 C 354.330 227.052 353.288 226.971 346.457 228.007 C 338.839 229.161 328.000 227.976 328.000 225.988 C 328.000 224.713 335.574 223.230 342.712 223.107 C 346.730 223.038 350.834 223.714 354.326 225.021 M 294.951 224.083 C 297.728 224.678 300.000 225.578 300.000 226.083 C 300.000 226.587 299.836 227.000 299.636 227.000 C 299.437 227.000 296.940 227.442 294.088 227.983 C 290.631 228.639 286.425 228.622 281.463 227.932 C 274.797 227.004 273.526 227.109 269.261 228.940 L 264.500 230.983 267.500 228.497 C 273.623 223.422 284.052 221.745 294.951 224.083 "/></g>
<g fill="#29201CFD">
<path d="M 265.054 129.434 C 264.340 130.296 264.090 131.000 264.500 131.000 C 264.910 131.000 264.744 131.604 264.131 132.342 C 263.519 133.080 263.313 133.980 263.675 134.342 C 264.037 134.704 263.782 135.000 263.108 135.000 C 262.434 135.000 262.160 135.450 262.500 136.000 C 262.840 136.550 262.775 137.555 262.356 138.232 C 261.564 139.514 260.987 142.290 260.910 145.183 C 260.836 147.991 258.277 149.474 255.716 148.194 C 254.497 147.585 251.925 147.243 250.000 147.434 C 246.402 147.790 245.754 148.057 247.500 148.463 C 248.050 148.591 248.838 148.820 249.250 148.973 C 250.407 149.401 251.311 149.707 253.750 150.501 C 256.829 151.503 256.601 152.346 252.250 156.031 C 250.188 157.778 249.400 158.794 250.500 158.289 C 253.401 156.957 267.374 157.693 275.500 159.606 C 281.752 161.078 293.988 166.456 298.000 169.495 C 300.145 171.120 312.693 175.756 318.000 176.884 C 331.068 179.662 344.664 179.075 356.884 175.205 L 362.268 173.500 355.884 177.089 C 344.257 183.625 338.727 185.198 325.500 185.733 C 310.215 186.351 305.786 185.306 284.500 176.054 C 277.487 173.007 274.639 172.111 268.566 171.043 C 261.453 169.793 249.324 169.667 248.601 170.836 C 247.989 171.827 244.972 171.719 243.232 170.644 C 242.052 169.914 241.516 171.598 241.925 174.750 C 242.015 175.438 241.632 176.000 241.075 176.000 C 240.518 176.000 240.314 176.653 240.620 177.452 C 240.926 178.251 240.855 179.425 240.462 180.062 C 238.355 183.471 238.656 206.136 240.956 217.248 C 241.497 219.859 241.679 222.672 241.362 223.498 C 241.045 224.324 241.233 225.000 241.780 225.000 C 242.843 225.000 243.812 228.934 244.404 235.660 C 245.115 243.719 246.289 242.520 249.532 230.425 C 254.445 212.098 260.890 196.062 265.757 190.052 L 267.724 187.622 273.556 191.494 C 291.360 203.311 315.055 206.007 337.726 198.795 C 346.470 196.013 358.632 195.779 365.080 198.268 C 372.634 201.183 374.809 204.280 376.536 214.575 C 378.460 226.039 380.849 237.591 382.177 241.851 L 383.222 245.203 385.710 241.031 C 387.078 238.736 388.308 236.328 388.442 235.679 C 389.295 231.573 390.344 229.000 391.167 229.000 C 391.690 229.000 391.862 228.586 391.550 228.081 C 391.237 227.575 391.548 226.562 392.241 225.831 C 392.933 225.099 393.624 223.395 393.775 222.044 C 393.926 220.693 394.601 219.237 395.275 218.809 C 395.949 218.381 396.073 218.024 395.550 218.015 C 395.028 218.007 395.105 217.495 395.722 216.878 C 396.339 216.261 396.606 215.136 396.315 214.378 C 396.024 213.620 396.242 213.000 396.799 213.000 C 397.357 213.000 397.577 212.100 397.290 211.000 C 397.002 209.900 397.255 209.000 397.852 209.000 C 398.449 209.000 398.676 208.319 398.357 207.487 C 398.037 206.655 398.273 205.376 398.879 204.645 C 399.486 203.914 399.706 203.039 399.368 202.701 C 399.030 202.363 399.088 201.279 399.496 200.293 C 400.548 197.758 400.790 194.305 400.974 179.264 C 401.062 171.984 400.853 165.571 400.508 165.014 C 400.164 164.456 397.910 164.000 395.500 164.000 C 393.090 164.000 390.821 163.519 390.458 162.932 C 390.095 162.344 389.124 162.122 388.301 162.438 C 386.728 163.042 378.385 160.564 376.377 158.898 C 375.732 158.362 374.146 157.722 372.852 157.474 C 371.558 157.226 370.000 156.343 369.390 155.512 C 368.779 154.680 367.819 154.000 367.256 154.000 C 366.693 154.000 364.605 152.199 362.616 149.997 C 360.627 147.796 358.986 146.333 358.968 146.747 C 358.951 147.161 358.388 146.819 357.718 145.986 C 356.147 144.034 350.724 140.489 349.750 140.778 C 349.338 140.900 349.000 140.523 349.000 139.941 C 349.000 139.359 348.550 139.160 348.000 139.500 C 347.450 139.840 347.000 139.641 347.000 139.059 C 347.000 138.477 346.663 138.049 346.250 138.108 C 344.766 138.322 341.000 136.749 341.000 135.915 C 341.000 135.446 340.325 135.322 339.500 135.638 C 338.675 135.955 338.000 135.689 338.000 135.048 C 338.000 134.407 337.581 134.141 337.069 134.457 C 336.557 134.774 335.916 134.674 335.645 134.235 C 335.374 133.796 333.663 133.324 331.842 133.185 C 330.022 133.046 328.133 132.533 327.644 132.044 C 327.156 131.556 326.136 131.394 325.378 131.685 C 324.620 131.976 323.213 131.894 322.250 131.504 C 319.645 130.446 303.140 130.777 298.186 131.986 C 295.813 132.565 293.482 132.798 293.005 132.503 C 292.528 132.208 291.837 132.455 291.468 133.052 C 291.099 133.648 290.168 133.895 289.399 133.600 C 288.629 133.304 288.000 133.547 288.000 134.138 C 288.000 134.730 287.325 134.955 286.500 134.638 C 285.675 134.322 285.000 134.536 285.000 135.115 C 285.000 135.693 284.442 135.981 283.759 135.753 C 283.076 135.525 281.893 135.964 281.130 136.727 C 280.367 137.490 279.125 137.878 278.371 137.589 C 277.617 137.300 277.000 137.499 277.000 138.031 C 277.000 138.564 276.100 139.000 275.000 139.000 C 273.900 139.000 273.000 139.477 273.000 140.059 C 273.000 140.641 272.550 140.840 272.000 140.500 C 271.450 140.160 271.000 140.319 271.000 140.852 C 271.000 141.955 269.138 141.842 267.183 140.622 C 266.284 140.060 265.944 137.907 266.110 133.834 C 266.315 128.825 266.145 128.120 265.054 129.434 "/></g>
<g fill="#584034FD">
<path d="M 251.985 158.952 C 251.972 160.235 251.818 160.261 251.086 159.104 C 250.408 158.034 249.781 158.499 248.393 161.104 C 247.398 162.972 246.509 163.938 246.417 163.250 C 246.195 161.588 245.942 162.005 245.406 164.922 C 245.161 166.253 244.480 167.921 243.894 168.628 C 243.308 169.334 243.073 170.308 243.372 170.792 C 243.991 171.794 247.612 171.722 248.646 170.687 C 249.686 169.647 261.862 169.865 268.566 171.043 C 274.639 172.111 277.487 173.007 284.500 176.054 C 305.786 185.306 310.215 186.351 325.500 185.733 C 338.727 185.198 344.257 183.625 355.884 177.089 L 362.268 173.500 356.884 175.205 C 344.664 179.075 331.068 179.662 318.000 176.884 C 312.693 175.756 300.145 171.120 298.000 169.495 C 293.975 166.446 281.747 161.078 275.500 159.619 C 271.650 158.719 264.788 157.853 260.250 157.694 C 253.351 157.452 251.997 157.658 251.985 158.952 "/></g>
<g fill="#F1B188FD">
<path d="M 186.000 522.116 C 186.000 525.902 186.419 529.000 186.930 529.000 C 187.442 529.000 188.005 529.946 188.180 531.102 C 188.410 532.610 191.524 534.875 199.204 539.118 C 205.091 542.370 211.207 545.291 212.795 545.609 L 215.683 546.187 216.355 532.907 C 216.806 523.993 216.677 519.277 215.963 518.563 C 215.370 517.970 210.317 517.436 204.524 517.355 C 198.817 517.275 193.591 516.865 192.910 516.444 C 192.228 516.023 190.395 515.578 188.836 515.456 L 186.000 515.233 186.000 522.116 "/></g>
<g fill="#F1B188FD">
<path d="M 438.742 515.275 C 438.330 516.509 433.774 517.120 423.000 517.382 L 413.500 517.614 413.500 531.557 L 413.500 545.500 415.947 545.154 C 417.293 544.963 423.488 542.045 429.715 538.669 C 442.416 531.783 442.983 530.977 442.994 519.812 C 442.999 514.751 442.781 514.141 441.013 514.274 C 439.920 514.356 438.898 514.807 438.742 515.275 "/></g>
<g fill="#CDF1FDFD">
<path d="M 242.118 233.237 C 242.053 234.192 240.538 235.596 238.750 236.358 C 229.420 240.332 225.446 254.222 229.741 267.846 C 231.921 274.763 236.239 279.449 241.818 280.951 C 246.223 282.137 248.000 284.550 248.000 289.344 C 248.000 291.866 253.141 304.541 254.862 306.262 C 255.488 306.888 256.002 307.873 256.005 308.450 C 256.021 312.099 275.706 333.978 282.133 337.491 C 283.581 338.283 285.041 340.027 285.377 341.367 C 286.058 344.079 283.886 357.792 281.554 365.500 L 280.041 370.500 283.746 374.000 C 286.922 377.000 287.053 377.053 284.659 374.375 L 281.866 371.251 283.933 364.375 C 285.975 357.580 287.858 344.069 287.215 340.826 C 287.032 339.906 284.489 337.306 281.562 335.048 C 278.636 332.790 273.830 328.368 270.883 325.222 C 258.311 311.797 252.499 301.199 248.291 284.026 C 247.545 280.979 246.940 280.453 243.382 279.749 C 238.039 278.692 233.559 274.190 231.385 267.691 C 226.883 254.237 231.826 238.252 240.703 237.556 C 243.241 237.357 243.442 237.066 242.868 234.418 C 242.521 232.813 242.183 232.281 242.118 233.237 "/></g>
<g fill="#CDF1FDFD">
<path d="M 400.961 258.500 C 400.050 270.340 392.679 280.936 386.214 279.701 C 383.499 279.182 381.005 282.175 380.989 285.973 C 380.967 291.189 375.959 303.567 370.816 311.117 C 367.716 315.667 365.563 318.153 358.750 325.047 C 355.588 328.247 353.000 331.240 353.000 331.699 C 353.000 332.157 350.750 334.005 348.000 335.805 C 343.764 338.579 343.000 339.556 343.000 342.206 C 343.000 343.926 343.338 344.996 343.750 344.583 C 344.163 344.171 344.522 343.533 344.549 343.167 C 344.729 340.722 346.396 338.009 348.038 337.488 C 350.625 336.667 363.364 323.978 369.109 316.500 C 373.746 310.464 382.000 293.591 382.000 290.148 C 382.000 285.613 384.131 282.130 387.326 281.442 C 393.151 280.189 395.941 278.049 398.688 272.727 C 400.937 268.373 401.397 266.164 401.444 259.500 L 401.500 251.500 400.961 258.500 "/></g>
<g fill="#29201CFD">
<path d="M 335.415 253.164 C 333.051 257.735 333.905 266.695 336.939 269.152 C 339.901 271.550 342.448 270.203 344.033 265.399 C 347.274 255.579 339.716 244.848 335.415 253.164 "/></g>
<g fill="#29201CFD">
<path d="M 287.448 252.440 C 285.382 255.592 285.120 263.987 286.979 267.460 C 288.684 270.646 292.326 270.801 294.443 267.777 C 296.330 265.084 296.484 256.519 294.710 253.000 C 292.949 249.507 289.542 249.244 287.448 252.440 "/></g>
<g fill="#29201CFD">
<path d="M 332.500 224.323 C 327.580 225.560 327.539 225.602 329.951 226.933 C 331.783 227.944 335.316 228.155 343.951 227.768 C 350.303 227.484 356.625 227.532 358.000 227.876 C 359.406 228.227 358.583 227.477 356.119 226.163 C 350.788 223.319 339.871 222.468 332.500 224.323 "/></g>
<g fill="#29201CFD">
<path d="M 277.500 223.935 C 275.850 224.337 272.974 225.528 271.110 226.583 C 269.245 227.637 268.570 228.203 269.610 227.840 C 270.649 227.477 277.125 227.410 284.000 227.693 C 294.045 228.106 296.879 227.918 298.428 226.737 C 300.212 225.376 299.872 225.183 293.846 224.134 C 286.668 222.884 282.049 222.828 277.500 223.935 "/></g>
<g fill="#CDF1FDFD">
<path d="M 152.313 118.696 C 137.991 130.669 118.351 151.149 114.438 158.189 C 113.922 159.117 115.975 156.873 119.000 153.200 C 126.207 144.451 141.562 129.025 151.110 120.942 C 155.295 117.399 158.811 114.163 158.922 113.750 C 159.034 113.338 156.059 115.563 152.313 118.696 "/></g>
<g fill="#CDF1FDFD">
<path d="M 215.761 518.115 C 216.710 519.332 216.857 522.973 216.357 532.865 C 215.991 540.089 215.311 546.068 214.846 546.150 C 214.381 546.233 214.563 546.345 215.250 546.400 C 215.938 546.455 217.026 547.199 217.669 548.053 C 218.311 548.907 221.911 550.480 225.669 551.549 C 233.148 553.677 232.575 553.195 223.814 549.987 C 220.440 548.751 217.972 547.212 217.745 546.202 C 217.534 545.266 217.565 538.868 217.815 531.984 C 218.227 520.604 218.097 519.333 216.384 517.984 C 214.680 516.642 214.621 516.655 215.761 518.115 "/></g>
<g fill="#85D1F4FD">
<path d="M 210.000 413.878 C 210.000 414.910 209.325 416.315 208.500 417.000 C 206.918 418.313 206.297 427.553 207.856 426.589 C 208.326 426.298 208.516 427.284 208.277 428.780 C 207.938 430.910 208.074 431.175 208.906 430.000 C 209.491 429.175 210.055 428.950 210.160 429.500 C 210.265 430.050 210.609 426.337 210.925 421.248 C 211.241 416.159 211.163 411.997 210.750 411.998 C 210.338 411.999 210.000 412.845 210.000 413.878 "/></g>
<g fill="#CDF1FDFD">
<path d="M 322.541 305.907 C 321.464 306.328 317.189 306.474 313.041 306.230 C 306.039 305.819 305.643 305.900 307.500 307.362 C 309.550 308.976 320.996 309.729 321.004 308.250 C 321.007 307.838 322.644 307.415 324.643 307.311 C 329.174 307.076 331.817 304.966 327.450 305.070 C 325.828 305.109 323.618 305.485 322.541 305.907 "/></g>
<g fill="#CDF1FDFD">
<path d="M 513.935 468.247 C 506.406 477.967 503.309 481.464 492.202 492.782 C 487.639 497.433 484.079 501.412 484.292 501.625 C 484.505 501.838 489.147 497.397 494.609 491.756 C 504.485 481.556 521.478 461.145 520.723 460.390 C 520.506 460.172 517.451 463.708 513.935 468.247 "/></g>
<g fill="#85D1F4FD">
<path d="M 212.190 440.676 C 211.089 446.477 211.124 447.553 212.454 448.883 C 215.134 451.563 216.107 449.001 215.380 441.177 C 215.013 437.229 214.430 434.000 214.084 434.000 C 213.739 434.000 212.886 437.004 212.190 440.676 "/></g>
<g fill="#CDF1FDFD">
<path d="M 462.812 109.822 C 464.633 111.570 466.356 113.000 466.640 113.000 C 467.881 113.000 483.321 126.306 492.250 135.070 C 497.612 140.334 502.000 144.328 502.000 143.947 C 502.000 141.826 475.036 117.694 463.500 109.490 L 459.500 106.645 462.812 109.822 "/></g>
<g fill="#85D1F4FD">
<path d="M 208.501 473.007 C 209.044 475.478 208.916 476.066 207.961 475.476 C 207.016 474.892 206.881 475.391 207.412 477.506 C 207.818 479.123 207.684 480.577 207.096 480.941 C 205.919 481.668 206.793 486.000 208.117 486.000 C 208.602 486.000 209.000 485.037 209.000 483.860 C 209.000 482.683 209.674 481.221 210.498 480.610 C 212.341 479.244 211.246 470.915 209.130 470.210 C 208.102 469.867 207.955 470.519 208.501 473.007 "/></g>
<g fill="#CDF1FDFD">
<path d="M 411.526 532.722 C 411.760 541.400 411.963 547.863 411.976 547.083 C 411.989 546.304 412.270 545.936 412.599 546.266 C 412.928 546.595 413.133 540.384 413.053 532.463 C 412.974 524.542 412.502 517.810 412.004 517.503 C 411.473 517.174 411.275 523.450 411.526 532.722 "/></g>
<g fill="#CDF1FDFD">
<path d="M 114.011 469.500 C 119.634 477.452 142.440 502.000 144.205 502.000 C 144.702 502.000 141.321 498.288 136.692 493.750 C 132.064 489.213 125.226 481.900 121.497 477.500 C 114.298 469.006 111.693 466.222 114.011 469.500 "/></g>
<g fill="#CDF1FDFD">
<path d="M 344.452 352.000 C 344.855 355.025 345.355 359.026 345.561 360.891 C 345.768 362.756 346.442 365.810 347.059 367.679 C 347.912 370.263 347.890 371.428 346.968 372.539 C 345.252 374.606 346.986 374.361 349.012 372.250 C 350.433 370.769 350.491 370.191 349.387 368.488 C 348.669 367.382 347.347 362.207 346.449 356.988 C 344.668 346.639 343.275 343.158 344.452 352.000 "/></g>
<g fill="#CDF1FDFD">
<path d="M 184.769 515.283 C 184.367 516.263 184.318 519.751 184.661 523.033 C 185.094 527.175 184.935 529.038 184.142 529.125 C 183.514 529.194 182.438 529.322 181.750 529.410 C 180.077 529.625 184.426 532.000 186.493 532.000 C 187.558 532.000 187.839 531.569 187.309 530.750 C 186.864 530.063 186.275 525.900 186.000 521.500 C 185.702 516.726 185.205 514.219 184.769 515.283 "/></g>
<g fill="#CDF1FDFD">
<path d="M 443.015 519.007 C 443.007 522.585 442.592 526.935 442.094 528.672 L 441.188 531.830 444.344 530.704 C 446.800 529.826 447.082 529.491 445.616 529.189 C 443.921 528.841 443.793 528.132 444.341 522.151 C 444.680 518.448 444.525 514.835 443.991 514.000 C 443.321 512.954 443.026 514.470 443.015 519.007 "/></g>
<g fill="#85D1F4FD">
<path d="M 352.000 563.051 C 349.525 563.491 345.164 563.885 342.309 563.926 C 339.454 563.967 336.807 564.504 336.426 565.119 C 335.935 565.914 337.150 566.074 340.617 565.671 C 343.303 565.358 348.313 564.796 351.750 564.422 C 355.188 564.048 358.000 563.350 358.000 562.871 C 358.000 562.392 357.663 562.056 357.250 562.125 C 356.838 562.194 354.475 562.611 352.000 563.051 "/></g>
<g fill="#DDD5D5FD">
<path d="M 303.000 306.059 C 303.000 306.641 303.450 306.840 304.000 306.500 C 304.550 306.160 305.000 306.359 305.000 306.941 C 305.000 307.523 305.788 307.993 306.750 307.985 C 308.246 307.972 308.282 307.828 307.000 307.000 C 304.937 305.667 315.986 305.664 319.492 306.997 C 320.975 307.561 321.867 307.594 321.545 307.073 C 321.232 306.566 321.769 305.945 322.738 305.692 C 323.707 305.439 319.663 305.180 313.750 305.116 C 306.778 305.041 303.000 305.372 303.000 306.059 "/></g>
<g fill="#E1C0ADFD">
<path d="M 331.544 302.110 C 329.369 302.629 324.644 303.435 321.044 303.901 L 314.500 304.747 319.736 304.874 C 322.615 304.943 326.890 304.557 329.236 304.016 C 331.581 303.475 334.850 302.719 336.500 302.336 C 338.662 301.834 338.941 301.573 337.500 301.402 C 336.400 301.272 333.720 301.590 331.544 302.110 "/></g>
<g fill="#CDF1FDFD">
<path d="M 389.000 235.879 C 389.000 236.362 390.335 237.310 391.967 237.986 C 395.633 239.505 397.028 241.126 399.194 246.386 C 400.126 248.649 400.913 249.734 400.944 248.797 C 401.089 244.388 395.968 237.000 392.767 237.000 C 391.730 237.000 391.160 236.550 391.500 236.000 C 391.840 235.450 391.416 235.000 390.559 235.000 C 389.702 235.000 389.000 235.395 389.000 235.879 "/></g>
<g fill="#CDF1FDFD">
<path d="M 434.000 91.328 C 434.000 91.603 436.902 93.451 440.449 95.434 C 443.996 97.418 447.483 99.626 448.199 100.342 C 448.915 101.057 449.725 101.612 450.000 101.575 C 450.275 101.537 452.431 102.630 454.792 104.003 C 457.646 105.664 457.143 105.131 453.292 102.412 C 447.052 98.008 434.000 90.509 434.000 91.328 "/></g>
<g fill="#85D1F4FD">
<path d="M 216.256 474.489 C 214.548 476.430 216.323 481.197 218.450 480.381 C 219.638 479.925 219.731 479.365 218.882 477.779 C 218.099 476.316 218.104 475.946 218.900 476.438 C 219.564 476.849 220.000 476.302 220.000 475.059 C 220.000 472.701 218.086 472.410 216.256 474.489 "/></g>
<g fill="#85D1F4FD">
<path d="M 411.500 460.044 C 411.500 463.825 411.887 464.999 413.250 465.355 C 414.664 465.725 415.000 465.158 415.000 462.406 C 415.000 460.533 414.550 459.000 414.000 459.000 C 413.450 459.000 413.000 458.352 413.000 457.559 C 413.000 456.766 412.663 455.909 412.250 455.655 C 411.838 455.400 411.500 457.375 411.500 460.044 "/></g>
<g fill="#CDF1FDFD">
<path d="M 94.493 440.500 C 96.600 444.350 100.164 450.101 102.412 453.281 C 107.119 459.937 106.777 459.265 98.219 445.047 C 90.804 432.729 89.102 430.652 94.493 440.500 "/></g>
<g fill="#CDF1FDFD">
<path d="M 471.719 511.198 C 465.790 515.997 460.946 520.159 460.956 520.446 C 460.980 521.160 480.724 505.227 481.710 503.698 C 482.145 503.024 477.649 506.399 471.719 511.198 "/></g>
<g fill="#E1C0ADFD">
<path d="M 292.405 303.155 C 291.979 303.844 292.129 304.039 292.776 303.638 C 293.373 303.269 294.088 303.334 294.365 303.782 C 294.642 304.230 298.386 304.563 302.684 304.522 C 306.983 304.480 308.922 304.346 306.993 304.223 C 305.065 304.100 301.938 303.556 300.045 303.013 C 297.496 302.282 296.398 302.347 295.816 303.263 C 295.195 304.242 295.027 304.239 295.015 303.250 C 294.996 301.680 293.353 301.620 292.405 303.155 "/></g>
<g fill="#85D1F4FD">
<path d="M 213.167 493.588 C 212.120 494.770 212.092 495.406 213.039 496.547 C 215.073 498.998 217.171 498.320 216.816 495.327 C 216.443 492.170 215.021 491.493 213.167 493.588 "/></g>
<g fill="#CDF1FDFD">
<path d="M 537.650 196.655 C 540.868 202.791 543.665 207.651 543.866 207.456 C 544.312 207.024 534.223 187.906 532.808 186.500 C 532.254 185.950 534.433 190.520 537.650 196.655 "/></g>
<g fill="#85D1F4FD">
<path d="M 294.000 565.937 C 295.348 566.864 309.920 567.533 308.917 566.622 C 308.688 566.413 304.900 565.942 300.500 565.574 C 294.880 565.104 292.946 565.212 294.000 565.937 "/></g>
<g fill="#CDF1FDFD">
<path d="M 152.091 509.007 C 156.144 512.310 159.868 514.877 160.367 514.711 C 160.865 514.545 159.974 513.565 158.387 512.534 C 156.799 511.502 153.446 508.935 150.936 506.829 C 148.425 504.723 146.000 503.000 145.546 503.000 C 145.092 503.000 148.037 505.703 152.091 509.007 "/></g>
<g fill="#CDF1FDFD">
<path d="M 503.000 145.462 C 503.000 146.623 514.424 160.872 515.197 160.676 C 515.580 160.579 512.993 156.952 509.447 152.616 C 505.901 148.280 503.000 145.061 503.000 145.462 "/></g>
<g fill="#CDF1FDFD">
<path d="M 422.000 85.593 C 434.583 91.643 435.963 91.746 424.107 85.750 C 418.941 83.138 414.216 81.006 413.607 81.013 C 412.998 81.020 416.775 83.081 422.000 85.593 "/></g>
<g fill="#85D1F4FD">
<path d="M 324.500 566.000 L 319.500 566.686 326.000 566.828 C 329.575 566.906 333.175 566.533 334.000 566.000 C 335.735 564.879 332.675 564.879 324.500 566.000 "/></g>
<g fill="#CDF1FDFD">
<path d="M 545.203 211.500 C 546.312 215.238 552.355 229.979 552.655 229.678 C 553.140 229.193 548.330 216.431 546.402 213.092 C 545.580 211.666 545.040 210.950 545.203 211.500 "/></g>
<g fill="#85D1F4FD">
<path d="M 233.657 545.550 C 233.934 546.270 235.896 546.984 238.017 547.137 C 243.009 547.498 241.981 545.420 236.828 544.731 C 234.072 544.363 233.281 544.568 233.657 545.550 "/></g>
<g fill="#0D80ACFD">
<path d="M 266.408 126.246 C 265.903 127.486 265.773 131.200 266.118 134.500 L 266.744 140.500 266.755 134.500 C 266.760 131.200 267.098 127.693 267.506 126.707 C 267.914 125.721 268.040 124.706 267.786 124.453 C 267.532 124.199 266.912 125.006 266.408 126.246 "/></g>
<g fill="#DDD5D5FD">
<path d="M 336.000 302.681 C 335.175 302.783 332.700 303.176 330.500 303.553 C 327.281 304.105 326.890 304.383 328.500 304.975 C 329.600 305.380 331.850 305.260 333.500 304.708 C 336.841 303.591 338.316 302.394 336.000 302.681 "/></g>
<g fill="#CDF1FDFD">
<path d="M 83.889 420.188 C 84.447 421.666 86.162 425.187 87.701 428.013 L 90.500 433.151 87.546 426.325 C 84.596 419.511 81.968 415.100 83.889 420.188 "/></g>
<g fill="#CDF1FDFD">
<path d="M 77.202 223.381 C 75.952 226.616 74.833 230.209 74.715 231.366 C 74.597 232.522 75.619 230.326 76.986 226.485 C 80.099 217.739 80.256 215.476 77.202 223.381 "/></g>
<g fill="#CDF1FDFD">
<path d="M 197.726 88.671 C 194.000 90.659 191.101 92.434 191.284 92.618 C 191.468 92.801 194.966 91.174 199.059 89.002 C 203.151 86.830 206.050 85.054 205.500 85.055 C 204.950 85.057 201.452 86.684 197.726 88.671 "/></g>
<g fill="#CDF1FDFD">
<path d="M 230.000 74.721 C 222.207 77.600 217.672 79.474 218.500 79.473 C 220.265 79.471 233.538 74.678 232.500 74.418 C 231.950 74.280 230.825 74.416 230.000 74.721 "/></g>
<g fill="#CDF1FDFD">
<path d="M 100.500 177.243 C 96.126 184.882 96.246 185.323 100.840 178.500 C 103.062 175.200 104.569 172.388 104.190 172.251 C 103.810 172.114 102.150 174.360 100.500 177.243 "/></g>
<g fill="#CDF1FDFD">
<path d="M 177.500 100.500 C 174.200 102.700 171.983 104.414 172.573 104.309 C 174.034 104.049 184.218 97.298 183.819 96.854 C 183.643 96.659 180.800 98.300 177.500 100.500 "/></g>
<g fill="#CDF1FDFD">
<path d="M 453.193 524.964 C 448.476 528.107 448.347 528.278 452.032 526.500 C 454.313 525.400 456.701 523.809 457.339 522.964 C 457.978 522.120 456.112 523.020 453.193 524.964 "/></g>
<g fill="#CDF1FDFD">
<path d="M 524.964 453.193 C 523.020 456.112 522.120 457.978 522.964 457.339 C 523.809 456.701 525.400 454.313 526.500 452.032 C 528.278 448.347 528.107 448.476 524.964 453.193 "/></g>
<g fill="#CDF1FDFD">
<path d="M 328.500 385.090 C 325.750 386.665 323.852 387.964 324.283 387.977 C 325.679 388.018 335.532 382.696 334.500 382.458 C 333.950 382.331 331.250 383.516 328.500 385.090 "/></g>
<g fill="#0D80ACFD">
<path d="M 395.750 163.919 C 398.638 164.269 401.000 164.206 401.000 163.778 C 401.000 163.350 398.638 163.063 395.750 163.141 L 390.500 163.282 395.750 163.919 "/></g>
<g fill="#CDF1FDFD">
<path d="M 171.457 523.403 C 173.083 524.779 175.653 526.489 177.169 527.202 C 178.684 527.916 177.353 526.790 174.212 524.701 C 171.070 522.611 169.831 522.027 171.457 523.403 "/></g>
<g fill="#CDF1FDFD">
<path d="M 532.457 441.197 C 530.784 444.114 530.196 445.631 531.150 444.568 C 532.104 443.505 533.473 441.119 534.193 439.265 C 534.974 437.251 534.276 438.028 532.457 441.197 "/></g>
<g fill="#85D1F4FD">
<path d="M 360.000 562.000 C 358.764 562.799 358.852 562.955 360.500 562.885 C 361.600 562.839 363.625 562.440 365.000 562.000 C 367.450 561.215 367.440 561.198 364.500 561.115 C 362.850 561.069 360.825 561.467 360.000 562.000 "/></g>
<g fill="#85D1F4FD">
<path d="M 218.000 508.833 C 218.000 511.125 218.422 513.000 218.937 513.000 C 219.456 513.000 219.616 511.327 219.296 509.250 C 218.494 504.057 218.000 503.898 218.000 508.833 "/></g>
<g fill="#CDF1FDFD">
<path d="M 294.405 382.500 C 299.132 385.708 300.135 385.709 296.406 382.501 C 294.807 381.127 292.875 380.002 292.110 380.001 C 291.346 380.001 292.379 381.125 294.405 382.500 "/></g>
</svg>
