<?xml version="1.0" encoding="utf-8"?>
<!-- Generator: Adobe Illustrator 27.5.0, SVG Export Plug-In . SVG Version: 6.00 Build 0)  -->
<svg version="1.1" id="BASE" xmlns="http://www.w3.org/2000/svg" xmlns:xlink="http://www.w3.org/1999/xlink" x="0px" y="0px"
	 viewBox="0 0 1898 2372" style="enable-background:new 0 0 1898 2372;" xml:space="preserve">
<path style="fill:#8C817A;" d="M1632.866,984.342h-167.903c-16.656,0-32.119,12.337-44.919,33.435
	c-0.774-0.019-1.546-0.041-2.318-0.067c-30.026-0.923-59.239-7.639-83.753-26.276c-26.108-19.896-38.616-52.692-46.787-84.48
	c-14.112-54.913-18.667-110.671-19.992-166.779c23.847-9.247,37.735-20.33,37.735-32.247V584.89
	c0-23.234-52.788-43.305-129.285-52.761V410.388c16.363-16.307,29.074-36.329,35.76-58.502l140.598-0.191
	c8.273,1.078,16.818,1.121,25.482-0.035c53.205-7.099,90.58-55.985,83.481-109.191c-7.099-53.205-55.986-90.581-109.191-83.483
	c-8.663,1.156-16.897,3.438-24.598,6.648l-169.658,45.849c-24.947-17.037-54.692-26.563-82.858-26.156
	c-0.798,0.012-1.598,0.033-2.397,0.061c-0.119,0.004-0.238,0.007-0.358,0.012c-0.237,0.008-0.475,0.02-0.712,0.03
	c-0.271,0.012-0.541,0.022-0.812,0.036c-0.151,0.008-0.304,0.016-0.456,0.025c-0.362,0.019-0.724,0.039-1.087,0.062
	c-0.079,0.004-0.158,0.01-0.237,0.015c-11.872,0.755-23.929,3.232-35.677,7.257c-0.118,0.041-0.238,0.083-0.358,0.124
	c-0.289,0.099-0.576,0.199-0.865,0.301l0.001,0.001c-34.122,11.992-65.546,36.936-82.312,70.38l-24.445,1.507l-147.246,9.039
	c-8.311-0.56-16.846-0.084-25.408,1.567c-52.692,10.298-87.055,61.339-76.786,114.03c10.298,52.664,61.339,87.055,114.003,76.757
	c8.591-1.679,16.678-4.449,24.177-8.115l137.339-46.144l21.534-7.231c1.661,1.825,3.369,3.608,5.116,5.35v121.739
	c-76.498,9.455-129.285,29.526-129.285,52.761v123.039c0,11.936,13.932,23.036,37.851,32.291
	c5.967,62.321,1.258,131.505-51.848,172.219c-31.565,24.177-72.841,30.557-109.805,45.276
	c-82.13,32.768-142.181,108.294-171.703,191.683c-18.955,53.52-26.569,110.073-27.423,167.01
	c-30.997,10.912-49.329,24.412-49.329,39.027v138.066c0,17.337,25.793,33.105,67.929,44.844v294.861
	c-1.547,1.76-2.922,3.67-4.085,5.626c-5.11,8.594-7.86,18.57-14.002,26.459c-7.845-2.116-9.782-11.214-15.783-14.187
	c-1.751-0.869-17.766-2.208-14.281,3.84c-3.606-6.258-10.866-10.409-18.054-9.723c-7.19,0.687-13.741,6.538-14.655,13.703
	c-7.095-5.223-17.23-10.43-23.911-4.687c-6.792,5.838-2.909,16.83,1.434,24.663c-11.949-12.975-25.732-24.258-40.81-33.412
	c-9.415-5.716-19.641-10.694-30.619-11.605c-12.591-1.045-28.479,4.606-31.241,18.504c-1.295,6.514,0.897,13.618,5.636,18.271
	c4.593,4.51,11.026,6.543,17.281,8.066c11.006,2.681,22.333,4.268,32.934,8.267c10.599,3.998,20.71,10.87,25.552,21.112
	c-3.845-4.267-8.59-7.99-14.177-9.326c-5.586-1.336-12.096,0.16-15.601,4.711c-3.505,4.55-2.771,12.17,2.18,15.08
	c-7.622-3.289-17.051,2.208-19.791,10.045c-2.679,7.661-0.017,16.065,4.434,22.495c-5.152-2.566-11.612-4.854-17.273-2.591
	c-4.16,1.663-7.464,4.917-10.438,8.268c-3.445,3.881-6.704,8.183-7.862,13.242c-2.145,9.378,3.308,18.643,8.529,26.723
	c-17.896-3.392-34.707-4.882-43.753,14.496c-7.667,16.423,0.135,38.319,16.46,46.193c-6.592,1.773-11.546,7.258-13.777,13.665
	c-16.115,0.038-36.217-7.733-49.733-7.77c-21.321-0.06-43.964,0.24-61.922,11.412c-7.448,4.685-14.294,13.092-11.471,21.321
	c1.381,4.024,4.564,6.786,8.529,8.708c3.362,1.682,7.327,2.763,11.051,3.544c26.966,5.706,54.654-1.082,81.801-0.661
	c1.082,0,2.223,0.061,3.424,0.12c21.742,0.841,57.778,6.906,68.709,23.183c2.643,3.964,4.264,8.408,7.388,12.072
	c4.084,4.684,10.391,7.627,16.697,9.91c36.636,13.213,76.877,16.817,116.035,18.618c24.385,1.142,47.689,2.282,71.953,5.165
	c4.625,0.541,10.33,1.863,11.23,5.766c0.361,1.441-0.12,2.883-0.24,4.325c-2.883,32.553,86.306,26.127,105.886,26.486
	c33.934,0.721,67.688-2.162,101.261-5.165c66.908-6.006,132.253-9.129,199.4-4.024c21.441,1.621,46.366,2.101,60.12-11.713
	c7.448-7.447,10.031-17.957,18.439-24.624c9.61-7.628,24.085-8.348,37.358-8.648c17.116-0.421,34.294-0.781,51.412-1.202
	c7.568-0.181,15.435-0.42,22.102-3.063c0.96-0.36,1.921-0.781,2.823-1.261c7.266-3.844,11.591-12.492,6.847-18.618
	c-2.523-3.364-7.028-5.166-11.412-6.547c-21.441-6.726-56.998-17.537-79.339-13.212c10.09-8.649,13.573-23.724,11.711-35.616
	c-1.682-10.51-10.631-21.081-23.123-22.343c6.367-10.811,10.09-23.484,15.496-34.355c4.685-9.549,9.609-18.678,1.321-28.589
	c-6.967-8.409-21.022-9.79-29.549-2.883c5.826-12.492,6.247-27.328,1.082-40.12c-3.004-7.267-8.89-14.534-16.817-14.775
	c-11.773-0.3-17.778,14.775-16.277,26.486c-12.252-11.772-11.652-32.492-3.183-47.206c8.468-14.776,22.823-24.986,36.818-34.655
	c13.934-9.731,28.408-19.821,36.997-34.475c3.663-6.306,6.185-13.633,4.865-20.782c-2.584-14.234-19.76-21.982-33.873-18.979
	c-14.115,3.063-25.286,13.694-34.475,24.806c-19.76,23.904-34.294,52.132-42.102,82.102c-6.907-7.808-15.977-14.294-26.306-15.615
	c-10.331-1.382-21.802,3.482-26.067,13.033c-1.081-14.054-5.886-28.109-15.496-38.379c-6.075-6.493-14.239-11.208-22.882-12.995
	v-322.179c40.794-11.67,65.665-27.182,65.665-44.207v-138.066c0-15.763-21.324-30.229-56.865-41.549
	c0.477-3.071,1.261-6.126,2.42-9.155c5.792-15.167,13.962-23.869,24.064-26.807l0.113-0.028c10.829-3.162,23.841,0.336,38.421,9.626
	c15.503,9.906,27.618,24.234,41.918,35.762c48.495,39.065,118.172,42.031,177.915,24.569c50.76-14.831,118.76-43.374,171.731-29.074
	c15.04,4.078,25.459,14.038,39.763,18.624c12.803,21.123,28.278,33.476,44.943,33.476h167.903
	c44.115,0,79.879-86.529,79.879-193.268C1712.745,1070.871,1676.981,984.342,1632.866,984.342z"/>
<g>
	<path style="fill:#756C65;" d="M923.675,1313.886c-24.809-7.903-56.547-14.271-92.799-18.478
		c-31.328-3.635-66.027-5.656-102.539-5.656c-72.466,0-137.79,7.961-183.792,20.706c-6.795,1.884-13.168,3.87-19.081,5.951
		c-30.997,10.912-49.329,24.412-49.329,39.027v138.066c0,17.337,25.793,33.105,67.929,44.844v-74.833
		c0.518-0.161,1.043-0.321,1.568-0.481c25.644-7.799,60.362-13.917,100.493-17.494c25.526-2.277,53.239-3.526,82.203-3.526
		c76.817,0,144.865,8.769,186.547,22.162v73.536c40.794-11.67,65.665-27.182,65.665-44.207v-138.066
		C980.54,1339.672,959.216,1325.206,923.675,1313.886z"/>
</g>
<g>
	<path style="fill:#02B3D9;" d="M1176.077,2128.438c-21.441-6.726-56.998-17.537-79.339-13.212
		c10.09-8.649,13.573-23.724,11.711-35.616c-1.682-10.51-10.631-21.081-23.123-22.343c6.367-10.811,10.09-23.484,15.496-34.355
		c4.685-9.549,9.609-18.678,1.321-28.589c-6.967-8.409-21.022-9.79-29.549-2.883c5.826-12.492,6.247-27.328,1.082-40.12
		c-3.004-7.267-8.89-14.534-16.817-14.775c-11.773-0.3-17.778,14.775-16.277,26.486c-12.252-11.772-11.652-32.492-3.183-47.206
		c8.468-14.776,22.823-24.986,36.818-34.655c13.934-9.731,28.408-19.821,36.997-34.475c3.663-6.306,6.185-13.633,4.865-20.782
		c-2.584-14.234-19.76-21.982-33.873-18.979c-14.115,3.063-25.286,13.694-34.475,24.806c-19.76,23.904-34.294,52.132-42.102,82.102
		c-6.907-7.808-15.977-14.294-26.306-15.615c-10.331-1.382-21.802,3.482-26.067,13.033c-1.081-14.054-5.886-28.109-15.496-38.379
		c-6.075-6.493-14.239-11.208-22.882-12.995v-395.714c-41.682-13.393-109.73-22.162-186.547-22.162
		c-28.964,0-56.677,1.25-82.203,3.526c-40.132,3.578-74.85,9.695-100.493,17.494c-0.526,0.16-1.051,0.32-1.568,0.481v369.694
		c-1.547,1.76-2.922,3.67-4.085,5.626c-5.11,8.594-7.86,18.57-14.002,26.459c-7.845-2.116-9.782-11.214-15.783-14.187
		c-1.751-0.869-17.766-2.208-14.281,3.84c-3.606-6.258-10.866-10.409-18.054-9.723c-7.19,0.687-13.741,6.538-14.655,13.703
		c-7.095-5.223-17.23-10.43-23.911-4.687c-6.792,5.838-2.909,16.83,1.434,24.663c-11.949-12.975-25.732-24.258-40.81-33.412
		c-9.415-5.716-19.641-10.694-30.619-11.605c-12.591-1.045-28.479,4.606-31.241,18.504c-1.295,6.514,0.897,13.618,5.636,18.271
		c4.593,4.51,11.026,6.543,17.281,8.066c11.006,2.681,22.333,4.268,32.934,8.267c10.599,3.998,20.71,10.87,25.552,21.112
		c-3.845-4.267-8.59-7.99-14.177-9.326c-5.586-1.336-12.096,0.16-15.601,4.711c-3.505,4.55-2.771,12.17,2.18,15.08
		c-7.622-3.289-17.051,2.208-19.791,10.045c-2.679,7.661-0.017,16.065,4.434,22.495c-5.152-2.566-11.612-4.854-17.273-2.591
		c-4.16,1.663-7.464,4.917-10.438,8.268c-3.445,3.881-6.704,8.183-7.862,13.242c-2.145,9.378,3.308,18.643,8.529,26.723
		c-17.896-3.392-34.707-4.882-43.753,14.496c-7.667,16.423,0.135,38.319,16.46,46.193c-6.592,1.773-11.546,7.258-13.777,13.665
		c-16.115,0.038-36.217-7.733-49.733-7.77c-21.321-0.06-43.964,0.24-61.922,11.412c-7.448,4.685-14.294,13.092-11.471,21.321
		c1.381,4.024,4.564,6.786,8.529,8.708c3.362,1.682,7.327,2.763,11.051,3.544c26.966,5.706,54.654-1.082,81.801-0.661
		c1.082,0,2.223,0.061,3.424,0.12c21.742,0.841,57.778,6.906,68.709,23.183c2.643,3.964,4.264,8.408,7.388,12.072
		c4.084,4.684,10.391,7.627,16.697,9.91c36.636,13.213,76.877,16.817,116.035,18.618c24.385,1.142,47.689,2.282,71.953,5.165
		c4.625,0.541,10.33,1.863,11.23,5.766c0.361,1.441-0.12,2.883-0.24,4.325c-2.883,32.553,86.306,26.127,105.886,26.486
		c33.934,0.721,67.688-2.162,101.261-5.165c66.908-6.006,132.253-9.129,199.4-4.024c21.441,1.621,46.366,2.101,60.12-11.713
		c7.448-7.447,10.031-17.957,18.439-24.624c9.61-7.628,24.085-8.348,37.358-8.648c17.116-0.421,34.294-0.781,51.412-1.202
		c7.568-0.181,15.435-0.42,22.102-3.063c0.96-0.36,1.921-0.781,2.823-1.261c7.266-3.844,11.591-12.492,6.847-18.618
		C1184.965,2131.621,1180.461,2129.819,1176.077,2128.438z"/>
</g>
<path style="fill:#756C65;" d="M1632.866,984.342h-167.903c-16.656,0-32.119,12.337-44.919,33.435
	c-0.774-0.019-1.546-0.041-2.318-0.067c-30.026-0.923-59.239-7.639-83.753-26.276c-26.108-19.896-38.616-52.692-46.787-84.48
	c-14.112-54.913-18.667-110.671-19.992-166.779c23.847-9.247,37.735-20.33,37.735-32.247V584.89
	c0-23.234-52.788-43.305-129.285-52.761V393.745c-0.198-0.112-0.398-0.225-0.602-0.34c-5.355-3.013-12.901-6.908-22.299-10.756
	v147.036c-23.797-2.156-49.404-3.331-76.082-3.331c-13.111,0-25.964,0.285-38.471,0.829V371.382
	c-1.095,0.215-2.176,0.438-3.249,0.668c-25.319,5.412-44.442,14.587-55.426,20.665c-0.074,0.041-0.148,0.081-0.222,0.123
	c-0.109,0.06-0.215,0.119-0.321,0.178c-0.158,0.089-0.315,0.176-0.469,0.263c-0.041,0.022-0.08,0.045-0.12,0.066
	c-0.239,0.135-0.476,0.268-0.707,0.399v138.385c-76.498,9.455-129.285,29.526-129.285,52.761v123.039
	c0,11.936,13.932,23.036,37.851,32.291c-0.402-4.187-0.851-8.342-1.338-12.457c-0.692-5.863-1.458-11.642-2.267-17.305
	c2.649-0.843,5.354-1.688,8.11-2.529c18.357-5.603,39.093-11.092,61.987-15.716c27.059-5.513,57.141-9.849,89.825-11.865
	c1.148-0.056,2.295-0.139,3.47-0.195c46.34-2.63,88.649-0.112,125.756,4.953l0.812,0.113c3.541,7.541,6.997,15.103,10.348,22.711
	c5.767,13.096,11.214,26.329,16.2,39.838c0.587,1.589,1.168,3.181,1.742,4.778c0.509,1.416,1.013,2.83,1.514,4.245
	c26.228,74.01,41.725,146.944,37.55,225.886c-2.966,56.358-9.206,113.163-28.29,166.247c-15.755,43.794-46.48,104.153-90.19,126.455
	c-45.024,22.974-99.003,12.285-145.287,0.391c-8.674-2.21-18.805-2.966-25.912,2.127c10.829-3.162,23.841,0.336,38.421,9.626
	c15.503,9.906,27.618,24.234,41.918,35.762c48.495,39.065,118.172,42.031,177.915,24.569c50.76-14.831,118.76-43.374,171.731-29.074
	c15.04,4.078,25.459,14.038,39.763,18.624c12.803,21.123,28.278,33.476,44.943,33.476h167.903
	c44.115,0,79.879-86.529,79.879-193.268C1712.745,1070.871,1676.981,984.342,1632.866,984.342z"/>
<path style="fill:#9B8F87;" d="M1038.191,371.382c-1.095,0.215-2.176,0.438-3.249,0.668c-25.319,5.412-44.442,14.587-55.426,20.665
	c-0.074,0.041-0.148,0.081-0.222,0.123c-0.109,0.06-0.215,0.119-0.321,0.178c-0.158,0.089-0.315,0.176-0.469,0.263
	c-0.041,0.022-0.08,0.045-0.12,0.066c-0.239,0.135-0.476,0.268-0.707,0.399v138.385c18.873-2.333,39.191-4.018,60.514-4.946V371.382
	z"/>
<path style="fill:#9B8F87;" d="M830.876,1295.408c1.891-8.898,3.318-17.888,4.45-26.714c5.108-39.858,6.587-80.182,4.414-120.307
	c-2.07-38.213-7.955-77.653-28.762-109.771c-46.526-71.817-113.322-39.661-162.347,6.365c-6.803,6.387-13.264,13.042-19.282,19.722
	c-53.765,59.695-69.963,124.888-82.475,201.448c-2.51,15.355-3.428,30.289-2.329,44.305
	c46.003-12.745,111.326-20.706,183.792-20.706C764.85,1289.751,799.548,1291.772,830.876,1295.408z"/>
<path style="fill:#443E39;" d="M1447.976,1016.982l1.4,0.028c5.344,0.249,10.506,1.269,15.587,4.066
	c1.197,0.659,2.389,1.416,3.58,2.286c11.054,8.06,17.966,21.967,23.198,34.195c30.223,70.77,23.618,158.3,4.086,231.14
	c-3.665,13.599-8.339,27.423-17.628,38.001c-4.139,4.706-8.557,7.895-13.235,10.003c-8.208,3.699-17.208,4.07-26.878,3.477
	c7.637,8.621,16.012,13.382,24.795,13.382c0.697,0,1.39-0.034,2.082-0.093c34.774-2.989,62.628-80.577,62.628-175.857
	c0-95.279-27.854-172.867-62.628-175.856c-0.692-0.06-1.385-0.093-2.082-0.093c-9.563,0-18.64,5.643-26.81,15.766
	C1440.15,1017.163,1444.106,1016.89,1447.976,1016.982z"/>
<path style="fill:#443E39;" d="M1284.474,709.455c0-0.511-0.04-1.018-0.11-1.526c-3.53-25.482-95.169-45.894-207.703-45.894
	c-112.535,0-204.173,20.412-207.705,45.894c-0.07,0.508-0.109,1.015-0.109,1.526c0,6.491,5.717,12.676,16.058,18.308
	c-0.692-5.863-1.458-11.642-2.267-17.305c2.649-0.843,5.354-1.688,8.11-2.529c18.357-5.603,39.093-11.092,61.987-15.716
	c27.059-5.513,57.141-9.849,89.825-11.865c1.148-0.056,2.295-0.139,3.47-0.195c46.34-2.63,88.649-0.112,125.756,4.953l0.812,0.113
	c36.881,5.064,68.642,12.591,94.135,19.952c0.005,0.92,0.01,1.84,0.014,2.759c0.04,6.872,0.109,13.741,0.22,20.605
	C1278.222,722.696,1284.474,716.242,1284.474,709.455z"/>
<path style="fill:#5B544E;" d="M914.875,1526.275c27.087-8.769,43.063-19.46,43.063-31.05c0-0.577-0.041-1.151-0.119-1.723
	c-1.499-10.928-17.204-20.996-42.944-29.328V1526.275z"/>
<path style="fill:#443E39;" d="M544.063,1463.512c0.518-0.161,1.043-0.321,1.568-0.481c25.644-7.799,60.362-13.917,100.493-17.494
	v-0.018c-73.443,6.529-128.737,21.55-143.489,39.877c-0.094,0.117-0.185,0.234-0.277,0.351c-0.035,0.046-0.071,0.091-0.106,0.136
	c-1.896,2.484-3.047,5.027-3.4,7.618c-0.078,0.568-0.119,1.139-0.119,1.712c0,7.71,7.079,15.035,19.807,21.65
	c0.162,0.084,0.323,0.167,0.485,0.252c0.004,0.002,0.01,0.004,0.015,0.007c6.827,3.497,15.239,6.792,25.022,9.836V1463.512z"/>
<path style="fill:#7C736C;" d="M1175.644,393.745c-0.198-0.112-0.398-0.225-0.602-0.34c-5.355-3.013-12.901-6.908-22.299-10.756
	v147.036c7.838,0.711,15.482,1.528,22.901,2.444V393.745z"/>
<path style="fill:#7C736C;" d="M1438.085,1340.178c9.67,0.593,18.67,0.222,26.878-3.477c4.678-2.108,9.096-5.297,13.235-10.003
	c9.29-10.578,13.964-24.402,17.628-38.001c19.532-72.84,26.137-160.37-4.086-231.14c-5.232-12.228-12.144-26.135-23.198-34.195
	c-1.19-0.87-2.383-1.627-3.58-2.286c-5.081-2.797-10.244-3.817-15.587-4.066l-1.4-0.028c-3.903,0.017-7.897,0.332-12.015,0.583
	c-2.79,0.171-5.636,0.313-8.552,0.313c-0.533,0-1.035,0-1.567-0.028h-0.448c-1.794,0-3.574-0.029-5.349-0.074
	c-0.774-0.019-1.546-0.041-2.318-0.067c-30.026-0.923-59.239-7.639-83.753-26.276c-26.108-19.896-38.616-52.692-46.787-84.48
	c-14.112-54.913-18.667-110.671-19.992-166.779c-0.092-3.878-0.166-7.759-0.229-11.642c-0.112-6.864-0.181-13.733-0.22-20.605
	c-0.004-0.92-0.01-1.84-0.014-2.759c-25.493-7.36-57.254-14.887-94.135-19.952c3.541,7.541,6.997,15.103,10.348,22.711
	c5.767,13.096,11.214,26.329,16.2,39.838c0.587,1.589,1.168,3.181,1.742,4.778c0.509,1.416,1.013,2.83,1.514,4.245
	c26.228,74.01,41.725,146.944,37.55,225.886c-2.966,56.358-9.206,113.163-28.29,166.247c-15.755,43.794-46.48,104.153-90.19,126.455
	c-45.024,22.974-99.003,12.285-145.287,0.391c-8.674-2.21-18.805-2.966-25.912,2.127c10.829-3.162,23.841,0.336,38.421,9.626
	c15.503,9.906,27.618,24.234,41.918,35.762c48.495,39.065,118.172,42.031,177.915,24.569c50.76-14.831,118.76-43.374,171.731-29.074
	c15.04,4.078,25.459,14.038,39.763,18.624c3.263,1.047,6.727,1.813,10.495,2.167
	C1433.082,1339.809,1435.605,1340.025,1438.085,1340.178z"/>
<path style="fill:#9B8F87;" d="M990.46,912.396c32.311-39.279,48.553-89.721,54.969-140.176c0.263-2.069,0.505-4.167,0.703-6.277
	c0.297-3.175,0.492-6.378,0.506-9.56c0.044-9.299-1.451-18.417-6.47-26.094c-9.642-14.753-29.188-19.384-46.812-19.48
	c-39.479-0.216-60.852,8.666-72.212,30.1c-1.464,2.76-2.76,5.729-3.909,8.913c-3.558,9.866-5.688,21.801-6.903,36.025
	c-4.659,54.569-28.419,107.27-68.377,145.099c-6.673,6.316-14.334,13.528-13.989,22.709c0.491,13.094,16.332,19.408,29.392,20.48
	C908.05,978.299,958.149,951.675,990.46,912.396z"/>
<path style="fill:#DC0C18;" d="M1460.966,242.47c-7.099-53.205-55.986-90.581-109.191-83.483
	c-8.663,1.156-16.897,3.438-24.598,6.648l-169.658,45.849c-24.947-17.037-54.692-26.563-82.858-26.156
	c-0.798,0.012-1.598,0.033-2.397,0.061c-0.119,0.004-0.238,0.007-0.358,0.012c-0.237,0.008-0.475,0.02-0.712,0.03
	c-0.271,0.012-0.541,0.022-0.812,0.036c-0.151,0.008-0.304,0.016-0.456,0.025c-0.362,0.019-0.724,0.039-1.087,0.062
	c-0.079,0.004-0.158,0.01-0.237,0.015c-11.872,0.755-23.929,3.232-35.677,7.257c-0.118,0.041-0.238,0.083-0.358,0.124
	c-0.289,0.099-0.576,0.199-0.865,0.301l0.001,0.001c-34.122,11.992-65.546,36.936-82.312,70.38l-24.445,1.507l-147.246,9.039
	c-8.311-0.56-16.846-0.084-25.408,1.567c-52.692,10.298-87.055,61.339-76.786,114.03c10.298,52.664,61.339,87.055,114.003,76.757
	c8.591-1.679,16.678-4.449,24.177-8.115l137.339-46.144l21.534-7.231c1.661,1.825,3.369,3.608,5.116,5.35v-16.646
	c0.23-0.131,0.467-0.264,0.707-0.399c0.04-0.022,0.079-0.045,0.12-0.066c0.154-0.088,0.311-0.175,0.469-0.263
	c0.106-0.059,0.213-0.118,0.321-0.178c0.074-0.041,0.148-0.082,0.222-0.123c10.991-6.084,30.105-15.292,55.455-20.703
	c12.583-2.685,26.699-4.437,42.123-4.404c13.391,0.028,25.788,1.398,37.042,3.549c28.413,5.43,49.526,15.84,60.908,22.248
	c0.204,0.115,0.404,0.228,0.602,0.34v16.643c16.363-16.307,29.074-36.329,35.76-58.502l140.598-0.191
	c8.273,1.078,16.818,1.121,25.482-0.035C1430.689,344.562,1468.065,295.675,1460.966,242.47z"/>
<path style="fill:#B21110;" d="M936.864,310.697c0.892-17.005,5.379-32.809,12.527-47.067l-24.445,1.507
	c-5.597,13.712-9.038,28.515-9.878,44.185c-2.043,38.616,12.369,74.518,35.958,102.949l21.534-7.231
	C949.472,379.69,934.984,346.531,936.864,310.697z"/>
<path style="fill:#E52033;" d="M752.567,288.007c-45.112,1.69-70.014,54.165-68.347,93.946c0.527,12.582,3.745,25.849,12.899,34.497
	c9.155,8.647,25.491,10.364,33.829,0.928c2.664-3.014,4.279-6.793,5.765-10.53c5.756-14.496,10.33-29.721,19.283-42.493
	c11.578-16.518,34.982-33.137,29.115-56.328C781.304,292.981,766.929,287.469,752.567,288.007z"/>
<path style="fill:#C21013;" d="M1211.394,351.886l-48.009,0.064l-0.688,0.002c-13.968,1.864-27.515-0.591-39.304-6.327
	c-20.122-9.793-35.113-29.16-38.294-53.003c-2.579-19.323,3.099-37.845,14.313-52.011c9.79-12.367,23.8-21.414,40.222-24.778
	c1.575-0.323,3.174-0.594,4.793-0.811l13.08-3.535c-24.944-17.034-54.685-26.558-82.853-26.157
	c-0.797,0.011-1.593,0.031-2.391,0.058c-0.119,0.004-0.238,0.007-0.358,0.012c-0.237,0.008-0.475,0.02-0.712,0.03
	c-0.271,0.012-0.541,0.022-0.812,0.036c-0.151,0.008-0.304,0.016-0.456,0.025c-0.362,0.019-0.724,0.039-1.087,0.062
	c-0.079,0.004-0.158,0.01-0.237,0.015c-11.872,0.755-23.929,3.232-35.677,7.257c-0.118,0.041-0.238,0.083-0.358,0.124
	c-0.289,0.099-0.576,0.199-0.865,0.301l0.001,0.001c22.349,7.803,43.475,21.105,60.12,38.664c-0.137,0.147-0.279,0.292-0.415,0.44
	c-12.112,13.13-19.182,30.799-19.471,48.659c-0.353,21.874,10.398,46.665,27.394,60.625c6.809,5.593,14.201,9.404,21.918,11.656
	c-1.928,6.133-4.317,12.1-7.114,17.863c28.413,5.43,49.526,15.84,60.908,22.248c0.204,0.115,0.404,0.228,0.602,0.34v16.641
	C1192.002,394.078,1204.709,374.056,1211.394,351.886z"/>
<path style="fill:#B21110;" d="M1163.385,351.949l-0.688,0.002c-13.968,1.864-27.515-0.591-39.304-6.327
	c-20.122-9.793-35.113-29.16-38.294-53.003c-2.579-19.323,3.099-37.845,14.313-52.011c9.79-12.367,23.8-21.414,40.222-24.778
	c-5.475-1.51-11.392-1.937-17.775-0.947c-7.582,1.175-14.665,4.44-20.906,8.954c-3.297,2.384-6.354,5.118-9.131,8.075
	c-0.137,0.147-0.279,0.292-0.415,0.44c-12.112,13.13-19.182,30.799-19.471,48.659c-0.353,21.874,10.398,46.665,27.394,60.625
	c6.809,5.593,14.201,9.404,21.918,11.656C1134.758,357.236,1149.264,356.395,1163.385,351.949z"/>
<path style="fill:#E52033;" d="M1342.176,329.47c10.188,11.653,27.801,13.71,43.001,10.784c22.63-4.357,43.269-18.242,55.835-37.563
	c14.622-22.481,22.743-65.15,2.059-86.986c-23.754-25.074-43.403,15.876-50.354,33.707c-7.807,20.025-21.594,37.674-39.135,50.094
	c-7.569,5.36-16.92,11.896-15.827,21.106C1338.15,323.939,1339.971,326.947,1342.176,329.47z"/>
<path style="fill:#E52033;" d="M981.209,381.107c9.617-5.399,8.408-25.061,5.507-33.858c-9.038-27.403-1.751-57.793,11.152-83.605
	c0.006-0.013,0.012-0.027,0.019-0.04c6.734-13.461,15.209-27.179,14.348-42.206c-0.122-2.134-0.577-4.501-2.319-5.738
	c-1.29-0.917-2.996-0.984-4.572-0.819c-8.349,0.874-16.173,5.963-23.207,13.317c-8.901,9.303-16.541,22.232-22.393,34.833
	c-5.379,11.58-9.252,22.884-11.205,30.844c-6.268,25.537-3.758,53.805,10.118,76.14
	C963.561,377.866,973.108,385.653,981.209,381.107z"/>
<g>
	<path style="fill:#008AC0;" d="M322.167,2057.438c-6.592,1.773-11.546,7.258-13.777,13.665c9.449-0.022,17.526-2.729,22.099-11.253
		c1.802-3.423,2.582-7.147,4.445-10.45c3.063-5.466,39.701-17.958,42.283-12.793c-7.388-14.654-14.355-32.853-2.763-45.105
		c4.144-4.384,10.03-7.207,16.097-9.369c14.115-5.165,29.79-7.207,45.225-6.006c3.844-9.97,7.868-20.119,15.495-28.349
		c7.628-8.228,19.76-14.234,32.072-12.852c11.653,1.321,29.79,14.475,32.252,24.565c-2.199-14.98,11.018-30.194,28.468-32.949
		c0.18-0.029,0.361-0.058,0.542-0.084c6.561-0.912,13.31,0.006,19.418,2.278v-470.615c-6.53,1.553-12.703,3.187-18.391,4.912
		c-0.526,0.16-1.051,0.32-1.568,0.481v369.694c-1.547,1.76-2.922,3.67-4.085,5.626c-5.11,8.594-7.86,18.57-14.002,26.459
		c-7.845-2.116-9.782-11.214-15.783-14.187c-1.751-0.869-17.766-2.208-14.281,3.84c-3.606-6.258-10.866-10.409-18.054-9.723
		c-7.19,0.687-13.741,6.538-14.655,13.703c-7.095-5.223-17.23-10.43-23.911-4.687c-6.792,5.838-2.909,16.83,1.434,24.663
		c-11.949-12.975-25.732-24.258-40.81-33.412c-9.415-5.716-19.641-10.694-30.619-11.605c-12.591-1.045-28.479,4.606-31.241,18.504
		c-1.295,6.514,0.897,13.618,5.636,18.271c4.593,4.51,11.026,6.543,17.281,8.066c11.006,2.681,22.333,4.268,32.934,8.267
		c10.599,3.998,20.71,10.87,25.552,21.112c-3.845-4.267-8.59-7.99-14.177-9.326c-5.586-1.336-12.096,0.16-15.601,4.711
		c-3.505,4.55-2.771,12.17,2.18,15.08c-7.622-3.289-17.051,2.208-19.791,10.045c-2.679,7.661-0.017,16.065,4.434,22.495
		c-5.152-2.566-11.612-4.854-17.273-2.591c-4.16,1.663-7.464,4.917-10.438,8.268c-3.445,3.881-6.704,8.183-7.862,13.242
		c-2.145,9.378,3.308,18.643,8.529,26.723c-17.896-3.392-34.707-4.882-43.753,14.496
		C298.041,2027.668,305.843,2049.564,322.167,2057.438z"/>
	<path style="fill:#008AC0;" d="M754.709,1720.261h24.838v186.593c8.182-9.118,18.398-9.675,29.263-12.049
		c-2.034-11.134-7.788-22.791,1.058-31.872v-198.294c5.311-6.641,8.49-15.061,8.49-24.225c0-9.164-3.179-17.585-8.49-24.225V1445.5
		c-24.147-2.126-50.214-3.35-77.457-3.46v471.594c7.118,1.364,15.416,4.032,22.298,7.349V1720.261z"/>
	<path style="fill:#008AC0;" d="M594.333,1934.205c3.014-2.906,6.774-4.862,11.472-4.986c12.613-0.361,19.34,12.252,22.704,22.583
		c0.391-0.959,0.783-1.922,1.185-2.885v-124.643c6.946-2.385,12.763-7.203,16.431-13.437v115.796
		c4.332-2.674,9.428-4.352,14.756-4.202c1.422,0.034,2.815,0.198,4.174,0.47v-478.788c-6.426,0.43-12.741,0.92-18.93,1.47
		c-18.535,1.646-35.935,3.823-51.792,6.476v326.333c-3.244,4.853-5.137,10.687-5.137,16.964c0,6.277,1.893,12.111,5.137,16.964
		V1934.205z M629.694,1766.439v-212.47h16.431v225.908C642.456,1773.643,636.64,1768.825,629.694,1766.439z"/>
	<path style="fill:#008AC0;" d="M704.41,1661.529h-12.418v286.95c2.292-8.53,6.485-17.769,12.418-24.823V1661.529z"/>
	<path style="fill:#008AC0;" d="M1153.555,2154.265c-46.007,1.441-92.313-11.953-130.451-37.718
		c0,15.197-20.906,29.663-35.099,21.531c-8.839-5.065-13.98-39.534-0.607-39.739c-9.606,0.147-18.4-8.723-18.172-18.327
		c-11.717,3.722-17.171,20.673-29.464,20.636c-7.436-0.022-13.237-6.878-15.422-13.984c-2.186-7.106-1.854-14.729-3.203-22.039
		c-0.957-5.184-3.004-10.422-6.261-14.491c-2.036-2.543-4.543-4.63-7.558-5.959c-3.057-1.348-6.617-1.516-9.888-0.716
		c-5.116,1.25-9.526,4.87-10.197,10.051c-0.835-5.243-3.084-10.455-6.641-14.312c-1.825-1.98-3.994-3.603-6.494-4.687
		c-7.37-3.197-17.48-0.059-20.086,7.541c-2.718,7.931,2.536,18.448-3.561,24.203c12.207,5.012,19.543,19.664,16.245,32.441
		c-3.297,12.764-16.787,22.026-29.883,20.524l-0.037-0.004c-2.605,10.157-12.458,17.983-22.941,18.224
		c-1.331,0.031-2.658-0.063-3.965-0.268c-8.992-1.405-17.108-8.129-19.788-16.882c-0.941,6.746-4.973,13.012-10.533,16.838
		c-3.208,2.208-6.926,3.604-10.852,3.809c-5.091,0.266-10.144-1.746-13.985-5.077c-4.25-3.688-7.018-8.993-6.706-14.627
		c-1.853,7.281-8.285,11.918-15.592,13.406c-7.039,1.434-14.891-0.052-20.252-4.916c-3.937-3.572-6.475-8.22-7.748-13.291
		c-1.321-5.271-1.273-10.998,0-16.445c0.9-3.855,2.414-7.569,4.489-10.884c-1.112-2.268-2.652-4.249-4.489-5.917
		c-3.401-3.091-7.818-5.099-12.418-5.826c-5.824-0.92-11.941,0.213-16.661,3.8c-9.822,7.464-11.028,23.601-3.014,32.773
		c-2.115-1.919-4.594-3.413-7.262-4.444c-6.055-2.341-13.066-2.308-18.93,0.495c-0.209,0.099-0.416,0.198-0.621,0.303
		c-6.851,3.555-11.494,10.77-12.448,18.39c-0.651-2.789-1.808-5.472-3.362-7.888c-4.119-6.406-11.021-10.927-18.63-10.538
		c-19.999,1.024-11.273,18.38-16.429,28.043c-0.099,0.187-0.2,0.369-0.302,0.548c-5.56,9.792-13.779,7.482-26.973,4.959
		c-1.114-0.213-2.226-0.445-3.338-0.691c-6.68-1.479-13.318-3.517-19.959-5.629c-18.513-5.886-37.048-12.339-56.578-8.807
		c-21.921,3.964-42.821,20.48-64.263,14.234c-14.931-4.404-24.048-18.335-35.049-29.693c-4.001-4.13-8.25-7.921-13.119-10.787
		c-9.388-5.503-20.219-7.107-31.215-6.645c-1.282,0.055-2.566,0.136-3.85,0.244c-2.576,0.215-5.153,0.53-7.715,0.925
		c-3.501,0.539-6.972,1.223-10.374,1.993c-10.75,2.401-21.321,5.525-31.832,8.828c21.742,0.841,57.778,6.906,68.709,23.183
		c2.643,3.964,4.264,8.408,7.388,12.072c4.084,4.684,10.391,7.627,16.697,9.91c36.636,13.213,76.877,16.817,116.035,18.618
		c24.385,1.142,47.689,2.282,71.953,5.165c4.625,0.541,10.33,1.863,11.23,5.766c0.361,1.441-0.12,2.883-0.24,4.325
		c-2.883,32.553,86.306,26.127,105.886,26.486c33.934,0.721,67.688-2.162,101.261-5.165c66.908-6.006,132.253-9.129,199.4-4.024
		c21.441,1.621,46.366,2.101,60.12-11.713c7.448-7.447,10.031-17.957,18.439-24.624c9.61-7.628,24.085-8.348,37.358-8.648
		c17.116-0.421,34.294-0.781,51.412-1.202c7.568-0.181,15.435-0.42,22.102-3.063
		C1169.83,2153.844,1161.242,2154.023,1153.555,2154.265z"/>
	<path style="fill:#008AC0;" d="M526.564,2002.181c3.753-26.294-42.315-56.038-64.411-43.23
		c-9.463,5.485-15.335,15.476-19.939,25.399c-3.55,7.652-6.648,16.327-4.086,24.365c2.565,8.037,13.41,13.547,19.813,8.053
		c3.835-3.291,4.572-8.92,7.445-13.078c4.036-5.842,11.96-8.004,18.978-6.919c7.018,1.085,13.309,4.861,19.148,8.901
		c5.662,3.917,13.196,8.25,18.826,4.288C524.821,2008.214,526.135,2005.186,526.564,2002.181z"/>
	<path style="fill:#008AC0;" d="M897.429,1889.109c-7.52,5.609-11.359,15.925-6.827,28.169c1.55,4.187,3.946,7.915,6.827,11.311
		c3.733,4.401,8.275,8.243,12.841,11.799c1.459,1.135,3,2.265,4.605,3.315c6.093,3.988,13.065,6.811,19.608,4.274
		c9.506-3.685,11.737-16.244,10.294-26.336c-1.729-12.09-7.036-24.21-16.907-31.404c-4.228-3.083-8.676-4.822-12.995-5.425
		C908.379,1883.907,902.172,1885.572,897.429,1889.109z"/>
	<path style="fill:#008AC0;" d="M511.742,2095.106c-3.488-1.536-7.579-2-11.444-1.937c-6.015,0.101-12.088,1.193-18.003,0.094
		c-5.865-1.091-11.109-4.254-16.717-6.293c-5.606-2.039-12.304-2.809-17.196,0.606c-4.272,2.982-5.942,8.177-6.805,13.474
		c-0.25,1.53-0.433,3.068-0.591,4.564c-0.54,5.117-18.513,2.939-9.757,15.443c5.512,7.871,12.594,3.03,18.608,1.072
		c7.175-2.335,10.74-8.285,19.469-9.888c11.893-2.184,26.96,1.35,38.979,2.2c2.138,0.151,4.356,0.291,6.355-0.479
		c5.615-2.161,6.205-10.702,2.219-15.209C515.436,2097.143,513.681,2095.96,511.742,2095.106z"/>
	<path style="fill:#008AC0;" d="M732.41,1991.945c1.178,0.153,2.436,0.264,3.785,0.325c6.181,0.283,12.331-1.004,18.514-1.158
		c0.417-0.011,0.833-0.016,1.25-0.015c8.314,0.014,16.591,2.509,23.588,6.991c2.133,1.366,4.148,2.915,6.008,4.637
		c2.096,1.942,4.06,4.13,6.639,5.361c7.339,3.501,16.755-3.539,16.881-11.671c0.125-8.13-7.246-15.112-15.297-16.258
		c-2.812-0.4-5.865-0.282-8.218-1.87c-2.678-1.808-3.603-5.23-4.836-8.217c-0.35-0.848-0.746-1.674-1.176-2.48
		c-4.839-9.071-14.563-15.422-24.838-16.064c-0.332-0.021-0.665-0.037-0.998-0.046c-7.046-0.185-14.839,3.206-21.3,8.102
		C717.949,1970.544,710.171,1989.059,732.41,1991.945z"/>
	<path style="fill:#008AC0;" d="M660.715,1983.416l-4.125,1.147c-4.115,4.353-8.096,9.458-10.465,14.929
		c-2.017,4.657-2.867,9.579-1.634,14.528c0.364,1.46,0.921,2.85,1.634,4.151c3.618,6.599,11.315,10.915,18.93,10.595
		c0.309-0.013,0.618-0.032,0.926-0.061c9.409-0.866,17.617-8.354,20.126-17.463c2.509-9.11-0.395-19.31-6.719-26.33
		c-2.479-2.751-5.604-5.133-9.254-5.76c-1.682-0.289-3.477-0.115-5.079,0.482C663.18,1980.332,661.569,1981.611,660.715,1983.416z"
		/>
	<path style="fill:#008AC0;" d="M1007.097,2024.158c2.187,9.217,8.481,18.052,17.616,20.558
		c21.493,5.894,26.524-20.654,17.816-34.125C1027.958,1988.046,1000.377,1995.852,1007.097,2024.158z"/>
	<path style="fill:#008AC0;" d="M365.879,1729.71c41.512,9.067,79.186,22.189,100.333,62.609c2.638-15.834,4.128-32.036,1.87-47.929
		c-1.598-11.25-5.45-22.627-11.066-33.093c-7.107-13.243-17.039-25.026-28.804-33.249c-19.382-13.548-57.989-28.28-80.298-14.762
		c-11.884,7.202-18.792,21.253-15.882,34.946C335.566,1714.864,349.815,1726.201,365.879,1729.71z"/>
	<path style="fill:#008AC0;" d="M1060.723,1782.915c16.064-3.508,30.311-14.846,33.846-31.478
		c2.909-13.692-3.999-27.743-15.884-34.945c-22.308-13.519-60.914,1.214-80.298,14.762c-11.763,8.222-21.695,20.006-28.802,33.249
		c-5.617,10.466-9.469,21.842-11.067,33.093c-2.256,15.892-0.768,32.095,1.871,47.929
		C981.536,1805.105,1019.209,1791.982,1060.723,1782.915z"/>
	<path style="fill:#008AC0;" d="M1284.715,2008.017c-12.273-23.016-52.989-30.071-76.572-28.323
		c-14.314,1.06-28.871,6.117-41.745,13.872c-10.174,6.128-19.297,13.941-26.417,22.797c-10.059,12.511-17.054,27.201-22.873,42.161
		c38.826-23.947,77.916-15.985,118.237-2.576c15.602,5.189,33.641,2.72,45.176-9.774
		C1290.016,2035.888,1291.254,2020.28,1284.715,2008.017z"/>
	<path style="fill:#008AC0;" d="M830.173,1553.61c1.645,3.86,3.897,7.399,6.637,10.496v292.252c4.716,1.073,9.297,3.039,13.32,5.653
		c10.751,7.028,18.318,17.899,25.645,28.469c-0.472-6.142,1.407-12.134,4.815-17.201V1574.34c6.788-2.78,12.614-7.426,16.839-13.302
		v299.534c0.723-0.229,1.453-0.432,2.191-0.604c5.036-1.17,10.227-1.121,15.255-0.082v-395.714
		c-5.379-1.728-11.226-3.374-17.446-4.939v56.549c-4.224-5.876-10.05-10.523-16.839-13.302v-47.073
		c-13.31-2.728-27.983-5.112-43.78-7.074v64.382c-6.052,6.844-9.727,15.84-9.727,25.695c0,1.634,0.102,3.245,0.298,4.827
		C827.832,1546.874,828.788,1550.356,830.173,1553.61z"/>
</g>
<path style="fill:#5694C3;" d="M394.43,1727.921c6.229,1.612,13.442,2.496,18.581-1.377c0.902-0.681,1.746-1.558,1.976-2.665
	c0.192-0.918-0.063-1.865-0.355-2.755c-4.628-14.08-34.609-40.839-50.939-31.186c-7.767,4.592-5.117,14.542-0.959,20.856
	C369.433,1720.972,383.249,1725.027,394.43,1727.921z"/>
<path style="fill:#5694C3;" d="M369.831,1679.873c4.611,2.363,12.344,0.972,17.079-0.412c1.397-0.408,2.815-0.932,3.863-1.942
	c2.743-2.641,1.648-7.611-1.299-10.021c-2.947-2.411-7.009-2.866-10.817-2.889c-4.012-0.025-8.397,0.483-11.225,3.326
	C364.041,1671.344,365.742,1677.777,369.831,1679.873z"/>
<path style="fill:#5694C3;" d="M1062.908,1743.144c-16.33-9.652-46.31,17.106-50.938,31.187c-0.293,0.89-0.547,1.837-0.355,2.754
	c0.23,1.107,1.073,1.984,1.976,2.665c5.138,3.873,12.352,2.989,18.581,1.377c11.179-2.894,24.997-6.949,31.697-17.127
	C1068.026,1757.686,1070.676,1747.735,1062.908,1743.144z"/>
<path style="fill:#5694C3;" d="M1039.691,1732.666c4.734,1.383,12.467,2.776,17.078,0.412c4.09-2.096,5.79-8.529,2.4-11.937
	c-2.829-2.844-7.215-3.351-11.225-3.326c-3.807,0.023-7.87,0.479-10.817,2.889c-2.947,2.411-4.042,7.38-1.299,10.021
	C1036.876,1731.734,1038.294,1732.258,1039.691,1732.666z"/>
<path style="fill:#5694C3;" d="M1197.817,2023.664c-0.706,0.616-1.408,1.3-1.712,2.187c-0.368,1.07-0.092,2.255,0.337,3.301
	c2.439,5.953,9.091,8.878,15.27,10.674c11.089,3.222,25.04,6.794,35.998,1.467c6.798-3.305,14.16-10.506,9.828-18.42
	C1248.43,2006.232,1208.988,2013.922,1197.817,2023.664z"/>
<path style="fill:#5694C3;" d="M1257.611,1993.452c-3.286-1.925-7.01-3.608-10.774-3.042c-3.765,0.567-7.245,4.281-6.236,7.952
	c0.386,1.404,1.337,2.578,2.33,3.643c3.362,3.608,9.3,8.754,14.472,9.078c4.585,0.287,9.333-4.375,8.16-9.037
	C1264.583,1998.156,1261.072,1995.48,1257.611,1993.452z"/>
<path style="fill:#009ED1;" d="M779.546,1601.602c-21.436,0-38.813,17.377-38.813,38.812c0,21.435,17.376,38.812,38.813,38.812
	c12.271,0,23.209-5.697,30.321-14.587c5.311-6.641,8.49-15.061,8.49-24.225c0-9.164-3.179-17.585-8.49-24.225
	C802.755,1607.299,791.817,1601.602,779.546,1601.602z"/>
<path style="fill:#009ED1;" d="M880.591,1502.481c-4.533-1.856-9.494-2.882-14.697-2.882c-11.579,0-21.972,5.074-29.084,13.116
	c-6.052,6.844-9.727,15.84-9.727,25.695c0,1.634,0.102,3.245,0.298,4.827c0.451,3.637,1.407,7.119,2.792,10.373
	c1.645,3.86,3.897,7.399,6.637,10.496c7.111,8.043,17.504,13.116,29.084,13.116c5.203,0,10.164-1.026,14.697-2.882
	c6.788-2.78,12.614-7.426,16.839-13.302c4.205-5.85,6.824-12.917,7.223-20.571c0.036-0.681,0.055-1.367,0.055-2.057
	c0-3.037-0.35-5.992-1.009-8.828c-1.175-5.05-3.337-9.721-6.268-13.799C893.205,1509.907,887.379,1505.26,880.591,1502.481z"/>
<path style="fill:#009ED1;" d="M646.125,1779.877c-3.669-6.234-9.485-11.052-16.431-13.438c-3.115-1.069-6.454-1.651-9.93-1.651
	c-10.606,0-19.949,5.402-25.43,13.604c-3.244,4.853-5.137,10.687-5.137,16.964c0,6.277,1.893,12.111,5.137,16.964
	c5.481,8.202,14.824,13.603,25.43,13.603c3.477,0,6.816-0.581,9.93-1.651c6.946-2.385,12.763-7.203,16.431-13.437
	c2.672-4.54,4.206-9.831,4.206-15.48C650.331,1789.708,648.797,1784.417,646.125,1779.877z"/>
<path style="fill:#009ED1;" d="M621.74,1531.988c10.624,0,19.837-6.046,24.385-14.885c1.931-3.754,3.021-8.011,3.021-12.522
	c0-3.943-0.834-7.692-2.334-11.079c-0.216-0.489-0.444-0.969-0.688-1.442c-4.548-8.839-13.761-14.885-24.385-14.885
	c-11.193,0-20.817,6.711-25.072,16.328c-1.499,3.387-2.334,7.136-2.334,11.079C594.333,1519.717,606.603,1531.988,621.74,1531.988z"
	/>
</svg>
